<?xml version="1.0" encoding="utf-8"?>
<!-- Generator: Adobe Illustrator 25.2.1, SVG Export Plug-In . SVG Version: 6.00 Build 0)  -->
<svg version="1.1" id="Layer_1" xmlns="http://www.w3.org/2000/svg" xmlns:xlink="http://www.w3.org/1999/xlink" x="0px" y="0px"
	 viewBox="0 0 400 97.6" style="enable-background:new 0 0 400 97.6;" xml:space="preserve">
<style type="text/css">
	.st0{fill:#A91C2B;}
	.st1{fill-rule:evenodd;clip-rule:evenodd;fill:#A91C2B;}
	.st2{fill-rule:evenodd;clip-rule:evenodd;}
</style>
<g>
	<g id="Hochschule">
		<polygon class="st0" points="40.7,88.4 39.5,88.4 39.5,92.4 34.3,92.4 34.3,88.4 33,88.4 33,97.6 34.3,97.6 34.3,93.6 39.5,93.6 
			39.5,97.6 40.7,97.6 		"/>
		<path class="st1" d="M44.7,93c0,2.5,1.9,4.6,4.8,4.6c3.1,0,5-2.3,5-4.6c0-2.5-1.9-4.6-5-4.6C46.6,88.2,44.7,90.5,44.7,93L44.7,93z
			 M46,93c0-2.1,1.5-3.6,3.6-3.6s3.6,1.5,3.6,3.6s-1.5,3.6-3.6,3.6C47.4,96.3,46,94.9,46,93L46,93z"/>
		<path class="st1" d="M66,89c-1.3-0.4-2.1-0.8-3.1-0.8c-2.9,0-5,2.1-5,4.8c0,1.9,1.5,4.6,5,4.6c1.5,0,2.3-0.4,3.3-0.8v-1.5
			c-1,0.6-2.1,1-3.1,1c-2.1,0-3.8-1.5-3.8-3.6s1.5-3.6,3.6-3.6c1,0,2.1,0.2,3.1,1L66,89L66,89z"/>
		<polygon class="st0" points="77.7,88.4 76.4,88.4 76.4,92.4 71.2,92.4 71.2,88.4 70,88.4 70,97.6 71.2,97.6 71.2,93.6 76.4,93.6 
			76.4,97.6 77.7,97.6 		"/>
		<path class="st1" d="M86.3,88.8c-0.6-0.4-1.3-0.6-2.1-0.6c-1.7,0-2.7,1-2.7,2.5c0,2.5,4,2.7,4,4.6c0,0.4-0.4,1-1.5,1
			c-0.8,0-1.7-0.4-2.5-1.3v1.7c0.8,0.6,1.7,0.8,2.5,0.8c1.5,0,2.5-1,2.5-2.5c0-2.9-4-2.9-4-4.6c0-0.6,0.6-1,1.5-1
			c0.6,0,1.5,0.2,2.1,1v-1.7h0.2V88.8z"/>
		<path class="st1" d="M98.2,89c-1.3-0.4-2.1-0.8-3.1-0.8c-2.9,0-5,2.1-5,4.8c0,1.9,1.5,4.6,4.8,4.6c1.5,0,2.5-0.4,3.3-0.8v-1.5
			c-1,0.6-2.1,1-3.1,1c-2.1,0-3.8-1.5-3.8-3.6s1.5-3.6,3.6-3.6c1,0,2.1,0.2,3.1,1L98.2,89L98.2,89z"/>
		<polygon class="st0" points="109.9,88.4 108.6,88.4 108.6,92.4 103.4,92.4 103.4,88.4 102.1,88.4 102.1,97.6 103.4,97.6 
			103.4,93.6 108.6,93.6 108.6,97.6 109.9,97.6 		"/>
		<path class="st0" d="M121.8,88.4h-1.3v5.2c0,0.8,0,1.5-0.6,2.1c-0.4,0.4-1,0.6-2.1,0.6c-0.8,0-1.5-0.2-1.9-0.8
			c-0.4-0.4-0.6-0.8-0.6-1.9v-5.4H114V94c0,2.5,1.9,3.6,3.8,3.6c2.7,0,4-1.5,4-3.8V88.4L121.8,88.4z"/>
		<polygon class="st0" points="127.2,88.4 126,88.4 126,97.6 131.4,97.6 131.4,96.3 127.2,96.3 		"/>
		<polygon class="st0" points="139.9,88.4 134.7,88.4 134.7,97.6 139.9,97.6 139.9,96.3 136,96.3 136,93.4 139.7,93.4 139.7,92.4 
			136,92.4 136,89.6 139.9,89.6 		"/>
		<polygon class="st0" points="154.6,88.4 149.8,88.4 149.8,97.6 151,97.6 151,93.2 154.6,93.2 154.6,92.1 151,92.1 151,89.6 
			154.6,89.6 		"/>
		<path class="st1" d="M160.6,86.1c-0.4,0-0.6,0.2-0.6,0.6s0.2,0.6,0.6,0.6s0.6-0.2,0.6-0.6C161.3,86.5,161,86.1,160.6,86.1
			L160.6,86.1z M163.1,86.1c-0.4,0-0.6,0.2-0.6,0.6s0.2,0.6,0.6,0.6c0.4,0,0.6-0.2,0.6-0.6C163.8,86.5,163.6,86.1,163.1,86.1
			L163.1,86.1z M165.8,88.4h-1.3v5.2c0,0.8-0.2,1.5-0.6,2.1c-0.4,0.4-1,0.6-2.1,0.6c-0.8,0-1.5-0.2-1.9-0.8
			c-0.4-0.4-0.6-0.8-0.6-1.9v-5.4H158V94c0,2.5,1.9,3.6,3.8,3.6c2.7,0,4-1.5,4-3.8V88.4L165.8,88.4z"/>
		<path class="st1" d="M170,88.4v9.2h1.3v-4h0.6c0.6,0,1.3,0.2,2.5,2.1l1.3,1.9h1.7c-0.6-0.8-0.8-1.3-1.3-1.9
			c-0.6-1-1.3-2.1-2.1-2.5c1-0.4,1.5-1.3,1.5-2.3c0-1.7-1.3-2.5-2.9-2.5H170L170,88.4z M171.3,89.4h0.8c1.3,0,1.7,0.4,1.9,1.5
			c0,0.8-0.4,1.5-1.9,1.5h-0.8V89.4L171.3,89.4z"/>
		<path class="st1" d="M186.3,88.4v9.2h1.3v-4h0.6c0.6,0,1.3,0.2,2.5,2.1l1.3,1.9h1.7c-0.6-0.8-0.8-1.3-1.3-1.9
			c-0.6-1-1.3-2.1-2.1-2.5c1-0.4,1.5-1.3,1.5-2.3c0-1.7-1.3-2.5-2.9-2.5H186.3L186.3,88.4z M187.6,89.4h0.8c1.3,0,1.7,0.4,1.9,1.5
			c0,0.8-0.4,1.5-1.9,1.5h-0.8V89.4L187.6,89.4z"/>
		<polygon class="st0" points="201.8,88.4 196.6,88.4 196.6,97.6 202,97.6 202,96.3 198,96.3 198,93.4 201.6,93.4 201.6,92.4 
			198,92.4 198,89.6 201.8,89.6 		"/>
		<path class="st1" d="M213.3,89c-1.3-0.4-2.3-0.8-3.1-0.8c-2.9,0-5,2.1-5,4.8c0,1.9,1.5,4.6,4.8,4.6c1.5,0,2.5-0.4,3.3-0.8v-1.5
			c-1,0.6-2.1,1-3.1,1c-2.3,0-3.8-1.5-3.8-3.6s1.5-3.6,3.6-3.6c1,0,2.1,0.2,3.1,1v-1.3h0.2V89z"/>
		<polygon class="st0" points="225,88.4 223.7,88.4 223.7,92.4 218.7,92.4 218.7,88.4 217.2,88.4 217.2,97.6 218.7,97.6 218.7,93.6 
			223.7,93.6 223.7,97.6 225,97.6 		"/>
		<polygon class="st0" points="236.2,88.4 228.5,88.4 228.5,89.6 231.6,89.6 231.6,97.6 233.1,97.6 233.1,89.6 236.2,89.6 		"/>
		<path class="st1" d="M244,88.8c-0.6-0.4-1.3-0.6-2.1-0.6c-1.7,0-2.7,1-2.7,2.5c0,2.5,4,2.7,4,4.6c0,0.4-0.4,1-1.5,1
			c-0.8,0-1.7-0.4-2.5-1.3v1.7c0.8,0.6,1.7,0.8,2.5,0.8c1.5,0,2.5-1,2.5-2.5c0-2.9-4-2.9-4-4.6c0-0.6,0.6-1,1.5-1
			c0.6,0,1.5,0.2,2.1,1v-1.7h0.2V88.8z"/>
		<polygon class="st0" points="260.9,88.4 259.6,88.4 257.1,94.7 254.6,88.4 253.4,88.4 250.9,94.7 248.4,88.4 247.1,88.4 
			250.7,97.6 251.1,97.6 254,90.1 256.9,97.6 257.3,97.6 		"/>
		<polygon class="st0" points="265.5,88.4 264.2,88.4 264.2,97.6 265.5,97.6 		"/>
		<path class="st1" d="M274.3,88.8c-0.6-0.4-1.3-0.6-2.1-0.6c-1.7,0-2.7,1-2.7,2.5c0,2.5,4,2.7,4,4.6c0,0.4-0.4,1-1.5,1
			c-0.8,0-1.7-0.4-2.3-1.3v1.7c0.8,0.6,1.7,0.8,2.5,0.8c1.5,0,2.5-1,2.5-2.5c0-2.9-4-2.9-4-4.6c0-0.6,0.6-1,1.5-1
			c0.6,0,1.3,0.2,2.1,1V88.8L274.3,88.8z"/>
		<path class="st1" d="M282.6,88.8c-0.6-0.4-1.3-0.6-2.1-0.6c-1.7,0-2.7,1-2.7,2.5c0,2.5,4,2.7,4,4.6c0,0.4-0.4,1-1.5,1
			c-0.8,0-1.7-0.4-2.3-1.3v1.7c0.8,0.6,1.7,0.8,2.5,0.8c1.5,0,2.5-1,2.5-2.5c0-2.9-4-2.9-4-4.6c0-0.6,0.6-1,1.5-1
			c0.6,0,1.3,0.2,2.1,1V88.8L282.6,88.8z"/>
		<polygon class="st0" points="291.8,88.4 286.6,88.4 286.6,97.6 292,97.6 292,96.3 288,96.3 288,93.4 291.6,93.4 291.6,92.4 
			288,92.4 288,89.6 291.8,89.6 		"/>
		<polygon class="st0" points="304.1,88.4 302.9,88.4 302.9,95.5 296.6,88.4 295.6,88.4 295.6,97.6 296.8,97.6 296.8,90.5 
			302.9,97.6 304.1,97.6 		"/>
		<path class="st1" d="M312.7,88.8c-0.6-0.4-1.3-0.6-2.1-0.6c-1.7,0-2.7,1-2.7,2.5c0,2.5,4,2.7,4,4.6c0,0.4-0.4,1-1.5,1
			c-0.8,0-1.7-0.4-2.3-1.3v1.7c0.8,0.6,1.7,0.8,2.5,0.8c1.5,0,2.5-1,2.5-2.5c0-2.9-4-2.9-4-4.6c0-0.6,0.6-1,1.5-1
			c0.6,0,1.3,0.2,2.1,1V88.8L312.7,88.8z"/>
		<path class="st1" d="M324.4,89c-1.3-0.4-2.3-0.8-3.1-0.8c-2.9,0-5,2.1-5,4.8c0,1.9,1.5,4.6,5,4.6c1.5,0,2.3-0.4,3.3-0.8v-1.5
			c-1,0.6-2.1,1-3.1,1c-2.3,0-3.8-1.5-3.8-3.6s1.5-3.6,3.6-3.6c1,0,2.1,0.2,3.1,1V89L324.4,89z"/>
		<polygon class="st0" points="336.1,88.4 334.8,88.4 334.8,92.4 329.8,92.4 329.8,88.4 328.4,88.4 328.4,97.6 329.8,97.6 
			329.8,93.6 334.8,93.6 334.8,97.6 336.1,97.6 		"/>
		<path class="st1" d="M344.2,88.4h-0.8l-4,9.2h1.3l1.3-2.7h4l1.3,2.7h1.3L344.2,88.4L344.2,88.4z M343.8,90.3l1.5,3.3h-2.9
			L343.8,90.3L343.8,90.3z"/>
		<polygon class="st0" points="356.6,88.4 351.7,88.4 351.7,97.6 353,97.6 353,93.2 356.6,93.2 356.6,92.1 353,92.1 353,89.6 
			356.6,89.6 		"/>
		<polygon class="st0" points="367,88.4 359.5,88.4 359.5,89.6 362.6,89.6 362.6,97.6 363.9,97.6 363.9,89.6 367,89.6 		"/>
	</g>
	<g id="Bucerius">
		<path d="M141.6,62.1h-2.1v8.4c0,1.3-0.2,2.3-0.8,3.1c-0.6,0.6-1.7,1-3.3,1c-1.3,0-2.3-0.4-3.1-1.3c-0.6-0.6-0.8-1.3-0.8-2.9v-8.3
			h-2.1v9c0,4,2.9,5.6,5.8,5.6c4.2,0,6.3-2.3,6.3-5.8v-8.8H141.6z"/>
		<path class="st2" d="M160.2,62.9c-1-0.6-2.1-1-3.1-1c-2.5,0-4.4,1.5-4.4,3.8c0,4,6.1,4.2,6.1,7.1c0,0.8-0.6,1.9-2.3,1.9
			c-1.5,0-2.7-0.6-3.8-2.1v2.7c1.3,0.8,2.5,1.3,4,1.3c2.3,0,4-1.7,4-3.8c0-4.6-6.1-4.6-6.1-7.3c0-1,0.8-1.7,2.3-1.7
			c1,0,2.1,0.4,3.3,1.5V62.9L160.2,62.9z"/>
		<path class="st2" d="M279.5,62.9c-1-0.6-2.1-1-3.1-1c-2.5,0-4.4,1.5-4.4,3.8c0,4,6.1,4.2,6.1,7.1c0,0.8-0.8,1.9-2.3,1.9
			s-2.7-0.6-3.8-2.1v2.7c1.3,0.8,2.5,1.3,4,1.3c2.3,0,4-1.7,4-3.8c0-4.6-6.1-4.6-6.1-7.3c0-1,0.8-1.7,2.3-1.7c1,0,2.1,0.4,3.3,1.5
			V62.9L279.5,62.9z"/>
		<path d="M303.3,63.1c-1.9-0.8-3.3-1.3-4.8-1.3c-4.6,0-7.7,3.1-7.7,7.5c0,2.9,2.3,7.1,7.7,7.1c2.3,0,3.8-0.4,5.2-1.3v-2
			c-1.7,1-3.3,1.7-5,1.7c-3.3,0-5.8-2.3-5.8-5.4s2.5-5.4,5.6-5.4c1.7,0,3.1,0.4,5,1.5v-2.4H303.3z"/>
		<polygon points="327.1,62.1 325,62.1 325,68.3 317.1,68.3 317.1,62.1 315,62.1 315,76.5 317.1,76.5 317.1,70.2 325,70.2 325,76.5 
			327.1,76.5 		"/>
		<path class="st2" d="M338.6,69.4c0,3.8,2.9,7.3,7.5,7.3c4.8,0,7.7-3.6,7.7-7.3c0-4-2.9-7.3-7.7-7.3
			C341.5,62.1,338.6,65.4,338.6,69.4L338.6,69.4z M340.7,69.4c0-3.1,2.3-5.4,5.4-5.4s5.6,2.3,5.6,5.4s-2.3,5.4-5.6,5.4
			C343,74.8,340.7,72.3,340.7,69.4L340.7,69.4z"/>
		<path class="st2" d="M364.7,69.4c0,3.8,2.9,7.3,7.5,7.3c4.8,0,7.7-3.6,7.7-7.3c0-4-2.9-7.3-7.7-7.3
			C367.8,62.1,364.7,65.4,364.7,69.4L364.7,69.4z M366.8,69.4c0-3.1,2.3-5.4,5.4-5.4s5.6,2.3,5.6,5.4s-2.3,5.4-5.6,5.4
			C369.3,74.8,366.8,72.3,366.8,69.4L366.8,69.4z"/>
		<polygon points="393.5,62.1 391.4,62.1 391.4,76.5 400,76.5 400,74.6 393.5,74.6 		"/>
		<polygon points="189.2,62.1 187.2,62.1 187.2,76.5 195.5,76.5 195.5,74.6 189.2,74.6 		"/>
		<path class="st2" d="M212.4,62.1H211l-6.3,14.4h2.1l1.9-4.2h6.1l1.9,4.2h2.1L212.4,62.1L212.4,62.1z M211.6,65.2l2.3,5.2h-4.4
			L211.6,65.2L211.6,65.2z"/>
		<polygon points="247.7,62.1 245.6,62.1 241.9,71.9 237.9,62.1 235.8,62.1 232.1,71.9 228.1,62.1 226,62.1 231.9,76.5 232.3,76.5 
			236.9,64.8 241.7,76.5 241.9,76.5 		"/>
		<path class="st2" d="M91.7,62.1v14.2h2.1V70h0.8c1,0,1.9,0.4,3.8,3.3l1.9,2.9h2.5c-1-1.5-1.3-1.9-1.9-2.7c-1-1.7-1.9-3.1-3.1-4
			c1.5-0.6,2.3-1.9,2.3-3.6c0-2.5-1.9-4-4.6-4L91.7,62.1L91.7,62.1z M93.8,63.9H95c2.1,0,2.7,0.8,2.7,2.1s-0.6,2.3-2.7,2.3h-1.3
			v-4.4H93.8z"/>
		<polygon points="116.3,62.1 114.3,62.1 114.3,76.5 116.3,76.5 		"/>
		<path class="st2" d="M0,76.5h4.8c3.6,0,4.8-2.1,4.8-3.8c0-1.9-1.3-3.3-3.3-3.8l0,0c1.5-0.6,2.1-1.7,2.1-3.1c0-1.9-1.3-3.6-4.4-3.6
			H0V76.5L0,76.5z M2.1,63.9H4c1.9,0,2.5,0.8,2.5,2.1c0,1.5-1,2.3-2.9,2.3H2.1V63.9L2.1,63.9z M2.1,70h2.5c2.1,0,3.1,0.8,3.1,2.3
			c0,1-0.6,2.3-3.1,2.3H2.1V70L2.1,70z"/>
		<path d="M56.4,63.1c-1.9-0.8-3.3-1.3-4.8-1.3c-4.6,0-7.7,3.1-7.7,7.5c0,2.9,2.3,7.1,7.7,7.1c2.3,0,3.8-0.4,5.2-1.3v-2
			c-1.7,1-3.3,1.7-5,1.7c-3.3,0-5.8-2.3-5.8-5.4s2.5-5.4,5.6-5.4c1.7,0,3.1,0.4,5,1.5L56.4,63.1L56.4,63.1z"/>
		<path d="M33.6,62.1h-2.1v8.4c0,1.3-0.2,2.3-0.8,3.1c-0.6,0.6-1.9,1-3.3,1c-1.3,0-2.3-0.4-3.1-1.3c-0.6-0.6-0.8-1.3-0.8-2.9v-8.3
			h-2.1v9c0,4,2.9,5.6,5.8,5.6c4.2,0,6.3-2.3,6.3-5.8L33.6,62.1L33.6,62.1z"/>
		<polygon points="77.9,62.1 70,62.1 70,76.5 78.1,76.5 78.1,74.6 71.9,74.6 71.9,70.2 77.7,70.2 77.7,68.3 71.9,68.3 71.9,63.9 
			77.9,63.9 		"/>
	</g>
	<g id="Waage">
		<polygon class="st0" points="116.3,10.5 185.7,10.5 185.7,30.5 116.3,30.5 		"/>
		<polygon class="st0" points="214.3,10.5 283.7,10.5 283.7,30.5 214.3,30.5 		"/>
		<polygon class="st0" points="189.9,34.1 189.9,0 210.1,0 210.1,34.1 		"/>
	</g>
</g>
</svg>
