<?xml version="1.0" encoding="utf-8"?>
<!-- Generator: Adobe Illustrator 26.5.1, SVG Export Plug-In . SVG Version: 6.00 Build 0)  -->
<svg version="1.1" xmlns="http://www.w3.org/2000/svg" xmlns:xlink="http://www.w3.org/1999/xlink" x="0px" y="0px"
	 viewBox="0 0 246.2 108.3" style="enable-background:new 0 0 246.2 108.3;" xml:space="preserve">
<style type="text/css">
	.st0{fill:#FFFFFF;}
	.st1{display:none;}
	.st2{display:inline;fill:none;}
</style>
<g id="Layer_1">
	<g>
		<path class="st0" d="M38,37.9c-0.1-0.4-0.4-1.6-1.7-1.6c-1.5,0-2,1.5-2,2.9c0,1.4,0.5,2.9,2,2.9c1.1,0,1.5-0.8,1.7-1.8h3.2
			c0,2.2-1.8,4.5-4.9,4.5c-3.5,0-5.4-2.4-5.4-5.6c0-3.4,2.1-5.6,5.4-5.6c2.9,0,4.6,1.6,4.8,4.2H38z"/>
		<path class="st0" d="M57.1,33.9h3.3v8h4.7v2.7h-8V33.9z"/>
		<path class="st0" d="M83.1,33.9h3.3v10.7h-3.3V33.9z"/>
		<path class="st0" d="M106.1,33.9h8.3v2.7h-5V38h4.3v2.5h-4.3v4.1h-3.3V33.9z"/>
		<path class="st0" d="M131,33.9h8.3v2.7h-5V38h4.3v2.5h-4.3v4.1H131V33.9z"/>
		<path class="st0" d="M157.8,39.3c0-2.4,1.3-2.9,2.1-2.9c0.8,0,2.1,0.6,2.1,2.9c0,2.4-1.3,2.9-2.1,2.9
			C159.1,42.2,157.8,41.6,157.8,39.3z M154.5,39.3c0,3.3,2.2,5.6,5.4,5.6c3.3,0,5.4-2.3,5.4-5.6c0-3.3-2.2-5.6-5.4-5.6
			C156.7,33.6,154.5,36,154.5,39.3z"/>
		<path class="st0" d="M183.4,36.5h1.5c1.3,0,1.6,0.4,1.6,1.1c0,1-0.8,1.1-1.5,1.1h-1.7V36.5z M180.1,44.6h3.3v-3.7h1.8
			c1.3,0,1.4,1.1,1.5,2.1c0,0.6,0.1,1.1,0.3,1.6h3.3c-0.3-0.5-0.3-1.8-0.4-2.3c-0.1-1.3-0.7-2.3-1.6-2.7c1.1-0.4,1.6-1.6,1.6-2.7
			c0-2-1.6-3.1-3.5-3.1h-6.3V44.6z"/>
		<path class="st0" d="M208.3,36.6h1c2.4,0,2.6,1.9,2.6,2.5c0,1-0.3,2.7-2.4,2.7h-1.3V36.6z M205,44.6h4.8c3.7,0,5.5-2.1,5.5-5.4
			c0-2.7-1.3-5.3-4.8-5.3H205V44.6z"/>
		<path class="st0" d="M38,67.9c-0.1-0.4-0.4-1.6-1.7-1.6c-1.5,0-2,1.5-2,2.9c0,1.4,0.5,2.9,2,2.9c1.1,0,1.5-0.8,1.7-1.8h3.2
			c0,2.2-1.8,4.5-4.9,4.5c-3.5,0-5.4-2.4-5.4-5.6c0-3.4,2.1-5.6,5.4-5.6c2.9,0,4.6,1.6,4.8,4.2H38z"/>
		<path class="st0" d="M56.1,63.9h3.3v3.7h3.1v-3.7h3.3v10.7h-3.3v-4.2h-3.1v4.2h-3.3V63.9z"/>
		<path class="st0" d="M84.4,70.8l1-3.3h0l1,3.3H84.4z M79.9,74.6h3.3l0.5-1.5h3.4l0.4,1.5H91l-3.9-10.7h-3.2L79.9,74.6z"/>
		<path class="st0" d="M105.7,63.9h3.4l3.1,5.7h0v-5.7h3.1v10.7h-3.2l-3.3-5.8h0v5.8h-3.1V63.9z"/>
		<path class="st0" d="M137.2,67.9c-0.1-0.4-0.4-1.6-1.7-1.6c-1.5,0-2,1.5-2,2.9c0,1.4,0.5,2.9,2,2.9c1.1,0,1.5-0.8,1.7-1.8h3.2
			c0,2.2-1.8,4.5-4.9,4.5c-3.5,0-5.4-2.4-5.4-5.6c0-3.4,2.1-5.6,5.4-5.6c2.9,0,4.6,1.6,4.8,4.2H137.2z"/>
		<path class="st0" d="M155.3,63.9h8.9v2.7h-5.6V68h5.1v2.5h-5.1v1.3h5.7v2.7h-9V63.9z"/>
	</g>
</g>
<g id="Clear_space__x28_outlines_x29_" class="st1">
	<path class="st2" d="M27.7,37.9c-0.1-0.4-0.4-1.6-1.7-1.6c-1.5,0-2,1.5-2,2.9c0,1.4,0.5,2.9,2,2.9c1.1,0,1.5-0.8,1.7-1.8H31
		c0,2.2-1.8,4.5-4.9,4.5c-3.5,0-5.4-2.4-5.4-5.6c0-3.4,2.1-5.6,5.4-5.6c2.9,0,4.6,1.6,4.8,4.2H27.7z"/>
	<path class="st2" d="M17.4,37.9c-0.1-0.4-0.4-1.6-1.7-1.6c-1.5,0-2,1.5-2,2.9c0,1.4,0.5,2.9,2,2.9c1.1,0,1.5-0.8,1.7-1.8h3.2
		c0,2.2-1.8,4.5-4.9,4.5c-3.5,0-5.4-2.4-5.4-5.6c0-3.4,2.1-5.6,5.4-5.6c2.9,0,4.6,1.6,4.8,4.2H17.4z"/>
	<path class="st2" d="M7.1,37.9c-0.1-0.4-0.4-1.6-1.7-1.6c-1.5,0-2,1.5-2,2.9c0,1.4,0.5,2.9,2,2.9c1.1,0,1.5-0.8,1.7-1.8h3.2
		c0,2.2-1.8,4.5-4.9,4.5C2,44.9,0,42.4,0,39.3c0-3.4,2.1-5.6,5.4-5.6c2.9,0,4.6,1.6,4.8,4.2H7.1z"/>
	<path class="st2" d="M242.9,37.9c-0.1-0.4-0.4-1.6-1.7-1.6c-1.5,0-2,1.5-2,2.9c0,1.4,0.5,2.9,2,2.9c1.1,0,1.5-0.8,1.7-1.8h3.2
		c0,2.2-1.8,4.5-4.9,4.5c-3.5,0-5.4-2.4-5.4-5.6c0-3.4,2.1-5.6,5.4-5.6c2.9,0,4.6,1.6,4.8,4.2H242.9z"/>
	<path class="st2" d="M232.6,37.9c-0.1-0.4-0.4-1.6-1.7-1.6c-1.5,0-2,1.5-2,2.9c0,1.4,0.5,2.9,2,2.9c1.1,0,1.5-0.8,1.7-1.8h3.2
		c0,2.2-1.8,4.5-4.9,4.5c-3.5,0-5.4-2.4-5.4-5.6c0-3.4,2.1-5.6,5.4-5.6c2.9,0,4.6,1.6,4.8,4.2H232.6z"/>
	<path class="st2" d="M222.3,37.9c-0.1-0.4-0.4-1.6-1.7-1.6c-1.5,0-2,1.5-2,2.9c0,1.4,0.5,2.9,2,2.9c1.1,0,1.5-0.8,1.7-1.8h3.2
		c0,2.2-1.8,4.5-4.9,4.5c-3.5,0-5.4-2.4-5.4-5.6c0-3.4,2.1-5.6,5.4-5.6c2.9,0,4.6,1.6,4.8,4.2H222.3z"/>
	<path class="st2" d="M38,15.5c-0.1-0.4-0.4-1.6-1.7-1.6c-1.5,0-2,1.5-2,2.9c0,1.4,0.5,2.9,2,2.9c1.1,0,1.5-0.8,1.7-1.8h3.2
		c0,2.2-1.8,4.5-4.9,4.5c-3.5,0-5.4-2.4-5.4-5.6c0-3.4,2.1-5.6,5.4-5.6c2.9,0,4.6,1.6,4.8,4.2H38z"/>
	<path class="st2" d="M38,26.7c-0.1-0.4-0.4-1.6-1.7-1.6c-1.5,0-2,1.5-2,2.9c0,1.4,0.5,2.9,2,2.9c1.1,0,1.5-0.8,1.7-1.8h3.2
		c0,2.2-1.8,4.5-4.9,4.5c-3.5,0-5.4-2.4-5.4-5.6c0-3.4,2.1-5.6,5.4-5.6c2.9,0,4.6,1.6,4.8,4.2H38z"/>
	<path class="st2" d="M38,4.2c-0.1-0.4-0.4-1.6-1.7-1.6c-1.5,0-2,1.5-2,2.9c0,1.4,0.5,2.9,2,2.9c1.1,0,1.5-0.8,1.7-1.8h3.2
		c0,2.2-1.8,4.5-4.9,4.5c-3.5,0-5.4-2.4-5.4-5.6C31,2.2,33.1,0,36.4,0c2.9,0,4.6,1.6,4.8,4.2H38z"/>
	<path class="st2" d="M161.7,90.3c-0.1-0.4-0.4-1.6-1.7-1.6c-1.5,0-2,1.5-2,2.9c0,1.4,0.5,2.9,2,2.9c1.1,0,1.5-0.8,1.7-1.8h3.2
		c0,2.2-1.8,4.5-4.9,4.5c-3.5,0-5.4-2.4-5.4-5.6c0-3.4,2.1-5.6,5.4-5.6c2.9,0,4.6,1.6,4.8,4.2H161.7z"/>
	<path class="st2" d="M161.7,101.5c-0.1-0.4-0.4-1.6-1.7-1.6c-1.5,0-2,1.5-2,2.9c0,1.4,0.5,2.9,2,2.9c1.1,0,1.5-0.8,1.7-1.8h3.2
		c0,2.2-1.8,4.5-4.9,4.5c-3.5,0-5.4-2.4-5.4-5.6c0-3.4,2.1-5.6,5.4-5.6c2.9,0,4.6,1.6,4.8,4.2H161.7z"/>
	<path class="st2" d="M161.7,79.1c-0.1-0.4-0.4-1.6-1.7-1.6c-1.5,0-2,1.5-2,2.9c0,1.4,0.5,2.9,2,2.9c1.1,0,1.5-0.8,1.7-1.8h3.2
		c0,2.2-1.8,4.5-4.9,4.5c-3.5,0-5.4-2.4-5.4-5.6c0-3.4,2.1-5.6,5.4-5.6c2.9,0,4.6,1.6,4.8,4.2H161.7z"/>
</g>
</svg>
