<?xml version="1.0" encoding="utf-8"?>
<!-- Generator: Adobe Illustrator 25.2.1, SVG Export Plug-In . SVG Version: 6.00 Build 0)  -->
<svg version="1.1" id="Layer_1" xmlns="http://www.w3.org/2000/svg" xmlns:xlink="http://www.w3.org/1999/xlink" x="0px" y="0px"
	 viewBox="0 0 185.9 47.6" style="enable-background:new 0 0 185.9 47.6;" xml:space="preserve">
<style type="text/css">
	.st0{fill:none;}
	.st1{fill:#A91E2C;}
	.st2{fill:#FFFFFF;}
	.st3{enable-background:new    ;}
</style>
<rect x="0.3" y="-0.1" class="st0" width="47.7" height="47.7"/>
<circle class="st1" cx="24.1" cy="23.8" r="23.8"/>
<g>
	<g>
		<g>
			<path class="st2" d="M15.9,11.7c-0.6,0-1.1-0.5-1.1-1.1s0.5-1.1,1.1-1.1S17,10,17,10.6S16.5,11.7,15.9,11.7z M15.9,10.2
				c-0.2,0-0.4,0.2-0.4,0.4s0.2,0.4,0.4,0.4c0.2,0,0.4-0.2,0.4-0.4S16.2,10.2,15.9,10.2z"/>
		</g>
		<g>
			<path class="st2" d="M18.5,9.2c-0.6,0-1.1-0.5-1.1-1.1S17.9,7,18.5,7s1.1,0.5,1.1,1.1S19.1,9.2,18.5,9.2z M18.5,7.6
				c-0.2,0-0.4,0.2-0.4,0.4s0.2,0.5,0.4,0.5c0.2,0,0.4-0.2,0.4-0.4S18.8,7.6,18.5,7.6z"/>
		</g>
		<g>
			<path class="st2" d="M23.2,9.9c-0.6,0-1.1-0.5-1.1-1.1s0.5-1.1,1.1-1.1s1.1,0.5,1.1,1.1S23.7,9.9,23.2,9.9z M23.2,8.5
				c-0.2,0-0.4,0.2-0.4,0.4s0.2,0.4,0.4,0.4c0.2,0,0.4-0.2,0.4-0.4S23.4,8.5,23.2,8.5z"/>
		</g>
		<g>
			<path class="st2" d="M25.1,8.1C24.5,8.1,24,7.6,24,7s0.5-1.1,1.1-1.1s1.1,0.5,1.1,1.1S25.7,8.1,25.1,8.1z M25.1,6.6
				c-0.2,0-0.4,0.2-0.4,0.4s0.2,0.4,0.4,0.4c0.2,0,0.4-0.2,0.4-0.4C25.6,6.8,25.4,6.6,25.1,6.6z"/>
		</g>
		<g>
			<path class="st2" d="M28.3,8.6c-0.6,0-1.1-0.5-1.1-1.1s0.5-1.1,1.1-1.1s1.1,0.5,1.1,1.1S28.9,8.6,28.3,8.6z M28.3,7.1
				c-0.2,0-0.4,0.2-0.4,0.4s0.2,0.4,0.4,0.4c0.2,0,0.4-0.2,0.4-0.4C28.8,7.2,28.5,7.1,28.3,7.1z"/>
		</g>
		<g>
			<path class="st2" d="M34.8,14.3c-0.6,0-1.1-0.5-1.1-1.1s0.5-1.1,1.1-1.1s1.1,0.5,1.1,1.1S35.3,14.3,34.8,14.3z M34.8,12.8
				c-0.2,0-0.4,0.2-0.4,0.4s0.2,0.4,0.4,0.4s0.4-0.2,0.4-0.4S35,12.8,34.8,12.8z"/>
		</g>
		<g>
			<path class="st2" d="M34.4,18.5c-0.6,0-1.1-0.5-1.1-1.1s0.5-1.1,1.1-1.1s1.1,0.5,1.1,1.1S34.9,18.5,34.4,18.5z M34.4,17
				c-0.2,0-0.4,0.2-0.4,0.4s0.2,0.4,0.4,0.4s0.4-0.2,0.4-0.4C34.9,17.2,34.6,17,34.4,17z"/>
		</g>
		<g>
			<path class="st2" d="M31.5,10.1c-0.6,0-1.1-0.5-1.1-1.1s0.5-1.1,1.1-1.1c0.6,0,1.1,0.5,1.1,1.1C32.5,9.7,32,10.1,31.5,10.1z
				 M31.5,8.7c-0.2,0-0.4,0.2-0.4,0.4s0.2,0.4,0.4,0.4c0.2,0,0.4-0.2,0.4-0.4S31.7,8.7,31.5,8.7z"/>
		</g>
		<g>
			<path class="st2" d="M21.4,6.8c-0.6,0-1.1-0.5-1.1-1.1c0-0.6,0.5-1.1,1.1-1.1s1.1,0.5,1.1,1.1C22.4,6.4,21.9,6.8,21.4,6.8z
				 M21.4,5.3c-0.2,0-0.4,0.2-0.4,0.4s0.2,0.4,0.4,0.4c0.2,0,0.4-0.2,0.4-0.4S21.7,5.3,21.4,5.3z"/>
		</g>
		<g>
			<path class="st2" d="M13,15.1c-0.6,0-1.1-0.5-1.1-1.1s0.5-1.1,1.1-1.1s1.1,0.5,1.1,1.1S13.5,15.1,13,15.1z M13,13.5
				c-0.2,0-0.4,0.2-0.4,0.4s0.2,0.4,0.4,0.4s0.4-0.2,0.4-0.4C13.4,13.8,13.2,13.5,13,13.5z"/>
		</g>
		<g>
			<path class="st2" d="M11.6,19.6c-0.6,0-1.1-0.5-1.1-1.1s0.5-1.1,1.1-1.1s1.1,0.5,1.1,1.1S12.1,19.6,11.6,19.6z M11.6,18
				c-0.2,0-0.4,0.2-0.4,0.4s0.2,0.4,0.4,0.4s0.4-0.2,0.4-0.4C12,18.3,11.8,18,11.6,18z"/>
		</g>
		<g>
			<polygon class="st2" points="20.3,41.6 19.4,41.6 19.4,38.9 21.7,36.7 21.7,22.7 19.3,20.4 19.3,18 15.7,14.3 15.7,11.5 
				16.4,11.5 16.4,14 20.1,17.6 20.1,20 22.4,22.4 22.4,37 20.3,39.2 			"/>
		</g>
		<g>
			<polygon class="st2" points="19.4,20.5 17.9,19 15,19 15,16.6 13.2,14.8 13.7,14.2 15.7,16.3 15.7,18.2 18.2,18.2 20,19.9 			"/>
		</g>
		<g>
			<polygon class="st2" points="22.2,41.6 21.4,41.6 21.4,39.7 23,38.1 23,21.9 21,19.8 21,6.2 21.8,6.2 21.8,19.6 23.8,21.6 
				23.8,38.5 22.2,40 			"/>
		</g>
		<g>
			<polygon class="st2" points="21,16.3 18.2,13.4 18.2,8.9 18.8,8.9 18.8,13.1 21.5,15.8 			"/>
		</g>
		<g>
			<polygon class="st2" points="28.3,41.6 27.4,41.6 27.4,39.6 24.3,36.5 24.3,22 26.1,20.1 26.1,18.9 22.8,15.5 22.8,9.7 23.6,9.7 
				23.6,15.2 26.9,18.6 26.9,20.5 25.1,22.3 25.1,36.1 28.3,39.3 			"/>
		</g>
		<g>
			<polygon class="st2" points="26.9,18.7 26.1,18.7 26.1,12.9 28,11.1 28,8.5 28.7,8.5 28.7,11.4 26.9,13.2 			"/>
		</g>
		<g>
			<polygon class="st2" points="23.5,12.8 23,12.2 24.9,10.3 24.9,7.7 25.6,7.7 25.6,10.7 			"/>
		</g>
		<g>
			<polygon class="st2" points="29.5,41.6 28.7,41.6 28.7,39.2 25.8,36.2 25.8,22.9 28.7,20 28.7,14.5 31.2,12.1 31.2,9.8 31.9,9.8 
				31.9,12.4 29.5,14.8 29.5,20.4 26.6,23.2 26.6,36 29.5,38.8 			"/>
		</g>
		<g>
			<polygon class="st2" points="29.4,20.5 28.8,19.9 31.2,17.6 31.2,14.4 32.7,13 34.3,13 34.3,13.7 33,13.7 31.9,14.8 31.9,18 			
				"/>
		</g>
		<g>
			<rect x="12.4" y="18.2" class="st2" width="3.2" height="0.8"/>
		</g>
		<g>
			<polygon class="st2" points="24.6,41.6 23.8,41.6 23.8,40.9 25.1,39.5 25.1,37.3 25.9,37.3 25.9,39.9 24.6,41.2 			"/>
		</g>
		<g>
			<rect x="31.7" y="17.2" class="st2" width="2" height="0.8"/>
		</g>
		<g>
			<polygon class="st2" points="17.1,23 16.5,22.5 19.2,19.8 19.7,20.4 			"/>
		</g>
		<g>
			<path class="st2" d="M16.3,24.3c-0.6,0-1.1-0.5-1.1-1.1s0.5-1.1,1.1-1.1s1.1,0.5,1.1,1.1C17.3,23.8,16.9,24.3,16.3,24.3z
				 M16.3,22.8c-0.2,0-0.4,0.2-0.4,0.4s0.2,0.4,0.4,0.4c0.2,0,0.4-0.2,0.4-0.4C16.7,23,16.5,22.8,16.3,22.8z"/>
		</g>
		<g>
			<rect x="28.4" y="20.5" class="st2" width="2.8" height="0.8"/>
		</g>
		<g>
			<path class="st2" d="M31.9,21.9c-0.6,0-1.1-0.5-1.1-1.1s0.5-1.1,1.1-1.1s1.1,0.5,1.1,1.1S32.5,21.9,31.9,21.9z M31.9,20.3
				c-0.2,0-0.4,0.2-0.4,0.4s0.2,0.4,0.4,0.4s0.4-0.2,0.4-0.4C32.4,20.6,32.2,20.3,31.9,20.3z"/>
		</g>
	</g>
</g>
<g class="st3">
	<path d="M58.6,6.3L58.6,6.3c0-3.4,2.3-5.7,5.3-5.7c2.5,0,4.5,1.3,4.7,3.8h-2.1c-0.2-1.5-1-2.2-2.6-2.2c-1.9,0-3.2,1.5-3.2,4v0.1
		c0,2.5,1.2,3.9,3.2,3.9c1.5,0,2.6-0.8,2.8-2.3h2c-0.3,2.6-2.2,4-4.8,4C60.5,11.9,58.6,9.7,58.6,6.3z"/>
	<path d="M69.8,7.8L69.8,7.8c0-2.6,1.7-4.2,4-4.2c2,0,3.8,1.2,3.8,4v0.6h-5.9c0.1,1.5,0.8,2.4,2.2,2.4c1.1,0,1.7-0.4,1.8-1.2h1.8
		c-0.3,1.7-1.6,2.6-3.7,2.6C71.5,11.9,69.8,10.4,69.8,7.8z M75.8,6.9c-0.1-1.4-0.8-2-1.9-2c-1.1,0-1.9,0.8-2.1,2H75.8z"/>
	<path d="M79.3,3.7h1.9V5c0.4-0.8,1.3-1.4,2.6-1.4c1.6,0,2.7,0.9,2.7,3.1v5h-1.9V6.8C84.6,5.6,84.1,5,83,5c-1,0-1.9,0.6-1.9,1.9v4.7
		h-1.9L79.3,3.7L79.3,3.7z"/>
	<path d="M88.8,9.5V5.1h-1.1V3.7h1.1V1.9h1.9v1.8h1.8v1.4h-1.8v4.2c0,0.7,0.3,1,0.9,1c0.4,0,0.6,0,0.9-0.2v1.5
		c-0.3,0.1-0.7,0.2-1.3,0.2C89.7,11.9,88.8,11,88.8,9.5z"/>
	<path d="M93.7,7.8L93.7,7.8c0-2.6,1.7-4.2,4-4.2c2,0,3.8,1.2,3.8,4v0.6h-5.9c0.1,1.5,0.8,2.4,2.2,2.4c1.1,0,1.7-0.4,1.8-1.2h1.8
		c-0.3,1.7-1.6,2.6-3.7,2.6C95.3,11.9,93.7,10.4,93.7,7.8z M99.6,6.9c-0.1-1.4-0.8-2-1.9-2c-1.1,0-1.9,0.8-2.1,2H99.6z"/>
	<path d="M103.1,3.7h1.9v1.5c0.5-1,1.3-1.6,2.6-1.6v1.7c-1.6,0-2.6,0.5-2.6,2.2v4.2h-1.9V3.7z"/>
	<path d="M113.2,5.1H112V3.7h1.1V2.6c0-1.8,1-2.7,2.7-2.7c0.4,0,0.7,0,1.1,0.2v1.4c-0.2-0.1-0.5-0.1-0.8-0.1c-0.8,0-1.1,0.5-1.1,1.2
		v1.1h1.8v1.4H115v6.6h-1.9V5.1z"/>
	<path d="M117.6,7.8L117.6,7.8c0-2.6,1.8-4.2,4.1-4.2s4.1,1.6,4.1,4.1v0.1c0,2.5-1.8,4.1-4.1,4.1C119.3,11.9,117.6,10.3,117.6,7.8z
		 M123.8,7.8L123.8,7.8c0-1.8-0.8-2.8-2.2-2.8s-2.2,1-2.2,2.7v0.1c0,1.6,0.8,2.7,2.2,2.7C123.1,10.5,123.8,9.4,123.8,7.8z"/>
	<path d="M127.5,3.7h1.9v1.5c0.5-1,1.3-1.6,2.6-1.6v1.7c-1.6,0-2.6,0.5-2.6,2.2v4.2h-1.9V3.7z"/>
</g>
<g class="st3">
	<path d="M59.1,18.1h2v9.3h4.7V29h-6.7C59.1,29,59.1,18.1,59.1,18.1z"/>
	<path d="M66.7,25.1L66.7,25.1c0-2.6,1.7-4.2,4-4.2c2,0,3.8,1.2,3.8,4v0.5h-5.9c0.1,1.5,0.8,2.4,2.2,2.4c1.1,0,1.7-0.4,1.8-1.2h1.8
		c-0.3,1.7-1.6,2.6-3.7,2.6C68.4,29.2,66.7,27.6,66.7,25.1z M72.6,24.2c-0.1-1.4-0.8-2-1.9-2s-1.9,0.8-2.1,2H72.6z"/>
	<path d="M75.6,29.3h1.9c0.2,0.8,0.8,1.3,2,1.3c1.4,0,2.2-0.7,2.2-2.2v-1.2c-0.4,0.8-1.4,1.5-2.6,1.5c-2,0-3.6-1.5-3.6-3.8v-0.1
		c0-2.3,1.5-3.9,3.6-3.9c1.3,0,2.1,0.6,2.6,1.4v-1.2h1.9v7.4c0,2.4-1.6,3.5-4.1,3.5C77,32,75.9,30.8,75.6,29.3z M81.8,24.8
		L81.8,24.8c0-1.6-0.8-2.5-2.2-2.5c-1.4,0-2.2,1-2.2,2.5v0.1c0,1.5,0.9,2.4,2.1,2.4C80.9,27.3,81.8,26.4,81.8,24.8z"/>
	<path d="M85.2,26.8c0-1.9,1.8-2.5,4.1-2.5h1v-0.4c0-1.1-0.4-1.6-1.5-1.6c-1,0-1.4,0.5-1.5,1.3h-1.8c0.2-1.9,1.6-2.7,3.4-2.7
		s3.2,0.7,3.2,2.9v5.3h-1.8v-1c-0.5,0.7-1.2,1.1-2.5,1.1C86.4,29.2,85.2,28.5,85.2,26.8z M90.3,26.2v-0.8h-1c-1.4,0-2.3,0.3-2.3,1.3
		c0,0.7,0.4,1.1,1.3,1.1C89.5,27.8,90.3,27.2,90.3,26.2z"/>
	<path d="M94.3,17.3h1.9V29h-1.9V17.3z"/>
	<path d="M104.4,19.7h-3v-1.6h8.2v1.6h-3v9.4h-2.1L104.4,19.7L104.4,19.7z"/>
	<path d="M109.4,25.1L109.4,25.1c0-2.6,1.7-4.2,4-4.2c2,0,3.8,1.2,3.8,4v0.5h-5.9c0.1,1.5,0.8,2.4,2.2,2.4c1.1,0,1.7-0.4,1.8-1.2
		h1.8c-0.3,1.7-1.6,2.6-3.7,2.6C111.1,29.2,109.4,27.6,109.4,25.1z M115.3,24.2c-0.1-1.4-0.8-2-1.9-2s-1.9,0.8-2.1,2H115.3z"/>
	<path d="M118.2,25.1L118.2,25.1c0-2.6,1.8-4.3,4-4.3c1.8,0,3.4,0.8,3.7,3h-1.8c-0.2-1.1-0.9-1.5-1.8-1.5c-1.3,0-2.2,1-2.2,2.6V25
		c0,1.7,0.9,2.7,2.2,2.7c1,0,1.8-0.6,1.9-1.7h1.7c-0.1,1.8-1.5,3.1-3.7,3.1C120,29.2,118.2,27.7,118.2,25.1z"/>
	<path d="M127.6,17.3h1.9v5c0.4-0.8,1.3-1.4,2.6-1.4c1.6,0,2.7,0.9,2.7,3.1v5h-1.9v-4.8c0-1.2-0.5-1.8-1.6-1.8c-1,0-1.9,0.6-1.9,1.9
		V29h-1.9L127.6,17.3L127.6,17.3z"/>
	<path d="M136.9,21h1.9v1.3c0.4-0.8,1.3-1.4,2.6-1.4c1.6,0,2.7,0.9,2.7,3.1v5h-1.9v-4.8c0-1.2-0.5-1.8-1.6-1.8c-1,0-1.9,0.6-1.9,1.9
		V29h-1.9L136.9,21L136.9,21z"/>
	<path d="M145.7,25.1L145.7,25.1c0-2.6,1.8-4.2,4.1-4.2s4.1,1.6,4.1,4.1v0.1c0,2.5-1.8,4.1-4.1,4.1
		C147.4,29.2,145.7,27.5,145.7,25.1z M152,25.1L152,25.1c0-1.8-0.8-2.8-2.2-2.8s-2.2,1-2.2,2.7v0.1c0,1.6,0.8,2.7,2.2,2.7
		C151.2,27.7,152,26.7,152,25.1z"/>
	<path d="M155.6,17.3h1.9V29h-1.9V17.3z"/>
	<path d="M159.2,25.1L159.2,25.1c0-2.6,1.8-4.2,4.1-4.2s4.1,1.6,4.1,4.1v0.1c0,2.5-1.8,4.1-4.1,4.1S159.2,27.5,159.2,25.1z
		 M165.5,25.1L165.5,25.1c0-1.8-0.8-2.8-2.2-2.8s-2.2,1-2.2,2.7v0.1c0,1.6,0.8,2.7,2.2,2.7C164.7,27.7,165.5,26.7,165.5,25.1z"/>
	<path d="M168.7,29.3h1.9c0.2,0.8,0.8,1.3,2,1.3c1.4,0,2.2-0.7,2.2-2.2v-1.2c-0.4,0.8-1.4,1.5-2.6,1.5c-2,0-3.6-1.5-3.6-3.8v-0.1
		c0-2.3,1.5-3.9,3.6-3.9c1.3,0,2.1,0.6,2.6,1.4v-1.2h1.9v7.4c0,2.4-1.6,3.5-4.1,3.5C170,32,168.9,30.8,168.7,29.3z M174.8,24.8
		L174.8,24.8c0-1.6-0.8-2.5-2.2-2.5s-2.2,1-2.2,2.5v0.1c0,1.5,0.9,2.4,2.1,2.4C173.9,27.3,174.8,26.4,174.8,24.8z"/>
	<path d="M181.2,28.2L178,21h2l2.1,5.2l2-5.2h1.8l-4.4,10.8h-1.8L181.2,28.2z"/>
</g>
<g class="st3">
	<path d="M58.3,44c0-1.9,1.8-2.5,4.1-2.5h1v-0.4c0-1.1-0.4-1.6-1.5-1.6c-1,0-1.4,0.5-1.5,1.3h-1.8c0.2-1.9,1.6-2.7,3.4-2.7
		c1.8,0,3.2,0.7,3.2,2.9v5.2h-1.8v-1c-0.5,0.7-1.2,1.1-2.5,1.1C59.5,46.4,58.3,45.7,58.3,44z M63.4,43.4v-0.8h-1
		c-1.4,0-2.3,0.3-2.3,1.3c0,0.7,0.4,1.1,1.3,1.1C62.6,45,63.4,44.4,63.4,43.4z"/>
	<path d="M67.4,38.2h1.9v1.3c0.4-0.8,1.3-1.4,2.6-1.4c1.6,0,2.7,0.9,2.7,3.1v5h-1.9v-4.9c0-1.2-0.5-1.8-1.6-1.8
		c-1,0-1.9,0.6-1.9,1.9v4.8h-1.9v-8H67.4z"/>
	<path d="M76.2,42.3L76.2,42.3c0-2.7,1.5-4.3,3.6-4.3c1.3,0,2.1,0.6,2.6,1.4v-4.9h1.9v11.7h-1.9v-1.3c-0.4,0.8-1.5,1.5-2.6,1.5
		C77.7,46.4,76.2,44.9,76.2,42.3z M82.4,42.2L82.4,42.2c0-1.9-0.8-2.7-2.2-2.7c-1.4,0-2.2,0.9-2.2,2.7v0.1c0,1.8,0.9,2.6,2.1,2.6
		C81.5,44.9,82.4,44,82.4,42.2z"/>
	<path d="M90.2,35.2h3.3c3.8,0,5.7,2.2,5.7,5.4v0.1c0,3.2-1.9,5.5-5.7,5.5h-3.3V35.2z M93.5,44.6c2.5,0,3.6-1.4,3.6-3.8v-0.1
		c0-2.4-1.1-3.8-3.6-3.8h-1.2v7.7H93.5z"/>
	<path d="M100.4,44c0-1.9,1.8-2.5,4.1-2.5h1v-0.4c0-1.1-0.4-1.6-1.5-1.6c-1,0-1.4,0.5-1.5,1.3h-1.8c0.2-1.9,1.6-2.7,3.4-2.7
		s3.2,0.7,3.2,2.9v5.2h-1.8v-1c-0.5,0.7-1.2,1.1-2.5,1.1C101.7,46.4,100.4,45.7,100.4,44z M105.6,43.4v-0.8h-1
		c-1.4,0-2.3,0.3-2.3,1.3c0,0.7,0.4,1.1,1.3,1.1C104.7,45,105.6,44.4,105.6,43.4z"/>
	<path d="M109.8,44v-4.4h-1.1v-1.4h1.1v-1.8h1.9v1.8h1.8v1.4h-1.8v4.2c0,0.7,0.3,1,0.9,1c0.4,0,0.6,0,0.9-0.2v1.5
		c-0.3,0.1-0.7,0.2-1.3,0.2C110.7,46.3,109.8,45.5,109.8,44z"/>
	<path d="M114.7,44c0-1.9,1.8-2.5,4.1-2.5h1v-0.4c0-1.1-0.4-1.6-1.5-1.6c-1,0-1.4,0.5-1.5,1.3H115c0.2-1.9,1.6-2.7,3.4-2.7
		s3.2,0.7,3.2,2.9v5.2h-1.8v-1c-0.5,0.7-1.2,1.1-2.5,1.1C115.9,46.4,114.7,45.7,114.7,44z M119.8,43.4v-0.8h-0.9
		c-1.4,0-2.3,0.3-2.3,1.3c0,0.7,0.4,1.1,1.3,1.1C118.9,45,119.8,44.4,119.8,43.4z"/>
	<path d="M126.9,42.8h2c0.1,1.1,0.6,2,2.4,2c1.2,0,2.1-0.7,2.1-1.7s-0.5-1.4-2.3-1.7c-2.6-0.4-3.9-1.1-3.9-3.2
		c0-1.8,1.5-3.1,3.8-3.1c2.4,0,3.8,1.1,4,3.2h-1.9c-0.2-1.1-0.9-1.6-2.1-1.6c-1.2,0-1.9,0.6-1.9,1.4c0,0.9,0.4,1.3,2.3,1.6
		c2.6,0.4,3.9,1.1,3.9,3.3c0,1.9-1.6,3.4-4,3.4C128.3,46.4,127.1,44.9,126.9,42.8z"/>
	<path d="M136.6,42.3L136.6,42.3c0-2.6,1.8-4.3,4-4.3c1.8,0,3.4,0.8,3.7,3h-1.8c-0.2-1.1-0.9-1.5-1.8-1.5c-1.3,0-2.2,1-2.2,2.6v0.1
		c0,1.7,0.9,2.7,2.2,2.7c1,0,1.8-0.6,1.9-1.7h1.7c-0.1,1.8-1.5,3.1-3.7,3.1C138.4,46.4,136.6,44.9,136.6,42.3z"/>
	<path d="M145.8,35.8c0-0.6,0.5-1.1,1.1-1.1s1.1,0.5,1.1,1.1s-0.5,1.1-1.1,1.1C146.3,36.9,145.8,36.4,145.8,35.8z M146,38.2h1.9v8
		H146V38.2z"/>
	<path d="M149.6,42.3L149.6,42.3c0-2.6,1.7-4.2,4-4.2c2,0,3.8,1.2,3.8,4v0.5h-5.9c0.1,1.5,0.8,2.4,2.2,2.4c1.1,0,1.7-0.4,1.8-1.2
		h1.8c-0.3,1.7-1.6,2.6-3.7,2.6C151.3,46.4,149.6,44.8,149.6,42.3z M155.5,41.4c-0.1-1.4-0.8-2-1.9-2c-1.1,0-1.9,0.8-2.1,2H155.5z"
		/>
	<path d="M159,38.2h1.9v1.3c0.4-0.8,1.3-1.4,2.6-1.4c1.6,0,2.7,0.9,2.7,3.1v5h-1.9v-4.9c0-1.2-0.5-1.8-1.6-1.8c-1,0-1.9,0.6-1.9,1.9
		v4.8H159V38.2z"/>
	<path d="M167.8,42.3L167.8,42.3c0-2.6,1.8-4.3,4-4.3c1.8,0,3.4,0.8,3.7,3h-1.8c-0.2-1.1-0.9-1.5-1.8-1.5c-1.3,0-2.2,1-2.2,2.6v0.1
		c0,1.7,0.9,2.7,2.2,2.7c1,0,1.8-0.6,1.9-1.7h1.7c-0.1,1.8-1.5,3.1-3.7,3.1C169.5,46.4,167.8,44.9,167.8,42.3z"/>
	<path d="M176.6,42.3L176.6,42.3c0-2.6,1.7-4.2,4-4.2c2,0,3.8,1.2,3.8,4v0.5h-5.9c0.1,1.5,0.8,2.4,2.2,2.4c1.1,0,1.7-0.4,1.8-1.2
		h1.8c-0.3,1.7-1.6,2.6-3.7,2.6C178.3,46.4,176.6,44.8,176.6,42.3z M182.5,41.4c-0.1-1.4-0.8-2-1.9-2c-1.1,0-1.9,0.8-2.1,2H182.5z"
		/>
</g>
</svg>
