<?xml version="1.0" encoding="utf-8"?>
<!-- Generator: Adobe Illustrator 25.2.1, SVG Export Plug-In . SVG Version: 6.00 Build 0)  -->
<svg version="1.1" id="Ebene_1" xmlns="http://www.w3.org/2000/svg" xmlns:xlink="http://www.w3.org/1999/xlink" x="0px" y="0px"
	 viewBox="0 0 219.9 140.2" style="enable-background:new 0 0 219.9 140.2;" xml:space="preserve">
<style type="text/css">
	.st0{fill-rule:evenodd;clip-rule:evenodd;fill:#E4087F;}
	.st1{enable-background:new    ;}
	.st2{fill:#E4087F;}
	.st3{fill:#6F6F6E;}
</style>
<g>
	<g>
		<path class="st0" d="M50.9,140.2c3.3,1.2,5.8-1.4,5.6-3.9c-0.1-1.3-0.7-2.3-1.7-3.2c2.2-5.7,4.4-11.5,6.6-17.3
			c0.5,0.2,1,0.3,1.6,0.5c-2.3,6-4.6,11.9-6.8,17.8c0.6,0.6,1.1,1.3,1.3,2.2c21.5-6.5,43-13.1,64.6-19.6c0.1,0.2,0.3,0.3,0.4,0.5
			c-21.7,6.6-43.3,13.2-64.9,19.8c0,2.2-1.2,3.4-3.1,4.1c-0.2,0-0.5,0.1-0.7,0.1C52.7,141.3,51.7,141.1,50.9,140.2L50.9,140.2z"/>
		<path class="st0" d="M79.8,49.7c1.4,0.7,2.1,2.3,1.9,4.2c14.7,18.8,29.5,37.7,44.2,56.6c-0.7,0.1-1.3,0.2-2,0.3
			c-14.3-18.4-28.6-36.8-43-55.2c-0.7,0.8-1.6,1.3-2.6,1.5c-1.1,9.7-2.3,19.4-3.4,29.1c1.1,0.7,1.8,1.8,2,3.2
			c15,7.9,30,15.7,45.1,23.6c-0.1,0.4-0.2,0.7-0.3,1.1c-14.9-7.8-29.9-15.6-44.8-23.4c-0.3,0.6-0.5,1.1-0.6,1.2
			c3.3,5.6,6.5,11.1,9.7,16.6c10.1,1.6,20.3,2.8,30.3,4.6c0,0.1,0,0.3-0.1,0.4c-10.7-1.6-21.4-3.1-32.1-4.7
			c-3-5.2-6.1-10.4-9.2-15.5c-0.9,0.5-2,0.7-3,0.5c-1.6,4-3.1,8-4.6,12.1c4.7,0.7,9.4,1.4,14.1,2.1c0.1,0.2,0.2,0.3,0.3,0.6
			c-5.5-0.8-10.9-1.6-16.3-2.4c1.7-4.3,3.3-8.7,5-13c-0.1-0.1-0.1-0.2-0.2-0.3v-0.1c2.4,0.7,4.5-0.2,5.3-2.3c0.8-2-0.1-4.1-2.4-5.3
			c1.1-9.3,2.3-18.7,3.4-28.1c-0.6-0.3-1.1-0.6-1.6-0.9c2.2,0.6,3.9,0.2,5.2-1.8c0.9-1.6,0.7-3.1-0.3-4.6
			C79.7,49.7,79.7,49.7,79.8,49.7z"/>
		<path class="st0" d="M6.2,62.2c2.1,0.6,3.7,0.2,4.8-1.3c1.1-1.4,1-3.1-0.1-4.9v-0.1c1.2,0.7,1.8,1.8,2,3.2
			c7.7,3.6,15.3,7.2,23,10.9c-0.2,0.3-0.4,0.5-0.7,0.8c-7.5-3.5-14.9-7-22.4-10.6c-0.3,0.6-0.5,1.1-0.8,1.7c0.1-0.1,0.2-0.1,0.3-0.2
			c4,7.3,8.1,14.5,12.1,21.8c-0.1,0.1-0.2,0.3-0.3,0.4c-0.3,0.3-0.6,0.7-0.9,1.1C19.1,77.6,15,70.2,11,62.9
			c-0.6,0.2-1.2,0.4-1.8,0.6c1.4,10.4,2.9,20.9,4.4,31.4c-0.8,0-1.4-0.1-1.9-0.1c-1.5-10.5-2.9-21-4.4-31.6C7,63,6.6,62.7,6.2,62.4
			C6.1,62.2,6.2,62.2,6.2,62.2z"/>
		<path class="st0" d="M65.4,85c-4.9-2.3-9.8-4.6-14.7-6.9c-0.8-0.4-1.6-0.7-2.4-1.1c-0.3-3.2-0.5-6.4-0.8-9.7c-1.1,0-2.1-0.3-3-1.2
			c2.2,0.7,4,0.3,5.2-1.7c0.9-1.5,0.7-3-0.3-4.5c0,0,0.1,0,0.1-0.1c2.5-0.7,4.9-1.3,7.4-2c5.2-1.4,10.4-2.9,15.5-4.4
			c0.1,0,0.2,0,0.4-0.1c0.1,0.3,0.2,0.5,0.3,0.8c-7.5,2.2-15,4.3-22.6,6.5c0.7,0.9,0.9,2,0.8,3.1c0,0.1,0.1,0.3,0.3,0.5
			c6.1,6.9,12.3,13.7,18.4,20.6c0.1,0.1,0.1,0.2,0.2,0.3c-0.4,0.3-0.9,0.5-1.4,0.8c-6.1-6.8-12.1-13.6-18.2-20.3
			c-0.5,0.4-0.9,0.8-1.3,1.2c0.3,3.3,0.6,6.6,0.8,9.9c3.5,1.7,7,3.3,10.6,5C62.4,82.5,64.3,83.2,65.4,85C65.4,84.9,65.4,85,65.4,85z
			"/>
		<path class="st0" d="M91.7,6.4c2.2,0.6,3.7,0.2,4.9-1.3c1.1-1.4,1-3.1-0.1-5l0,0c1.3,0.7,2.2,2.4,1.9,4c-0.3,1.9-1.5,3-3.9,3.5
			c-5.1,13.9-10.1,27.8-15.1,41.7c-0.5-0.3-0.9-0.6-1.5-0.9c5-13.7,9.9-27.4,14.9-41c-0.4-0.3-0.7-0.6-1.1-0.9
			C91.7,6.5,91.7,6.5,91.7,6.4z"/>
		<path class="st0" d="M10,55.1c-0.2-0.1-0.5-0.3-0.8-0.4C36.3,38.3,63.4,22,90.5,5.6c0.2,0.1,0.4,0.3,0.7,0.5
			C64.1,22.5,37.1,38.8,10,55.1z"/>
		<path class="st0" d="M35.7,73.1c0.4,0.2,0.8,0.4,1.2,0.6c-3.6,4.3-7.2,8.5-10.8,12.8c2.7,4.8,5.3,9.6,8,14.4
			c4.9,0.7,9.7,1.4,14.5,2.1c0,0.2,0,0.3,0,0.5c-5.5-0.8-11-1.6-16.5-2.4c-2.7-4.8-5.3-9.6-8-14.4C28,82.1,31.9,77.6,35.7,73.1z"/>
		<path class="st0" d="M50.6,103.8c-0.7-8.2-1.4-16.4-2.1-24.7c0.7,0.3,1.3,0.6,2,0.9c0.7,7.8,1.3,15.6,2,23.5
			c3.7,0.5,7.4,1.1,11.1,1.6c-0.1,0.2-0.1,0.3-0.2,0.5C59.1,105.1,54.8,104.4,50.6,103.8z"/>
		<path class="st0" d="M36.1,108.4c1.8,0,2.7,1,3.5,2.5c3.6,6.7,7.4,13.5,11.1,20.2c0.3,0.5,0.4,1.1,0.4,1.7
			c-0.3,0.2-0.7,0.4-1.1,0.6C45.4,124.9,40.8,116.6,36.1,108.4z"/>
		<path class="st0" d="M90,122.5c-9.5-2.8-18.6-5.6-27.9-8.4c0.8-2.1,1.6-4.2,2.4-6.3c0.6,0.1,1.1,0.2,1.7,0.2
			c-0.7,2-1.5,3.8-2.2,5.8c2.9,0.9,5.7,1.7,8.6,2.6c5.5,1.7,10.9,3.3,16.4,4.9C89.5,121.5,89.5,122,90,122.5z"/>
		<path class="st0" d="M53,132.7c-0.6-6.8-1.1-13.3-1.7-19.8c0.7,0.2,1.3,0.4,2,0.6c0.3,3.4,0.6,6.8,0.9,10.1c0.1,1,0,2.1,0.3,3.1
			C54.9,128.8,53.6,130.5,53,132.7z"/>
		<path class="st0" d="M10.6,102.4c2.1,0.6,3.7,0.2,4.8-1.2c1.1-1.4,1.1-3.1-0.1-5.1l0,0c0.2,0.1,0.4,0.2,0.6,0.3
			c2.3-2.7,4.6-5.4,6.9-8.1c0.2,0.4,0.4,0.8,0.7,1.2c-2.3,2.7-4.5,5.3-6.7,8c0.1,0.3,0.3,0.6,0.4,1c4,0.6,8.1,1.2,12.2,1.8
			c0.1,0.2,0.2,0.3,0.3,0.6c-4.2-0.6-8.3-1.2-12.4-1.8c0.1,2.1-0.7,3.6-2.6,4.3C13.3,103.9,11.9,103.6,10.6,102.4L10.6,102.4z"/>
		<path class="st0" d="M94.5,123.2c-0.6,0.2-1.1,0.3-1.8,0.5c-2.5-4.3-5.1-8.6-7.6-12.9c0.8,0.1,1.5,0.2,2.3,0.3
			C89.8,115.1,92.2,119.1,94.5,123.2z"/>
		<path class="st0" d="M37,71.6c2-2.4,3.9-4.7,5.9-6.9c0.3,0.3,0.6,0.6,0.9,0.9c-1.6,1.9-3.2,3.8-4.9,5.8c2.4,1.1,4.9,2.3,7.2,3.4
			c0.1,0.4,0.1,0.7,0.2,1.2C43.2,74.5,40.1,73.1,37,71.6z"/>
		<path class="st0" d="M33.1,103.2c0.9,0.1,1.7,0.2,2.3,0.3c0.9,2.9,3.8,2.7,6,3.5c2.5,0.9,5.1,1.6,7.7,2.3c0,0.3,0.1,0.5,0.1,0.9
			c-2.1-0.6-4.1-1.2-6.1-1.8c-2.5-0.7-4.9-1.6-7.4-2.2C34.1,105.8,34.2,104.2,33.1,103.2z"/>
		<path class="st0" d="M60.6,112.8c-0.1,0.3-0.2,0.5-0.3,0.7c-3.1-0.9-6.1-1.9-9.2-2.8c-0.1-1.7-0.3-3.4-0.4-5.1
			c0.6,0.1,1.2,0.2,1.9,0.3c0.1,1.5,0.3,3,0.4,4.5C55.6,111.3,58.1,112.1,60.6,112.8z"/>
		<path class="st0" d="M123.8,118.3c1.9,0.6,3.6,0.3,4.9-1.3c1.2-1.7,1-3.3-0.1-5l0,0c1.2,0.5,1.8,1.6,2,2.8c0.3,1.6-0.3,3-1.7,3.9
			C127.3,119.8,125,119.6,123.8,118.3L123.8,118.3z"/>
		<path class="st0" d="M19.3,101.2c4.3,0.2,8.3,1.7,12.3,2.9c0.2,0.3,0.3,0.6,0.5,1C27.9,103.8,23.6,102.5,19.3,101.2z"/>
		<path class="st0" d="M128.6,112C128.6,112,128.5,112,128.6,112L128.6,112L128.6,112z"/>
		<path class="st0" d="M123.8,118.3L123.8,118.3L123.8,118.3L123.8,118.3L123.8,118.3z"/>
		<path class="st0" d="M50.9,140.2L50.9,140.2L50.9,140.2L50.9,140.2z"/>
		<path class="st0" d="M10.6,102.4c0,0,0,0-0.1-0.1C10.6,102.4,10.6,102.4,10.6,102.4L10.6,102.4z"/>
		<path class="st0" d="M70,92.6h0.1v0.1C70,92.7,70,92.6,70,92.6L70,92.6z"/>
		<path class="st0" d="M70,92.6c0,0,0,0-0.3-0.2C69.9,92.5,70,92.6,70,92.6L70,92.6z"/>
		<path class="st0" d="M15.4,96.1c0,0,0,0-0.3-0.2C15.3,96,15.4,96,15.4,96.1L15.4,96.1z"/>
		<path class="st0" d="M65.4,84.9c0,0,0,0,0.1,0.1C65.4,85,65.4,85,65.4,84.9L65.4,84.9z"/>
		<path class="st0" d="M49.4,59.8c0,0,0.1,0,0.1,0.1c0,0-0.1,0-0.1,0.1C49.4,59.9,49.4,59.8,49.4,59.8
			C49.3,59.8,49.4,59.8,49.4,59.8z"/>
		<path class="st0" d="M49.3,59.8c0,0,0,0-0.1-0.1C49.3,59.7,49.4,59.7,49.3,59.8C49.4,59.8,49.3,59.8,49.3,59.8z"/>
		<path class="st0" d="M6.1,62.2L6.1,62.2L6.1,62.2C6.1,62.2,6.1,62.2,6.1,62.2L6.1,62.2z"/>
		<path class="st0" d="M6.1,62.2C6,62.2,6,62.2,6.1,62.2C6,62.1,6,62.2,6.1,62.2L6.1,62.2z"/>
		<path class="st0" d="M79.7,49.7c0,0,0,0-0.1-0.1C79.7,49.7,79.7,49.7,79.7,49.7L79.7,49.7z"/>
		<path class="st0" d="M10.9,55.9C10.9,55.9,10.9,55.9,10.9,55.9C10.9,55.8,10.9,55.9,10.9,55.9L10.9,55.9z"/>
		<path class="st0" d="M91.7,6.5c0,0,0,0-0.1-0.1C91.7,6.4,91.7,6.4,91.7,6.5L91.7,6.5z"/>
		<path class="st0" d="M96.5,0.1c0,0,0,0-0.1-0.1C96.4,0.1,96.5,0.1,96.5,0.1L96.5,0.1z"/>
	</g>
	<g class="st1">
		<path class="st2" d="M95.2,101.6V55h22.5v9.3h-12.4v9.2h11.5v8.7h-11.5v10h13.2v9.5H95.2V101.6z"/>
		<path class="st2" d="M128.4,101.6V55H139v36.9h12.4v9.7L128.4,101.6L128.4,101.6z"/>
		<path class="st2" d="M173,64v37.7h-10.3V64h-8.6v-9h27.5v9H173z"/>
		<path class="st2" d="M208.8,101.6l-1.9-8.5h-10.5l-1.9,8.5H184L195.3,55h13.2l11.3,46.6H208.8z M201.8,65.2h-0.3l-4,19.8h8
			L201.8,65.2z"/>
	</g>
	<g class="st1">
		<path class="st3" d="M135.8,120.4v-8.7h4.2v1.7h-2.3v1.7h2.1v1.6h-2.1v1.9h2.5v1.8H135.8z"/>
		<path class="st3" d="M146.9,118.5c-0.1,0.4-0.3,0.8-0.5,1.1s-0.5,0.6-0.9,0.7c-0.4,0.2-0.8,0.3-1.4,0.3c-0.5,0-1-0.1-1.4-0.3
			s-0.7-0.4-0.9-0.7s-0.4-0.7-0.5-1.1s-0.2-0.9-0.2-1.4v-5.5h2v5.3c0,0.2,0,0.5,0,0.7s0.1,0.4,0.2,0.5c0.1,0.2,0.2,0.3,0.3,0.4
			c0.1,0.1,0.3,0.1,0.5,0.1s0.4,0,0.5-0.1s0.2-0.2,0.3-0.4s0.1-0.3,0.2-0.5c0-0.2,0-0.4,0-0.7v-5.3h2v5.5
			C147.1,117.6,147,118.1,146.9,118.5z"/>
		<path class="st3" d="M152.1,120.4l-1.2-3.5h-0.6v3.5h-1.9v-8.7h2.8c0.8,0,1.5,0.2,2,0.7c0.5,0.4,0.7,1.1,0.7,2
			c0,0.3,0,0.6-0.1,0.9c-0.1,0.3-0.2,0.5-0.3,0.7s-0.3,0.3-0.4,0.4c-0.1,0.1-0.3,0.2-0.4,0.2l1.5,3.9L152.1,120.4L152.1,120.4z
			 M152,114.4c0-0.2,0-0.4-0.1-0.5s-0.1-0.3-0.2-0.3s-0.2-0.1-0.3-0.2c-0.1,0-0.2,0-0.4,0h-0.6v2.2h0.6c0.3,0,0.5-0.1,0.7-0.3
			C151.9,115,152,114.8,152,114.4z"/>
		<path class="st3" d="M161.5,116c0,0.7-0.1,1.3-0.2,1.9c-0.2,0.6-0.4,1.1-0.7,1.5s-0.6,0.7-1.1,0.9c-0.4,0.2-0.9,0.3-1.4,0.3
			s-1-0.1-1.4-0.3s-0.8-0.5-1.1-0.9s-0.5-0.9-0.7-1.5s-0.2-1.2-0.2-1.9s0.1-1.3,0.2-1.9c0.2-0.6,0.4-1,0.7-1.4s0.6-0.7,1.1-0.9
			c0.4-0.2,0.9-0.3,1.4-0.3s1,0.1,1.4,0.3s0.8,0.5,1.1,0.9s0.5,0.9,0.7,1.4S161.5,115.3,161.5,116z M159.5,116c0-0.4,0-0.7-0.1-1.1
			c-0.1-0.3-0.1-0.6-0.3-0.8c-0.1-0.2-0.2-0.4-0.4-0.6c-0.2-0.1-0.4-0.2-0.6-0.2c-0.2,0-0.4,0.1-0.6,0.2c-0.2,0.1-0.3,0.3-0.4,0.6
			c-0.1,0.2-0.2,0.5-0.2,0.8c-0.1,0.3-0.1,0.7-0.1,1.1c0,0.4,0,0.7,0.1,1.1c0.1,0.3,0.1,0.6,0.2,0.9c0.1,0.2,0.3,0.4,0.4,0.6
			c0.2,0.1,0.4,0.2,0.6,0.2c0.2,0,0.4-0.1,0.6-0.2c0.2-0.1,0.3-0.3,0.4-0.6c0.1-0.2,0.2-0.5,0.3-0.9
			C159.4,116.7,159.5,116.3,159.5,116z"/>
		<path class="st3" d="M168.1,114.4c0,0.5-0.1,0.9-0.2,1.3s-0.3,0.6-0.6,0.9c-0.2,0.2-0.5,0.4-0.8,0.5s-0.6,0.2-1,0.2h-0.9v3.2h-1.9
			v-8.7h2.7c0.3,0,0.6,0,0.9,0.1c0.3,0.1,0.6,0.2,0.9,0.5s0.5,0.5,0.6,0.8S168.1,113.8,168.1,114.4z M166.2,114.4
			c0-0.4-0.1-0.7-0.3-0.9s-0.4-0.3-0.7-0.3h-0.6v2.3h0.6c0.3,0,0.5-0.1,0.7-0.3C166.1,115.1,166.2,114.8,166.2,114.4z"/>
		<path class="st3" d="M169.1,120.4v-8.7h4.2v1.7H171v1.7h2.1v1.6H171v1.9h2.5v1.8H169.1z"/>
		<path class="st3" d="M178.5,120.4l-0.4-1.6h-2l-0.4,1.6h-2l2.1-8.7h2.5l2.1,8.7H178.5z M177.2,113.5L177.2,113.5l-0.8,3.7h1.5
			L177.2,113.5z"/>
		<path class="st3" d="M185.1,120.4l-2-5.3l0,0v5.3h-1.8v-8.7h2.2l2,5.4l0,0v-5.4h1.7v8.7H185.1z"/>
		<path class="st3" d="M191.3,120.4v-8.7h2v6.9h2.3v1.8H191.3z"/>
		<path class="st3" d="M196.5,120.4v-8.7h4.2v1.7h-2.3v1.7h2.1v1.6h-2.1v1.9h2.5v1.8H196.5z"/>
		<path class="st3" d="M206.6,120.4c-0.4,0.1-0.9,0.2-1.4,0.2c-0.6,0-1-0.1-1.5-0.3c-0.4-0.2-0.8-0.5-1.1-0.9
			c-0.3-0.4-0.5-0.9-0.7-1.4c-0.2-0.6-0.2-1.2-0.2-1.9s0.1-1.3,0.2-1.9c0.2-0.6,0.4-1,0.7-1.5c0.3-0.4,0.7-0.7,1.1-0.9
			s0.9-0.3,1.4-0.3c0.6,0,1.1,0.1,1.5,0.3s0.7,0.5,0.9,0.8l-1.1,1.4c-0.3-0.4-0.7-0.6-1.2-0.6c-0.3,0-0.5,0.1-0.7,0.2
			c-0.2,0.1-0.4,0.3-0.5,0.6c-0.1,0.2-0.2,0.5-0.3,0.9c-0.1,0.3-0.1,0.7-0.1,1c0,0.4,0,0.7,0.1,1s0.2,0.6,0.3,0.9
			c0.1,0.2,0.3,0.4,0.5,0.6c0.2,0.1,0.4,0.2,0.7,0.2c0.3,0,0.5-0.1,0.7-0.2V117H205v-1.7h2.7v4.7C207.3,120.1,207,120.2,206.6,120.4
			z"/>
		<path class="st3" d="M212.8,120.4l-0.4-1.6h-2l-0.4,1.6h-2l2.1-8.7h2.5l2.1,8.7H212.8z M211.5,113.5L211.5,113.5l-0.8,3.7h1.5
			L211.5,113.5z"/>
		<path class="st3" d="M215.6,120.4v-8.7h2v6.9h2.3v1.8H215.6z"/>
	</g>
	<g class="st1">
		<path class="st3" d="M130.8,124.6v7.1h-1.9v-7.1h-1.6v-1.7h5.1v1.7H130.8z"/>
		<path class="st3" d="M133.2,131.7V123h4.2v1.7h-2.3v1.7h2.1v1.6h-2.1v1.9h2.5v1.8H133.2z"/>
		<path class="st3" d="M143.2,131.5c-0.4,0.2-0.9,0.3-1.5,0.3c-0.5,0-1-0.1-1.4-0.3s-0.8-0.5-1.1-1c-0.3-0.4-0.5-0.9-0.7-1.5
			s-0.2-1.2-0.2-1.9s0.1-1.3,0.2-1.9c0.2-0.6,0.4-1.1,0.7-1.5s0.7-0.7,1.1-0.9c0.4-0.2,0.9-0.3,1.4-0.3c0.6,0,1.1,0.1,1.5,0.3
			s0.7,0.5,0.9,0.8L143,125c-0.1-0.2-0.3-0.4-0.5-0.5s-0.4-0.2-0.7-0.2s-0.5,0.1-0.7,0.2c-0.2,0.1-0.4,0.3-0.5,0.6
			c-0.1,0.2-0.2,0.5-0.3,0.9c-0.1,0.3-0.1,0.7-0.1,1.1c0,0.4,0,0.7,0.1,1.1c0.1,0.3,0.2,0.6,0.3,0.9c0.1,0.2,0.3,0.4,0.5,0.6
			c0.2,0.1,0.4,0.2,0.7,0.2s0.5-0.1,0.7-0.2c0.2-0.1,0.4-0.3,0.5-0.5l1.1,1.4C143.9,131,143.6,131.3,143.2,131.5z"/>
		<path class="st3" d="M149,131.7V128h-2v3.7h-2V123h2v3.3h2V123h2v8.7H149z"/>
		<path class="st3" d="M158.7,131.7l-0.4-1.6h-2l-0.3,1.6h-2l2.1-8.7h2.5l2.1,8.7H158.7z M157.3,124.8L157.3,124.8l-0.8,3.7h1.5
			L157.3,124.8z"/>
		<path class="st3" d="M165.1,125c-0.1-0.2-0.3-0.3-0.5-0.4c-0.2-0.1-0.4-0.1-0.6-0.1c-0.2,0-0.4,0.1-0.6,0.2
			c-0.2,0.1-0.3,0.4-0.3,0.7s0.1,0.5,0.3,0.6c0.2,0.2,0.4,0.3,0.8,0.5c0.2,0.1,0.4,0.2,0.6,0.4c0.2,0.1,0.4,0.3,0.6,0.5
			c0.2,0.2,0.3,0.4,0.5,0.7c0.1,0.3,0.2,0.6,0.2,1c0,0.5-0.1,0.9-0.2,1.2c-0.1,0.4-0.3,0.7-0.6,0.9s-0.5,0.4-0.9,0.5
			c-0.3,0.1-0.7,0.2-1,0.2c-0.5,0-1-0.1-1.4-0.3s-0.8-0.4-1-0.7l1-1.5c0.2,0.2,0.4,0.4,0.7,0.5c0.2,0.1,0.5,0.2,0.8,0.2
			c0.2,0,0.4-0.1,0.6-0.2c0.2-0.2,0.2-0.4,0.2-0.7s-0.1-0.5-0.3-0.7s-0.5-0.3-0.9-0.5c-0.2-0.1-0.5-0.2-0.7-0.4s-0.4-0.3-0.6-0.5
			c-0.2-0.2-0.3-0.4-0.4-0.7c-0.1-0.3-0.1-0.6-0.1-0.9c0-0.5,0.1-0.9,0.2-1.3c0.2-0.3,0.4-0.6,0.6-0.9c0.3-0.2,0.5-0.4,0.9-0.5
			c0.3-0.1,0.6-0.2,1-0.2c0.5,0,0.9,0.1,1.3,0.2c0.4,0.2,0.7,0.4,1,0.6L165.1,125z"/>
		<path class="st3" d="M170.8,125c-0.1-0.2-0.3-0.3-0.5-0.4c-0.2-0.1-0.4-0.1-0.6-0.1s-0.4,0.1-0.6,0.2c-0.2,0.1-0.3,0.4-0.3,0.7
			s0.1,0.5,0.3,0.6c0.2,0.2,0.4,0.3,0.8,0.5c0.2,0.1,0.4,0.2,0.6,0.4c0.2,0.1,0.4,0.3,0.6,0.5s0.3,0.4,0.5,0.7
			c0.1,0.3,0.2,0.6,0.2,1c0,0.5-0.1,0.9-0.2,1.2c-0.1,0.4-0.3,0.7-0.6,0.9s-0.5,0.4-0.9,0.5c-0.3,0.1-0.7,0.2-1,0.2
			c-0.5,0-1-0.1-1.4-0.3s-0.8-0.4-1-0.7l1-1.5c0.2,0.2,0.4,0.4,0.7,0.5c0.2,0.1,0.5,0.2,0.8,0.2c0.2,0,0.4-0.1,0.6-0.2
			c0.2-0.2,0.2-0.4,0.2-0.7s-0.1-0.5-0.3-0.7c-0.2-0.2-0.5-0.3-0.9-0.5c-0.2-0.1-0.5-0.2-0.7-0.4s-0.4-0.3-0.6-0.5
			c-0.2-0.2-0.3-0.4-0.4-0.7c-0.1-0.3-0.1-0.6-0.1-0.9c0-0.5,0.1-0.9,0.2-1.3c0.2-0.3,0.4-0.6,0.6-0.9c0.3-0.2,0.5-0.4,0.9-0.5
			c0.3-0.1,0.6-0.2,1-0.2c0.5,0,0.9,0.1,1.3,0.2c0.4,0.2,0.7,0.4,1,0.6L170.8,125z"/>
		<path class="st3" d="M179.2,127.3c0,0.7-0.1,1.3-0.2,1.9c-0.2,0.6-0.4,1.1-0.7,1.5c-0.3,0.4-0.6,0.7-1.1,0.9
			c-0.4,0.2-0.9,0.3-1.4,0.3s-1-0.1-1.4-0.3s-0.8-0.5-1.1-0.9s-0.5-0.9-0.7-1.5s-0.2-1.2-0.2-1.9s0.1-1.3,0.2-1.9
			c0.2-0.6,0.4-1,0.7-1.4c0.3-0.4,0.6-0.7,1.1-0.9c0.4-0.2,0.9-0.3,1.4-0.3s1,0.1,1.4,0.3s0.8,0.5,1.1,0.9c0.3,0.4,0.5,0.9,0.7,1.4
			C179.1,125.9,179.2,126.6,179.2,127.3z M177.2,127.3c0-0.4,0-0.7-0.1-1.1c-0.1-0.3-0.1-0.6-0.3-0.8c-0.1-0.2-0.2-0.4-0.4-0.6
			c-0.2-0.1-0.4-0.2-0.6-0.2s-0.4,0.1-0.6,0.2c-0.2,0.1-0.3,0.3-0.4,0.6c-0.1,0.2-0.2,0.5-0.2,0.8c-0.1,0.3-0.1,0.7-0.1,1.1
			c0,0.4,0,0.7,0.1,1.1c0.1,0.3,0.1,0.6,0.2,0.9c0.1,0.2,0.3,0.4,0.4,0.6c0.2,0.1,0.4,0.2,0.6,0.2s0.4-0.1,0.6-0.2
			c0.2-0.1,0.3-0.3,0.4-0.6c0.1-0.2,0.2-0.5,0.3-0.9C177.2,128,177.2,127.6,177.2,127.3z"/>
		<path class="st3" d="M184.9,131.5c-0.4,0.2-0.9,0.3-1.5,0.3c-0.5,0-1-0.1-1.4-0.3s-0.8-0.5-1.1-1c-0.3-0.4-0.5-0.9-0.7-1.5
			s-0.2-1.2-0.2-1.9s0.1-1.3,0.2-1.9c0.2-0.6,0.4-1.1,0.7-1.5c0.3-0.4,0.7-0.7,1.1-0.9s0.9-0.3,1.4-0.3c0.6,0,1.1,0.1,1.5,0.3
			s0.7,0.5,0.9,0.8l-1.1,1.4c-0.1-0.2-0.3-0.4-0.5-0.5s-0.4-0.2-0.7-0.2c-0.3,0-0.5,0.1-0.7,0.2c-0.2,0.1-0.4,0.3-0.5,0.6
			c-0.1,0.2-0.2,0.5-0.3,0.9c-0.1,0.3-0.1,0.7-0.1,1.1c0,0.4,0,0.7,0.1,1.1c0.1,0.3,0.2,0.6,0.3,0.9c0.1,0.2,0.3,0.4,0.5,0.6
			c0.2,0.1,0.4,0.2,0.7,0.2c0.3,0,0.5-0.1,0.7-0.2c0.2-0.1,0.4-0.3,0.5-0.5l1.1,1.4C185.6,131,185.3,131.3,184.9,131.5z"/>
		<path class="st3" d="M186.7,131.7V123h2v8.7H186.7z"/>
		<path class="st3" d="M194.1,131.7l-0.4-1.6h-2l-0.4,1.6h-2l2.1-8.7h2.5l2.1,8.7H194.1z M192.8,124.8L192.8,124.8l-0.8,3.7h1.5
			L192.8,124.8z"/>
		<path class="st3" d="M199.5,124.6v7.1h-1.9v-7.1H196v-1.7h5.1v1.7H199.5z"/>
		<path class="st3" d="M201.9,131.7V123h2v8.7H201.9z"/>
		<path class="st3" d="M211.8,127.3c0,0.7-0.1,1.3-0.2,1.9c-0.2,0.6-0.4,1.1-0.7,1.5c-0.3,0.4-0.6,0.7-1.1,0.9
			c-0.4,0.2-0.9,0.3-1.4,0.3s-1-0.1-1.4-0.3s-0.8-0.5-1.1-0.9s-0.5-0.9-0.7-1.5s-0.2-1.2-0.2-1.9s0.1-1.3,0.2-1.9
			c0.2-0.6,0.4-1,0.7-1.4c0.3-0.4,0.6-0.7,1.1-0.9c0.4-0.2,0.9-0.3,1.4-0.3s1,0.1,1.4,0.3s0.8,0.5,1.1,0.9c0.3,0.4,0.5,0.9,0.7,1.4
			C211.7,125.9,211.8,126.6,211.8,127.3z M209.7,127.3c0-0.4,0-0.7-0.1-1.1c-0.1-0.3-0.1-0.6-0.3-0.8c-0.1-0.2-0.2-0.4-0.4-0.6
			c-0.2-0.1-0.4-0.2-0.6-0.2s-0.4,0.1-0.6,0.2c-0.2,0.1-0.3,0.3-0.4,0.6c-0.1,0.2-0.2,0.5-0.2,0.8c-0.1,0.3-0.1,0.7-0.1,1.1
			c0,0.4,0,0.7,0.1,1.1c0.1,0.3,0.1,0.6,0.2,0.9c0.1,0.2,0.3,0.4,0.4,0.6c0.2,0.1,0.4,0.2,0.6,0.2s0.4-0.1,0.6-0.2
			c0.2-0.1,0.3-0.3,0.4-0.6c0.1-0.2,0.2-0.5,0.3-0.9C209.7,128,209.7,127.6,209.7,127.3z"/>
		<path class="st3" d="M216.7,131.7l-2-5.3l0,0v5.3H213V123h2.2l2,5.4l0,0V123h1.7v8.7H216.7z"/>
	</g>
</g>
</svg>
