<?xml version="1.0" encoding="utf-8"?>
<!-- Generator: Adobe Illustrator 26.5.0, SVG Export Plug-In . SVG Version: 6.00 Build 0)  -->
<svg version="1.1" id="Layer_1" xmlns="http://www.w3.org/2000/svg" xmlns:xlink="http://www.w3.org/1999/xlink" x="0px" y="0px"
	 viewBox="0 0 221.6 100.4" style="enable-background:new 0 0 221.6 100.4;" xml:space="preserve">
<style type="text/css">
	.st0{fill:#FFFFFF;}
</style>
<path class="st0" d="M53.5,17.5c-0.5-0.1-0.7,0.5-0.7,0.7c-0.2,0.8-0.8,1.5-1.6,1.8c-0.7,0.3-1.4,0.4-2.1,0.5
	c-1.6,0.1-3.2,0.1-4.8-0.2c-1-0.2-2-0.3-3-0.5c-0.1,0-0.3,0-0.5-0.1c-2-0.3-2.4,1-2.4,1.1l0.3,0c1.8,0.1,3.6,0.3,5.3,0.7
	c1.2,0.2,2.4,0.5,3.7,0.6c0.9,0.1,1.9,0.1,2.8-0.1c1.9-0.3,3.3-1.9,3.4-3.7C53.8,18.1,54,17.6,53.5,17.5z"/>
<path class="st0" d="M52.7,10.1c-0.8-0.2-8.2-2.4-8.3-2.5c-0.7-0.8-1.4-1.5-2.2-2.1c-2.2-1.8-4.7-3-7.4-3.5
	c-2.4-0.4-4.8-0.5-7.2-0.3c-0.4,0-0.9-0.2-1.2-0.5C25-0.2,23-0.4,21.5,0.7c-0.2,0.9-1.2,5.8-1.2,5.8C19.1,12.6,7.9,30.7,7.9,30.7
	C3,38.3,0,46.7,0,56.1c0,2.1,0.1,4.3,0.4,6.4l0.1,0.3l8-7.4l0.1,0.1c1,1.1,0.9,2.8-0.2,3.8l-7.4,6.8c0.9,4.4,2.5,8.6,4.6,12.6
	l9.8-12.1l0.1,0.1c1.1,0.9,1.3,2.6,0.4,3.7c0,0,0,0,0,0L7.2,81.5l0.2,0.3c2.4,3.9,5.4,7.5,8.9,10.5l8.8-17.1l0.2,0.1
	c1.3,0.7,1.8,2.3,1.1,3.6l0,0L18.5,94l0.7,0.5c2,1.4,4.1,2.7,6.4,3.7l4.7,2.1c0,0,15.7-30.2,16.2-31.7c0.7-2,1.1-4,1-6.1
	c0-5.7-3.1-10.7-7.2-14c-0.2-0.2-0.4-0.4-0.7-0.5l0,0c-0.9-0.7-1.9-1.3-2.9-1.7c-1.4-0.8-2.9-1.7-4.4-2.6c-2.4-1.5-7.2-5.3-5.2-14.2
	c0.1-0.4,0.7-0.4,1.1-0.4c0,0,8,1.5,13.2-1.4c1.5-0.8,2.7-2.1,3.4-3.7c0.1-0.1,0-0.2,0-0.2c0,0-0.1,0-0.1,0l-4.3-0.3
	c-0.9-0.1-1.7-0.3-2.5-0.5c-0.9-0.3-1.5-1-1.9-1.8c-0.3-0.8-0.2-1.7,0.2-2.4c0.6-1.4,2-2.3,3.5-2.3c0,0,5.9,0.5,6.6,0.6l1.4,0.3
	c0.2,0.4,0.9,0.6,1.1,0.2c0.5-0.6,0.8-1.2,1-1.9c0,0,1.6-0.2,2.8-3.1c0.2-0.5,0.3-0.9,0.5-1.4C53.4,10.5,53.3,10.3,52.7,10.1z"/>
<polygon class="st0" points="85.9,31.6 77.2,48.1 68,31.6 57.6,31.6 71.9,58.1 64.3,72.6 74.5,72.6 96.1,31.6 "/>
<path class="st0" d="M156.9,72.8c-11.4,0-20.6-9.2-20.6-20.6s9.2-20.6,20.6-20.6c11.4,0,20.6,9.2,20.6,20.6S168.2,72.8,156.9,72.8
	L156.9,72.8z M156.9,40.5c-6.5,0-11.7,5.3-11.7,11.7s5.3,11.7,11.7,11.7c6.5,0,11.7-5.3,11.7-11.7C168.6,45.7,163.3,40.5,156.9,40.5
	L156.9,40.5z"/>
<path class="st0" d="M108.3,72.7h-8.9V31.6h19.6c8.1,0,14.8,6.5,14.8,14.7c0,8.1-6.5,14.8-14.7,14.8h-10.9V72.7z M108.3,52.2h10.8
	c3.2,0,5.9-2.6,5.9-5.9s-2.6-5.9-5.9-5.9l0,0h-10.8V52.2z"/>
<path class="st0" d="M221.2,48.1H204l-4.3,8.2h12.2c-2.3,6-9.1,9-15.1,6.7s-9-9.1-6.7-15.1c1.7-4.5,6.1-7.5,10.9-7.5
	c2.1,0.1,4.2,0.7,6.1,1.7l4.1-7.8c-3.1-1.8-6.6-2.7-10.2-2.8c-11.4,0-20.6,9.2-20.6,20.5s9.2,20.6,20.5,20.6
	c11.4,0,20.6-9.2,20.6-20.5C221.6,50.8,221.4,49.5,221.2,48.1L221.2,48.1z"/>
</svg>
