<?xml version="1.0" encoding="utf-8"?>
<!-- Generator: Adobe Illustrator 25.2.1, SVG Export Plug-In . SVG Version: 6.00 Build 0)  -->
<svg version="1.1" id="Layer_1" xmlns="http://www.w3.org/2000/svg" xmlns:xlink="http://www.w3.org/1999/xlink" x="0px" y="0px"
	 viewBox="0 0 200 47.7" style="enable-background:new 0 0 200 47.7;" xml:space="preserve">
<style type="text/css">
	.st0{fill:#8A8D99;}
	.st1{fill:#FFFFFF;}
	.st2{enable-background:new    ;}
</style>
<circle class="st0" cx="24.1" cy="23.9" r="23.8"/>
<g>
	<g>
		<g>
			<path class="st1" d="M15.9,11.8c-0.6,0-1.1-0.5-1.1-1.1s0.5-1.1,1.1-1.1s1.1,0.5,1.1,1.1S16.5,11.8,15.9,11.8z M15.9,10.3
				c-0.2,0-0.4,0.2-0.4,0.4s0.2,0.4,0.4,0.4c0.2,0,0.4-0.2,0.4-0.4S16.2,10.3,15.9,10.3z"/>
		</g>
		<g>
			<path class="st1" d="M18.5,9.3c-0.6,0-1.1-0.5-1.1-1.1s0.5-1.1,1.1-1.1s1.1,0.5,1.1,1.1S19.1,9.3,18.5,9.3z M18.5,7.7
				c-0.2,0-0.4,0.2-0.4,0.4s0.2,0.5,0.4,0.5c0.2,0,0.4-0.2,0.4-0.4S18.8,7.7,18.5,7.7z"/>
		</g>
		<g>
			<path class="st1" d="M23.2,10c-0.6,0-1.1-0.5-1.1-1.1s0.5-1.1,1.1-1.1s1.1,0.5,1.1,1.1S23.7,10,23.2,10z M23.2,8.6
				c-0.2,0-0.4,0.2-0.4,0.4s0.2,0.4,0.4,0.4c0.2,0,0.4-0.2,0.4-0.4S23.4,8.6,23.2,8.6z"/>
		</g>
		<g>
			<path class="st1" d="M25.1,8.2c-0.6,0-1.1-0.5-1.1-1.1S24.5,6,25.1,6s1.1,0.5,1.1,1.1S25.7,8.2,25.1,8.2z M25.1,6.7
				c-0.2,0-0.4,0.2-0.4,0.4s0.2,0.4,0.4,0.4c0.2,0,0.4-0.2,0.4-0.4C25.6,6.9,25.4,6.7,25.1,6.7z"/>
		</g>
		<g>
			<path class="st1" d="M28.3,8.7c-0.6,0-1.1-0.5-1.1-1.1s0.5-1.1,1.1-1.1s1.1,0.5,1.1,1.1S28.9,8.7,28.3,8.7z M28.3,7.2
				c-0.2,0-0.4,0.2-0.4,0.4S28.1,8,28.3,8c0.2,0,0.4-0.2,0.4-0.4C28.8,7.3,28.5,7.2,28.3,7.2z"/>
		</g>
		<g>
			<path class="st1" d="M34.8,14.4c-0.6,0-1.1-0.5-1.1-1.1s0.5-1.1,1.1-1.1s1.1,0.5,1.1,1.1S35.3,14.4,34.8,14.4z M34.8,12.9
				c-0.2,0-0.4,0.2-0.4,0.4s0.2,0.4,0.4,0.4s0.4-0.2,0.4-0.4S35,12.9,34.8,12.9z"/>
		</g>
		<g>
			<path class="st1" d="M34.4,18.6c-0.6,0-1.1-0.5-1.1-1.1s0.5-1.1,1.1-1.1s1.1,0.5,1.1,1.1S34.9,18.6,34.4,18.6z M34.4,17.1
				c-0.2,0-0.4,0.2-0.4,0.4s0.2,0.4,0.4,0.4s0.4-0.2,0.4-0.4C34.9,17.3,34.6,17.1,34.4,17.1z"/>
		</g>
		<g>
			<path class="st1" d="M31.5,10.2c-0.6,0-1.1-0.5-1.1-1.1S30.9,8,31.5,8c0.6,0,1.1,0.5,1.1,1.1C32.5,9.8,32,10.2,31.5,10.2z
				 M31.5,8.8c-0.2,0-0.4,0.2-0.4,0.4s0.2,0.4,0.4,0.4c0.2,0,0.4-0.2,0.4-0.4S31.7,8.8,31.5,8.8z"/>
		</g>
		<g>
			<path class="st1" d="M21.4,6.9c-0.6,0-1.1-0.5-1.1-1.1c0-0.6,0.5-1.1,1.1-1.1s1.1,0.5,1.1,1.1C22.4,6.5,21.9,6.9,21.4,6.9z
				 M21.4,5.4c-0.2,0-0.4,0.2-0.4,0.4s0.2,0.4,0.4,0.4c0.2,0,0.4-0.2,0.4-0.4S21.7,5.4,21.4,5.4z"/>
		</g>
		<g>
			<path class="st1" d="M13,15.2c-0.6,0-1.1-0.5-1.1-1.1S12.4,13,13,13s1.1,0.5,1.1,1.1S13.5,15.2,13,15.2z M13,13.6
				c-0.2,0-0.4,0.2-0.4,0.4s0.2,0.4,0.4,0.4s0.4-0.2,0.4-0.4C13.4,13.9,13.2,13.6,13,13.6z"/>
		</g>
		<g>
			<path class="st1" d="M11.6,19.7c-0.6,0-1.1-0.5-1.1-1.1s0.5-1.1,1.1-1.1s1.1,0.5,1.1,1.1S12.1,19.7,11.6,19.7z M11.6,18.1
				c-0.2,0-0.4,0.2-0.4,0.4s0.2,0.4,0.4,0.4s0.4-0.2,0.4-0.4C12,18.4,11.8,18.1,11.6,18.1z"/>
		</g>
		<g>
			<polygon class="st1" points="20.3,41.7 19.4,41.7 19.4,39 21.7,36.8 21.7,22.8 19.3,20.5 19.3,18.1 15.7,14.4 15.7,11.6 
				16.4,11.6 16.4,14.1 20.1,17.7 20.1,20.1 22.4,22.5 22.4,37.1 20.3,39.3 			"/>
		</g>
		<g>
			<polygon class="st1" points="19.4,20.6 17.9,19.1 15,19.1 15,16.7 13.2,14.9 13.7,14.3 15.7,16.4 15.7,18.3 18.2,18.3 20,20 			
				"/>
		</g>
		<g>
			<polygon class="st1" points="22.2,41.7 21.4,41.7 21.4,39.8 23,38.2 23,22 21,19.9 21,6.3 21.8,6.3 21.8,19.7 23.8,21.7 
				23.8,38.6 22.2,40.1 			"/>
		</g>
		<g>
			<polygon class="st1" points="21,16.4 18.2,13.5 18.2,9 18.8,9 18.8,13.2 21.5,15.9 			"/>
		</g>
		<g>
			<polygon class="st1" points="28.3,41.7 27.4,41.7 27.4,39.7 24.3,36.6 24.3,22.1 26.1,20.2 26.1,19 22.8,15.6 22.8,9.8 23.6,9.8 
				23.6,15.3 26.9,18.7 26.9,20.6 25.1,22.4 25.1,36.2 28.3,39.4 			"/>
		</g>
		<g>
			<polygon class="st1" points="26.9,18.8 26.1,18.8 26.1,13 28,11.2 28,8.6 28.7,8.6 28.7,11.5 26.9,13.3 			"/>
		</g>
		<g>
			<polygon class="st1" points="23.5,12.9 23,12.3 24.9,10.4 24.9,7.8 25.6,7.8 25.6,10.8 			"/>
		</g>
		<g>
			<polygon class="st1" points="29.5,41.7 28.7,41.7 28.7,39.3 25.8,36.3 25.8,23 28.7,20.1 28.7,14.6 31.2,12.2 31.2,9.9 31.9,9.9 
				31.9,12.5 29.5,14.9 29.5,20.5 26.6,23.3 26.6,36.1 29.5,38.9 			"/>
		</g>
		<g>
			<polygon class="st1" points="29.4,20.6 28.8,20 31.2,17.7 31.2,14.5 32.7,13.1 34.3,13.1 34.3,13.8 33,13.8 31.9,14.9 31.9,18.1 
							"/>
		</g>
		<g>
			<rect x="12.4" y="18.3" class="st1" width="3.2" height="0.8"/>
		</g>
		<g>
			<polygon class="st1" points="24.6,41.7 23.8,41.7 23.8,41 25.1,39.6 25.1,37.4 25.9,37.4 25.9,40 24.6,41.3 			"/>
		</g>
		<g>
			<rect x="31.7" y="17.3" class="st1" width="2" height="0.8"/>
		</g>
		<g>
			<polygon class="st1" points="17.1,23.1 16.5,22.6 19.2,19.9 19.7,20.5 			"/>
		</g>
		<g>
			<path class="st1" d="M16.3,24.4c-0.6,0-1.1-0.5-1.1-1.1s0.5-1.1,1.1-1.1s1.1,0.5,1.1,1.1C17.3,23.9,16.9,24.4,16.3,24.4z
				 M16.3,22.9c-0.2,0-0.4,0.2-0.4,0.4s0.2,0.4,0.4,0.4c0.2,0,0.4-0.2,0.4-0.4C16.7,23.1,16.5,22.9,16.3,22.9z"/>
		</g>
		<g>
			<rect x="28.4" y="20.6" class="st1" width="2.8" height="0.8"/>
		</g>
		<g>
			<path class="st1" d="M31.9,22c-0.6,0-1.1-0.5-1.1-1.1s0.5-1.1,1.1-1.1s1.1,0.5,1.1,1.1S32.5,22,31.9,22z M31.9,20.4
				c-0.2,0-0.4,0.2-0.4,0.4s0.2,0.4,0.4,0.4s0.4-0.2,0.4-0.4C32.4,20.7,32.2,20.4,31.9,20.4z"/>
		</g>
	</g>
</g>
<g class="st2">
	<path class="st0" d="M59.1,0.9H63c2.3,0,3.6,0.9,3.6,2.9v0.1c0,1.1-0.5,1.9-1.7,2.3c1.5,0.3,2.2,1.1,2.2,2.6v0.1
		c0,2-1.3,3.1-3.8,3.1h-4.2V0.9z M62.7,5.5c1.3,0,1.9-0.5,1.9-1.6V3.8c0-1-0.6-1.5-1.9-1.5H61v3.2H62.7z M63,10.4c1.4,0,2-0.6,2-1.7
		V8.6c0-1.1-0.6-1.7-2.1-1.7h-1.8v3.5H63z"/>
	<path class="st0" d="M68.7,9V3.9h1.9v4.9c0,1.2,0.5,1.8,1.6,1.8c1,0,1.9-0.6,1.9-1.9V3.9H76v8h-2v-1.3c-0.4,0.8-1.2,1.4-2.5,1.4
		C69.9,12,68.7,11.1,68.7,9z"/>
	<path class="st0" d="M77.5,7.9L77.5,7.9c0-2.6,1.8-4.3,4-4.3c1.8,0,3.4,0.8,3.7,3h-1.8c-0.2-1.1-0.9-1.5-1.8-1.5
		c-1.3,0-2.2,1-2.2,2.6v0.1c0,1.7,0.9,2.7,2.2,2.7c1,0,1.8-0.6,1.9-1.7h1.7c-0.1,1.8-1.5,3.1-3.7,3.1C79.3,12,77.5,10.5,77.5,7.9z"
		/>
	<path class="st0" d="M86.3,7.9L86.3,7.9c0-2.6,1.7-4.2,4-4.2c2,0,3.8,1.2,3.8,4v0.6h-5.9c0.1,1.5,0.8,2.4,2.2,2.4
		c1.1,0,1.7-0.4,1.8-1.2H94c-0.3,1.7-1.6,2.6-3.7,2.6C88,12,86.3,10.5,86.3,7.9z M92.3,7c-0.1-1.4-0.8-2-1.9-2s-1.9,0.8-2.1,2H92.3z
		"/>
	<path class="st0" d="M95.8,3.8h1.9v1.5c0.5-1,1.3-1.6,2.6-1.6v1.7c-1.6,0-2.6,0.5-2.6,2.2v4.2h-1.9V3.8z"/>
	<path class="st0" d="M101.7,1.5c0-0.6,0.5-1.1,1.1-1.1s1.1,0.5,1.1,1.1s-0.5,1.1-1.1,1.1C102.2,2.5,101.7,2.1,101.7,1.5z
		 M101.9,3.8h1.9v8h-1.9V3.8z"/>
	<path class="st0" d="M105.9,9V3.9h1.9v4.9c0,1.2,0.5,1.8,1.6,1.8c1,0,1.9-0.6,1.9-1.9V3.9h1.9v8h-1.9v-1.3
		c-0.4,0.8-1.2,1.4-2.5,1.4C107.1,12,105.9,11.1,105.9,9z"/>
	<path class="st0" d="M114.7,9.4h1.7c0.1,0.8,0.5,1.3,1.6,1.3c1,0,1.4-0.4,1.4-1c0-0.7-0.5-0.9-1.7-1.1c-2.1-0.3-2.9-0.9-2.9-2.4
		c0-1.6,1.5-2.4,3-2.4c1.6,0,2.9,0.6,3.1,2.4h-1.7c-0.2-0.7-0.6-1.1-1.4-1.1s-1.3,0.4-1.3,1s0.4,0.8,1.7,1c1.9,0.3,3,0.8,3,2.5
		c0,1.6-1.1,2.6-3.2,2.6C116,12,114.7,11.1,114.7,9.4z"/>
	<path class="st0" d="M126.1,6.4L126.1,6.4c0-3.4,2.3-5.7,5.3-5.7c2.5,0,4.5,1.3,4.7,3.8H134c-0.2-1.5-1-2.2-2.6-2.2
		c-1.9,0-3.2,1.5-3.2,4v0.1c0,2.5,1.2,3.9,3.2,3.9c1.5,0,2.6-0.8,2.8-2.3h2c-0.3,2.6-2.2,4-4.8,4C128,12,126.1,9.8,126.1,6.4z"/>
	<path class="st0" d="M137.3,7.9L137.3,7.9c0-2.6,1.7-4.2,4-4.2c2,0,3.8,1.2,3.8,4v0.6h-5.9c0.1,1.5,0.8,2.4,2.2,2.4
		c1.1,0,1.7-0.4,1.8-1.2h1.8c-0.3,1.7-1.6,2.6-3.7,2.6C139,12,137.3,10.5,137.3,7.9z M143.3,7c-0.1-1.4-0.8-2-1.9-2
		c-1.1,0-1.9,0.8-2.1,2H143.3z"/>
	<path class="st0" d="M146.8,3.8h1.9v1.3c0.4-0.8,1.3-1.4,2.6-1.4c1.6,0,2.7,0.9,2.7,3.1v5h-1.9V6.9c0-1.2-0.5-1.8-1.6-1.8
		c-1,0-1.9,0.6-1.9,1.9v4.7h-1.9L146.8,3.8L146.8,3.8z"/>
	<path class="st0" d="M156.4,9.6V5.2h-1.1V3.8h1.1V2h1.9v1.8h1.8v1.4h-1.8v4.2c0,0.7,0.3,1,0.9,1c0.4,0,0.6,0,0.9-0.2v1.5
		c-0.3,0.1-0.7,0.2-1.3,0.2C157.2,12,156.4,11.1,156.4,9.6z"/>
	<path class="st0" d="M161.2,7.9L161.2,7.9c0-2.6,1.7-4.2,4-4.2c2,0,3.8,1.2,3.8,4v0.6h-5.9c0.1,1.5,0.8,2.4,2.2,2.4
		c1.1,0,1.7-0.4,1.8-1.2h1.8c-0.3,1.7-1.6,2.6-3.7,2.6C162.9,12,161.2,10.5,161.2,7.9z M167.1,7c-0.1-1.4-0.8-2-1.9-2
		c-1.1,0-1.9,0.8-2.1,2H167.1z"/>
	<path class="st0" d="M170.6,3.8h1.9v1.5c0.5-1,1.3-1.6,2.6-1.6v1.7c-1.6,0-2.6,0.5-2.6,2.2v4.2h-1.9V3.8z"/>
	<path class="st0" d="M180.7,5.2h-1.1V3.8h1.1V2.7c0-1.8,1-2.7,2.7-2.7c0.4,0,0.7,0,1.1,0.2v1.4c-0.2-0.1-0.5-0.1-0.8-0.1
		c-0.8,0-1.1,0.5-1.1,1.2v1.1h1.8v1.4h-1.8v6.6h-1.9V5.2z"/>
	<path class="st0" d="M185.1,7.9L185.1,7.9c0-2.6,1.8-4.2,4.1-4.2s4.1,1.6,4.1,4.1v0.1c0,2.5-1.8,4.1-4.1,4.1
		C186.8,12,185.1,10.4,185.1,7.9z M191.4,7.9L191.4,7.9c0-1.8-0.8-2.8-2.2-2.8s-2.2,1-2.2,2.7v0.1c0,1.6,0.8,2.7,2.2,2.7
		C190.6,10.6,191.4,9.5,191.4,7.9z"/>
	<path class="st0" d="M195,3.8h1.9v1.5c0.5-1,1.3-1.6,2.6-1.6v1.7c-1.6,0-2.6,0.5-2.6,2.2v4.2H195V3.8z"/>
</g>
<g class="st2">
	<path class="st0" d="M59.1,18.2h2v9.3h4.7v1.6h-6.7C59.1,29.1,59.1,18.2,59.1,18.2z"/>
	<path class="st0" d="M66.7,25.2L66.7,25.2c0-2.6,1.7-4.2,4-4.2c2,0,3.8,1.2,3.8,4v0.5h-5.9c0.1,1.5,0.8,2.4,2.2,2.4
		c1.1,0,1.7-0.4,1.8-1.2h1.8c-0.3,1.7-1.6,2.6-3.7,2.6C68.4,29.3,66.7,27.7,66.7,25.2z M72.6,24.3c-0.1-1.4-0.8-2-1.9-2
		s-1.9,0.8-2.1,2H72.6z"/>
	<path class="st0" d="M75.6,29.4h1.9c0.2,0.8,0.8,1.3,2,1.3c1.4,0,2.2-0.7,2.2-2.2v-1.2c-0.4,0.8-1.4,1.5-2.6,1.5
		c-2,0-3.6-1.5-3.6-3.8v-0.1c0-2.3,1.5-3.9,3.6-3.9c1.3,0,2.1,0.6,2.6,1.4v-1.2h1.9v7.4c0,2.4-1.6,3.5-4.1,3.5
		C77,32.1,75.9,30.9,75.6,29.4z M81.8,24.9L81.8,24.9c0-1.6-0.8-2.5-2.2-2.5c-1.4,0-2.2,1-2.2,2.5V25c0,1.5,0.9,2.4,2.1,2.4
		C80.9,27.4,81.8,26.5,81.8,24.9z"/>
	<path class="st0" d="M85.2,26.9c0-1.9,1.8-2.5,4.1-2.5h1V24c0-1.1-0.4-1.6-1.5-1.6c-1,0-1.4,0.5-1.5,1.3h-1.8
		c0.2-1.9,1.6-2.7,3.4-2.7s3.2,0.7,3.2,2.9v5.3h-1.8v-1c-0.5,0.7-1.2,1.1-2.5,1.1C86.4,29.3,85.2,28.6,85.2,26.9z M90.3,26.3v-0.8
		h-1c-1.4,0-2.3,0.3-2.3,1.3c0,0.7,0.4,1.1,1.3,1.1C89.5,27.9,90.3,27.3,90.3,26.3z"/>
	<path class="st0" d="M94.3,17.4h1.9v11.7h-1.9V17.4z"/>
	<path class="st0" d="M104.4,19.8h-3v-1.6h8.2v1.6h-3v9.4h-2.1L104.4,19.8L104.4,19.8z"/>
	<path class="st0" d="M109.4,25.2L109.4,25.2c0-2.6,1.7-4.2,4-4.2c2,0,3.8,1.2,3.8,4v0.5h-5.9c0.1,1.5,0.8,2.4,2.2,2.4
		c1.1,0,1.7-0.4,1.8-1.2h1.8c-0.3,1.7-1.6,2.6-3.7,2.6C111.1,29.3,109.4,27.7,109.4,25.2z M115.3,24.3c-0.1-1.4-0.8-2-1.9-2
		s-1.9,0.8-2.1,2H115.3z"/>
	<path class="st0" d="M118.2,25.2L118.2,25.2c0-2.6,1.8-4.3,4-4.3c1.8,0,3.4,0.8,3.7,3h-1.8c-0.2-1.1-0.9-1.5-1.8-1.5
		c-1.3,0-2.2,1-2.2,2.6v0.1c0,1.7,0.9,2.7,2.2,2.7c1,0,1.8-0.6,1.9-1.7h1.7c-0.1,1.8-1.5,3.1-3.7,3.1
		C120,29.3,118.2,27.8,118.2,25.2z"/>
	<path class="st0" d="M127.6,17.4h1.9v5c0.4-0.8,1.3-1.4,2.6-1.4c1.6,0,2.7,0.9,2.7,3.1v5h-1.9v-4.8c0-1.2-0.5-1.8-1.6-1.8
		c-1,0-1.9,0.6-1.9,1.9v4.7h-1.9L127.6,17.4L127.6,17.4z"/>
	<path class="st0" d="M136.9,21.1h1.9v1.3c0.4-0.8,1.3-1.4,2.6-1.4c1.6,0,2.7,0.9,2.7,3.1v5h-1.9v-4.8c0-1.2-0.5-1.8-1.6-1.8
		c-1,0-1.9,0.6-1.9,1.9v4.7h-1.9L136.9,21.1L136.9,21.1z"/>
	<path class="st0" d="M145.7,25.2L145.7,25.2c0-2.6,1.8-4.2,4.1-4.2s4.1,1.6,4.1,4.1v0.1c0,2.5-1.8,4.1-4.1,4.1
		C147.4,29.3,145.7,27.6,145.7,25.2z M152,25.2L152,25.2c0-1.8-0.8-2.8-2.2-2.8s-2.2,1-2.2,2.7v0.1c0,1.6,0.8,2.7,2.2,2.7
		C151.2,27.8,152,26.8,152,25.2z"/>
	<path class="st0" d="M155.6,17.4h1.9v11.7h-1.9V17.4z"/>
	<path class="st0" d="M159.2,25.2L159.2,25.2c0-2.6,1.8-4.2,4.1-4.2s4.1,1.6,4.1,4.1v0.1c0,2.5-1.8,4.1-4.1,4.1
		S159.2,27.6,159.2,25.2z M165.5,25.2L165.5,25.2c0-1.8-0.8-2.8-2.2-2.8s-2.2,1-2.2,2.7v0.1c0,1.6,0.8,2.7,2.2,2.7
		C164.7,27.8,165.5,26.8,165.5,25.2z"/>
	<path class="st0" d="M168.7,29.4h1.9c0.2,0.8,0.8,1.3,2,1.3c1.4,0,2.2-0.7,2.2-2.2v-1.2c-0.4,0.8-1.4,1.5-2.6,1.5
		c-2,0-3.6-1.5-3.6-3.8v-0.1c0-2.3,1.5-3.9,3.6-3.9c1.3,0,2.1,0.6,2.6,1.4v-1.2h1.9v7.4c0,2.4-1.6,3.5-4.1,3.5
		C170,32.1,168.9,30.9,168.7,29.4z M174.8,24.9L174.8,24.9c0-1.6-0.8-2.5-2.2-2.5s-2.2,1-2.2,2.5V25c0,1.5,0.9,2.4,2.1,2.4
		C173.9,27.4,174.8,26.5,174.8,24.9z"/>
	<path class="st0" d="M181.2,28.3l-3.2-7.2h2l2.1,5.2l2-5.2h1.8l-4.4,10.8h-1.8L181.2,28.3z"/>
</g>
<g class="st2">
	<path class="st0" d="M58.3,44.1c0-1.9,1.8-2.5,4.1-2.5h1v-0.4c0-1.1-0.4-1.6-1.5-1.6c-1,0-1.4,0.5-1.5,1.3h-1.8
		c0.2-1.9,1.6-2.7,3.4-2.7c1.8,0,3.2,0.7,3.2,2.9v5.2h-1.8v-1c-0.5,0.7-1.2,1.1-2.5,1.1C59.5,46.5,58.3,45.8,58.3,44.1z M63.4,43.5
		v-0.8h-1c-1.4,0-2.3,0.3-2.3,1.3c0,0.7,0.4,1.1,1.3,1.1C62.6,45.1,63.4,44.5,63.4,43.5z"/>
	<path class="st0" d="M67.4,38.3h1.9v1.3c0.4-0.8,1.3-1.4,2.6-1.4c1.6,0,2.7,0.9,2.7,3.1v5h-1.9v-4.9c0-1.2-0.5-1.8-1.6-1.8
		c-1,0-1.9,0.6-1.9,1.9v4.8h-1.9v-8H67.4z"/>
	<path class="st0" d="M76.2,42.4L76.2,42.4c0-2.7,1.5-4.3,3.6-4.3c1.3,0,2.1,0.6,2.6,1.4v-4.9h1.9v11.7h-1.9V45
		c-0.4,0.8-1.5,1.5-2.6,1.5C77.7,46.5,76.2,45,76.2,42.4z M82.4,42.3L82.4,42.3c0-1.9-0.8-2.7-2.2-2.7c-1.4,0-2.2,0.9-2.2,2.7v0.1
		c0,1.8,0.9,2.6,2.1,2.6C81.5,45,82.4,44.1,82.4,42.3z"/>
	<path class="st0" d="M90.2,35.3h3.3c3.8,0,5.7,2.2,5.7,5.4v0.1c0,3.2-1.9,5.5-5.7,5.5h-3.3V35.3z M93.5,44.7c2.5,0,3.6-1.4,3.6-3.8
		v-0.1c0-2.4-1.1-3.8-3.6-3.8h-1.2v7.7H93.5z"/>
	<path class="st0" d="M100.4,44.1c0-1.9,1.8-2.5,4.1-2.5h1v-0.4c0-1.1-0.4-1.6-1.5-1.6c-1,0-1.4,0.5-1.5,1.3h-1.8
		c0.2-1.9,1.6-2.7,3.4-2.7s3.2,0.7,3.2,2.9v5.2h-1.8v-1c-0.5,0.7-1.2,1.1-2.5,1.1C101.7,46.5,100.4,45.8,100.4,44.1z M105.6,43.5
		v-0.8h-1c-1.4,0-2.3,0.3-2.3,1.3c0,0.7,0.4,1.1,1.3,1.1C104.7,45.1,105.6,44.5,105.6,43.5z"/>
	<path class="st0" d="M109.8,44.1v-4.4h-1.1v-1.4h1.1v-1.8h1.9v1.8h1.8v1.4h-1.8v4.2c0,0.7,0.3,1,0.9,1c0.4,0,0.6,0,0.9-0.2v1.5
		c-0.3,0.1-0.7,0.2-1.3,0.2C110.7,46.4,109.8,45.6,109.8,44.1z"/>
	<path class="st0" d="M114.7,44.1c0-1.9,1.8-2.5,4.1-2.5h1v-0.4c0-1.1-0.4-1.6-1.5-1.6c-1,0-1.4,0.5-1.5,1.3H115
		c0.2-1.9,1.6-2.7,3.4-2.7s3.2,0.7,3.2,2.9v5.2h-1.8v-1c-0.5,0.7-1.2,1.1-2.5,1.1C115.9,46.5,114.7,45.8,114.7,44.1z M119.8,43.5
		v-0.8h-0.9c-1.4,0-2.3,0.3-2.3,1.3c0,0.7,0.4,1.1,1.3,1.1C118.9,45.1,119.8,44.5,119.8,43.5z"/>
	<path class="st0" d="M126.9,42.9h2c0.1,1.1,0.6,2,2.4,2c1.2,0,2.1-0.7,2.1-1.7s-0.5-1.4-2.3-1.7c-2.6-0.4-3.9-1.1-3.9-3.2
		c0-1.8,1.5-3.1,3.8-3.1c2.4,0,3.8,1.1,4,3.2h-1.9c-0.2-1.1-0.9-1.6-2.1-1.6c-1.2,0-1.9,0.6-1.9,1.4c0,0.9,0.4,1.3,2.3,1.6
		c2.6,0.4,3.9,1.1,3.9,3.3c0,1.9-1.6,3.4-4,3.4C128.3,46.5,127.1,45,126.9,42.9z"/>
	<path class="st0" d="M136.6,42.4L136.6,42.4c0-2.6,1.8-4.3,4-4.3c1.8,0,3.4,0.8,3.7,3h-1.8c-0.2-1.1-0.9-1.5-1.8-1.5
		c-1.3,0-2.2,1-2.2,2.6v0.1c0,1.7,0.9,2.7,2.2,2.7c1,0,1.8-0.6,1.9-1.7h1.7c-0.1,1.8-1.5,3.1-3.7,3.1
		C138.4,46.5,136.6,45,136.6,42.4z"/>
	<path class="st0" d="M145.8,35.9c0-0.6,0.5-1.1,1.1-1.1s1.1,0.5,1.1,1.1s-0.5,1.1-1.1,1.1S145.8,36.5,145.8,35.9z M146,38.3h1.9v8
		H146V38.3z"/>
	<path class="st0" d="M149.6,42.4L149.6,42.4c0-2.6,1.7-4.2,4-4.2c2,0,3.8,1.2,3.8,4v0.5h-5.9c0.1,1.5,0.8,2.4,2.2,2.4
		c1.1,0,1.7-0.4,1.8-1.2h1.8c-0.3,1.7-1.6,2.6-3.7,2.6C151.3,46.5,149.6,44.9,149.6,42.4z M155.5,41.5c-0.1-1.4-0.8-2-1.9-2
		c-1.1,0-1.9,0.8-2.1,2H155.5z"/>
	<path class="st0" d="M159,38.3h1.9v1.3c0.4-0.8,1.3-1.4,2.6-1.4c1.6,0,2.7,0.9,2.7,3.1v5h-1.9v-4.9c0-1.2-0.5-1.8-1.6-1.8
		c-1,0-1.9,0.6-1.9,1.9v4.8H159V38.3z"/>
	<path class="st0" d="M167.8,42.4L167.8,42.4c0-2.6,1.8-4.3,4-4.3c1.8,0,3.4,0.8,3.7,3h-1.8c-0.2-1.1-0.9-1.5-1.8-1.5
		c-1.3,0-2.2,1-2.2,2.6v0.1c0,1.7,0.9,2.7,2.2,2.7c1,0,1.8-0.6,1.9-1.7h1.7c-0.1,1.8-1.5,3.1-3.7,3.1
		C169.5,46.5,167.8,45,167.8,42.4z"/>
	<path class="st0" d="M176.6,42.4L176.6,42.4c0-2.6,1.7-4.2,4-4.2c2,0,3.8,1.2,3.8,4v0.5h-5.9c0.1,1.5,0.8,2.4,2.2,2.4
		c1.1,0,1.7-0.4,1.8-1.2h1.8c-0.3,1.7-1.6,2.6-3.7,2.6C178.3,46.5,176.6,44.9,176.6,42.4z M182.5,41.5c-0.1-1.4-0.8-2-1.9-2
		c-1.1,0-1.9,0.8-2.1,2H182.5z"/>
</g>
</svg>
