<?xml version="1.0" encoding="utf-8"?>
<!-- Generator: Adobe Illustrator 24.1.2, SVG Export Plug-In . SVG Version: 6.00 Build 0)  -->
<svg version="1.1" id="Layer_1" xmlns="http://www.w3.org/2000/svg" xmlns:xlink="http://www.w3.org/1999/xlink" x="0px" y="0px"
	 viewBox="0 0 200 100" style="enable-background:new 0 0 200 100;" xml:space="preserve">
<style type="text/css">
	.st0{fill:none;}
	.st1{fill:#A91E2C;}
	.st2{fill:#FFFFFF;}
	.st3{enable-background:new    ;}
</style>
<rect x="0.3" y="26.7" class="st0" width="47.7" height="47.7"/>
<circle class="st1" cx="24.1" cy="50.6" r="23.8"/>
<g>
	<g>
		<g>
			<path class="st2" d="M15.9,38.5c-0.6,0-1.1-0.5-1.1-1.1c0-0.6,0.5-1.1,1.1-1.1c0.6,0,1.1,0.5,1.1,1.1C17,38,16.5,38.5,15.9,38.5z
				 M15.9,37c-0.2,0-0.4,0.2-0.4,0.4c0,0.2,0.2,0.4,0.4,0.4c0.2,0,0.4-0.2,0.4-0.4C16.3,37.2,16.2,37,15.9,37z"/>
		</g>
		<g>
			<path class="st2" d="M18.5,36c-0.6,0-1.1-0.5-1.1-1.1s0.5-1.1,1.1-1.1c0.6,0,1.1,0.5,1.1,1.1S19.1,36,18.5,36z M18.5,34.4
				c-0.2,0-0.4,0.2-0.4,0.4c0,0.2,0.2,0.5,0.4,0.5c0.2,0,0.4-0.2,0.4-0.4C18.9,34.7,18.8,34.4,18.5,34.4z"/>
		</g>
		<g>
			<path class="st2" d="M23.2,36.7c-0.6,0-1.1-0.5-1.1-1.1s0.5-1.1,1.1-1.1s1.1,0.5,1.1,1.1S23.7,36.7,23.2,36.7z M23.2,35.3
				c-0.2,0-0.4,0.2-0.4,0.4s0.2,0.4,0.4,0.4c0.2,0,0.4-0.2,0.4-0.4S23.4,35.3,23.2,35.3z"/>
		</g>
		<g>
			<path class="st2" d="M25.1,34.9c-0.6,0-1.1-0.5-1.1-1.1s0.5-1.1,1.1-1.1s1.1,0.5,1.1,1.1S25.7,34.9,25.1,34.9z M25.1,33.4
				c-0.2,0-0.4,0.2-0.4,0.4s0.2,0.4,0.4,0.4c0.2,0,0.4-0.2,0.4-0.4C25.6,33.6,25.4,33.4,25.1,33.4z"/>
		</g>
		<g>
			<path class="st2" d="M28.3,35.4c-0.6,0-1.1-0.5-1.1-1.1s0.5-1.1,1.1-1.1s1.1,0.5,1.1,1.1S28.9,35.4,28.3,35.4z M28.3,33.9
				c-0.2,0-0.4,0.2-0.4,0.4c0,0.2,0.2,0.4,0.4,0.4c0.2,0,0.4-0.2,0.4-0.4C28.8,34,28.5,33.9,28.3,33.9z"/>
		</g>
		<g>
			<path class="st2" d="M34.8,41.1c-0.6,0-1.1-0.5-1.1-1.1s0.5-1.1,1.1-1.1c0.6,0,1.1,0.5,1.1,1.1S35.3,41.1,34.8,41.1z M34.8,39.6
				c-0.2,0-0.4,0.2-0.4,0.4c0,0.2,0.2,0.4,0.4,0.4c0.2,0,0.4-0.2,0.4-0.4C35.2,39.8,35,39.6,34.8,39.6z"/>
		</g>
		<g>
			<path class="st2" d="M34.4,45.3c-0.6,0-1.1-0.5-1.1-1.1s0.5-1.1,1.1-1.1s1.1,0.5,1.1,1.1S34.9,45.3,34.4,45.3z M34.4,43.8
				c-0.2,0-0.4,0.2-0.4,0.4s0.2,0.4,0.4,0.4s0.4-0.2,0.4-0.4C34.9,44,34.6,43.8,34.4,43.8z"/>
		</g>
		<g>
			<path class="st2" d="M31.5,36.9c-0.6,0-1.1-0.5-1.1-1.1s0.5-1.1,1.1-1.1c0.6,0,1.1,0.5,1.1,1.1C32.5,36.5,32,36.9,31.5,36.9z
				 M31.5,35.5c-0.2,0-0.4,0.2-0.4,0.4s0.2,0.4,0.4,0.4c0.2,0,0.4-0.2,0.4-0.4S31.7,35.5,31.5,35.5z"/>
		</g>
		<g>
			<path class="st2" d="M21.4,33.6c-0.6,0-1.1-0.5-1.1-1.1c0-0.6,0.5-1.1,1.1-1.1c0.6,0,1.1,0.5,1.1,1.1
				C22.4,33.2,21.9,33.6,21.4,33.6z M21.4,32.1c-0.2,0-0.4,0.2-0.4,0.4c0,0.2,0.2,0.4,0.4,0.4c0.2,0,0.4-0.2,0.4-0.4
				C21.8,32.3,21.7,32.1,21.4,32.1z"/>
		</g>
		<g>
			<path class="st2" d="M13,41.9c-0.6,0-1.1-0.5-1.1-1.1s0.5-1.1,1.1-1.1s1.1,0.5,1.1,1.1S13.5,41.9,13,41.9z M13,40.3
				c-0.2,0-0.4,0.2-0.4,0.4c0,0.2,0.2,0.4,0.4,0.4s0.4-0.2,0.4-0.4C13.4,40.6,13.2,40.3,13,40.3z"/>
		</g>
		<g>
			<path class="st2" d="M11.6,46.4c-0.6,0-1.1-0.5-1.1-1.1s0.5-1.1,1.1-1.1s1.1,0.5,1.1,1.1S12.1,46.4,11.6,46.4z M11.6,44.8
				c-0.2,0-0.4,0.2-0.4,0.4c0,0.2,0.2,0.4,0.4,0.4s0.4-0.2,0.4-0.4C12,45.1,11.8,44.8,11.6,44.8z"/>
		</g>
		<g>
			<polygon class="st2" points="20.3,68.4 19.4,68.4 19.4,65.7 21.7,63.5 21.7,49.5 19.3,47.2 19.3,44.8 15.7,41.1 15.7,38.3 
				16.4,38.3 16.4,40.8 20.1,44.4 20.1,46.8 22.4,49.2 22.4,63.8 20.3,66 			"/>
		</g>
		<g>
			<polygon class="st2" points="19.4,47.3 17.9,45.8 15,45.8 15,43.4 13.2,41.6 13.7,41 15.7,43.1 15.7,45 18.2,45 20,46.7 			"/>
		</g>
		<g>
			<polygon class="st2" points="22.2,68.4 21.4,68.4 21.4,66.5 23,64.9 23,48.7 21,46.6 21,33 21.8,33 21.8,46.4 23.8,48.4 
				23.8,65.3 22.2,66.8 			"/>
		</g>
		<g>
			<polygon class="st2" points="21,43.1 18.2,40.2 18.2,35.7 18.8,35.7 18.8,39.9 21.5,42.6 			"/>
		</g>
		<g>
			<polygon class="st2" points="28.3,68.4 27.4,68.4 27.4,66.4 24.3,63.3 24.3,48.8 26.1,46.9 26.1,45.7 22.8,42.3 22.8,36.5 
				23.6,36.5 23.6,42 26.9,45.4 26.9,47.3 25.1,49.1 25.1,62.9 28.3,66.1 			"/>
		</g>
		<g>
			<polygon class="st2" points="26.9,45.5 26.1,45.5 26.1,39.7 28,37.9 28,35.3 28.7,35.3 28.7,38.2 26.9,40 			"/>
		</g>
		<g>
			<polygon class="st2" points="23.5,39.6 23,39 24.9,37.1 24.9,34.5 25.6,34.5 25.6,37.5 			"/>
		</g>
		<g>
			<polygon class="st2" points="29.5,68.4 28.7,68.4 28.7,66 25.8,63 25.8,49.7 28.7,46.8 28.7,41.3 31.2,38.9 31.2,36.6 31.9,36.6 
				31.9,39.2 29.5,41.6 29.5,47.2 26.6,50 26.6,62.8 29.5,65.6 			"/>
		</g>
		<g>
			<polygon class="st2" points="29.4,47.3 28.8,46.7 31.2,44.4 31.2,41.2 32.7,39.8 34.3,39.8 34.3,40.5 33,40.5 31.9,41.6 
				31.9,44.8 			"/>
		</g>
		<g>
			<rect x="12.4" y="45" class="st2" width="3.2" height="0.8"/>
		</g>
		<g>
			<polygon class="st2" points="24.6,68.4 23.8,68.4 23.8,67.7 25.1,66.3 25.1,64.1 25.9,64.1 25.9,66.7 24.6,68 			"/>
		</g>
		<g>
			<rect x="31.7" y="44" class="st2" width="2" height="0.8"/>
		</g>
		<g>
			<polygon class="st2" points="17.1,49.8 16.5,49.3 19.2,46.6 19.7,47.2 			"/>
		</g>
		<g>
			<path class="st2" d="M16.3,51.1c-0.6,0-1.1-0.5-1.1-1.1s0.5-1.1,1.1-1.1s1.1,0.5,1.1,1.1C17.3,50.6,16.9,51.1,16.3,51.1z
				 M16.3,49.6c-0.2,0-0.4,0.2-0.4,0.4s0.2,0.4,0.4,0.4c0.2,0,0.4-0.2,0.4-0.4C16.7,49.8,16.5,49.6,16.3,49.6z"/>
		</g>
		<g>
			<rect x="28.4" y="47.3" class="st2" width="2.8" height="0.8"/>
		</g>
		<g>
			<path class="st2" d="M31.9,48.7c-0.6,0-1.1-0.5-1.1-1.1s0.5-1.1,1.1-1.1S33,47,33,47.6S32.5,48.7,31.9,48.7z M31.9,47.1
				c-0.2,0-0.4,0.2-0.4,0.4c0,0.2,0.2,0.4,0.4,0.4s0.4-0.2,0.4-0.4C32.4,47.4,32.2,47.1,31.9,47.1z"/>
		</g>
	</g>
</g>
<g class="st3">
	<path d="M59.1,27.6H63c2.3,0,3.6,0.9,3.6,2.9v0.1c0,1.1-0.5,1.9-1.7,2.3c1.5,0.3,2.2,1.1,2.2,2.6v0.1c0,2-1.3,3.1-3.8,3.1h-4.2
		V27.6z M62.7,32.2c1.3,0,1.9-0.5,1.9-1.6v-0.1c0-1-0.6-1.5-1.9-1.5h-1.7v3.2H62.7z M63,37.1c1.4,0,2-0.6,2-1.7v-0.1
		c0-1.1-0.6-1.7-2.1-1.7h-1.8v3.5H63z"/>
	<path d="M68.7,35.7v-5.1h1.9v4.9c0,1.2,0.5,1.8,1.6,1.8c1,0,1.9-0.6,1.9-1.9v-4.8h1.9v8H74v-1.3c-0.4,0.8-1.2,1.4-2.5,1.4
		C69.9,38.7,68.7,37.8,68.7,35.7z"/>
	<path d="M77.5,34.6v-0.1c0-2.5,1.8-4.2,4-4.2c1.8,0,3.4,0.8,3.7,3h-1.8c-0.2-1.1-0.9-1.5-1.8-1.5c-1.3,0-2.2,1-2.2,2.6v0.1
		c0,1.7,0.9,2.7,2.2,2.7c1,0,1.8-0.6,1.9-1.7h1.7c-0.1,1.8-1.5,3.1-3.7,3.1C79.3,38.7,77.5,37.2,77.5,34.6z"/>
	<path d="M86.3,34.6v-0.1c0-2.5,1.7-4.1,4-4.1c2,0,3.8,1.2,3.8,4V35h-5.9c0.1,1.5,0.8,2.4,2.2,2.4c1.1,0,1.7-0.4,1.8-1.2h1.8
		c-0.3,1.7-1.6,2.6-3.7,2.6C88,38.7,86.3,37.2,86.3,34.6z M92.3,33.7c-0.1-1.4-0.8-2-1.9-2c-1.1,0-1.9,0.8-2.1,2H92.3z"/>
	<path d="M95.8,30.5h1.9V32c0.5-1,1.3-1.6,2.6-1.6v1.7c-1.6,0-2.6,0.5-2.6,2.2v4.2h-1.9V30.5z"/>
	<path d="M101.7,28.2c0-0.6,0.5-1.1,1.1-1.1c0.6,0,1.1,0.5,1.1,1.1c0,0.6-0.5,1.1-1.1,1.1C102.2,29.2,101.7,28.8,101.7,28.2z
		 M101.9,30.5h1.9v8h-1.9V30.5z"/>
	<path d="M105.9,35.7v-5.1h1.9v4.9c0,1.2,0.5,1.8,1.6,1.8c1,0,1.9-0.6,1.9-1.9v-4.8h1.9v8h-1.9v-1.3c-0.4,0.8-1.2,1.4-2.5,1.4
		C107.1,38.7,105.9,37.8,105.9,35.7z"/>
	<path d="M114.7,36.1h1.7c0.1,0.8,0.5,1.3,1.6,1.3c1,0,1.4-0.4,1.4-1c0-0.7-0.5-0.9-1.7-1.1c-2.1-0.3-2.9-0.9-2.9-2.4
		c0-1.6,1.5-2.4,3-2.4c1.6,0,2.9,0.6,3.1,2.4h-1.7c-0.2-0.7-0.6-1.1-1.4-1.1c-0.8,0-1.3,0.4-1.3,1c0,0.6,0.4,0.8,1.7,1
		c1.9,0.3,3,0.8,3,2.5c0,1.6-1.1,2.6-3.2,2.6C116,38.7,114.7,37.8,114.7,36.1z"/>
	<path d="M126.1,33.1V33c0-3.3,2.3-5.6,5.3-5.6c2.5,0,4.5,1.3,4.7,3.8h-2.1c-0.2-1.5-1-2.2-2.6-2.2c-1.9,0-3.2,1.5-3.2,4v0.1
		c0,2.5,1.2,3.9,3.2,3.9c1.5,0,2.6-0.8,2.8-2.3h2c-0.3,2.6-2.2,4-4.8,4C128,38.7,126.1,36.5,126.1,33.1z"/>
	<path d="M137.3,34.6v-0.1c0-2.5,1.7-4.1,4-4.1c2,0,3.8,1.2,3.8,4V35h-5.9c0.1,1.5,0.8,2.4,2.2,2.4c1.1,0,1.7-0.4,1.8-1.2h1.8
		c-0.3,1.7-1.6,2.6-3.7,2.6C139,38.7,137.3,37.2,137.3,34.6z M143.3,33.7c-0.1-1.4-0.8-2-1.9-2c-1.1,0-1.9,0.8-2.1,2H143.3z"/>
	<path d="M146.8,30.5h1.9v1.3c0.4-0.8,1.3-1.4,2.6-1.4c1.6,0,2.7,0.9,2.7,3.1v5h-1.9v-4.9c0-1.2-0.5-1.8-1.6-1.8
		c-1,0-1.9,0.6-1.9,1.9v4.7h-1.9V30.5z"/>
	<path d="M156.4,36.3v-4.4h-1.1v-1.4h1.1v-1.8h1.9v1.8h1.8v1.4h-1.8v4.2c0,0.7,0.3,1,0.9,1c0.4,0,0.6,0,0.9-0.2v1.5
		c-0.3,0.1-0.7,0.2-1.3,0.2C157.2,38.7,156.4,37.8,156.4,36.3z"/>
	<path d="M161.2,34.6v-0.1c0-2.5,1.7-4.1,4-4.1c2,0,3.8,1.2,3.8,4V35h-5.9c0.1,1.5,0.8,2.4,2.2,2.4c1.1,0,1.7-0.4,1.8-1.2h1.8
		c-0.3,1.7-1.6,2.6-3.7,2.6C162.9,38.7,161.2,37.2,161.2,34.6z M167.1,33.7c-0.1-1.4-0.8-2-1.9-2c-1.1,0-1.9,0.8-2.1,2H167.1z"/>
	<path d="M170.6,30.5h1.9V32c0.5-1,1.3-1.6,2.6-1.6v1.7c-1.6,0-2.6,0.5-2.6,2.2v4.2h-1.9V30.5z"/>
	<path d="M180.7,31.9h-1.1v-1.4h1.1v-1.1c0-1.8,1-2.7,2.7-2.7c0.4,0,0.7,0,1.1,0.2v1.4c-0.2-0.1-0.5-0.1-0.8-0.1
		c-0.8,0-1.1,0.5-1.1,1.2v1.1h1.8v1.4h-1.8v6.6h-1.9V31.9z"/>
	<path d="M185.1,34.6v-0.1c0-2.5,1.8-4.1,4.1-4.1c2.3,0,4.1,1.6,4.1,4.1v0.1c0,2.5-1.8,4.1-4.1,4.1
		C186.8,38.7,185.1,37.1,185.1,34.6z M191.4,34.6v-0.1c0-1.7-0.8-2.7-2.2-2.7c-1.4,0-2.2,1-2.2,2.7v0.1c0,1.6,0.8,2.7,2.2,2.7
		C190.6,37.3,191.4,36.2,191.4,34.6z"/>
	<path d="M195,30.5h1.9V32c0.5-1,1.3-1.6,2.6-1.6v1.7c-1.6,0-2.6,0.5-2.6,2.2v4.2H195V30.5z"/>
</g>
<g class="st3">
	<path d="M59.1,44.9h2v9.3h4.7v1.6h-6.7V44.9z"/>
	<path d="M66.7,51.9v-0.1c0-2.5,1.7-4.1,4-4.1c2,0,3.8,1.2,3.8,4v0.5h-5.9c0.1,1.5,0.8,2.4,2.2,2.4c1.1,0,1.7-0.4,1.8-1.2h1.8
		c-0.3,1.7-1.6,2.6-3.7,2.6C68.4,56,66.7,54.4,66.7,51.9z M72.6,51c-0.1-1.4-0.8-2-1.9-2c-1.1,0-1.9,0.8-2.1,2H72.6z"/>
	<path d="M75.6,56.1h1.9c0.2,0.8,0.8,1.3,2,1.3c1.4,0,2.2-0.7,2.2-2.2V54c-0.4,0.8-1.4,1.5-2.6,1.5c-2,0-3.6-1.5-3.6-3.8v-0.1
		c0-2.3,1.5-3.9,3.6-3.9c1.3,0,2.1,0.6,2.6,1.4v-1.2h1.9v7.4c0,2.4-1.6,3.5-4.1,3.5C77,58.8,75.9,57.6,75.6,56.1z M81.8,51.6v-0.1
		c0-1.5-0.8-2.4-2.2-2.4c-1.4,0-2.2,1-2.2,2.5v0.1c0,1.5,0.9,2.4,2.1,2.4C80.9,54.1,81.8,53.2,81.8,51.6z"/>
	<path d="M85.2,53.6c0-1.9,1.8-2.5,4.1-2.5h1v-0.4c0-1.1-0.4-1.6-1.5-1.6c-1,0-1.4,0.5-1.5,1.3h-1.8c0.2-1.9,1.6-2.7,3.4-2.7
		s3.2,0.7,3.2,2.9v5.3h-1.8v-1c-0.5,0.7-1.2,1.1-2.5,1.1C86.4,56,85.2,55.3,85.2,53.6z M90.3,53v-0.8h-1c-1.4,0-2.3,0.3-2.3,1.3
		c0,0.7,0.4,1.1,1.3,1.1C89.5,54.6,90.3,54,90.3,53z"/>
	<path d="M94.3,44.1h1.9v11.7h-1.9V44.1z"/>
	<path d="M104.4,46.5h-3v-1.6h8.2v1.6h-3v9.4h-2.1V46.5z"/>
	<path d="M109.4,51.9v-0.1c0-2.5,1.7-4.1,4-4.1c2,0,3.8,1.2,3.8,4v0.5h-5.9c0.1,1.5,0.8,2.4,2.2,2.4c1.1,0,1.7-0.4,1.8-1.2h1.8
		c-0.3,1.7-1.6,2.6-3.7,2.6C111.1,56,109.4,54.4,109.4,51.9z M115.3,51c-0.1-1.4-0.8-2-1.9-2c-1.1,0-1.9,0.8-2.1,2H115.3z"/>
	<path d="M118.2,51.9v-0.1c0-2.5,1.8-4.2,4-4.2c1.8,0,3.4,0.8,3.7,3h-1.8c-0.2-1.1-0.9-1.5-1.8-1.5c-1.3,0-2.2,1-2.2,2.6v0.1
		c0,1.7,0.9,2.7,2.2,2.7c1,0,1.8-0.6,1.9-1.7h1.7c-0.1,1.8-1.5,3.1-3.7,3.1C120,56,118.2,54.5,118.2,51.9z"/>
	<path d="M127.6,44.1h1.9v5c0.4-0.8,1.3-1.4,2.6-1.4c1.6,0,2.7,0.9,2.7,3.1v5h-1.9V51c0-1.2-0.5-1.8-1.6-1.8c-1,0-1.9,0.6-1.9,1.9
		v4.7h-1.9V44.1z"/>
	<path d="M136.9,47.8h1.9v1.3c0.4-0.8,1.3-1.4,2.6-1.4c1.6,0,2.7,0.9,2.7,3.1v5h-1.9V51c0-1.2-0.5-1.8-1.6-1.8c-1,0-1.9,0.6-1.9,1.9
		v4.7h-1.9V47.8z"/>
	<path d="M145.7,51.9v-0.1c0-2.5,1.8-4.1,4.1-4.1c2.3,0,4.1,1.6,4.1,4.1v0.1c0,2.5-1.8,4.1-4.1,4.1C147.4,56,145.7,54.3,145.7,51.9z
		 M152,51.9v-0.1c0-1.7-0.8-2.7-2.2-2.7c-1.4,0-2.2,1-2.2,2.7v0.1c0,1.6,0.8,2.7,2.2,2.7C151.2,54.5,152,53.5,152,51.9z"/>
	<path d="M155.6,44.1h1.9v11.7h-1.9V44.1z"/>
	<path d="M159.2,51.9v-0.1c0-2.5,1.8-4.1,4.1-4.1c2.3,0,4.1,1.6,4.1,4.1v0.1c0,2.5-1.8,4.1-4.1,4.1C161,56,159.2,54.3,159.2,51.9z
		 M165.5,51.9v-0.1c0-1.7-0.8-2.7-2.2-2.7c-1.4,0-2.2,1-2.2,2.7v0.1c0,1.6,0.8,2.7,2.2,2.7C164.7,54.5,165.5,53.5,165.5,51.9z"/>
	<path d="M168.7,56.1h1.9c0.2,0.8,0.8,1.3,2,1.3c1.4,0,2.2-0.7,2.2-2.2V54c-0.4,0.8-1.4,1.5-2.6,1.5c-2,0-3.6-1.5-3.6-3.8v-0.1
		c0-2.3,1.5-3.9,3.6-3.9c1.3,0,2.1,0.6,2.6,1.4v-1.2h1.9v7.4c0,2.4-1.6,3.5-4.1,3.5C170,58.8,168.9,57.6,168.7,56.1z M174.8,51.6
		v-0.1c0-1.5-0.8-2.4-2.2-2.4c-1.4,0-2.2,1-2.2,2.5v0.1c0,1.5,0.9,2.4,2.1,2.4C173.9,54.1,174.8,53.2,174.8,51.6z"/>
	<path d="M181.2,55l-3.2-7.2h2l2.1,5.2l2-5.2h1.8l-4.4,10.8h-1.8L181.2,55z"/>
</g>
<g class="st3">
	<path d="M58.3,70.8c0-1.9,1.8-2.5,4.1-2.5h1v-0.4c0-1.1-0.4-1.6-1.5-1.6c-1,0-1.4,0.5-1.5,1.3h-1.8c0.2-1.9,1.6-2.7,3.4-2.7
		c1.8,0,3.2,0.7,3.2,2.9V73h-1.8v-1c-0.5,0.7-1.2,1.1-2.5,1.1C59.5,73.2,58.3,72.5,58.3,70.8z M63.4,70.2v-0.8h-1
		c-1.4,0-2.3,0.3-2.3,1.3c0,0.7,0.4,1.1,1.3,1.1C62.6,71.8,63.4,71.2,63.4,70.2z"/>
	<path d="M67.4,65h1.9v1.3c0.4-0.8,1.3-1.4,2.6-1.4c1.6,0,2.7,0.9,2.7,3.1v5h-1.9v-4.9c0-1.2-0.5-1.8-1.6-1.8c-1,0-1.9,0.6-1.9,1.9
		V73h-1.9V65z"/>
	<path d="M76.2,69.1V69c0-2.6,1.5-4.2,3.6-4.2c1.3,0,2.1,0.6,2.6,1.4v-4.9h1.9V73h-1.9v-1.3c-0.4,0.8-1.5,1.5-2.6,1.5
		C77.7,73.2,76.2,71.7,76.2,69.1z M82.4,69v-0.1c0-1.8-0.8-2.6-2.2-2.6c-1.4,0-2.2,0.9-2.2,2.7v0.1c0,1.8,0.9,2.6,2.1,2.6
		C81.5,71.7,82.4,70.8,82.4,69z"/>
	<path d="M90.2,62h3.3c3.8,0,5.7,2.2,5.7,5.4v0.1c0,3.2-1.9,5.5-5.7,5.5h-3.3V62z M93.5,71.4c2.5,0,3.6-1.4,3.6-3.8v-0.1
		c0-2.4-1.1-3.8-3.6-3.8h-1.2v7.7H93.5z"/>
	<path d="M100.4,70.8c0-1.9,1.8-2.5,4.1-2.5h1v-0.4c0-1.1-0.4-1.6-1.5-1.6c-1,0-1.4,0.5-1.5,1.3h-1.8c0.2-1.9,1.6-2.7,3.4-2.7
		s3.2,0.7,3.2,2.9V73h-1.8v-1c-0.5,0.7-1.2,1.1-2.5,1.1C101.7,73.2,100.4,72.5,100.4,70.8z M105.6,70.2v-0.8h-1
		c-1.4,0-2.3,0.3-2.3,1.3c0,0.7,0.4,1.1,1.3,1.1C104.7,71.8,105.6,71.2,105.6,70.2z"/>
	<path d="M109.8,70.8v-4.4h-1.1V65h1.1v-1.8h1.9V65h1.8v1.4h-1.8v4.2c0,0.7,0.3,1,0.9,1c0.4,0,0.6,0,0.9-0.2v1.5
		c-0.3,0.1-0.7,0.2-1.3,0.2C110.7,73.1,109.8,72.3,109.8,70.8z"/>
	<path d="M114.7,70.8c0-1.9,1.8-2.5,4.1-2.5h1v-0.4c0-1.1-0.4-1.6-1.5-1.6c-1,0-1.4,0.5-1.5,1.3H115c0.2-1.9,1.6-2.7,3.4-2.7
		c1.8,0,3.2,0.7,3.2,2.9V73h-1.8v-1c-0.5,0.7-1.2,1.1-2.5,1.1C115.9,73.2,114.7,72.5,114.7,70.8z M119.8,70.2v-0.8h-0.9
		c-1.4,0-2.3,0.3-2.3,1.3c0,0.7,0.4,1.1,1.3,1.1C118.9,71.8,119.8,71.2,119.8,70.2z"/>
	<path d="M126.9,69.6h2c0.1,1.1,0.6,2,2.4,2c1.2,0,2.1-0.7,2.1-1.7c0-1-0.5-1.4-2.3-1.7c-2.6-0.4-3.9-1.1-3.9-3.2
		c0-1.8,1.5-3.1,3.8-3.1c2.4,0,3.8,1.1,4,3.2h-1.9c-0.2-1.1-0.9-1.6-2.1-1.6c-1.2,0-1.9,0.6-1.9,1.4c0,0.9,0.4,1.3,2.3,1.6
		c2.6,0.4,3.9,1.1,3.9,3.3c0,1.9-1.6,3.4-4,3.4C128.3,73.2,127.1,71.7,126.9,69.6z"/>
	<path d="M136.6,69.1V69c0-2.5,1.8-4.2,4-4.2c1.8,0,3.4,0.8,3.7,3h-1.8c-0.2-1.1-0.9-1.5-1.8-1.5c-1.3,0-2.2,1-2.2,2.6v0.1
		c0,1.7,0.9,2.7,2.2,2.7c1,0,1.8-0.6,1.9-1.7h1.7c-0.1,1.8-1.5,3.1-3.7,3.1C138.4,73.2,136.6,71.7,136.6,69.1z"/>
	<path d="M145.8,62.6c0-0.6,0.5-1.1,1.1-1.1c0.6,0,1.1,0.5,1.1,1.1c0,0.6-0.5,1.1-1.1,1.1C146.3,63.7,145.8,63.2,145.8,62.6z
		 M146,65h1.9v8H146V65z"/>
	<path d="M149.6,69.1V69c0-2.5,1.7-4.1,4-4.1c2,0,3.8,1.2,3.8,4v0.5h-5.9c0.1,1.5,0.8,2.4,2.2,2.4c1.1,0,1.7-0.4,1.8-1.2h1.8
		c-0.3,1.7-1.6,2.6-3.7,2.6C151.3,73.2,149.6,71.6,149.6,69.1z M155.5,68.2c-0.1-1.4-0.8-2-1.9-2c-1.1,0-1.9,0.8-2.1,2H155.5z"/>
	<path d="M159,65h1.9v1.3c0.4-0.8,1.3-1.4,2.6-1.4c1.6,0,2.7,0.9,2.7,3.1v5h-1.9v-4.9c0-1.2-0.5-1.8-1.6-1.8c-1,0-1.9,0.6-1.9,1.9
		V73H159V65z"/>
	<path d="M167.8,69.1V69c0-2.5,1.8-4.2,4-4.2c1.8,0,3.4,0.8,3.7,3h-1.8c-0.2-1.1-0.9-1.5-1.8-1.5c-1.3,0-2.2,1-2.2,2.6v0.1
		c0,1.7,0.9,2.7,2.2,2.7c1,0,1.8-0.6,1.9-1.7h1.7c-0.1,1.8-1.5,3.1-3.7,3.1C169.5,73.2,167.8,71.7,167.8,69.1z"/>
	<path d="M176.6,69.1V69c0-2.5,1.7-4.1,4-4.1c2,0,3.8,1.2,3.8,4v0.5h-5.9c0.1,1.5,0.8,2.4,2.2,2.4c1.1,0,1.7-0.4,1.8-1.2h1.8
		c-0.3,1.7-1.6,2.6-3.7,2.6C178.3,73.2,176.6,71.6,176.6,69.1z M182.5,68.2c-0.1-1.4-0.8-2-1.9-2c-1.1,0-1.9,0.8-2.1,2H182.5z"/>
</g>
</svg>
