<?xml version="1.0" encoding="utf-8"?>
<!-- Generator: Adobe Illustrator 24.1.2, SVG Export Plug-In . SVG Version: 6.00 Build 0)  -->
<svg version="1.1" id="Ebene_1" xmlns="http://www.w3.org/2000/svg" xmlns:xlink="http://www.w3.org/1999/xlink" x="0px" y="0px"
	 viewBox="0 0 400 200" style="enable-background:new 0 0 400 200;" xml:space="preserve">
<style type="text/css">
	.st0{fill-rule:evenodd;clip-rule:evenodd;fill:#E4087F;}
	.st1{enable-background:new    ;}
	.st2{fill:#E4087F;}
	.st3{fill:#6F6F6E;}
</style>
<g>
	<g>
		<path class="st0" d="M137.9,169.5c3.3,1.2,5.8-1.4,5.6-3.9c-0.1-1.3-0.7-2.3-1.7-3.2c2.2-5.7,4.4-11.5,6.6-17.3
			c0.5,0.2,1,0.3,1.6,0.5c-2.3,6-4.6,11.9-6.8,17.8c0.6,0.6,1.1,1.3,1.3,2.2c21.5-6.5,43-13.1,64.6-19.6c0.1,0.2,0.3,0.3,0.4,0.5
			c-21.7,6.6-43.3,13.2-64.9,19.8c0,2.2-1.2,3.4-3.1,4.1c-0.2,0-0.5,0.1-0.7,0.1C139.7,170.6,138.7,170.4,137.9,169.5L137.9,169.5z"
			/>
		<path class="st0" d="M166.8,79c1.4,0.7,2.1,2.3,1.9,4.2c14.7,18.8,29.5,37.7,44.2,56.6c-0.7,0.1-1.3,0.2-2,0.3
			c-14.3-18.4-28.6-36.8-43-55.2c-0.7,0.8-1.6,1.3-2.6,1.5c-1.1,9.7-2.3,19.4-3.4,29.1c1.1,0.7,1.8,1.8,2,3.2
			c15,7.9,30,15.7,45.1,23.6c-0.1,0.4-0.2,0.7-0.3,1.1c-14.9-7.8-29.9-15.6-44.8-23.4c-0.3,0.6-0.5,1.1-0.6,1.2
			c3.3,5.6,6.5,11.1,9.7,16.6c10.1,1.6,20.3,2.8,30.3,4.6c0,0.1,0,0.3-0.1,0.4c-10.7-1.6-21.4-3.1-32.1-4.7
			c-3-5.2-6.1-10.4-9.2-15.5c-0.9,0.5-2,0.7-3,0.5c-1.6,4-3.1,8-4.6,12.1c4.7,0.7,9.4,1.4,14.1,2.1c0.1,0.2,0.2,0.3,0.3,0.6
			c-5.5-0.8-10.9-1.6-16.3-2.4c1.7-4.3,3.3-8.7,5-13c-0.1-0.1-0.1-0.2-0.2-0.3c0,0,0-0.1,0-0.1c2.4,0.7,4.5-0.2,5.3-2.3
			c0.8-2-0.1-4.1-2.4-5.3c1.1-9.3,2.3-18.7,3.4-28.1c-0.6-0.3-1.1-0.6-1.6-0.9c2.2,0.6,3.9,0.2,5.2-1.8c0.9-1.6,0.7-3.1-0.3-4.6
			C166.7,79,166.7,79,166.8,79z"/>
		<path class="st0" d="M93.2,91.5c2.1,0.6,3.7,0.2,4.8-1.3c1.1-1.4,1-3.1-0.1-4.9c0,0,0-0.1,0-0.1c1.2,0.7,1.8,1.8,2,3.2
			c7.7,3.6,15.3,7.2,23,10.9c-0.2,0.3-0.4,0.5-0.7,0.8c-7.5-3.5-14.9-7-22.4-10.6c-0.3,0.6-0.5,1.1-0.8,1.7c0.1-0.1,0.2-0.1,0.3-0.2
			c4,7.3,8.1,14.5,12.1,21.8c-0.1,0.1-0.2,0.3-0.3,0.4c-0.3,0.3-0.6,0.7-0.9,1.1c-4.1-7.4-8.2-14.8-12.2-22.1
			c-0.6,0.2-1.2,0.4-1.8,0.6c1.4,10.4,2.9,20.9,4.4,31.4c-0.8,0-1.4-0.1-1.9-0.1c-1.5-10.5-2.9-21-4.4-31.6
			c-0.3-0.2-0.7-0.5-1.1-0.8C93.1,91.5,93.2,91.5,93.2,91.5z"/>
		<path class="st0" d="M152.4,114.3c-4.9-2.3-9.8-4.6-14.7-6.9c-0.8-0.4-1.6-0.7-2.4-1.1c-0.3-3.2-0.5-6.4-0.8-9.7
			c-1.1,0-2.1-0.3-3-1.2c2.2,0.7,4,0.3,5.2-1.7c0.9-1.5,0.7-3-0.3-4.5c0,0,0.1,0,0.1-0.1c2.5-0.7,4.9-1.3,7.4-2
			c5.2-1.4,10.4-2.9,15.5-4.4c0.1,0,0.2,0,0.4-0.1c0.1,0.3,0.2,0.5,0.3,0.8c-7.5,2.2-15,4.3-22.6,6.5c0.7,0.9,0.9,2,0.8,3.1
			c0,0.1,0.1,0.3,0.3,0.5c6.1,6.9,12.3,13.7,18.4,20.6c0.1,0.1,0.1,0.2,0.2,0.3c-0.4,0.3-0.9,0.5-1.4,0.8
			c-6.1-6.8-12.1-13.6-18.2-20.3c-0.5,0.4-0.9,0.8-1.3,1.2c0.3,3.3,0.6,6.6,0.8,9.9c3.5,1.7,7,3.3,10.6,5
			C149.4,111.8,151.3,112.5,152.4,114.3C152.4,114.2,152.4,114.3,152.4,114.3z"/>
		<path class="st0" d="M178.7,35.7c2.2,0.6,3.7,0.2,4.9-1.3c1.1-1.4,1-3.1-0.1-5l0,0c1.3,0.7,2.2,2.4,1.9,4c-0.3,1.9-1.5,3-3.9,3.5
			c-5.1,13.9-10.1,27.8-15.1,41.7c-0.5-0.3-0.9-0.6-1.5-0.9c5-13.7,9.9-27.4,14.9-41c-0.4-0.3-0.7-0.6-1.1-0.9
			C178.7,35.8,178.7,35.8,178.7,35.7z"/>
		<path class="st0" d="M97,84.4c-0.2-0.1-0.5-0.3-0.8-0.4c27.1-16.4,54.2-32.7,81.3-49.1c0.2,0.1,0.4,0.3,0.7,0.5
			C151.1,51.8,124.1,68.1,97,84.4z"/>
		<path class="st0" d="M122.7,102.4c0.4,0.2,0.8,0.4,1.2,0.6c-3.6,4.3-7.2,8.5-10.8,12.8c2.7,4.8,5.3,9.6,8,14.4
			c4.9,0.7,9.7,1.4,14.5,2.1c0,0.2,0,0.3,0,0.5c-5.5-0.8-11-1.6-16.5-2.4c-2.7-4.8-5.3-9.6-8-14.4
			C115,111.4,118.9,106.9,122.7,102.4z"/>
		<path class="st0" d="M137.6,133.1c-0.7-8.2-1.4-16.4-2.1-24.7c0.7,0.3,1.3,0.6,2,0.9c0.7,7.8,1.3,15.6,2,23.5
			c3.7,0.5,7.4,1.1,11.1,1.6c-0.1,0.2-0.1,0.3-0.2,0.5C146.1,134.4,141.8,133.7,137.6,133.1z"/>
		<path class="st0" d="M123.1,137.7c1.8,0,2.7,1,3.5,2.5c3.6,6.7,7.4,13.5,11.1,20.2c0.3,0.5,0.4,1.1,0.4,1.7
			c-0.3,0.2-0.7,0.4-1.1,0.6C132.4,154.2,127.8,145.9,123.1,137.7z"/>
		<path class="st0" d="M177,151.8c-9.5-2.8-18.6-5.6-27.9-8.4c0.8-2.1,1.6-4.2,2.4-6.3c0.6,0.1,1.1,0.2,1.7,0.2
			c-0.7,2-1.5,3.8-2.2,5.8c2.9,0.9,5.7,1.7,8.6,2.6c5.5,1.7,10.9,3.3,16.4,4.9C176.5,150.8,176.5,151.3,177,151.8z"/>
		<path class="st0" d="M140,162c-0.6-6.8-1.1-13.3-1.7-19.8c0.7,0.2,1.3,0.4,2,0.6c0.3,3.4,0.6,6.8,0.9,10.1c0.1,1,0,2.1,0.3,3.1
			C141.9,158.1,140.6,159.8,140,162z"/>
		<path class="st0" d="M97.6,131.7c2.1,0.6,3.7,0.2,4.8-1.2c1.1-1.4,1.1-3.1-0.1-5.1c0,0,0,0,0,0c0.2,0.1,0.4,0.2,0.6,0.3
			c2.3-2.7,4.6-5.4,6.9-8.1c0.2,0.4,0.4,0.8,0.7,1.2c-2.3,2.7-4.5,5.3-6.7,8c0.1,0.3,0.3,0.6,0.4,1c4,0.6,8.1,1.2,12.2,1.8
			c0.1,0.2,0.2,0.3,0.3,0.6c-4.2-0.6-8.3-1.2-12.4-1.8c0.1,2.1-0.7,3.6-2.6,4.3C100.3,133.2,98.9,132.9,97.6,131.7
			C97.6,131.7,97.6,131.7,97.6,131.7z"/>
		<path class="st0" d="M181.5,152.5c-0.6,0.2-1.1,0.3-1.8,0.5c-2.5-4.3-5.1-8.6-7.6-12.9c0.8,0.1,1.5,0.2,2.3,0.3
			C176.8,144.4,179.2,148.4,181.5,152.5z"/>
		<path class="st0" d="M124,100.9c2-2.4,3.9-4.7,5.9-6.9c0.3,0.3,0.6,0.6,0.9,0.9c-1.6,1.9-3.2,3.8-4.9,5.8c2.4,1.1,4.9,2.3,7.2,3.4
			c0.1,0.4,0.1,0.7,0.2,1.2C130.2,103.8,127.1,102.4,124,100.9z"/>
		<path class="st0" d="M120.1,132.5c0.9,0.1,1.7,0.2,2.3,0.3c0.9,2.9,3.8,2.7,6,3.5c2.5,0.9,5.1,1.6,7.7,2.3c0,0.3,0.1,0.5,0.1,0.9
			c-2.1-0.6-4.1-1.2-6.1-1.8c-2.5-0.7-4.9-1.6-7.4-2.2C121.1,135.1,121.2,133.5,120.1,132.5z"/>
		<path class="st0" d="M147.6,142.1c-0.1,0.3-0.2,0.5-0.3,0.7c-3.1-0.9-6.1-1.9-9.2-2.8c-0.1-1.7-0.3-3.4-0.4-5.1
			c0.6,0.1,1.2,0.2,1.9,0.3c0.1,1.5,0.3,3,0.4,4.5C142.6,140.6,145.1,141.4,147.6,142.1z"/>
		<path class="st0" d="M210.8,147.6c1.9,0.6,3.6,0.3,4.9-1.3c1.2-1.7,1-3.3-0.1-5l0,0c1.2,0.5,1.8,1.6,2,2.8c0.3,1.6-0.3,3-1.7,3.9
			C214.3,149.1,212,148.9,210.8,147.6L210.8,147.6z"/>
		<path class="st0" d="M106.3,130.5c4.3,0.2,8.3,1.7,12.3,2.9c0.2,0.3,0.3,0.6,0.5,1C114.9,133.1,110.6,131.8,106.3,130.5z"/>
		<path class="st0" d="M215.6,141.3C215.6,141.3,215.5,141.3,215.6,141.3C215.6,141.3,215.6,141.3,215.6,141.3L215.6,141.3z"/>
		<path class="st0" d="M210.8,147.6C210.8,147.6,210.8,147.6,210.8,147.6L210.8,147.6C210.8,147.6,210.8,147.6,210.8,147.6
			L210.8,147.6z"/>
		<path class="st0" d="M137.9,169.5C137.9,169.5,137.9,169.5,137.9,169.5C137.9,169.5,137.9,169.5,137.9,169.5L137.9,169.5z"/>
		<path class="st0" d="M97.6,131.7c0,0,0,0-0.1-0.1C97.6,131.7,97.6,131.7,97.6,131.7C97.6,131.7,97.6,131.7,97.6,131.7z"/>
		<path class="st0" d="M157,121.9c0,0,0.1,0,0.1,0c0,0,0,0.1,0,0.1C157,122,157,121.9,157,121.9L157,121.9z"/>
		<path class="st0" d="M157,121.9c0,0,0,0-0.3-0.2C156.9,121.8,157,121.9,157,121.9L157,121.9z"/>
		<path class="st0" d="M102.4,125.4c0,0,0,0-0.3-0.2C102.3,125.3,102.4,125.3,102.4,125.4L102.4,125.4z"/>
		<path class="st0" d="M152.4,114.2c0,0,0,0,0.1,0.1C152.4,114.3,152.4,114.3,152.4,114.2L152.4,114.2z"/>
		<path class="st0" d="M136.4,89.1c0,0,0.1,0,0.1,0.1c0,0-0.1,0-0.1,0.1C136.4,89.2,136.4,89.1,136.4,89.1
			C136.3,89.1,136.4,89.1,136.4,89.1z"/>
		<path class="st0" d="M136.3,89.1c0,0,0,0-0.1-0.1C136.3,89,136.4,89,136.3,89.1C136.4,89.1,136.3,89.1,136.3,89.1z"/>
		<path class="st0" d="M93.1,91.5c0,0,0.1,0,0.1,0c0,0,0,0.1,0,0.1C93.1,91.5,93.1,91.5,93.1,91.5L93.1,91.5z"/>
		<path class="st0" d="M93.1,91.5C93,91.5,93,91.5,93.1,91.5C93,91.4,93,91.5,93.1,91.5L93.1,91.5z"/>
		<path class="st0" d="M166.7,79c0,0,0,0-0.1-0.1C166.7,79,166.7,79,166.7,79C166.7,79,166.7,79,166.7,79z"/>
		<path class="st0" d="M97.9,85.2c0,0,0,0-0.1-0.1C97.9,85.1,97.9,85.2,97.9,85.2C97.9,85.2,97.9,85.2,97.9,85.2z"/>
		<path class="st0" d="M178.7,35.8c0,0,0,0-0.1-0.1C178.7,35.7,178.7,35.7,178.7,35.8C178.7,35.8,178.7,35.8,178.7,35.8z"/>
		<path class="st0" d="M183.5,29.4c0,0,0,0-0.1-0.1C183.4,29.4,183.5,29.4,183.5,29.4C183.5,29.4,183.5,29.4,183.5,29.4z"/>
	</g>
	<g class="st1">
		<path class="st2" d="M182.2,130.9V84.3h22.5v9.3h-12.4v9.2h11.5v8.7h-11.5v10h13.2v9.5H182.2z"/>
		<path class="st2" d="M215.4,130.9V84.3H226v36.9h12.4v9.7H215.4z"/>
		<path class="st2" d="M260,93.3v37.7h-10.3V93.3h-8.6v-9h27.5v9H260z"/>
		<path class="st2" d="M295.8,130.9l-1.9-8.5h-10.5l-1.9,8.5H271l11.3-46.6h13.2l11.3,46.6H295.8z M288.8,94.5h-0.3l-4,19.8h8
			L288.8,94.5z"/>
	</g>
	<g class="st1">
		<path class="st3" d="M222.8,149.7v-8.7h4.2v1.7h-2.3v1.7h2.1v1.6h-2.1v1.9h2.5v1.8H222.8z"/>
		<path class="st3" d="M233.9,147.8c-0.1,0.4-0.3,0.8-0.5,1.1c-0.2,0.3-0.5,0.6-0.9,0.7c-0.4,0.2-0.8,0.3-1.4,0.3
			c-0.5,0-1-0.1-1.4-0.3c-0.4-0.2-0.7-0.4-0.9-0.7c-0.2-0.3-0.4-0.7-0.5-1.1s-0.2-0.9-0.2-1.4v-5.5h2v5.3c0,0.2,0,0.5,0,0.7
			c0,0.2,0.1,0.4,0.2,0.5c0.1,0.2,0.2,0.3,0.3,0.4c0.1,0.1,0.3,0.1,0.5,0.1s0.4,0,0.5-0.1c0.1-0.1,0.2-0.2,0.3-0.4
			c0.1-0.2,0.1-0.3,0.2-0.5c0-0.2,0-0.4,0-0.7v-5.3h2v5.5C234.1,146.9,234,147.4,233.9,147.8z"/>
		<path class="st3" d="M239.1,149.7l-1.2-3.5h-0.6v3.5h-1.9v-8.7h2.8c0.8,0,1.5,0.2,2,0.7c0.5,0.4,0.7,1.1,0.7,2
			c0,0.3,0,0.6-0.1,0.9c-0.1,0.3-0.2,0.5-0.3,0.7c-0.1,0.2-0.3,0.3-0.4,0.4c-0.1,0.1-0.3,0.2-0.4,0.2l1.5,3.9H239.1z M239,143.7
			c0-0.2,0-0.4-0.1-0.5c-0.1-0.1-0.1-0.3-0.2-0.3s-0.2-0.1-0.3-0.2c-0.1,0-0.2,0-0.4,0h-0.6v2.2h0.6c0.3,0,0.5-0.1,0.7-0.3
			C238.9,144.3,239,144.1,239,143.7z"/>
		<path class="st3" d="M248.5,145.3c0,0.7-0.1,1.3-0.2,1.9c-0.2,0.6-0.4,1.1-0.7,1.5c-0.3,0.4-0.6,0.7-1.1,0.9
			c-0.4,0.2-0.9,0.3-1.4,0.3s-1-0.1-1.4-0.3c-0.4-0.2-0.8-0.5-1.1-0.9c-0.3-0.4-0.5-0.9-0.7-1.5c-0.2-0.6-0.2-1.2-0.2-1.9
			s0.1-1.3,0.2-1.9c0.2-0.6,0.4-1,0.7-1.4s0.6-0.7,1.1-0.9c0.4-0.2,0.9-0.3,1.4-0.3c0.5,0,1,0.1,1.4,0.3c0.4,0.2,0.8,0.5,1.1,0.9
			s0.5,0.9,0.7,1.4S248.5,144.6,248.5,145.3z M246.5,145.3c0-0.4,0-0.7-0.1-1.1c-0.1-0.3-0.1-0.6-0.3-0.8c-0.1-0.2-0.2-0.4-0.4-0.6
			c-0.2-0.1-0.4-0.2-0.6-0.2c-0.2,0-0.4,0.1-0.6,0.2c-0.2,0.1-0.3,0.3-0.4,0.6c-0.1,0.2-0.2,0.5-0.2,0.8c-0.1,0.3-0.1,0.7-0.1,1.1
			c0,0.4,0,0.7,0.1,1.1c0.1,0.3,0.1,0.6,0.2,0.9c0.1,0.2,0.3,0.4,0.4,0.6c0.2,0.1,0.4,0.2,0.6,0.2c0.2,0,0.4-0.1,0.6-0.2
			c0.2-0.1,0.3-0.3,0.4-0.6c0.1-0.2,0.2-0.5,0.3-0.9C246.4,146,246.5,145.6,246.5,145.3z"/>
		<path class="st3" d="M255.1,143.7c0,0.5-0.1,0.9-0.2,1.3s-0.3,0.6-0.6,0.9c-0.2,0.2-0.5,0.4-0.8,0.5c-0.3,0.1-0.6,0.2-1,0.2h-0.9
			v3.2h-1.9v-8.7h2.7c0.3,0,0.6,0,0.9,0.1c0.3,0.1,0.6,0.2,0.9,0.5s0.5,0.5,0.6,0.8S255.1,143.1,255.1,143.7z M253.2,143.7
			c0-0.4-0.1-0.7-0.3-0.9c-0.2-0.2-0.4-0.3-0.7-0.3h-0.6v2.3h0.6c0.3,0,0.5-0.1,0.7-0.3C253.1,144.4,253.2,144.1,253.2,143.7z"/>
		<path class="st3" d="M256.1,149.7v-8.7h4.2v1.7H258v1.7h2.1v1.6H258v1.9h2.5v1.8H256.1z"/>
		<path class="st3" d="M265.5,149.7l-0.4-1.6h-2l-0.4,1.6h-2l2.1-8.7h2.5l2.1,8.7H265.5z M264.2,142.8L264.2,142.8l-0.8,3.7h1.5
			L264.2,142.8z"/>
		<path class="st3" d="M272.1,149.7l-2-5.3h0l0,5.3h-1.8v-8.7h2.2l2,5.4h0l0-5.4h1.7v8.7H272.1z"/>
		<path class="st3" d="M278.3,149.7v-8.7h2v6.9h2.3v1.8H278.3z"/>
		<path class="st3" d="M283.5,149.7v-8.7h4.2v1.7h-2.3v1.7h2.1v1.6h-2.1v1.9h2.5v1.8H283.5z"/>
		<path class="st3" d="M293.6,149.7c-0.4,0.1-0.9,0.2-1.4,0.2c-0.6,0-1-0.1-1.5-0.3c-0.4-0.2-0.8-0.5-1.1-0.9
			c-0.3-0.4-0.5-0.9-0.7-1.4c-0.2-0.6-0.2-1.2-0.2-1.9c0-0.7,0.1-1.3,0.2-1.9c0.2-0.6,0.4-1,0.7-1.5c0.3-0.4,0.7-0.7,1.1-0.9
			c0.4-0.2,0.9-0.3,1.4-0.3c0.6,0,1.1,0.1,1.5,0.3c0.4,0.2,0.7,0.5,0.9,0.8l-1.1,1.4c-0.3-0.4-0.7-0.6-1.2-0.6
			c-0.3,0-0.5,0.1-0.7,0.2c-0.2,0.1-0.4,0.3-0.5,0.6c-0.1,0.2-0.2,0.5-0.3,0.9c-0.1,0.3-0.1,0.7-0.1,1c0,0.4,0,0.7,0.1,1
			c0.1,0.3,0.2,0.6,0.3,0.9c0.1,0.2,0.3,0.4,0.5,0.6c0.2,0.1,0.4,0.2,0.7,0.2c0.3,0,0.5-0.1,0.7-0.2v-1.6h-0.9v-1.7h2.7v4.7
			C294.3,149.4,294,149.5,293.6,149.7z"/>
		<path class="st3" d="M299.8,149.7l-0.4-1.6h-2l-0.4,1.6h-2l2.1-8.7h2.5l2.1,8.7H299.8z M298.5,142.8L298.5,142.8l-0.8,3.7h1.5
			L298.5,142.8z"/>
		<path class="st3" d="M302.6,149.7v-8.7h2v6.9h2.3v1.8H302.6z"/>
	</g>
	<g class="st1">
		<path class="st3" d="M217.8,153.9v7.1h-1.9v-7.1h-1.6v-1.7h5.1v1.7H217.8z"/>
		<path class="st3" d="M220.2,161v-8.7h4.2v1.7h-2.3v1.7h2.1v1.6h-2.1v1.9h2.5v1.8H220.2z"/>
		<path class="st3" d="M230.2,160.8c-0.4,0.2-0.9,0.3-1.5,0.3c-0.5,0-1-0.1-1.4-0.3c-0.4-0.2-0.8-0.5-1.1-1
			c-0.3-0.4-0.5-0.9-0.7-1.5c-0.2-0.6-0.2-1.2-0.2-1.9c0-0.7,0.1-1.3,0.2-1.9c0.2-0.6,0.4-1.1,0.7-1.5c0.3-0.4,0.7-0.7,1.1-0.9
			c0.4-0.2,0.9-0.3,1.4-0.3c0.6,0,1.1,0.1,1.5,0.3c0.4,0.2,0.7,0.5,0.9,0.8l-1.1,1.4c-0.1-0.2-0.3-0.4-0.5-0.5
			c-0.2-0.1-0.4-0.2-0.7-0.2c-0.3,0-0.5,0.1-0.7,0.2c-0.2,0.1-0.4,0.3-0.5,0.6c-0.1,0.2-0.2,0.5-0.3,0.9c-0.1,0.3-0.1,0.7-0.1,1.1
			c0,0.4,0,0.7,0.1,1.1c0.1,0.3,0.2,0.6,0.3,0.9c0.1,0.2,0.3,0.4,0.5,0.6c0.2,0.1,0.4,0.2,0.7,0.2c0.3,0,0.5-0.1,0.7-0.2
			c0.2-0.1,0.4-0.3,0.5-0.5l1.1,1.4C230.9,160.3,230.6,160.6,230.2,160.8z"/>
		<path class="st3" d="M236,161v-3.7h-2v3.7h-2v-8.7h2v3.3h2v-3.3h2v8.7H236z"/>
		<path class="st3" d="M245.7,161l-0.4-1.6h-2L243,161h-2l2.1-8.7h2.5l2.1,8.7H245.7z M244.3,154.1L244.3,154.1l-0.8,3.7h1.5
			L244.3,154.1z"/>
		<path class="st3" d="M252.1,154.3c-0.1-0.2-0.3-0.3-0.5-0.4c-0.2-0.1-0.4-0.1-0.6-0.1c-0.2,0-0.4,0.1-0.6,0.2
			c-0.2,0.1-0.3,0.4-0.3,0.7c0,0.3,0.1,0.5,0.3,0.6c0.2,0.2,0.4,0.3,0.8,0.5c0.2,0.1,0.4,0.2,0.6,0.4c0.2,0.1,0.4,0.3,0.6,0.5
			c0.2,0.2,0.3,0.4,0.5,0.7c0.1,0.3,0.2,0.6,0.2,1c0,0.5-0.1,0.9-0.2,1.2c-0.1,0.4-0.3,0.7-0.6,0.9s-0.5,0.4-0.9,0.5
			c-0.3,0.1-0.7,0.2-1,0.2c-0.5,0-1-0.1-1.4-0.3c-0.4-0.2-0.8-0.4-1-0.7l1-1.5c0.2,0.2,0.4,0.4,0.7,0.5c0.2,0.1,0.5,0.2,0.8,0.2
			c0.2,0,0.4-0.1,0.6-0.2c0.2-0.2,0.2-0.4,0.2-0.7c0-0.3-0.1-0.5-0.3-0.7c-0.2-0.2-0.5-0.3-0.9-0.5c-0.2-0.1-0.5-0.2-0.7-0.4
			s-0.4-0.3-0.6-0.5c-0.2-0.2-0.3-0.4-0.4-0.7c-0.1-0.3-0.1-0.6-0.1-0.9c0-0.5,0.1-0.9,0.2-1.3c0.2-0.3,0.4-0.6,0.6-0.9
			c0.3-0.2,0.5-0.4,0.9-0.5c0.3-0.1,0.6-0.2,1-0.2c0.5,0,0.9,0.1,1.3,0.2c0.4,0.2,0.7,0.4,1,0.6L252.1,154.3z"/>
		<path class="st3" d="M257.8,154.3c-0.1-0.2-0.3-0.3-0.5-0.4c-0.2-0.1-0.4-0.1-0.6-0.1c-0.2,0-0.4,0.1-0.6,0.2
			c-0.2,0.1-0.3,0.4-0.3,0.7c0,0.3,0.1,0.5,0.3,0.6c0.2,0.2,0.4,0.3,0.8,0.5c0.2,0.1,0.4,0.2,0.6,0.4c0.2,0.1,0.4,0.3,0.6,0.5
			c0.2,0.2,0.3,0.4,0.5,0.7c0.1,0.3,0.2,0.6,0.2,1c0,0.5-0.1,0.9-0.2,1.2c-0.1,0.4-0.3,0.7-0.6,0.9s-0.5,0.4-0.9,0.5
			c-0.3,0.1-0.7,0.2-1,0.2c-0.5,0-1-0.1-1.4-0.3c-0.4-0.2-0.8-0.4-1-0.7l1-1.5c0.2,0.2,0.4,0.4,0.7,0.5c0.2,0.1,0.5,0.2,0.8,0.2
			c0.2,0,0.4-0.1,0.6-0.2c0.2-0.2,0.2-0.4,0.2-0.7c0-0.3-0.1-0.5-0.3-0.7c-0.2-0.2-0.5-0.3-0.9-0.5c-0.2-0.1-0.5-0.2-0.7-0.4
			s-0.4-0.3-0.6-0.5c-0.2-0.2-0.3-0.4-0.4-0.7c-0.1-0.3-0.1-0.6-0.1-0.9c0-0.5,0.1-0.9,0.2-1.3c0.2-0.3,0.4-0.6,0.6-0.9
			c0.3-0.2,0.5-0.4,0.9-0.5c0.3-0.1,0.6-0.2,1-0.2c0.5,0,0.9,0.1,1.3,0.2c0.4,0.2,0.7,0.4,1,0.6L257.8,154.3z"/>
		<path class="st3" d="M266.2,156.6c0,0.7-0.1,1.3-0.2,1.9c-0.2,0.6-0.4,1.1-0.7,1.5c-0.3,0.4-0.6,0.7-1.1,0.9
			c-0.4,0.2-0.9,0.3-1.4,0.3c-0.5,0-1-0.1-1.4-0.3c-0.4-0.2-0.8-0.5-1.1-0.9s-0.5-0.9-0.7-1.5c-0.2-0.6-0.2-1.2-0.2-1.9
			s0.1-1.3,0.2-1.9c0.2-0.6,0.4-1,0.7-1.4c0.3-0.4,0.6-0.7,1.1-0.9c0.4-0.2,0.9-0.3,1.4-0.3c0.5,0,1,0.1,1.4,0.3
			c0.4,0.2,0.8,0.5,1.1,0.9c0.3,0.4,0.5,0.9,0.7,1.4C266.1,155.2,266.2,155.9,266.2,156.6z M264.2,156.6c0-0.4,0-0.7-0.1-1.1
			c-0.1-0.3-0.1-0.6-0.3-0.8c-0.1-0.2-0.2-0.4-0.4-0.6c-0.2-0.1-0.4-0.2-0.6-0.2c-0.2,0-0.4,0.1-0.6,0.2c-0.2,0.1-0.3,0.3-0.4,0.6
			c-0.1,0.2-0.2,0.5-0.2,0.8c-0.1,0.3-0.1,0.7-0.1,1.1c0,0.4,0,0.7,0.1,1.1c0.1,0.3,0.1,0.6,0.2,0.9c0.1,0.2,0.3,0.4,0.4,0.6
			c0.2,0.1,0.4,0.2,0.6,0.2c0.2,0,0.4-0.1,0.6-0.2c0.2-0.1,0.3-0.3,0.4-0.6c0.1-0.2,0.2-0.5,0.3-0.9
			C264.2,157.3,264.2,156.9,264.2,156.6z"/>
		<path class="st3" d="M271.9,160.8c-0.4,0.2-0.9,0.3-1.5,0.3c-0.5,0-1-0.1-1.4-0.3c-0.4-0.2-0.8-0.5-1.1-1
			c-0.3-0.4-0.5-0.9-0.7-1.5c-0.2-0.6-0.2-1.2-0.2-1.9c0-0.7,0.1-1.3,0.2-1.9c0.2-0.6,0.4-1.1,0.7-1.5c0.3-0.4,0.7-0.7,1.1-0.9
			c0.4-0.2,0.9-0.3,1.4-0.3c0.6,0,1.1,0.1,1.5,0.3c0.4,0.2,0.7,0.5,0.9,0.8l-1.1,1.4c-0.1-0.2-0.3-0.4-0.5-0.5
			c-0.2-0.1-0.4-0.2-0.7-0.2c-0.3,0-0.5,0.1-0.7,0.2c-0.2,0.1-0.4,0.3-0.5,0.6c-0.1,0.2-0.2,0.5-0.3,0.9c-0.1,0.3-0.1,0.7-0.1,1.1
			c0,0.4,0,0.7,0.1,1.1c0.1,0.3,0.2,0.6,0.3,0.9c0.1,0.2,0.3,0.4,0.5,0.6c0.2,0.1,0.4,0.2,0.7,0.2c0.3,0,0.5-0.1,0.7-0.2
			c0.2-0.1,0.4-0.3,0.5-0.5l1.1,1.4C272.6,160.3,272.3,160.6,271.9,160.8z"/>
		<path class="st3" d="M273.7,161v-8.7h2v8.7H273.7z"/>
		<path class="st3" d="M281.1,161l-0.4-1.6h-2l-0.4,1.6h-2l2.1-8.7h2.5l2.1,8.7H281.1z M279.8,154.1L279.8,154.1l-0.8,3.7h1.5
			L279.8,154.1z"/>
		<path class="st3" d="M286.5,153.9v7.1h-1.9v-7.1H283v-1.7h5.1v1.7H286.5z"/>
		<path class="st3" d="M288.9,161v-8.7h2v8.7H288.9z"/>
		<path class="st3" d="M298.8,156.6c0,0.7-0.1,1.3-0.2,1.9c-0.2,0.6-0.4,1.1-0.7,1.5c-0.3,0.4-0.6,0.7-1.1,0.9
			c-0.4,0.2-0.9,0.3-1.4,0.3c-0.5,0-1-0.1-1.4-0.3c-0.4-0.2-0.8-0.5-1.1-0.9s-0.5-0.9-0.7-1.5c-0.2-0.6-0.2-1.2-0.2-1.9
			s0.1-1.3,0.2-1.9c0.2-0.6,0.4-1,0.7-1.4c0.3-0.4,0.6-0.7,1.1-0.9c0.4-0.2,0.9-0.3,1.4-0.3c0.5,0,1,0.1,1.4,0.3
			c0.4,0.2,0.8,0.5,1.1,0.9c0.3,0.4,0.5,0.9,0.7,1.4C298.7,155.2,298.8,155.9,298.8,156.6z M296.7,156.6c0-0.4,0-0.7-0.1-1.1
			c-0.1-0.3-0.1-0.6-0.3-0.8c-0.1-0.2-0.2-0.4-0.4-0.6c-0.2-0.1-0.4-0.2-0.6-0.2c-0.2,0-0.4,0.1-0.6,0.2c-0.2,0.1-0.3,0.3-0.4,0.6
			c-0.1,0.2-0.2,0.5-0.2,0.8c-0.1,0.3-0.1,0.7-0.1,1.1c0,0.4,0,0.7,0.1,1.1c0.1,0.3,0.1,0.6,0.2,0.9c0.1,0.2,0.3,0.4,0.4,0.6
			c0.2,0.1,0.4,0.2,0.6,0.2c0.2,0,0.4-0.1,0.6-0.2c0.2-0.1,0.3-0.3,0.4-0.6c0.1-0.2,0.2-0.5,0.3-0.9
			C296.7,157.3,296.7,156.9,296.7,156.6z"/>
		<path class="st3" d="M303.7,161l-2-5.3h0l0,5.3H300v-8.7h2.2l2,5.4h0l0-5.4h1.7v8.7H303.7z"/>
	</g>
</g>
</svg>
