<?xml version="1.0" encoding="utf-8"?>
<!-- Generator: Adobe Illustrator 24.3.0, SVG Export Plug-In . SVG Version: 6.00 Build 0)  -->
<svg version="1.1" id="Layer_1" xmlns="http://www.w3.org/2000/svg" xmlns:xlink="http://www.w3.org/1999/xlink" x="0px" y="0px"
	 viewBox="0 0 169.6 204.3" style="enable-background:new 0 0 169.6 204.3;" xml:space="preserve">
<style type="text/css">
	.st0{fill:#95C11F;}
	.st1{fill:#EFD500;}
	.st2{fill:#164194;}
	.st3{fill:#6F286A;}
	.st4{fill:#0094CD;}
	.st5{fill:#F39200;}
	.st6{fill:#D51317;}
	.st7{fill:#31B7BC;}
	.st8{fill:#007B3D;}
</style>
<g>
	<g>
		<polygon class="st0" points="-0.2,172.9 0,100.8 67.4,79.7 67.2,151.9 		"/>
		<polygon class="st1" points="67.2,151.9 67.4,79.7 113.1,111.2 112.9,183.3 		"/>
		<polygon class="st2" points="45.5,204.3 -0.2,172.9 67.2,151.9 112.9,183.3 		"/>
	</g>
	<g>
		<polygon class="st3" points="65.8,76.1 84.2,34.1 107.7,89.6 89.4,131.6 		"/>
		<polygon class="st4" points="89.4,131.6 107.7,89.6 169.6,79.6 151.4,121.1 		"/>
		<polygon class="st5" points="107.7,89.6 84.2,34.1 146,24.1 169.6,79.6 		"/>
	</g>
	<g>
		<polygon class="st6" points="67.4,79.7 21.4,71 15.9,25.5 62,34.2 		"/>
		<polygon class="st7" points="62,34.2 15.9,25.5 41.4,0 87.5,8.7 		"/>
		<polygon class="st8" points="92.8,54.4 67.4,79.7 62,34.2 87.5,8.7 		"/>
	</g>
</g>
</svg>
