<?xml version="1.0" encoding="utf-8"?>
<!-- Generator: Adobe Illustrator 24.3.0, SVG Export Plug-In . SVG Version: 6.00 Build 0)  -->
<svg version="1.1" id="Layer_1" xmlns="http://www.w3.org/2000/svg" xmlns:xlink="http://www.w3.org/1999/xlink" x="0px" y="0px"
	 viewBox="0 0 1134 567" style="enable-background:new 0 0 1134 567;" xml:space="preserve">
<style type="text/css">
	.st0{fill:#706F6F;}
	.st1{fill:#95C11F;}
	.st2{fill:#EFD500;}
	.st3{fill:#164194;}
	.st4{fill:#6F286A;}
	.st5{fill:#0094CD;}
	.st6{fill:#F39200;}
	.st7{fill:#D51317;}
	.st8{fill:#31B7BC;}
	.st9{fill:#007B3D;}
</style>
<g>
	<g>
		<path class="st0" d="M360.6,306.3h-13.9v-18.7h13.9c0-25.4,8.8-33.1,33.4-33.1c4.6,0,9.3,0.4,13.9,0.5v20.4
			c-2.7-0.4-5.2-0.5-7.8-0.5c-6.6,0-10.7,0.9-10.7,8.8v3.9h17.3v18.7h-17.3v69.5h-28.8V306.3L360.6,306.3z"/>
		<path class="st0" d="M412.3,287.7h28v15.4h0.4c4.2-11.2,14-17.2,26.5-17.2c2.2,0,4.6,0.1,6.8,0.6v26.4c-3.7-1-7.1-1.7-11.1-1.7
			c-14.3,0-21.8,9.8-21.8,20.9v43.6h-28.8L412.3,287.7L412.3,287.7z"/>
		<path class="st0" d="M520.6,356.3c13.4,0,17.7-13.3,17.7-24.5s-4.2-24.6-17.7-24.6c-13.4,0-17.5,13.4-17.5,24.6
			S507.2,356.3,520.6,356.3 M520.6,285.2c27.4,0,46.5,20.3,46.5,46.8s-19.1,46.5-46.5,46.5c-27.4,0-46.4-20-46.4-46.5
			C474.2,305.3,493.3,285.2,520.6,285.2"/>
		<path class="st0" d="M572.8,287.7h28v12.1h0.4c5.2-9,17.2-14.5,27.7-14.5c29.3,0,31.7,21.4,31.7,34.2v56.6h-28.8v-42.6
			c0-12.1,1.4-24.2-14.4-24.2c-10.8,0-15.7,9.2-15.7,18.9v48.1h-28.8L572.8,287.7L572.8,287.7z"/>
		<path class="st0" d="M725.5,306.3h-17.8v40c0,7,4.1,8.5,10.3,8.5c2.4,0,5-0.4,7.5-0.4v21.3c-5.2,0.1-10.6,0.9-15.8,0.9
			c-24.6,0-31-7.1-31-31.1v-39.3h-14.5v-18.7h14.7v-26.5h28.8v26.6h17.8V306.3L725.5,306.3z"/>
	</g>
	<path class="st0" d="M732.6,287.7h28.8v88.2h-28.8V287.7z M761.5,276.6h-28.8v-22h28.8V276.6L761.5,276.6z"/>
	<g>
		<path class="st0" d="M833.2,322.7c-0.5-9.8-7.5-18-17.2-18c-10.2,0-17,7.3-18.7,18H833.2z M797.4,338.8c0.5,12.1,7.5,20,19.6,20
			c7,0,13.8-3.2,16.4-9.7h27c-5.2,20.4-24.1,29.2-43.8,29.2c-28.7,0-48.2-17.3-48.2-46.9c0-27,21.5-46.4,47.6-46.4
			c31.6,0,47.4,23.7,46,53.7H797.4z"/>
		<path class="st0" d="M869.1,287.7h28v15.4h0.4c4.2-11.2,14-17.2,26.5-17.2c2.2,0,4.6,0.1,6.8,0.6v26.4c-3.7-1-7.1-1.7-11.1-1.7
			c-14.3,0-21.8,9.8-21.8,20.9v43.6h-28.8L869.1,287.7L869.1,287.7z"/>
		<path class="st0" d="M963,346.8c0,4.5,1.9,7.6,4.7,9.8c2.7,2,6.6,3.1,10.7,3.1c5.6,0,13.6-2.4,13.6-9.3c0-6.8-9-8.2-14-9.3
			c-18.2-4.6-40.9-5.1-40.9-28.8c0-21.3,22.9-27,40.3-27c19.4,0,39.5,5.6,40.5,28.5h-26.6c0-3.7-1.4-6.1-3.7-7.6
			c-2.4-1.5-5.6-2.2-9.2-2.2c-4.7,0-12.4,0.5-12.4,6.6c0,8.3,19.4,9.8,32.6,12.7c17.8,3.6,22.4,16.4,22.4,23.7
			c0,23.6-22.4,31.5-42.3,31.5c-20.9,0-42.3-7-43.1-31.6L963,346.8L963,346.8z"/>
	</g>
	<g>
		<g>
			<polygon class="st1" points="113.2,371.5 113.4,281.8 197.2,255.6 197,345.4 			"/>
			<polygon class="st2" points="197,345.4 197.2,255.6 254,294.8 253.8,384.4 			"/>
			<polygon class="st3" points="170,410.5 113.2,371.5 197,345.4 253.8,384.4 			"/>
		</g>
		<g>
			<polygon class="st4" points="195.2,251.1 218.1,198.9 247.3,267.9 224.6,320.1 			"/>
			<polygon class="st5" points="224.6,320.1 247.3,267.9 324.3,255.5 301.7,307.1 			"/>
			<polygon class="st6" points="247.3,267.9 218.1,198.9 295,186.5 324.3,255.5 			"/>
		</g>
		<g>
			<polygon class="st7" points="197.2,255.6 140,244.8 133.2,188.2 190.5,199 			"/>
			<polygon class="st8" points="190.5,199 133.2,188.2 164.9,156.5 222.2,167.3 			"/>
			<polygon class="st9" points="228.8,224.1 197.2,255.6 190.5,199 222.2,167.3 			"/>
		</g>
	</g>
</g>
</svg>
