<?xml version="1.0" encoding="utf-8"?>
<!-- Generator: Adobe Illustrator 24.3.0, SVG Export Plug-In . SVG Version: 6.00 Build 0)  -->
<svg version="1.1" id="Layer_1" xmlns="http://www.w3.org/2000/svg" xmlns:xlink="http://www.w3.org/1999/xlink" x="0px" y="0px"
	 viewBox="0 0 1134 567" style="enable-background:new 0 0 1134 567;" xml:space="preserve">
<style type="text/css">
	.st0{fill:#E12726;}
	.st1{fill-rule:evenodd;clip-rule:evenodd;fill:#FFFFFF;}
</style>
<path class="st0" d="M292.9,60.8h584.7v445.3H292.9V60.8z"/>
<path class="st1" d="M798.7,260.7c-4.8,1.4-10.1,2.7-12.5,2.7c3.1-5.9,7-10.5,10.9-14.3c2.3-2.3,6.2-5.3,10.2-5.3
	c3.4,0,4.8,1.4,4.8,4.7C812.1,254.7,805.6,258.4,798.7,260.7L798.7,260.7z M805.5,281.7c0.8-1-0.7-2.5-1.7-1
	c-3.3,3.6-9,8.5-15.1,8.5c-5.2,0-8.2-3.5-8.2-9.2c0-4.3,2.2-9.8,3.9-12.5c3.8-0.8,11.3-2.5,15-3.5c12.4-3.8,19.4-8.1,19.4-16
	c0-5.5-3.8-7.4-8.8-7.4c-15,0-37.3,21.3-37.3,41.7c0,6.5,4.2,11.6,11.3,11.6C793.3,293.7,800.7,288,805.5,281.7L805.5,281.7z
	 M811.4,142.7c0.5,0,1.2-0.4,1-1.2l-2.2-15.1c-0.3-1-0.6-1.3-1.3-1.3c-0.4,0-0.8,0.3-1.2,0.9c-0.7,1.3-1.7,2.5-3.6,2.5
	c-3.4,0-6.5-2.5-14.6-2.5c-10.5,0-24.5,4.6-24.5,19.8c0,15.2,12.2,20.3,22.8,24.1c11.1,4,19.9,7.2,19.9,18.6
	c0,12.9-9.1,17.1-17.7,17.1c-9.5,0-20.7-4.6-24.7-19.5c-0.4-1.3-0.8-1.6-1.7-1.6c-0.8,0-1.4,0.5-1.4,2v19.4c0,1.2,0.7,1.7,1.3,1.7
	c0.5,0,1-0.4,1.3-0.9c0.8-1.2,1.7-2.2,3.9-2.2c4.3,0,9.4,5.2,21.7,5.2c10.8,0,29.2-3.4,29.2-24.7c0-8.5-3.5-19.4-24.1-25.1
	c-14.6-4-19.3-10.2-19.3-17.7c0-6.4,3.8-12.6,14.3-12.6c5.2,0,13.7,1.4,19.4,12.5C810.6,142.7,811,142.7,811.4,142.7L811.4,142.7z
	 M748.8,139.1c1.6,0,3.1-0.4,3.4-0.7c-0.1,2.2-2.1,5.6-7.4,6.6c-0.4,0.1-0.8,0.5-0.8,1c0,0.5,0.4,1,1.2,1c7.8,0,12.2-7,12.2-12.9
	c0-5.2-3.5-8.3-7.8-8.3c-3.1,0-7.2,1.6-7.2,6.6C742.4,137.2,745.8,139.1,748.8,139.1L748.8,139.1z M762.4,247.1
	c0,3.3-1.3,7.7-4,12.5c-5.3,8.6-9.5,10.3-13.1,10.3c-3.1,0-4.4-2.5-4.4-6.1c0-3.1,1.3-7.3,3.8-10.9c3.6-5.7,8.7-10.5,13.3-10.5
	C760.9,242.3,762.4,243.9,762.4,247.1L762.4,247.1z M737.6,314.4c-12.5,0-16.3-7.3-16.3-10.8c0-3.4,1.3-5.6,4.8-7.9
	c2.3-1.7,5.9-3.4,8.6-4.4c3.1,1.3,7.7,4,9.2,5.5c6.8,4.7,8.1,7.4,8.1,9.9C752,312.9,742.4,314.4,737.6,314.4L737.6,314.4z
	 M777.1,245.2c1.3,0,2.6-0.7,2.6-3c0-2.1-2-2.7-3.8-2.7c-2.1,0-4.7,0.5-7.4,2.3c-0.6,0.5-2.3,1.3-3.4,0.7c-2.1-1.4-4-2.5-9.1-2.5
	c-5.1,0-12.5,3-17.3,9.5c-3.4,4.8-4,8.2-4,11.6s1.4,5.9,2.3,7.3c0.3,0.4,0.4,0.5,0.4,0.9c0,0.8-1,1.3-2.7,1.8c-3,1-8.1,3.9-8.1,9.1
	c0,3.4,2.7,6.6,5.7,8.7c0,0-6.2,1.7-11.2,4.4c-3.9,2.1-8.2,5.5-8.2,10.1c0,5.5,4.7,14.3,23.8,14.3c11.2,0,18.2-4,20.9-7.2
	c2.1-2.3,2.3-5.1,2.3-6.8c0-6.1-6.8-11.8-14.2-16c-4.8-2.7-11.7-6-11.7-10.8c0-1.3,0.4-2.6,1.7-3.4c0.9-0.6,2.3-1,3.9-1
	c2.1,0,4.8,0.7,6.8,0.7c6.1,0,14.3-2.1,19.5-12.9c1.3-3,2-6.1,2-8.7c0-3.4-0.5-4.2-0.5-5.7c0-1.3,1.3-2.1,3.9-2.1
	C774.9,243.7,774.9,245.2,777.1,245.2L777.1,245.2z M707.3,260.7c-4.8,1.4-10,2.7-12.5,2.7c3.3-5.9,7.2-10.5,11.1-14.3
	c2.3-2.3,6.2-5.3,10.2-5.3c3.3,0,4.8,1.4,4.8,4.7C720.8,254.7,714.3,258.4,707.3,260.7L707.3,260.7z M714,281.7c0.9-1-0.7-2.5-1.7-1
	c-3.2,3.6-9,8.5-15.1,8.5c-5.3,0-8.2-3.5-8.2-9.2c0-4.3,2.2-9.8,3.9-12.5c3.8-0.8,11.4-2.5,15-3.5c12.5-3.8,19.4-8.1,19.4-16
	c0-5.5-3.8-7.4-8.8-7.4c-15,0-37.3,21.3-37.3,41.7c0,6.5,4.3,11.6,11.5,11.6C701.8,293.7,709.2,288,714,281.7L714,281.7z M681,225.1
	c0,0.4-0.1,1-0.5,1.7c-9.1,19.9-18.2,39.7-27.1,59.6c-0.5,1-1.3,3-1.3,4.4c0,1.7,1.3,3.1,3,3.1c0.9,0,2.1-0.4,2.9-0.6
	c4.9-2,10.2-7.4,13.3-12.1c0.6-1-0.5-2-1.3-1.3c-1.3,1.2-4.8,5.9-8.5,7.9c-0.7,0.4-1.3,0.4-0.9-1l28.2-62.7c0.5-1.2,0.7-1.8,0.7-2.5
	c0-0.8-0.5-1.2-1.3-1.2c-1.3,0-3,0.4-4.9,0.5c-1.7,0.1-4.7,0.4-7.3,0.5c-0.6,0-1,0.6-1,1.2c0,0.6,0.5,1,1.3,1c1.3,0,2.7,0,4.2,0.4
	C680.8,224.3,681,224.7,681,225.1z M730.7,181.8c0-6.9,5.1-7.6,9.5-7.9c1.7-0.3,2.1-3-0.4-3h-34.2c-2.3,0-2.3,3.1,0,3.3
	c6.8,0.4,12.2,1.7,12.2,8.2v12.4c0,2.7-1.3,4.7-2.9,5.7c-6,4.9-13.5,5.3-18,5.3c-21.7,0-31.5-18.7-31.5-37.5
	c0-15.2,7.7-39.1,32.8-39.1c22.5,0,30.6,14.6,33.3,20.2c0.9,1.7,3,1.3,3,0v-18c0-1.7-2.5-2.1-3,0c-0.5,2.1-1.8,3.4-3.5,3.4
	c-1.3,0-3-1-3.6-1.4c-6.8-4.3-13.3-7.7-26.2-7.7c-20.8,0-46.5,10.4-46.5,42c0,31.9,24.1,41.8,45.2,41.8c20.7,0,31.6-10.5,33.6-11.8
	v-15.9L730.7,181.8L730.7,181.8z M655.7,225.1c0,0.4-0.1,1-0.5,1.7c-9.1,19.9-18.2,39.7-27.1,59.6c-0.4,1-1.3,3-1.3,4.4
	c0,1.7,1.3,3.1,3,3.1c0.9,0,2.1-0.4,2.9-0.6c4.9-2,10.1-7.4,13.3-12.1c0.7-1-0.5-2-1.3-1.3c-1.2,1.2-4.8,5.9-8.5,7.9
	c-0.6,0.4-1.3,0.4-0.9-1l28.2-62.7c0.5-1.2,0.6-1.8,0.6-2.5c0-0.8-0.5-1.2-1.4-1.2c-1.3,0-3,0.4-4.9,0.5c-1.7,0.1-4.7,0.4-7.3,0.5
	c-0.6,0-1,0.6-1,1.2c0,0.6,0.5,1,1.3,1c1.3,0,2.7,0,4.2,0.4C655.6,224.3,655.7,224.7,655.7,225.1L655.7,225.1z M615.5,242
	c5.1,0,6.2,4.3,6.1,8.5c0,13.7-15.6,39.7-26.2,39.7c-4.3,0-6.1-3.1-6.1-7.2C589.4,267.6,604.8,242,615.5,242L615.5,242z
	 M613.2,238.9c-15.2,0-29.1,19.1-29.1,38.8c0,8.1,3.6,16,13.5,16c15.6,0,28.5-22.4,28.5-36.4C626.1,248.4,624,238.9,613.2,238.9z
	 M558.8,126.2c-2.3,0-2.3,2.3-1,2.7c2.6,0.5,8.1,1,8.1,8.2c0.1,16.8,0.1,38.9-0.5,56.9c-0.1,6.4-2.1,11.9-7.5,12.5
	c-2.1,0.1-2.1,2.5-0.7,2.5h24.5c1.3,0,1.8-2.2,0.1-2.5c-3.8-0.6-9.9-0.6-10.3-12.5c-0.5-11.6-0.9-55.2-0.9-55.2l61.3,68.2h5.1
	c0,0,0-63.8,0.4-68.6c0.4-5.6,2.2-8.7,8.3-9.1c3-0.3,2.5-3,0.4-3h-24.9c-3,0-2.2,2.7-0.9,2.7c2.7,0.4,11.2,1.3,11.6,9.5
	c0.4,11.8,0.9,48.8,0.9,48.8l-54.5-61.1h-19.4L558.8,126.2L558.8,126.2z M580.6,245.7c0.7,0,1.2-0.4,1.3-1l5.5-17.3
	c0.4-1-0.1-1.7-1-1.7c-0.4,0-0.8,0.1-1.2,0.5c-1,1-2.2,2.1-3.3,2.1c-0.5,0-1-0.4-1.6-0.8c-4.8-6-12.6-6.9-16.4-6.9
	c-17.3,0-32.3,11.3-41,25.3c-5.3,8.2-8.1,17.3-8.1,26.3c0,14.3,9.9,22.3,22.8,22.3c5.7,0,10.1-0.7,18-3.9c1.7-0.6,3.6-1.4,4.8-1.4
	c2,0,2.1,2.9,2.2,5.5c0,1,0.7,1.3,1.3,1.3c0.5,0,1-0.3,1.3-1l7.3-20.7c0.5-1.7-0.1-2.3-0.8-2.3c-1,0-1.6,0.4-2.3,1.8
	c-3.3,5.1-5.6,8.3-16.9,13.9c-4.8,2.2-10.3,3.6-14.7,3.6c-9.6,0-13.4-7.4-13.4-16.7c0-12.2,5.7-25,14.6-35.7c5.6-7,14.3-15,24.3-15
	c9.6,0,16.8,7.2,15.7,20.3C578.9,245.2,579.7,245.7,580.6,245.7L580.6,245.7z M536.9,196v-57.5c0-7.2,5.1-9.1,10.5-9.5
	c2.1,0,2.3-2.7-0.4-2.7h-34c-2.3,0-2.7,2.6-0.4,2.7c5.1,0.5,11.2,3,11.2,9.5V196c0,6.4-2.3,10.5-9.9,10.5c-3,0-2.2,2.5,0,2.5h33.4
	c1.7,0,2.2-2.5-0.7-2.5C539.6,206.5,536.9,201.7,536.9,196L536.9,196z M456.6,138.5c0,2.1-0.7,3.9-1.6,4.8
	c-3.1,5.9-7.6,12.1-13.9,19.4c-16.3,18.2-38,39.7-45.4,44.7c-2.3,1.7-3,0-3-1.7c0-1.3,0-33.5,0.5-54.2c0.5-20.7,16-21.1,20-21.5
	c4.2-0.4,2.7-4.3,0.4-4.3h-63.8c-2.7,0-3,4-0.7,4c15,0,20.7,9.2,20.8,16c0.4,9.9,0.9,100,0,121.3c-0.8,20.7-13.7,21.3-19.1,21.7
	c-3.6,0.3-3.6,4,0.4,4c2.3,0,19.4-0.5,31.6-0.5c14.2,0,22.8,0,34.2,0.5c3.4,0.1,2-4.4-0.4-4.4c-19.3,0-22.6-11.8-23.7-20
	c-1-8.1-0.8-45.3-0.4-49.7c0.4-4.7,4.4-3.4,6.1-2.3c9.5,6.4,67.5,76.5,67.5,76.5h46.8c2.7,0,2.1-3.9,0-4
	c-8.1-0.7-15.6-1.3-26.4-10.2c-10.4-8.5-70.4-79.9-70.4-79.9s26.7-28.1,47.4-47.1c20-18.4,31.2-21.1,33.6-21.7
	c2.5-0.6,2.1-4.3-1.3-4c-5.5,0.3-16.7,0.7-24.5,0.7c-13.5,0-24.9-0.9-27.2-0.9c-3.6,0-4.4,4-0.4,4.7c2.7,0.5,5.3,0.8,8.2,1.8
	C455.6,133.5,456.6,135.9,456.6,138.5z M744.2,321.1c-1.3,0-1.7,2.3,0.1,2.3c2.1,0,6.4,0.5,6.4,6.8l-0.4,50.3c0,5.5-2,10-7,10
	c-1.7,0-1.7,2.2-0.4,2.2h21c1.3,0,1.3-2.2-0.3-2.2c-3,0-8.3-1.3-8.5-10l-0.5-51.2c0,0,53.6,63,54,63.4h3.6l0.4-60.4
	c0-6,2.6-9.1,9.1-9.1c1.3,0,1.3-2.1,0-2.1h-23.4c-1.3,0-1.3,2.1,0,2.1c2.3,0,9.6,0.4,9.8,8.2l0.5,44l-46.1-54.3L744.2,321.1
	L744.2,321.1z M679.5,356.3c0-18.4,8.5-32.4,24.1-32.4c13.9,0,24.5,13.4,24.5,32.4c0,23.4-9.5,33.7-24.5,33.7
	C689,390.1,679.5,376,679.5,356.3z M703.6,393.3c21,0,35.9-14.6,35.9-37c0-19.7-14.6-35.7-35.9-35.7c-20.8,0-35.8,16.3-35.8,35.7
	C667.8,377.4,682,393.3,703.6,393.3z M603.3,330.7c0-6.5,3.8-6.8,12.5-6.8c15.2,0,30.7,7.6,30.7,31.8c0,23.6-12.9,33.6-29.9,33.6
	h-3.6c-4.6,0-9.6-0.9-9.6-9.9V330.7z M585.7,320.7c-2.3,0-2,2.7-0.5,2.7c2.7,0,7.3,1.3,7.3,6.8v51c0,5.5-1.3,8.9-7.7,8.9
	c-1.6,0-1.6,2.6-0.1,2.6h34.1c15,0,39.7-7.2,39.7-36.7c0-29.9-20.3-35.3-40.1-35.3H585.7L585.7,320.7z M501.4,321.1
	c-1.3,0-1.7,2.3,0.1,2.3c2.1,0,6.4,0.5,6.4,6.8l-0.4,50.3c0,5.5-2,10-7,10c-1.7,0-1.7,2.2-0.4,2.2H521c1.3,0,1.3-2.2-0.3-2.2
	c-3,0-8.3-1.3-8.5-10l-0.5-51.2c0,0,53.6,63,54,63.4h3.6l0.4-60.4c0-6,2.6-9.1,9.1-9.1c1.3,0,1.3-2.1,0-2.1h-23.4
	c-1.3,0-1.3,2.1,0,2.1c2.3,0,9.6,0.4,9.8,8.2l0.5,44l-46.1-54.3L501.4,321.1L501.4,321.1z M436.2,356.3c0-18.4,8.5-32.4,24.1-32.4
	c13.9,0,24.5,13.4,24.5,32.4c0,23.4-9.5,33.7-24.5,33.7C445.7,390.1,436.2,376,436.2,356.3L436.2,356.3z M460.4,393.3
	c20.9,0,35.9-14.6,35.9-37c0-19.7-14.6-35.7-35.9-35.7c-20.8,0-35.8,16.3-35.8,35.7C424.6,377.4,438.8,393.3,460.4,393.3z
	 M811.8,432H356.2v9.9h455.6L811.8,432L811.8,432z M811.8,418.2H356.2v4.3h455.6L811.8,418.2L811.8,418.2z M355.1,321.2
	c-1.7,0-1.6,2.3,0,2.2c6.1,0,9.8,2.6,9.8,8.8v48.6c0,7.3-5.1,9.2-9.1,9.2c-1.3,0-1.8,2.6,0.4,2.6h62.6l3.8-20c0.4-2-1.7-2.1-2.2-0.8
	c-5.6,16.1-17,17.6-29.1,17.6c-12.5,0-15.4-2.1-15.4-7.8V331c0-6.1,5.7-7.4,8.6-7.4c1.8,0,1.3-2.3-0.1-2.3H355.1z"/>
</svg>
