<?xml version="1.0" encoding="utf-8"?>
<!-- Generator: Adobe Illustrator 24.3.0, SVG Export Plug-In . SVG Version: 6.00 Build 0)  -->
<svg version="1.1" id="Layer_1" xmlns="http://www.w3.org/2000/svg" xmlns:xlink="http://www.w3.org/1999/xlink" x="0px" y="0px"
	 viewBox="0 0 1133.9 566.9" style="enable-background:new 0 0 1133.9 566.9;" xml:space="preserve">
<style type="text/css">
	.st0{fill:#FFFFFF;}
	.st1{fill:#F71319;}
</style>
<g>
	<path class="st0" d="M273,203.1"/>
	<g>
		<path class="st1" d="M385.9,429.4L248.4,291.9c-4.7-4.7-4.7-12.3,0-17l137.4-137.4c4.7-4.7,12.3-4.7,17,0L540.3,275
			c4.7,4.7,4.7,12.3,0,17L402.8,429.4C398.2,434,390.5,434,385.9,429.4z"/>
		<polygon class="st0" points="329,227.8 329,309.2 382.6,309.2 375.8,337 400.6,337 407.2,307.8 434.8,307.7 427.7,337 452,337 
			474.1,257.1 449.1,257.1 441.1,284.7 413.8,284.7 421.5,257 395.7,256.9 388.4,285 355.8,284.7 354.8,282.8 354.8,227.8 		"/>
	</g>
	<g>
		<path d="M576,171.5h12.8v46.3h22.9v10H576V171.5z"/>
		<path d="M613.8,207.7v-0.6c0-13,9.2-21.4,21.2-21.4c10.6,0,20.1,6.2,20.1,21v3.2h-29.7c0.3,6.9,4,10.8,10.2,10.8
			c5.3,0,7.9-2.3,8.6-5.8H655c-1.3,8.9-8.4,13.9-19.7,13.9C622.9,228.7,613.8,220.9,613.8,207.7z M644,202.8c-0.4-6.2-3.5-9.2-9-9.2
			c-5.1,0-8.6,3.4-9.5,9.2H644z"/>
		<path d="M658.4,228.7h11.3c0.7,3.6,3.3,6,9.1,6c6.9,0,10.4-3.6,10.4-10.1v-6.2c-2.3,4-7.2,7.6-13.2,7.6c-10,0-18-7.5-18-19.7v-0.6
			c0-11.8,7.9-20.1,18.1-20.1c6.7,0,10.7,2.9,13.1,7.1v-6.1h11.3v38c-0.1,12.2-8.2,18.4-21.7,18.4
			C665.6,243,659.5,237.2,658.4,228.7z M689.6,206.2v-0.6c0-7-3.7-11.3-9.9-11.3c-6.4,0-9.9,4.6-9.9,11.3v0.6c0,6.9,4,11.1,9.7,11.1
			C685.5,217.4,689.6,213.2,689.6,206.2z"/>
		<path d="M706.1,216.4c0-9.6,8.8-13.2,21.4-13.2h4.6v-1.7c0-4.9-1.5-7.6-6.7-7.6c-4.5,0-6.5,2.3-7,5.8h-10.8
			c0.7-9.8,8.4-14.1,18.5-14.1s17.3,4.1,17.3,15.3v26.9h-11.1v-5c-2.4,3.3-6,5.8-12.4,5.8C712.4,228.7,706.1,225.1,706.1,216.4z
			 M732.2,213.4v-3.5h-4.4c-6.6,0-10.5,1.4-10.5,5.8c0,3,1.8,5,6,5C728.3,220.7,732.2,218,732.2,213.4z"/>
		<path d="M751.5,168h11.3v59.9h-11.3V168z"/>
		<path d="M576,250.3h12.8v23h22.6v-23h12.8v56.3h-12.8v-23.2h-22.6v23.2H576V250.3z"/>
		<path d="M630.2,295.2c0-9.6,8.8-13.2,21.4-13.2h4.6v-1.7c0-4.9-1.5-7.6-6.7-7.6c-4.5,0-6.5,2.3-7,5.8h-10.8
			c0.7-9.8,8.4-14.1,18.5-14.1s17.3,4.1,17.3,15.3v26.9h-11.1v-5c-2.4,3.3-6,5.8-12.4,5.8C636.5,307.5,630.2,303.8,630.2,295.2z
			 M656.2,292.2v-3.5h-4.4c-6.6,0-10.5,1.4-10.5,5.8c0,3,1.8,5,6,5C652.4,299.5,656.2,296.8,656.2,292.2z"/>
		<path d="M672.8,286.5v-0.6c0-13.3,9.5-21.4,21.3-21.4c9.5,0,18.4,4.2,19.4,16h-10.8c-0.8-4.8-3.7-7-8.4-7c-5.9,0-9.8,4.4-9.8,12.3
			v0.6c0,8.3,3.7,12.5,10.1,12.5c4.6,0,8.3-2.7,8.8-8h10.3c-0.6,9.8-7.7,16.5-19.7,16.5C681.9,307.5,672.8,300,672.8,286.5z"/>
		<path d="M718.8,246.7h11.4v36.1l13.2-17.4h12.1l-15,18.7l16.1,22.5h-12.9l-13.6-19.5v19.5h-11.4v-59.9H718.8z"/>
		<path d="M756.1,286.5v-0.6c0-13,9.2-21.4,21.2-21.4c10.6,0,20.1,6.2,20.1,21v3.2h-29.7c0.3,6.9,4,10.8,10.2,10.8
			c5.3,0,7.9-2.3,8.6-5.8h10.8c-1.3,8.9-8.4,13.9-19.7,13.9C765.2,307.5,756.1,299.7,756.1,286.5z M786.3,281.5
			c-0.4-6.2-3.5-9.2-9-9.2c-5.1,0-8.6,3.4-9.5,9.2H786.3z"/>
		<path d="M802.9,265.4h11.4v7.9c2.6-5.5,6.6-8.4,13.3-8.5v10.6c-8.4-0.1-13.3,2.7-13.3,10.6v20.6h-11.4V265.4z"/>
		<path d="M830.1,293.7h10.6c0.5,3.7,2.3,5.8,7.2,5.8c4.4,0,6.5-1.7,6.5-4.5s-2.4-4-8.4-4.9c-10.9-1.7-15.2-4.8-15.2-12.8
			c0-8.6,7.9-12.8,16.3-12.8c9.1,0,16,3.3,17,12.8h-10.5c-0.6-3.4-2.5-5-6.5-5c-3.7,0-5.8,1.7-5.8,4.3c0,2.6,2,3.6,8,4.5
			c10.3,1.5,16,4.1,16,12.9c0,8.9-6.5,13.5-17.3,13.5C837,307.5,830.5,302.6,830.1,293.7z"/>
		<path d="M577.2,329h4.4v26.2h33.2V329h4.4v56.3h-4.4V359h-33.2v26.4h-4.4V329z"/>
		<path d="M627.9,374.3c0-9.5,9.1-12.4,19.3-12.4h8.6v-3.7c0-7.7-3.2-11-10.4-11c-6.2,0-10.6,2.7-11.6,8.7h-4.1
			c0.9-8.7,8-12.3,15.8-12.3c8.6,0,14.4,4.1,14.4,14.6v27.3h-4.2v-6.3c-2.6,4-7,6.9-13.9,6.9C633.8,386,627.9,382.1,627.9,374.3z
			 M655.8,372.1v-7h-8.4c-8.6,0-15.3,1.8-15.3,9.2c0,5.3,3.3,8.4,10.1,8.4C649.8,382.6,655.8,378.2,655.8,372.1z"/>
		<path d="M670.6,344.2h4.2v7.8c1.9-4.5,6.8-8.4,13.5-8.4c6.1,0,10.9,2.6,12.6,9.2c2.6-5.8,8.4-9.2,14.7-9.2c8,0,13.8,4.3,13.8,16.1
			v25.8h-4.2v-26c0-8.7-3.7-12.2-10.3-12.2c-6.3,0-12.8,4.5-12.8,13.1v25.1h-4.2v-26c0-8.7-3.7-12.2-10.3-12.2
			c-6.3,0-12.8,4.5-12.8,13.1v25.1h-4.2V344.2z"/>
		<path d="M744.1,376v9.4h-4.2v-60.9h4.2v29.3c2.4-5.4,8.4-10.2,15.7-10.2c10.4,0,18.5,8,18.5,20.8v0.6c0,12.9-7.9,21-18.5,21
			C751.6,386,746.3,381,744.1,376z M773.9,365.1v-0.6c0-11.3-6.7-17.4-14.6-17.4c-8,0-15.4,6.1-15.4,17.4v0.6
			c0,11.3,6.9,17.3,15.4,17.3C768.1,382.5,773.9,376.2,773.9,365.1z"/>
		<path d="M785.7,370.2v-26.1h4.2V370c0,8.7,4.1,12.4,11.3,12.4c6.7,0,13.5-4.5,13.5-13.2v-25.1h4.2v41.2h-4.2v-7.9
			c-1.9,4.5-7.2,8.5-14.4,8.5C791.7,386,785.7,381.6,785.7,370.2z"/>
		<path d="M829.8,344.2h4.2v8.7c2.3-5,6.4-9,13.9-9.2v3.9c-8,0.3-13.9,4-13.9,15v22.8h-4.2V344.2z"/>
		<path d="M851.4,387.7h4.3c1.1,5.3,5.5,8.9,14.1,8.9c8.8,0,15-4,15-14.2V374c-2.2,5-8,10-15.6,10c-10.5,0-18.6-7.7-18.6-19.7v-0.6
			c0-11.7,8.3-20.2,19.1-20.2c8.1,0,12.7,4.5,15,9.5v-8.9h4.2v38.4c-0.1,12.1-8,17.6-19.1,17.6C858,400.2,852.4,394.4,851.4,387.7z
			 M884.8,364.1v-0.6c0-10.4-6.1-16.4-14.7-16.4c-8.8,0-15.2,6.3-15.2,16.5v0.6c0,10.2,6.5,16.2,14.7,16.2
			C877.9,380.5,884.8,374.4,884.8,364.1z"/>
	</g>
</g>
</svg>
