<?xml version="1.0" encoding="utf-8"?>
<!-- Generator: Adobe Illustrator 24.3.0, SVG Export Plug-In . SVG Version: 6.00 Build 0)  -->
<svg version="1.1" id="svg2" xmlns:svg="http://www.w3.org/2000/svg"
	 xmlns="http://www.w3.org/2000/svg" xmlns:xlink="http://www.w3.org/1999/xlink" x="0px" y="0px" viewBox="0 0 1134 567"
	 style="enable-background:new 0 0 1134 567;" xml:space="preserve">
<style type="text/css">
	.st0{fill:#FFFFFF;}
</style>
<g id="g4" transform="translate(8.69141e-2,1.07422e-2)">
	<path id="path6" class="st0" d="M0.4,471.3h1134V95.7H0.4V471.3z"/>
</g>
<g id="g8" transform="translate(81.0166,47.6035)">
	<path id="path10" d="M290.1,306.4l0.5-40.3h5l-0.5,36.2h17.4v4.1H290.1z"/>
</g>
<g id="g12" transform="translate(87.9189,47.6035)">
	<path id="path14" d="M340.5,289h-13.3l6.9-18.3l0,0L340.5,289z M314.8,305.9l4.6,1.4l6-14.2h16.9l5.5,14.2l5-1.8l-16.5-39.4h-4.6
		L314.8,305.9z"/>
</g>
<g id="g16" transform="translate(97.6172,47.4258)">
	<path id="path18" d="M349.5,266.8l5-1.4l10.1,34.8l0,0l11-34.3h5l10.1,34.3l0,0l11.4-34.8l4.6,1.4l-13.7,39.8h-4.6l-10.5-33.9l0,0
		l-11,33.9h-4.6L349.5,266.8z"/>
</g>
<g id="g20" transform="translate(116.439,47.4258)">
	<path id="path22" d="M419.2,300.7c2.3,1.4,5.5,2.7,8.7,2.7c4.6,0,7.8-2.7,7.8-7.3c0-10.1-17.9-6-17.9-20.2c0-6,5-10.5,12.4-10.5
		c4.1,0,7.3,1.4,10.5,3.2l-1.8,3.7c-2.3-1.4-4.6-3.2-8.7-3.2c-3.7,0-7.3,2.3-7.3,6.9c0,8.7,18.3,6.9,18.3,19.7
		c0,6-4.1,11.4-13.3,11.4c-4.6,0-7.8-0.9-11-3.2L419.2,300.7z"/>
</g>
<g id="g24" transform="translate(123.992,47.4258)">
	<path id="path26" d="M476,272.8c-3.2-2.3-6.9-3.2-10.5-3.2c-9.6,0-16,7.3-16,16.9c0,9.6,6.9,16.9,16,16.9c3.7,0,7.3-1.4,10.5-3.2
		l1.8,3.7c-3.7,1.8-8.2,3.7-12.4,3.7c-11.9,0-21.5-7.8-21.5-21.1c0-12.4,9.6-21.1,21.5-21.1c4.6,0,8.7,1.4,12.4,3.2L476,272.8z"/>
</g>
<g id="g28" transform="translate(134.467,47.6035)">
	<path id="path30" d="M481.9,266.1h5V284h22v-17.9h5l-0.5,40.3h-5v-18.3H487l-0.5,18.3h-5L481.9,266.1z"/>
</g>
<g id="g32" transform="translate(144.137,47.4258)">
	<path id="path34" d="M521.6,286.5c0-9.2,6.9-16.9,16-16.9s16,7.3,16,16.9c0,9.6-6.9,16.9-16,16.9S521.6,295.7,521.6,286.5z
		 M516.1,286.5c0,13.3,9.6,21.1,21.5,21.1s21.5-8.7,21.5-21.1c0-13.3-9.6-21.1-21.5-21.1S516.1,274.2,516.1,286.5z"/>
</g>
<g id="g36" transform="translate(155.798,47.4258)">
	<path id="path38" d="M563.3,286.5c0-9.2,6.9-16.9,16-16.9c9.6,0,16,7.3,16,16.9c0,9.6-6.9,16.9-16,16.9
		C569.7,303.5,563.3,295.7,563.3,286.5z M557.8,286.5c0,13.3,9.6,21.1,21.5,21.1s21.5-8.7,21.5-21.1c0-13.3-9.6-21.1-21.5-21.1
		S557.8,274.2,557.8,286.5z"/>
</g>
<g id="g40" transform="translate(167.781,47.6035)">
	<path id="path42" d="M600.7,306.4l0.5-40.3h5l-0.5,36.2h17.4v4.1H600.7z"/>
</g>
<g id="g44" transform="translate(18.0293,18.0273)">
	<path id="path46" d="M64.6,160.2v207.5h207.5V160.2H64.6z M266.1,166.2c0,5.5,0,190.1,0,196c-5.5,0-190.1,0-196,0
		c0-5.5,0-190.1,0-196C76.1,166.2,260.7,166.2,266.1,166.2z"/>
</g>
<g id="g48" transform="translate(21.5205,24.8818)">
	<path id="path50" d="M174.2,184.7c0,2.3,0,8.2,0,9.6c0.9,0,2.7,0,3.7,0c3.7,0,8.7,0,11,1.8c4.1,4.1-1.4,8.2-6,14.7
		c-7.3,10.1-2.7,16.5,2.3,12.8c2.7-2.3,9.2-6.9,11.9-8.2c6.4-3.2,10.5,5,3.7,13.7c-2.7,3.7-7.3,8.2-10.5,12.8
		c-4.1,5.5-2.3,13.3,5.5,7.8c8.7-6.4,11.9,3.7,2.7,13.3c-8.7,9.2-13.7,15.6-11,23.8c0.9,2.7,1.8,6,3.2,8.7c0,0.5,0.5,0.5,0.5,0.5
		v0.5c0,0,0,0-0.9,0h-5.5c-0.5-0.9-3.2-8.2-6-16.5c-0.9-2.3-2.3-4.1-7.8-6c-1.4-0.5-2.3-0.9-2.7-0.9c-0.9-0.5-1.4,0-2.3,0.5
		c-1.4,0.9-3.2,2.3-3.7,2.7c-3.7,2.7-5,3.2-6.9,3.2c-1.4-0.5-1.8-1.4-1.8-2.7v-0.5c1.8-2.7,3.2-5.5,4.1-8.7c0.9-3.2,1.4-6.4,1.4-9.6
		c0,0,0,0,0-0.5c0.9-1.4,1.8-1.8,2.7-1.4c1.4,0.5,2.3,2.3,4.1,6.4c0.5,0.9,0.9,2.7,1.4,4.1c0.5,0.9,0.9,1.4,1.8,1.8
		c0.9,0.5,2.7,0.9,5,1.4l0.5,0.5l0.5-0.5c0,0-0.5,0-0.5-0.5c-2.3-5.5-3.7-10.1-3.7-10.5c-2.3-6.4-4.1-9.2-8.7-12.4
		c-4.6-3.2-11.4-5.5-15.1-7.8c-11.9-6.9-9.6-16.5-3.2-16c2.7,0,8.2,2.3,12.8,3.7c7.3,2.7,7.3-6.4-1.8-13.3
		c-11.9-8.7-14.2-13.3-11.4-16.9c1.4-1.8,5.5-1.8,9.6-1.8c0.9,0,2.7,0,3.2,0c0-2.3,0-6.9,0-9.6H77.1v9.6c1.8,0,3.7,0,6,0
		c6.4,0.5,11.4,3.7,16.9,17.4c4.6,11.9,42.1,107.6,46.3,117.7c0.9,0,38.5,0,38.5,0c3.2-8.2,40.3-103,46.3-118.2
		c5.5-13.7,11-16,17.4-16.5c1.4,0,3.2,0,5,0v-9.6L174.2,184.7z M146.3,273.1c-5-1.8-6.9-3.2-7.3-8.7c0-1.4,0-3.2,0-3.2
		s0.9-1.4,1.8-2.3c3.2-4.1,6-4.1,11-3.2c0.5,0,2.7,0.5,4.6,0.9c0,3.2-0.5,6.4-1.4,9.2c-0.9,3.2-2.3,6-3.7,8.7
		C149,274.5,146.7,273.6,146.3,273.1z"/>
</g>
<g id="g52" transform="translate(74.6279,25.0234)">
	<path id="path54" d="M332.7,185.3h-3.2h-0.9h-0.5c-1.4,0-2.7,0-4.1,0c-1.8,0-3.7,0-5.5,0h-0.5c-1.8,0-3.2,0-4.6,0H313v4.1h2.3
		c4.1,0,5,0.9,5,2.3c0,0.9,0,2.3-0.9,4.6c-0.5,1.4-11.4,29.3-14.2,35.7c-3.2-6.9-14.7-36.6-15.1-38s-0.9-2.3-0.9-2.7
		s0.9-1.8,4.1-1.8h2.7v-4.1h-0.9h-4.1h-0.9h-1.4c-2.3,0-5,0-7.3,0s-4.6,0-6.9,0s-4.6,0-6.9,0h-0.5v4.1h1.8c3.7,0,5,0.5,6.9,4.6
		l23.4,56.8h4.1v-0.5c0.5-1.4,3.7-8.7,9.2-22.4c4.6-11.4,14.2-34.8,14.7-35.7c1.4-2.7,2.7-2.7,4.1-2.7h1.8v-4.1H332.7L332.7,185.3z"
		/>
</g>
<g id="g56" transform="translate(89.1104,24.8857)">
	<path id="path58" d="M376.8,242.5c-0.9-2.3-1.8-4.6-2.7-7.3l-0.5-1.8l0,0c0-0.5-1.4-3.7-16-45.8l-0.9-2.3c-0.5-0.5-0.9-0.5-1.4-0.5
		l0,0h-0.5h-0.9h-2.3l0,0c-1.4,0-2.3,0-4.1,0h-0.9v0.5c-0.5,2.7-1.8,6-3.2,9.2l-0.5,1.4L342,199l-14.2,41.2
		c-1.4,3.2-3.7,5.5-6.9,5.5h-1.8v4.1h0.9h0.9c2.7,0,5.5-0.5,8.7-0.5s6.4,0,9.6,0.5h1.4h0.9v-4.1h-2.3c-1.8,0-6-0.5-6-2.3
		c0-0.9,0.5-2.3,0.9-4.1l0.9-2.7c0,0,2.3-6.9,2.7-8.7c0.9,0,18.3,0,19.2,0c0.5,0.9,3.2,10.1,3.2,10.1c0.9,2.7,1.8,5,1.8,6.4
		c0,1.8-3.2,1.8-4.6,1.8h-1.4v4.1h2.3c3.7,0,7.8-0.5,11.4-0.5s7.3,0,11,0.5h1.4h0.9v-4.1h-1.4C379.6,245.7,377.7,244.8,376.8,242.5z
		 M354.8,220.9c-1.4,0-13.3,0-14.7,0c1.4-3.7,6-17.4,7.3-22.4C348.4,200.3,354.4,219.6,354.8,220.9z"/>
</g>
<g id="g60" transform="translate(105.356,25.0234)">
	<path id="path62" d="M445,185.3h-0.9c-1.8,0-3.7,0-5.5,0c-2.3,0-4.1,0-6.4,0c-1.8,0-4.1,0-6.4,0h-0.9v4.1h2.7
		c2.7,0,6.9,0.9,6.9,7.8c0,0.5,0,25.2,0.5,32.1c-6-6.9-38-43.5-38.5-44l0,0H396c-1.4,0-2.7,0-4.1,0h-0.5h-3.7h-4.1h-0.5
		c-1.4,0-3.2,0-5,0h-0.5v4.1h1.8c1.8,0,3.2,0.9,4.6,1.8c1.4,1.4,2.3,3.7,2.3,5.5l-0.5,38c0,6.9-0.9,11-6.9,11h-1.8v3.7h0.9
		c1.8,0,4.1,0,6,0l0,0c2.3,0,4.1,0,6,0c1.8,0,3.7,0,6,0l0,0h5.5h0.9v-4.1h-2.3c-6,0-7.3-2.3-7.3-9.6c0,0,0-27.9,0-34.8
		c2.3,2.3,45.3,50.4,45.3,50.4h4.6v-0.9c-0.5-2.7-0.5-6-0.5-9.2l0.5-40.8c0-10.5,4.1-10.5,6.9-10.5h2.3v-4.6H451H445z"/>
</g>
<g id="g64" transform="translate(124.752,25.0234)">
	<path id="path66" d="M503,194c-6.4-5.5-15.6-8.7-26.6-8.7H471h-0.5c-2.7,0-5.5,0-8.7,0c-3.2,0-6.9,0-9.6-0.5h-1.8l-2.7,0.5h-0.9
		v4.1h1.8c3.7,0,6,0.9,6,4.6v47.2c0,4.1-2.3,4.6-5.5,4.6h-1.8v3.7h0.9h4.1h0.9c2.7,0,6,0,9.2,0c7.3,0,14.2,0,16.5,0
		c8.7,0.5,17.4-2.7,23.8-8.7c6.4-6,10.1-14.7,10.1-23.8C512.6,207.7,509.4,199.9,503,194z M498.9,219.1c0,6.9-1.8,13.3-5.5,17.4
		c-4.1,5-9.6,7.3-16.9,7.3c-6,0-8.7-0.5-8.7-6.4c0,0,0-45.3,0-46.3c0.5,0,0.9,0,0.9,0c1.4,0,3.2-0.5,4.6-0.5
		c8.2,0,14.2,1.8,18.3,5.5C496.2,200.8,498.9,208.2,498.9,219.1z"/>
</g>
<g id="g68" transform="translate(142.555,25.0234)">
	<path id="path70" d="M558.1,233.8c-1.4,5-2.7,7.3-5,8.2c-2.3,1.4-6,1.4-11,1.4l0,0c-6.4,0-10.1-0.5-10.1-5c0,0,0-18.3,0-19.7
		c0.9,0,10.5,0,10.5,0c4.6,0,5,2.3,5.5,7.8v0.9l4.1-0.9V226c0-3.7-0.5-6.4-0.5-9.6c0-3.7,0-6,0.5-9.6v-0.9h-3.7v0.5
		c-0.5,5-2.3,6.4-6.9,6.4c0,0-9.2,0-10.1,0c0-1.4,0-20.6,0-21.5c0.9,0,11.9,0,11.9,0c9.2,0,9.6,2.7,10.1,8.7v0.9l4.1-0.9v-0.5
		c-0.5-3.7,0-8.2,0-11.9v-1.8h-0.5l0,0c-3.2-0.5-6.9-0.5-11-0.5h-0.5c-4.1,0-8.2,0-11.9,0c-4.1,0-9.2,0-12.8,0c-4.6,0-7.3,0-9.6,0
		h-0.9v4.1h1.8c3.7,0,6,0.9,6,4.6v47.2c0,3.7-1.8,4.6-5.5,4.6h-1.8v3.7h0.9h9.2c4.6,0,9.6,0,14.2,0s9.6,0,13.7,0h0.9h9.2h0.5v-0.5
		l0.9-5c0.5-3.2,0.9-6,1.4-9.2v-0.9l-4.1-0.9L558.1,233.8z"/>
</g>
<g id="g72" transform="translate(174.17,25.0234)">
	<path id="path74" d="M661.6,214.6c6.4-1.8,12.4-6,12.4-14.2c0-4.6-1.8-8.2-5-10.5c-3.2-3.2-8.7-4.6-16-4.6c-2.3,0-4.1,0-6.4,0H646
		c-2.3,0-5,0-7.3,0s-5,0-7.3,0h-0.9c-2.7,0-4.6,0-6.4,0h-0.5v4.1h1.8c3.7,0,6,0.9,6,4.6v47.2c0,3.7-2.3,4.6-6,4.6h-1.8v3.7h0.9h6
		h0.5c2.7,0,6.4,0,9.2,0c3.2,0,6,0,8.7,0h6.9c6,0,11.4-1.8,15.6-5.5c4.1-3.7,6.4-8.2,6.4-13.3c0-4.6-1.8-8.2-4.6-11
		C670.3,216.9,666.2,215,661.6,214.6z M648.3,212.7c0,0-2.3,0-3.7,0c0-0.9,0-20.6,0-22c0.9,0,4.6,0,4.6,0c5.5,0,11,0.9,11,11
		C660.2,209.1,656.6,212.7,648.3,212.7z M664.4,231.5c0,7.3-5.5,12.8-12.4,12.8c-6.4,0-7.3-0.9-7.3-6.9c0,0,0-18.3,0-19.7
		c0.9,0,5,0,5,0c4.6,0,8.2,0.9,10.5,3.2C663,223.3,664.4,226.9,664.4,231.5z"/>
</g>
<g id="g76" transform="translate(189.999,25.0234)">
	<path id="path78" d="M708.2,185.3h-5h-1.8h-0.5c-2.3,0-4.6,0-6.9,0c-2.3,0-4.6,0-6.9,0l0,0c-2.7,0-4.6,0-6,0h-0.9v4.1h1.8
		c3.7,0,6,0.9,6,4.6v47.2c0,3.7-2.3,4.6-6,4.6h-1.8v3.7h0.9h6c2.3,0,5,0,7.3,0s4.6,0,7.3,0h0.5h6.9h0.9v-4.1h-3.2
		c-3.7,0-6-0.9-6-4.6V194c0-3.7,2.3-4.6,6-4.6h1.8v-4.1H708.2L708.2,185.3z"/>
</g>
<g id="g80" transform="translate(200.91,25.0234)">
	<path id="path82" d="M766.1,233.8c-0.5,1.8-0.9,3.7-2.3,5.5c-1.8,2.3-4.6,3.7-7.8,4.1c-3.7,0.5-6.9,0.5-10.5,0
		c-3.2-0.5-4.6-1.8-4.6-4.1v-45.8c0-4.1,1.8-4.1,5.5-4.1h3.2v-4.1h-1.4l0,0c-2.3,0-4.6,0-6.4,0h-0.5c-2.3,0-4.6,0-6.9,0
		c-2.3,0-4.6,0-6.9,0s-4.6,0-7.3,0h-0.9v4.1h1.8c3.7,0,6,0.9,6,4.6v46.3c0,5-2.7,5.5-6,5.5h-1.8v3.7h0.9h11.4h0.5
		c4.6,0,8.2,0,11.9,0c3.2,0,6.9,0,11.4,0h0.5c3.7,0,7.3,0,11,0h0.5v-0.5c0.9-3.2,1.4-6.4,1.8-9.6l1.4-6h-4.1L766.1,233.8z"/>
</g>
<g id="g84" transform="translate(157.472,25.0234)">
	<path id="path86" d="M618.8,240.2l-11.4-15.6c-1.8-2.7-3.7-4.1-5-5c6-2.7,12.8-8.7,12.8-17.4c0-6-2.3-10.5-6.9-13.3
		c-3.7-2.3-8.7-3.7-15.1-3.7h-5.5h-1.4h-0.5c-2.3,0-4.6,0-7.3,0c-3.2,0-6,0-9.2,0h-0.9h-3.7h-0.9v4.1h2.3c3.2,0,5.5,0.5,5.5,6v45.8
		c0,4.1-4.1,4.1-5,4.1h-2.3v4.1h0.9c2.3,0,4.1,0,6.4,0c1.8,0,4.1,0,6,0c2.3,0,4.6,0,7.8,0l0,0h7.3h0.9v-4.1h-2.3
		c-4.1,0-6.4-0.5-6.4-6.4c0,0,0-16,0-17.4c0.9,0,4.1,0,4.1,0c1.4,0.5,2.3,0.9,3.2,2.3c2.3,3.2,7.3,11,14.7,21.1
		c3.7,4.6,8.2,4.6,11.9,4.6h10.1v-4.1h-0.9C623.4,245.3,621.5,244.8,618.8,240.2z M601.4,202.7c0,4.6-1.4,8.2-3.7,10.5
		c-1.8,2.3-5,3.2-9.2,3.2c0,0-2.7,0-3.7-0.5c0-0.9,0-24.3,0-25.2c0.5,0,0.5,0,0.5,0c0.9,0,1.8-0.5,3.7-0.5
		C596.8,190.8,601.4,195.3,601.4,202.7z"/>
</g>
<g id="g88" transform="translate(212.646,24.9141)">
	<path id="path90" d="M820.9,185.3h-1.8h-0.5h-4.1h-43.1c-2.3,0-3.7,0-4.6,0h-0.5l0,0c-0.5,0-3.7-0.5-3.7-0.5v0.5l0,0
		c0,1.8,0,3.2-0.5,5.5v0.5v0.9l-0.9,6.9v0.9h4.1v-0.5c1.4-6.4,1.4-7.3,7.8-7.3c0,0,11,0,11.9,0c0,1.4,0,46.7,0,46.7
		c0,6.4-1.8,6.9-6.9,6.9h-1.8v4.1h0.9h6c2.7,0,6,0,9.2,0c2.7,0,5.5,0,8.2,0l0,0h6.4h0.9v-4.1h-2.7c-4.1,0-6.9-0.5-6.9-6.9
		c0,0,0-45.3,0-46.7c1.4,0,12.4,0,12.4,0c5.5,0,6,5,6,7.8v0.9l4.1-0.9v-1.4v-7.3c0-2.3,0.5-4.6,0.5-5.5v-0.9L820.9,185.3
		L820.9,185.3z"/>
</g>
</svg>
