<?xml version="1.0" encoding="utf-8"?>
<!-- Generator: Adobe Illustrator 24.3.0, SVG Export Plug-In . SVG Version: 6.00 Build 0)  -->
<svg version="1.1"
	 id="Layer_1" xmlns:cc="http://creativecommons.org/ns#" xmlns:dc="http://purl.org/dc/elements/1.1/" xmlns:rdf="http://www.w3.org/1999/02/22-rdf-syntax-ns#"
	 xmlns="http://www.w3.org/2000/svg" xmlns:xlink="http://www.w3.org/1999/xlink" x="0px" y="0px" viewBox="0 0 1134 567"
	 style="enable-background:new 0 0 1134 567;" xml:space="preserve">
<style type="text/css">
	.st0{fill:#D8AB4C;}
</style>
<g transform="translate(-.32411 .013509)">
	<path d="M451,191.6l-0.2,0c0,0-0.3,0-0.3,0l-0.8,0.1l-2.3,0.2c0,0-0.1,0-0.1,0c-1.4,0.1-2.3,0.1-4.2,0c0,0-0.6,0-0.6,0l-0.2,0.6
		c-0.5,2.1-1.8,5.5-2.9,8.5l-0.5,1.3l-1.1,3.2c0,0-14.3,41.1-14.3,41.1c-1.2,3.3-3.8,5.3-7.1,5.3H415v4.2l0.8,0
		c3.1-0.2,6.4-0.4,9.6-0.4c3.6,0,7.3,0.2,10.6,0.4l0.2,0l0.8,0.1v-4.1h-1.7c-1.8,0-6-0.2-6-2.5c0-0.9,0.4-2.2,1-3.8l0-0.1
		c0,0,0.9-2.9,0.9-2.9s2.1-7,2.7-8.8h19.2c0.3,0.8,3.3,9.9,3.3,9.9c0.9,2.7,1.7,5.2,1.7,6.2c0,1.8-3.3,2-4.3,2h-1.8v4.1l2.8-0.1
		c3.7-0.1,7.2-0.3,10.9-0.3c4.3,0,8.3,0.2,12.2,0.4l0.9,0V252h-1.3c-2.7,0-4.3-0.9-5.2-3.1c-1-2.2-1.9-4.9-2.8-7.5l-0.5-1.6
		c0,0-16.1-45.3-16.1-45.3s0,0,0,0.1c-0.1-0.2-0.2-0.6-0.8-2.3C452,191.5,451.5,191.6,451,191.6L451,191.6z M979.6,191.6v0.7v0.3
		c0,1.9-0.1,2.9-0.3,5.2c0,0-0.1,0.6-0.1,0.6l-0.9,7.3l-0.1,0.9h4.2l0.1-0.6c1.3-6.4,1.5-7.4,7.6-7.4h12v46.6c0,6.5-2,6.8-6.7,6.8
		H993v4.2h0.8l6-0.1l1,0c2.6-0.1,5.5-0.2,8.1-0.2c2.4,0,5.2,0.1,7.7,0.2l0.7,0c0,0,6.2,0.2,6.2,0.2h0.8V252h-2.5
		c-3.9,0-6.7-0.5-6.7-6.9v-46.5h12.4c5.6,0.1,5.8,5,6,7.6c0,0,0,1,0,1l4.1-1v-0.6l0.1-6.5l0-0.6c0.1-1.8,0.2-3.7,0.4-5.6l0.1-0.9
		l-1,0.1l-1.9,0.1c0,0-0.3,0-0.3,0c0,0-4,0.1-4,0.1h-43c-2.3,0-3.7-0.1-5-0.2c0,0-0.2,0-0.2,0c0,0-2.6-0.2-2.6-0.2L979.6,191.6
		L979.6,191.6z M705.4,192.1l-0.7,0h-0.1c0,0-9.5,0.1-9.5,0.1l-0.9,0c-4.2,0.1-8.6,0.2-12.5,0.2c-3.9,0-8.4-0.1-12.4-0.2l-0.4,0
		c-3.5-0.1-6.9-0.2-9.4-0.2h-0.8v4.2h2c3.7,0,5.9,0.7,5.9,4.3v46.9c0,3.8-1.9,4.6-5.2,4.6h-2v4h0.8l9.1-0.1l1.5,0
		c4-0.1,8.6-0.2,12.5-0.2c4,0,8.6,0.1,12.6,0.2l1.1,0l9.9,0.2h0.7l0.1-0.7l0.7-4.9c0.4-3,0.8-5.9,1.6-9c0,0,0-0.1,0-0.1l0.2-0.6
		l-4-1l-0.2,0.7c-1.3,4.9-2.7,7.3-5,8.4c-2.4,1.2-5.8,1.2-11,1.2h-0.2c-6.3,0-10.2-0.2-10.2-5.1v-19.6h10.3c5.4,0,5.8,2.2,6.4,7.7
		c0,0,0,0.2,0,0.2l0.1,0.7l4-0.8v-0.6c-0.2-3.7-0.3-6.6-0.3-9.7c0-3.4,0.1-5.9,0.3-9.4l0-0.8l-3.8,0.1l-0.1,0.7
		c-0.6,4.7-2,6.1-6.7,6.1h-10.2v-21.4h11.7c8.9,0,9.6,2.9,10,8.6c0,0,0.1,0.9,0.1,0.9l3.9-1.1l0-0.6c-0.2-3.4,0-8,0.1-11.6
		L705.4,192.1L705.4,192.1z M349,192.2v4.2h1.7c3.6,0,5.2,0.7,6.8,4.6c0,0,23.3,56.5,23.3,56.5h4.3l0.2-0.4
		c0.6-1.5,3.7-8.8,7.5-18.1l1.7-4.2c4.6-11.3,14.2-34.7,14.7-35.6c1.3-2.5,2.6-2.7,4.1-2.7h1.7v-4.2h-0.6h-0.1
		c-1.3,0-2.8,0.1-4.2,0.2c0,0-0.3,0-0.3,0c-1.3,0.1-2.7,0.2-4,0.2c-2,0-3.8-0.1-5.6-0.2c-0.1,0-0.3,0-0.3,0l-4.4-0.2h-0.7v4.2h2.3
		c4.1,0,5,0.8,5,2.2c0,0.9-0.2,2.4-1.1,4.7c0,0-11.4,28.8-14.1,35.7c-1.1-2.7-15-38.3-15-38.3c-0.5-1.2-0.7-2.3-0.7-2.6
		c0-0.9,1.4-1.8,3.9-1.8h2.8v-4.2h-0.8l-5,0.1l-0.1,0c-2.7,0.1-5.7,0.2-8.1,0.2c-2.3,0-4.8-0.1-6.9-0.2l-0.2,0
		c-2.2-0.1-4.5-0.2-6.7-0.2L349,192.2L349,192.2z M489.3,192.2l0.1,3.9l1.9,0.1c1.7,0,3.4,0.7,4.7,2c1.4,1.4,2.2,3.4,2.2,5.5
		l-0.3,37.7c0,6.8-1.1,10.7-6.7,10.7c0,0-2,0.1-2,0.1v4h0.8c2,0,4-0.1,5.9-0.2h0.1c1.7-0.1,3.8-0.2,5.9-0.2c2,0,4.1,0.1,5.7,0.2h0.1
		c1.9,0.1,3.8,0.2,5.7,0.2h0.8V252h-2.3c-5.8,0-7.4-2.2-7.4-9.7c0,0-0.2-27.8-0.2-34.9c6.9,7.6,44.4,49.5,44.8,49.9l0.2,0.2h4.6
		l-0.1-0.9c-0.5-2.9-0.5-6.1-0.5-8.9l0.2-40.7c0-10.6,3.9-10.6,6.8-10.6c0,0,2.1-0.1,2.1-0.1v-4h-0.8c-1.9,0-3.9,0.1-5.4,0.1
		c-1.7,0.1-3.5,0.2-5.4,0.2c-2.1,0-4.3-0.1-6.2-0.2l-0.2,0c-2-0.1-4.1-0.2-6.2-0.2H538h-0.6v4.2h2.7c2.5,0,6.8,1,6.8,7.7
		c0,0.3,0.2,25.3,0.2,31.9c-1.9-2.3-38.8-43.8-38.8-43.8H508c-1.4,0-2.8,0.1-4,0.2c-1.2,0.1-2.6,0.1-3.9,0.1c-1.7,0-3.4-0.1-4.9-0.1
		c-1.5-0.1-3.2-0.2-4.9-0.2h-0.8L489.3,192.2z M577.5,192.2v4.2h2c3.7,0,5.9,0.7,5.9,4.3v46.9c0,4.1-2.5,4.4-5.4,4.4l-2,0.1v4h0.7
		l4.1-0.1c2.6-0.1,6.4-0.3,10.3-0.3c6.1,0,12.4,0.2,16.2,0.4c8.9,0.5,17.4-2.6,23.8-8.7c6.5-6.1,10.2-14.7,10.2-23.5
		c0-9.5-3.4-17.5-9.8-23.1c-6.4-5.7-15.6-8.7-26.5-8.7l-5.5,0.1l-1,0c-2.3,0.1-5,0.2-7.9,0.2c-3.2,0-6.5-0.1-9.2-0.2l-0.4,0l-1.2,0
		l-3.4-0.1L577.5,192.2L577.5,192.2z M726.7,192.2v4.2h2.4c3.1,0,5.6,0.5,5.6,6v45.5c0,3.9-4,4.2-5.2,4.2l-2.4,0.1v4h0.8
		c2.2,0,4.3-0.1,6.4-0.2h0.1c1.9-0.1,4-0.2,6.1-0.2c2.6,0,5.4,0.1,7.7,0.2h0.1c2.5,0.1,5.1,0.2,7.6,0.2h0.8V252h-2.4
		c-4.1,0-6.6-0.3-6.6-6.4v-17.1c0.2,0,0.5,0,0.5,0l3.6,0.1c1.2,0.1,2.3,0.4,3.2,1.7c3.6,5.4,8.1,12.1,14.8,20.9
		c3.6,4.9,8.2,4.9,11.5,4.9l10.1,0V252h-0.7c-4.7-0.2-6.2-0.8-9-5c-0.1-0.1-2.9-3.9-6.9-9.3l-4.6-6.3c-1.9-2.6-3.6-4.2-5.1-5
		c6.2-2.8,12.8-8.7,12.8-17.4c0-6.1-2.3-10.6-6.8-13.4c-3.6-2.2-8.7-3.4-15.3-3.4c-2.3,0-4.5,0.1-6.8,0.2c-2.2,0.1-4.8,0.2-7.6,0.2
		c-3.1,0-6.4-0.1-9-0.2c0,0-0.9,0-0.9,0l-4-0.1L726.7,192.2L726.7,192.2z M802.7,192.2v4.2h2c3.7,0,5.9,0.7,5.9,4.3v46.9
		c0,3.6-2.2,4.3-5.9,4.3h-2v4.2h0.8l6-0.1l0.8,0c2.8-0.1,6.1-0.2,9-0.2c2.9,0,5.9,0.1,8.6,0.2c2.6,0.1,4.9,0.2,7,0.2
		c5.8,0,11.3-1.9,15.4-5.4c4.2-3.5,6.5-8.1,6.5-13.1c0-4.3-1.6-8.2-4.6-11.1c-2.9-2.8-7.1-4.7-11.7-5.4c6.2-1.9,12.4-5.8,12.4-14.2
		c0-4.4-1.6-8-4.8-10.5c-3.6-2.8-9.1-4.3-16.3-4.3l-6,0.1l-0.5,0c-2.5,0.1-5.2,0.2-7.8,0.2c-2.6,0-5.2-0.1-7.7-0.2l-0.5,0l-5.8-0.1
		L802.7,192.2L802.7,192.2z M874.9,192.2v4.2h2c3.7,0,5.9,0.7,5.9,4.3v46.9c0,3.6-2.1,4.3-5.9,4.3h-2v4.2h0.8c1.7,0,3.6-0.1,5.9-0.2
		c2.4-0.1,5-0.2,7.3-0.2c2.1,0,4.4,0.1,6.6,0.2l0.6,0c2.3,0.1,4.6,0.2,6.7,0.2h0.7V252h-2c-3.7,0-5.9-0.7-5.9-4.3v-46.9
		c0-3.6,2.1-4.3,5.9-4.3h2v-4.2h-0.6h-0.1c-2.1,0-4.5,0.1-6.7,0.2l-0.6,0c-2.2,0.1-4.5,0.2-6.6,0.2c-2.3,0-4.8-0.1-7.2-0.2l-0.6,0
		l-5.4-0.1L874.9,192.2L874.9,192.2z M924.7,192.2v4.2h2c3.8,0,6,0.7,6,4.3v46c0,4.8-2.8,5.2-6,5.2h-2v4.2h0.8
		c3.9,0,7.8-0.1,11.6-0.2h0.2c3.4-0.1,7.7-0.2,11.8-0.2c4.1,0,8,0.1,11.3,0.2h0.1c3.6,0.1,7.3,0.2,11.2,0.2h0.6l0.1-0.6
		c0.7-3.4,1.3-6.6,1.9-9.7l1.2-6.1h-4.1l-0.1,0.6c-0.5,2-1.1,3.5-2.4,5.3c-1.6,2.3-4.6,3.8-7.8,4.2c-3.8,0.4-6.7,0.5-10.6,0.2
		c-3.3-0.4-4.7-1.7-4.7-4.2v-45.4c0-4.1,2-4.1,5.3-4.1h3v-4.2h-0.6h-0.2c-2.2,0-4.5,0.1-6.7,0.2l-0.1,0c-2,0.1-4.4,0.2-6.8,0.2
		c-2.4,0-4.9-0.1-7-0.2l-0.2,0c-2.3-0.1-4.6-0.2-6.9-0.2L924.7,192.2L924.7,192.2z M823.6,197.4h4.6c5.6,0,11.2,1.3,11.2,11.3
		c0,7.2-4,10.6-12.2,10.6c0,0-2.5-0.1-3.7-0.1V197.4L823.6,197.4z M751.9,197.5c7.6,0,12.3,4.6,12.3,12c0,4.8-1.2,8.3-3.4,10.6
		c-2.1,2.1-5.3,3.2-9.4,3.1c0,0-2.9-0.2-3.8-0.3v-25.2c0.2,0,0.5,0,0.5,0C749,197.6,750.1,197.5,751.9,197.5L751.9,197.5z
		 M603.7,197.6c8.1,0,14,1.8,18,5.4c5.1,4.5,7.5,11.9,7.5,22.7c0,6.9-2,13.1-5.7,17.5c-4,4.8-9.7,7.4-16.7,7.4
		c-6.1,0-8.6-0.6-8.6-6.3V198c0.4,0,0.7-0.1,0.7-0.1l0.2,0C600.8,197.7,602.2,197.6,603.7,197.6L603.7,197.6z M443.5,205.1
		c1.6,5,6.2,18.9,7.3,22.4h-14.6C436.7,226.1,442.8,207.4,443.5,205.1z M823.6,224.5c1,0,5,0.1,5,0.1c4.5,0,8.1,1.1,10.7,3.2
		c2.8,2.3,4.2,5.8,4.2,10.3c0,7.4-5.3,12.8-12.5,12.8c-6.3,0-7.3-0.9-7.3-6.9L823.6,224.5L823.6,224.5z M989.8,309.4l-0.6,0.3
		l-5.8,3c0,0,22,32.2,22.2,32.6c0,0.5-0.3,29.2-0.3,29.2h7.3c0,0,0.3-29.4,0.3-29.9c0.3-0.4,23.1-31.9,23.1-31.9l-6.3-3.1
		l-15.8,22.2c-1.3,1.8-3.5,5-4.6,6.7c-0.9-1.4-2.5-3.9-3.9-6L989.8,309.4L989.8,309.4z M619.8,309.6l-0.3,0.7l-19.8,49.5
		c-0.8,1.9-1.4,3.6-1.9,5.2c-0.6-1.9-1.2-3.6-1.7-5.1c0,0-19.3-50.3-19.3-50.3l-7.2,2.3l24.4,62.6h6.8l25.7-62.5L619.8,309.6
		L619.8,309.6z M820.2,309.7c-9.3,0-18.8,5.7-18.8,16.5c0,11.1,8.3,15,15.6,18.4c6.5,3.1,12.7,6,12.7,13.4c0,6.7-4.9,11-12.5,11
		c-5,0-10.3-1.3-14.1-3.6l-0.6-0.4l-3.6,5.8l0.6,0.4c4,2.7,12,4.2,17.4,4.2c12.5,0,20.6-7,20.6-17.9c0-11.4-8.7-15.5-16.4-19.2
		c-6.4-3-11.9-5.7-11.9-11.7c0-6.3,4.7-10.8,11.4-10.8c5.1,0,8.7,0.9,13.4,3.3l0.6,0.3l3.5-5.7l-0.7-0.4
		C832.2,310.8,827.3,309.7,820.2,309.7L820.2,309.7z M450.6,309.7l-0.5,0.2l-6.9,2.1l-0.5,62.5h6.9l0-0.8c0-0.3,0.4-29.6,0.4-44.2
		c0-2.8,0-5.4-0.1-8.1c1.9,3.2,3.9,6.3,5.9,9.3c0,0,30.3,44.8,30.3,44.8l7.4-2.1l0.6-62.6h-7l-0.2,18.9c-0.1,8.4-0.2,17.1-0.2,25.7
		c0,2.8,0.1,5.7,0.2,8.5c-2-3.3-4.1-6.5-6-9.3C480.9,354.5,450.6,309.7,450.6,309.7L450.6,309.7z M746.3,309.9
		c-4.4,0-8.9,0.2-13.2,0.5l-4.2,0.2l0,0.7l-0.5,63.1h7.3c0,0,0.2-27,0.3-28.4c1.1,0,3.9,0,3.9,0l0.1,0l0,0c3,0,5.5,1,7,2.9
		c1.2,1.6,18.6,25.8,18.8,26l0.4,0.5l6.8-3.1l-17.7-24.5l0,0c-0.6-0.9-1.8-2.3-3.4-3.3c7.9-1.9,15.7-8.4,15.7-17.7
		C767.4,315.8,760.1,309.9,746.3,309.9L746.3,309.9z M366.5,310.7l-0.8,0h-6.5l-0.2,17c-0.1,7.7-0.2,15.7-0.2,23.6
		c0,16.7,7.2,24.1,23.4,24.1c16.5,0,24-8.2,24.2-26.7l0.4-38h-7l-0.4,38.6c-0.1,13.8-5.2,19.9-16.4,19.9c-11.9,0-16.8-5.2-16.8-18.1
		c0-7.9,0.1-16,0.2-23.8L366.5,310.7L366.5,310.7z M531.8,310.7l-0.6,63.7h7.3l0.6-63.7h-0.8H531.8L531.8,310.7z M656.8,310.7
		l-0.6,63.7H691v-6.5h-27.4c0-1.4,0.2-21.6,0.2-23h27v-6.5H664c0-1.4,0.2-19.9,0.2-21.2h27v-6.5h-0.8L656.8,310.7L656.8,310.7z
		 M874.2,310.7l-0.6,63.7h7.3l0.6-63.7h-0.8H874.2L874.2,310.7z M915.1,310.7v6.6h19.6c0,1.5-0.5,57.2-0.5,57.2h7.3
		c0,0,0.4-55.7,0.4-57.2h19.6v-6.6h-0.8H915.1L915.1,310.7z M746.4,316.1c8.9,0,13.4,3.8,13.4,11.3c0,8.8-7.6,12.2-14.1,12.5l-4.6,0
		H736c0-1.4,0.2-22.2,0.2-23.6C739.4,316.2,742.9,316.1,746.4,316.1L746.4,316.1z"/>
	<path class="st0" d="M96.4,191.6l0,12c2.5,0,4.4,0.1,7.4,0.3c8.3,0.7,14.6,4.8,21.2,21.8c5.8,15.3,53.6,136.3,58.5,149.2
		c1.3,0,48.4,0,48.4,0c4.2-10.7,50.8-130.5,58.4-149.7c6.8-17.1,14-20.5,22-21.1c1.9-0.2,4.3-0.2,6.3-0.2v-12.1l-99.1,0
		c0,3,0,10.5,0,11.9c0.9,0,3.3,0,4.7,0c4.6,0,11.2,0,13.8,2.5c5,5.3-1.5,10.2-7.5,18.4c-9.5,12.6-3.6,20.9,2.7,16.4
		c3.6-2.7,11.4-8.5,15.3-10.4c8-3.8,13.1,6.3,4.8,17.3c-3.3,4.5-9.6,10.2-13.6,16.2c-5,7.2-2.7,16.9,7,9.7c11.1-8.4,15,4.6,3.3,16.8
		c-10.8,11.5-17.3,19.9-14.1,29.9c1.2,3.7,2.6,7.7,3.8,11.2c0.2,0.4,0.4,0.6,0.4,0.6l-0.3,0.5c0,0-0.3-0.1-1-0.1h-6.7
		c-0.4-1-3.9-10.6-7.7-20.8c-1.2-3-2.7-5.2-10.1-7.4c-1.6-0.5-2.9-0.9-3.7-1.1c-1.2-0.3-1.9-0.2-2.8,0.5c-1.7,1.3-4,2.9-4.8,3.5
		c-4.4,3.3-6.6,4.3-8.5,3.8c-1.5-0.4-2.2-1.5-2.2-3.4v-0.5c2.1-3.4,3.8-7.1,4.9-11.1c1.2-3.9,1.8-7.9,1.9-12
		c0.1-0.1,0.2-0.3,0.3-0.4c1-1.6,2.2-2.1,3.7-1.6c1.9,0.7,3.1,2.7,5,7.9c0.3,0.9,1.3,3.4,2,5.4c0.5,1.2,0.9,1.7,2.4,2.2
		c1.3,0.4,3.7,1.1,6.3,1.9c0.3,0.1,0.5,0.3,0.6,0.4c0.1-0.1,0.5-0.5,0.5-0.5s-0.3-0.3-0.4-0.6c-2.6-7.1-4.7-12.7-4.8-13.2
		c-3.1-8.3-5.2-11.6-11-15.9c-5.7-4-14.3-7.1-19.2-10c-15-8.5-12.4-20.8-3.9-20.3c3.3,0,10.7,2.8,16,4.9c9.2,3.4,9.5-7.9-2.4-16.6
		c-15.1-11.1-18-16.8-14.4-21.3c1.9-2.4,7.1-2.4,12.2-2.4c0.9,0,3.5,0,4.1,0c0-3,0-8.7,0-11.9L96.4,191.6L96.4,191.6z M184.3,281.2
		c1.7-0.1,3.7,0.2,6.1,0.8c0.7,0.2,3.5,0.8,5.7,1.2c-0.1,3.9-0.7,7.8-1.8,11.7c-1.1,3.8-2.8,7.5-4.9,10.8c-2.1-0.8-4.7-1.8-5.4-2.1
		c-6.3-2.3-8.8-4.2-9.5-10.8c-0.2-1.6-0.2-3.9-0.2-3.9s1.3-1.9,2.4-3.1C179.3,282.7,181.5,281.4,184.3,281.2L184.3,281.2z"/>
</g>
</svg>
