<?xml version="1.0" encoding="utf-8"?>
<!-- Generator: Adobe Illustrator 26.5.0, SVG Export Plug-In . SVG Version: 6.00 Build 0)  -->
<svg version="1.1" id="Layer_1" xmlns="http://www.w3.org/2000/svg" xmlns:xlink="http://www.w3.org/1999/xlink" x="0px" y="0px"
	 viewBox="0 0 715.4 133.4" style="enable-background:new 0 0 715.4 133.4;" xml:space="preserve">
<style type="text/css">
	.st0{fill:#26336F;}
	.st1{fill:#997D4D;}
	.st2{display:none;}
	.st3{fill:#102B72;}
</style>
<g id="SMU">
	<g id="SMU_Logo_2_">
		<g>
			<g>
				<path class="st0" d="M102,73.7c-1-0.5-1-0.7-1-2.5c0-3.3,0.3-5.9,0.3-6.9c0.1-0.7,0.2-1,0.6-1s0.5,0.2,0.5,0.7
					c0,0.6,0,1.5,0.2,2.4c1,4.8,5.5,6.6,10.1,6.6c6.6,0,9.8-4.5,9.8-8.7c0-4.5-2-7.1-7.9-11.7l-3.1-2.4c-7.2-5.7-8.9-9.7-8.9-14.1
					c0-7,5.5-11.7,14.2-11.7c2.7,0,4.6,0.3,6.4,0.6c1.3,0.3,1.8,0.3,2.4,0.3c0.5,0,0.7,0.1,0.7,0.4s-0.3,2.5-0.3,6.9
					c0,1-0.1,1.5-0.5,1.5s-0.5-0.3-0.6-0.8c-0.1-0.8-0.9-3.3-0.9-3.3s-2.2-3.4-8.6-3.4c-4.7,0-8.4,2.8-8.4,7.6
					c0,3.7,1.9,5.9,8.4,10.9l1.9,1.4c8.1,6.1,10,10.1,10,15.3c0,2.7-1.1,7.6-5.8,10.8c-2.9,2-6.6,2.7-10.3,2.7
					C107.9,75.4,104.8,75,102,73.7z"/>
				<path class="st0" d="M192,66.8c0.3,2.4,0.8,6,3.7,6.9c2,0.6,3.8,0.6,4.4,0.6c0.3,0,0.5,0.1,0.5,0.3c0,0.4-0.6,0.6-1.4,0.6
					c-1.5,0-8.9-0.2-11.4-0.4c-1.6-0.1-1.9-0.3-1.9-0.6c0-0.3,0.1-0.4,0.5-0.5s0.4-1.2,0.3-2.4l-3.3-33.6h-0.2l-16.9,33.9
					c-1.4,2.9-1.6,3.5-2.3,3.5c-0.5,0-0.8-0.6-2.1-3c-1.8-3.2-7.7-14.5-8-15.1c-0.6-1.2-8.3-16.8-9-18.6h-0.3l-2.7,30.3
					c-0.1,1-0.1,2.2-0.1,3.3c0,1,0.8,1.8,1.8,2c1.2,0.3,2.2,0.3,2.6,0.3c0.3,0,0.6,0.1,0.6,0.3c0,0.5-0.4,0.6-1.2,0.6
					c-2.5,0-5.8-0.2-6.4-0.2c-0.6,0-3.9,0.2-5.7,0.2c-0.7,0-1.2-0.1-1.2-0.6c0-0.2,0.4-0.3,0.7-0.3c0.5,0,1,0,2-0.2
					c2.3-0.4,2.5-2.9,2.7-5.4l4.9-42.5c0.1-0.7,0.3-1.2,0.8-1.2c0.4,0,0.7,0.3,1,1l20.9,41l20.1-40.9c0.3-0.6,0.6-1,1-1
					c0.5,0,0.7,0.5,0.8,1.8L192,66.8z"/>
				<path class="st0" d="M204.1,44.2c0-10.2,0-12-0.1-14.1c-0.1-2.2-0.7-3.3-2.9-3.7c-0.6-0.1-1.7-0.2-2.3-0.2
					c-0.3,0-0.6-0.1-0.6-0.4c0-0.4,0.4-0.5,1.1-0.5c3.1,0,7.3,0.2,7.9,0.2c0.6,0,4.7-0.2,6.8-0.2c0.8,0,1.1,0.1,1.1,0.5
					c0,0.3-0.3,0.4-0.6,0.4c-0.5,0-0.9,0.1-1.7,0.2c-1.8,0.3-2.4,1.4-2.5,3.7c-0.1,2.1-0.1,3.9-0.1,14.1v9.1
					c0,9.4,2.2,13.4,5.1,16.1c3.4,3,6.4,3.6,10.3,3.6c4.2,0,8.3-1.9,10.7-4.7c3.2-3.7,4-9.3,4-16v-8.2c0-10.2,0-12-0.1-14.1
					c-0.1-2.2-0.7-3.3-2.9-3.7c-0.6-0.1-1.7-0.2-2.3-0.2c-0.3,0-0.6-0.1-0.6-0.4c0-0.4,0.3-0.5,1.1-0.5c3.1,0,6.8,0.2,7.2,0.2
					c0.5,0,3.7-0.2,5.8-0.2c0.8,0,1.1,0.1,1.1,0.5c0,0.3-0.3,0.4-0.5,0.4c-0.5,0-0.9,0-1.7,0.2c-1.8,0.3-2.4,1.4-2.5,3.7
					c-0.1,2.1-0.1,3.9-0.1,14.1v7c0,7-0.8,14.9-6.3,19.5c-4.9,4.2-10.1,4.8-14.1,4.8c-2.3,0-9.2-0.3-14.1-4.6
					c-3.3-3.1-5.9-7.6-5.9-17.1v-9.5L204.1,44.2L204.1,44.2z"/>
			</g>
			<g>
				<polygon class="st0" points="63.9,75.3 50.2,62.8 50.2,62.8 50.2,62.8 50.1,62.8 50.1,62.8 36.4,75.3 50.1,70.9 50.2,70.9 				
					"/>
				<g>
					<polygon class="st0" points="50.2,62.7 54.7,50.3 64.8,49.1 					"/>
					<polygon class="st0" points="75,53.1 64.8,49.1 64.5,32.4 					"/>
					<polygon class="st0" points="67,24.9 77.2,24.9 64.5,32.5 					"/>
				</g>
				<polygon class="st1" points="50.1,62.7 45.6,50.3 35.5,49.1 				"/>
				<polygon class="st1" points="25.4,53.1 35.5,49.1 35.8,32.4 				"/>
				<polygon class="st1" points="33.3,24.9 23.2,24.9 35.8,32.5 				"/>
				<path class="st1" d="M85.1,0C76,8.6,69.7,4.8,66.5,4.1C64.8,3.4,62.7,3,60.4,3c-5.6,0-10,2.4-10,5.3c0,1,0.6,2,1.6,2.8
					c1-1,2.6-1.7,4.6-2.2l0,0c2-0.3,5.3-0.6,9.2,0.4c0.4,0.1,0.7,0.2,1.1,0.3l0,0c0.5,0.2,0.9,0.2,1.3,0.3c0.2,0,0.3,0.1,0.5,0.1
					C79,12.3,85.2,7.1,85.2,7.1L85.1,0z"/>
				<path class="st0" d="M49.2,89.9c0,0-5.7,0-8.5-1.4c-5.1-2.4-6-10-6.7-16.2c-0.1-0.7-4.8-2.2-7-4.2c-3.7-3.4-3.1-13.8-3.1-14.4
					c0-0.7-5.9-3.6-5.9-10c0-2.7,0-18,0-18c-3.9-4.8-6.3-4.9-9.4-3.9c-3.8,1.2-4.9,4-8.9,4.6c0,0.9,0,46.4,0,46.4
					c0,14,2.6,23.7,17,34.5c13.3,10,23.7,9.8,32.7,26.1C49.4,133.6,49.3,89.9,49.2,89.9z"/>
			</g>
		</g>
		<g>
			<path class="st0" d="M101.2,101.5c-0.2-0.1-0.3-0.2-0.3-0.5c0-0.9,0.1-1.8,0.1-2s0.1-0.4,0.2-0.4s0.2,0.1,0.2,0.3
				s0.1,0.5,0.1,0.8c0.4,1.2,1.3,1.6,2.3,1.6c1.4,0,2.1-1,2.1-1.8s-0.2-1.5-1.6-2.5l-0.7-0.6c-1.7-1.3-2.3-2.4-2.3-3.7
				c0-1.7,1.5-2.9,3.6-2.9c1,0,1.7,0.2,2.1,0.3c0.2,0,0.2,0.1,0.2,0.2c0,0.2-0.1,0.6-0.1,1.9c0,0.3,0,0.5-0.2,0.5
				c-0.1,0-0.2-0.1-0.2-0.3c0-0.1-0.1-0.6-0.4-1c-0.2-0.3-0.7-0.8-1.7-0.8c-1.2,0-1.9,0.7-1.9,1.6c0,0.7,0.4,1.3,1.7,2.2l0.4,0.3
				c1.9,1.4,2.6,2.5,2.6,4c0,0.9-0.4,2-1.5,2.7c-0.8,0.5-1.7,0.6-2.5,0.6C102.6,101.9,101.9,101.8,101.2,101.5z"/>
			<path class="st0" d="M111.4,94.4c0-2.4,0-2.8,0-3.3s-0.2-0.8-0.5-0.9c-0.2,0-0.4-0.1-0.6-0.1s-0.2,0-0.2-0.2
				c0-0.1,0.1-0.1,0.4-0.1c0.6,0,1.6,0,2,0s1.3,0,1.9,0c0.2,0,0.3,0,0.3,0.1s-0.1,0.2-0.2,0.2s-0.3,0-0.5,0
				c-0.4,0.1-0.6,0.4-0.6,0.9s0,0.9,0,3.3V97c0,1.5,0,2.7,0.1,3.4c0,0.4,0.2,0.7,0.6,0.8c0.2,0,0.6,0.1,0.8,0.1c0.2,0,0.2,0,0.2,0.1
				s-0.1,0.2-0.3,0.2c-1,0-2,0-2.5,0c-0.4,0-1.4,0-2,0c-0.2,0-0.3,0-0.3-0.2c0-0.1,0.1-0.1,0.2-0.1c0.2,0,0.4,0,0.6-0.1
				c0.3-0.1,0.4-0.3,0.5-0.8c0.1-0.6,0.1-1.9,0.1-3.4V94.4L111.4,94.4z"/>
			<path class="st0" d="M119.5,99.6c0,1.2,0.2,1.6,0.6,1.7c0.3,0.1,0.6,0.1,0.8,0.1c0.2,0,0.3,0,0.3,0.1s-0.1,0.2-0.4,0.2
				c-1,0-1.7,0-2,0c-0.1,0-0.9,0-1.7,0c-0.2,0-0.4,0-0.4-0.2c0-0.1,0.1-0.1,0.2-0.1c0.2,0,0.5,0,0.7-0.1c0.4-0.1,0.5-0.6,0.5-1.9
				l0.1-9.2c0-0.3,0-0.5,0.2-0.5s0.3,0.2,0.6,0.5c0.2,0.2,2.6,2.7,4.9,5c1.1,1.1,3.2,3.3,3.5,3.6h0.1l-0.2-7c0-1-0.2-1.2-0.5-1.4
				c-0.2-0.1-0.6-0.1-0.8-0.1c-0.2,0-0.2,0-0.2-0.1s0.2-0.1,0.4-0.1c0.8,0,1.6,0,1.9,0c0.2,0,0.8,0,1.6,0c0.2,0,0.4,0,0.4,0.1
				s-0.1,0.1-0.3,0.1s-0.3,0-0.5,0c-0.4,0.1-0.6,0.4-0.6,1.3l-0.2,9.8c0,0.3-0.1,0.5-0.2,0.5c-0.2,0-0.4-0.2-0.5-0.4
				c-1-0.9-3-3-4.7-4.6c-1.7-1.7-3.5-3.6-3.8-3.9l0,0L119.5,99.6z"/>
			<path class="st0" d="M143.2,100.6c0,0.4,0,0.4-0.2,0.6c-1,0.5-2.6,0.7-3.8,0.7c-3.9,0-7.3-1.8-7.3-6.1c0-2.5,1.3-4.2,2.8-5.1
				s2.9-1,4.2-1c1.1,0,2.5,0.2,2.8,0.2c0.3,0.1,0.9,0.2,1.2,0.2c0.2,0,0.2,0.1,0.2,0.2c0,0.2-0.1,0.6-0.1,2.6c0,0.2,0,0.3-0.2,0.3
				c-0.1,0-0.2-0.1-0.2-0.2c0-0.4-0.1-0.9-0.5-1.3c-0.5-0.5-1.7-1.2-3.5-1.2c-0.9,0-2,0.1-3.1,1c-0.9,0.7-1.5,1.9-1.5,3.8
				c0,3.3,2.2,5.8,5.5,5.8c0.4,0,1,0,1.3-0.2c0.2-0.1,0.3-0.3,0.3-0.6v-1.5c0-0.8,0-1.4,0-1.8c0-0.5-0.2-0.8-0.7-0.9
				c-0.1,0-0.4,0-0.6,0c-0.2,0-0.2,0-0.2-0.1s0.1-0.2,0.3-0.2c0.8,0,1.8,0,2.3,0s1.3,0,1.8,0c0.2,0,0.3,0,0.3,0.2
				c0,0.1-0.1,0.1-0.2,0.1c-0.1,0-0.2,0-0.4,0c-0.4,0.1-0.6,0.3-0.6,0.9c0,0.5,0,1.1,0,1.9L143.2,100.6L143.2,100.6z"/>
			<path class="st0" d="M148.3,97.6c-0.1,0-0.1,0-0.1,0.1l-0.9,2.2c-0.2,0.4-0.2,0.8-0.2,1c0,0.3,0.1,0.5,0.6,0.5h0.2
				c0.2,0,0.2,0,0.2,0.1s-0.1,0.2-0.3,0.2c-0.5,0-1.2,0-1.7,0c-0.2,0-1,0-1.9,0c-0.2,0-0.3,0-0.3-0.2c0-0.1,0.1-0.1,0.2-0.1
				s0.4,0,0.5,0c0.7-0.1,1-0.6,1.3-1.4l4-9.8c0.2-0.4,0.3-0.6,0.4-0.6s0.2,0.1,0.4,0.5c0.4,0.8,2.9,7.2,3.9,9.6
				c0.6,1.4,1.1,1.6,1.4,1.7c0.2,0,0.5,0.1,0.7,0.1c0.1,0,0.2,0,0.2,0.1s-0.1,0.2-0.7,0.2c-0.6,0-1.7,0-3,0c-0.3,0-0.5,0-0.5-0.1
				s0.1-0.1,0.2-0.1c0.1,0,0.2-0.2,0.1-0.4l-1.3-3.3c0-0.1-0.1-0.1-0.2-0.1h-3.2L148.3,97.6L148.3,97.6z M151.5,96.8
				C151.6,96.8,151.6,96.8,151.5,96.8l-1.4-3.9c0-0.1,0-0.1-0.1-0.1l-0.1,0.1l-1.4,3.8c0,0.1,0,0.1,0.1,0.1H151.5z"/>
			<path class="st0" d="M158.8,94.4c0-2.4,0-2.8,0-3.3s-0.2-0.8-0.7-0.9c-0.1,0-0.4,0-0.6,0c-0.2,0-0.3,0-0.3-0.1s0.1-0.1,0.3-0.1
				c0.8,0,1.8,0,2.3,0c0.6,0,1.6,0,2.3,0c2,0,2.7,0.6,2.9,0.9c0.4,0.3,0.8,1,0.8,1.8c0,2.2-1.6,3.8-3.9,3.8c-0.1,0-0.2,0-0.3,0
				s-0.2,0-0.2-0.1s0.1-0.2,0.4-0.2c0.9,0,2.1-1,2.1-2.6c0-0.5,0-1.6-0.9-2.3c-0.6-0.5-1.2-0.6-1.6-0.6c-0.2,0-0.5,0-0.6,0.1
				c-0.1,0-0.1,0.1-0.1,0.3v6.2c0,1.4,0,2.7,0.1,3.3c0,0.4,0.2,0.8,0.6,0.8c0.2,0,0.6,0.1,0.8,0.1s0.2,0,0.2,0.1s-0.1,0.2-0.3,0.2
				c-1,0-2,0-2.4,0s-1.4,0-2,0c-0.2,0-0.3,0-0.3-0.2c0-0.1,0.1-0.1,0.2-0.1c0.2,0,0.4,0,0.6-0.1c0.3-0.1,0.4-0.4,0.5-0.9
				c0.1-0.6,0.1-1.9,0.1-3.3L158.8,94.4L158.8,94.4z"/>
			<path class="st0" d="M167.5,95.8c0-2.7,1.8-6.1,6.5-6.1c3.9,0,6.4,2.2,6.4,5.8c0,3.6-2.5,6.4-6.5,6.4
				C169.4,101.9,167.5,98.6,167.5,95.8z M178.2,96.1c0-3.5-2-5.6-4.6-5.6c-1.8,0-3.9,1-3.9,4.9c0,3.2,1.8,5.8,4.8,5.8
				C175.7,101.1,178.2,100.6,178.2,96.1z"/>
			<path class="st0" d="M183.8,94.4c0-2.4,0-2.8,0-3.3s-0.2-0.8-0.7-0.9c-0.1,0-0.4,0-0.6,0c-0.2,0-0.3,0-0.3-0.1s0.1-0.1,0.4-0.1
				c0.8,0,1.8,0,2.2,0c0.5,0,1.7,0,2.2,0c1,0,2.1,0.1,2.9,0.7c0.4,0.3,1.1,1.1,1.1,2.1c0,1.2-0.5,2.2-2.1,3.5
				c1.4,1.7,2.5,3.1,3.4,4.1c0.9,0.9,1.5,1,1.8,1.1c0.2,0,0.3,0,0.4,0s0.2,0,0.2,0.1s-0.1,0.2-0.3,0.2h-1.5c-0.9,0-1.3-0.1-1.7-0.3
				c-0.7-0.4-1.3-1.1-2.2-2.3c-0.6-0.9-1.4-1.9-1.6-2.2c-0.1-0.1-0.2-0.1-0.3-0.1h-1.4c-0.1,0-0.1,0-0.1,0.1v0.2
				c0,1.4,0,2.7,0.1,3.3c0,0.4,0.2,0.8,0.6,0.9c0.2,0,0.6,0.1,0.8,0.1c0.1,0,0.2,0,0.2,0.1s-0.1,0.2-0.3,0.2c-0.9,0-2.1,0-2.3,0
				c-0.3,0-1.3,0-1.9,0c-0.2,0-0.3,0-0.3-0.2c0-0.1,0.1-0.1,0.2-0.1c0.2,0,0.4,0,0.6-0.1c0.3-0.1,0.4-0.4,0.5-0.9
				c0.1-0.6,0.1-1.9,0.1-3.3L183.8,94.4L183.8,94.4z M185.7,95.7c0,0.2,0,0.2,0.1,0.3c0.3,0.1,0.8,0.2,1.2,0.2
				c0.6,0,0.8-0.1,1.1-0.3c0.5-0.3,0.9-1,0.9-2.3c0-2.2-1.5-2.8-2.4-2.8c-0.4,0-0.7,0-0.8,0.1c-0.1,0-0.1,0.1-0.1,0.2
				C185.7,91,185.7,95.7,185.7,95.7z"/>
			<path class="st0" d="M195.8,94.4c0-2.4,0-2.8,0-3.3s-0.2-0.8-0.7-0.9c-0.1,0-0.4,0-0.6,0c-0.2,0-0.3,0-0.3-0.1s0.1-0.1,0.4-0.1
				c0.4,0,0.9,0,1.3,0c0.4,0,0.8,0,1,0c0.5,0,3.7,0,4,0s0.6-0.1,0.7-0.1c0.1,0,0.2-0.1,0.2-0.1l0.1,0.1c0,0.1-0.1,0.3-0.1,1
				c0,0.2,0,0.8-0.1,1c0,0.1,0,0.2-0.2,0.2s-0.1-0.1-0.1-0.2s0-0.4-0.1-0.6c-0.1-0.3-0.3-0.5-1.1-0.6c-0.3,0-1.9-0.1-2.2-0.1
				c-0.1,0-0.1,0-0.1,0.2v3.9c0,0.1,0,0.2,0.1,0.2c0.4,0,2.2,0,2.5,0c0.4,0,0.6-0.1,0.8-0.2c0.1-0.1,0.2-0.2,0.2-0.2s0.1,0,0.1,0.1
				s-0.1,0.3-0.1,1.1c0,0.3-0.1,0.9-0.1,1s0,0.3-0.1,0.3s-0.2-0.1-0.2-0.1c0-0.2,0-0.4-0.1-0.6c-0.1-0.3-0.3-0.5-0.9-0.6
				c-0.3,0-1.9,0-2.2,0c-0.1,0-0.1,0.1-0.1,0.2v1.2c0,0.5,0,2,0,2.4c0,1.1,0.3,1.3,1.9,1.3c0.4,0,1.1,0,1.5-0.2s0.6-0.5,0.7-1.2
				c0-0.2,0.1-0.2,0.2-0.2c0.1,0,0.1,0.1,0.1,0.3c0,0.4-0.1,1.4-0.2,1.7c-0.1,0.4-0.2,0.4-0.8,0.4c-1.2,0-2,0-2.7,0s-1.2,0-1.6,0
				c-0.2,0-0.5,0-0.9,0s-0.8,0-1.1,0c-0.2,0-0.3,0-0.3-0.2c0-0.1,0.1-0.1,0.2-0.1c0.2,0,0.4,0,0.6-0.1c0.3-0.1,0.4-0.4,0.5-0.9
				c0.1-0.6,0.1-1.9,0.1-3.3L195.8,94.4L195.8,94.4z"/>
			<path class="st0" d="M211.3,90c0-0.3,0.1-0.4,0.3-0.4c0.1,0,0.2,0.1,0.4,0.5l4.3,8.8l4.3-8.9c0.1-0.2,0.2-0.4,0.4-0.4
				c0.1,0,0.2,0.2,0.3,0.5l1.4,9.6c0.2,1,0.3,1.4,0.8,1.6c0.5,0.1,0.8,0.2,1,0.2c0.1,0,0.2,0,0.2,0.1s-0.2,0.2-0.4,0.2
				c-0.4,0-2.6,0-3.2-0.1c-0.4,0-0.5-0.1-0.5-0.2s0.1-0.1,0.2-0.2c0.1,0,0.2-0.2,0.1-0.7l-1-6.8h-0.1l-3.4,7.1
				c-0.4,0.7-0.4,0.9-0.6,0.9s-0.3-0.3-0.6-0.8c-0.4-0.7-1.6-3.1-1.8-3.5c-0.1-0.3-1.1-2.3-1.6-3.4h-0.1l-0.8,6.2c0,0.3,0,0.5,0,0.7
				c0,0.3,0.2,0.4,0.5,0.5s0.5,0.1,0.7,0.1c0.1,0,0.2,0,0.2,0.1s-0.1,0.2-0.4,0.2c-0.7,0-1.4,0-1.7,0s-1.1,0-1.6,0
				c-0.2,0-0.3,0-0.3-0.2c0-0.1,0.1-0.1,0.2-0.1c0.1,0,0.2,0,0.5,0c0.4-0.1,0.6-0.7,0.6-1.2L211.3,90z"/>
			<path class="st0" d="M228.1,97.6c-0.1,0-0.1,0-0.2,0.1l-0.8,2.2c-0.2,0.4-0.2,0.8-0.2,1c0,0.3,0.1,0.5,0.6,0.5h0.2
				c0.2,0,0.2,0,0.2,0.1s-0.1,0.2-0.3,0.2c-0.5,0-1.2,0-1.7,0c-0.2,0-1,0-1.9,0c-0.2,0-0.3,0-0.3-0.2c0-0.1,0.1-0.1,0.2-0.1
				c0.2,0,0.4,0,0.5,0c0.7-0.1,1-0.6,1.3-1.4l4-9.8c0.2-0.4,0.3-0.6,0.4-0.6c0.1,0,0.2,0.1,0.4,0.5c0.4,0.8,2.9,7.2,3.9,9.6
				c0.6,1.4,1.1,1.6,1.4,1.7c0.2,0,0.5,0.1,0.7,0.1c0.1,0,0.2,0,0.2,0.1s-0.2,0.2-0.7,0.2c-0.6,0-1.7,0-3,0c-0.3,0-0.5,0-0.5-0.1
				s0.1-0.1,0.2-0.1c0.1,0,0.2-0.2,0.1-0.4l-1.3-3.3c0-0.1-0.1-0.1-0.2-0.1h-3.2L228.1,97.6L228.1,97.6z M231.3,96.8
				C231.4,96.8,231.4,96.8,231.3,96.8l-1.3-3.9c0-0.1,0-0.1-0.1-0.1l-0.1,0.1l-1.4,3.8c0,0.1,0,0.1,0.1,0.1H231.3z"/>
			<path class="st0" d="M239.5,99.6c0,1.2,0.2,1.6,0.6,1.7c0.3,0.1,0.6,0.1,0.8,0.1s0.3,0,0.3,0.1s-0.1,0.2-0.4,0.2c-1,0-1.7,0-2,0
				c-0.2,0-0.9,0-1.7,0c-0.2,0-0.4,0-0.4-0.2c0-0.1,0.1-0.1,0.2-0.1c0.2,0,0.5,0,0.7-0.1c0.4-0.1,0.5-0.6,0.5-1.9l0.2-9.2
				c0-0.3,0-0.5,0.2-0.5s0.3,0.2,0.6,0.5c0.2,0.2,2.6,2.7,4.9,5c1.1,1.1,3.2,3.3,3.5,3.6h0.1l-0.2-7c0-1-0.2-1.2-0.5-1.4
				c-0.2-0.1-0.6-0.1-0.8-0.1s-0.2,0-0.2-0.1s0.2-0.1,0.4-0.1c0.8,0,1.6,0,1.9,0c0.2,0,0.8,0,1.6,0c0.2,0,0.4,0,0.4,0.1
				s-0.1,0.1-0.3,0.1s-0.3,0-0.5,0c-0.4,0.1-0.6,0.4-0.6,1.3l-0.2,9.8c0,0.3-0.1,0.5-0.2,0.5c-0.2,0-0.4-0.2-0.5-0.4
				c-1-0.9-3-3-4.7-4.6c-1.7-1.7-3.5-3.6-3.8-3.9l0,0L239.5,99.6z"/>
			<path class="st0" d="M254.3,97.6c-0.1,0-0.1,0-0.1,0.1l-0.8,2.2c-0.2,0.4-0.2,0.8-0.2,1c0,0.3,0.1,0.5,0.6,0.5h0.2
				c0.2,0,0.2,0,0.2,0.1s-0.1,0.2-0.3,0.2c-0.5,0-1.2,0-1.7,0c-0.2,0-1,0-1.9,0c-0.2,0-0.3,0-0.3-0.2c0-0.1,0.1-0.1,0.2-0.1
				c0.2,0,0.4,0,0.5,0c0.7-0.1,1-0.6,1.3-1.4l4-9.8c0.2-0.4,0.3-0.6,0.4-0.6s0.2,0.1,0.4,0.5c0.4,0.8,2.9,7.2,3.9,9.6
				c0.6,1.4,1.1,1.6,1.4,1.7c0.2,0,0.5,0.1,0.7,0.1c0.1,0,0.2,0,0.2,0.1s-0.2,0.2-0.7,0.2c-0.6,0-1.7,0-3,0c-0.3,0-0.5,0-0.5-0.1
				s0.1-0.1,0.2-0.1s0.2-0.2,0.1-0.4l-1.3-3.3c0-0.1-0.1-0.1-0.2-0.1h-3.3V97.6z M257.5,96.8C257.6,96.8,257.6,96.8,257.5,96.8
				l-1.3-3.9c0-0.1,0-0.1-0.1-0.1l-0.1,0.1l-1.5,3.8c0,0.1,0,0.1,0.1,0.1H257.5z"/>
			<path class="st0" d="M274.4,100.6c0,0.4,0,0.4-0.2,0.6c-1,0.5-2.6,0.7-3.8,0.7c-3.9,0-7.3-1.8-7.3-6.1c0-2.5,1.3-4.2,2.8-5.1
				s2.9-1,4.3-1c1.1,0,2.5,0.2,2.8,0.2c0.3,0.1,0.9,0.2,1.2,0.2c0.2,0,0.2,0.1,0.2,0.2c0,0.2-0.1,0.6-0.1,2.6c0,0.2,0,0.3-0.2,0.3
				c-0.1,0-0.2-0.1-0.2-0.2c0-0.4-0.1-0.9-0.5-1.3c-0.5-0.5-1.7-1.2-3.5-1.2c-0.9,0-2,0.1-3.1,1c-0.9,0.7-1.4,1.9-1.4,3.8
				c0,3.3,2.2,5.8,5.5,5.8c0.4,0,1,0,1.3-0.2c0.2-0.1,0.3-0.3,0.3-0.6v-1.5c0-0.8,0-1.4,0-1.8c0-0.5-0.2-0.8-0.7-0.9
				c-0.1,0-0.4,0-0.6,0c-0.1,0-0.2,0-0.2-0.1s0.1-0.2,0.3-0.2c0.8,0,1.8,0,2.3,0s1.3,0,1.8,0c0.2,0,0.3,0,0.3,0.2
				c0,0.1-0.1,0.1-0.2,0.1s-0.2,0-0.4,0c-0.4,0.1-0.6,0.3-0.6,0.9c0,0.5,0,1.1,0,1.9L274.4,100.6L274.4,100.6z"/>
			<path class="st0" d="M278.9,94.4c0-2.4,0-2.8,0-3.3s-0.2-0.8-0.7-0.9c-0.1,0-0.4,0-0.6,0s-0.3,0-0.3-0.1s0.1-0.1,0.4-0.1
				c0.4,0,0.9,0,1.3,0s0.8,0,1,0c0.5,0,3.6,0,4,0s0.6-0.1,0.7-0.1s0.2-0.1,0.2-0.1c0.1,0,0.1,0.1,0.1,0.1c0,0.1-0.1,0.3-0.1,1
				c0,0.2,0,0.8-0.1,1c0,0.1,0,0.2-0.2,0.2s-0.1-0.1-0.1-0.2s0-0.4-0.1-0.6c-0.1-0.3-0.3-0.5-1.1-0.6c-0.3,0-1.9-0.1-2.2-0.1
				c-0.1,0-0.1,0-0.1,0.2v3.9c0,0.1,0,0.2,0.1,0.2c0.4,0,2.2,0,2.5,0c0.4,0,0.6-0.1,0.8-0.2c0.1-0.1,0.2-0.2,0.2-0.2s0.1,0,0.1,0.1
				s-0.1,0.3-0.1,1.1c0,0.3-0.1,0.9-0.1,1s0,0.3-0.1,0.3s-0.1-0.1-0.1-0.1c0-0.2,0-0.4-0.1-0.6c-0.1-0.3-0.3-0.5-0.9-0.6
				c-0.3,0-1.9,0-2.2,0c-0.1,0-0.1,0.1-0.1,0.2v1.2c0,0.5,0,2,0,2.4c0,1.1,0.3,1.3,1.9,1.3c0.4,0,1.1,0,1.5-0.2s0.6-0.5,0.7-1.2
				c0-0.2,0.1-0.2,0.2-0.2s0.1,0.1,0.1,0.3c0,0.4-0.1,1.4-0.2,1.7c-0.1,0.4-0.2,0.4-0.8,0.4c-1.2,0-2.1,0-2.7,0c-0.7,0-1.2,0-1.6,0
				c-0.2,0-0.5,0-0.9,0s-0.8,0-1.1,0c-0.2,0-0.3,0-0.3-0.2c0-0.1,0.1-0.1,0.2-0.1c0.2,0,0.4,0,0.6-0.1c0.3-0.1,0.4-0.4,0.5-0.9
				c0.1-0.6,0.1-1.9,0.1-3.3L278.9,94.4L278.9,94.4z"/>
			<path class="st0" d="M289.5,90c0-0.3,0.2-0.4,0.3-0.4c0.1,0,0.2,0.1,0.4,0.5l4.3,8.8l4.3-8.9c0.1-0.2,0.2-0.4,0.4-0.4
				s0.2,0.2,0.3,0.5l1.4,9.6c0.2,1,0.3,1.4,0.8,1.6c0.5,0.1,0.8,0.2,1,0.2c0.1,0,0.2,0,0.2,0.1s-0.2,0.2-0.4,0.2
				c-0.4,0-2.6,0-3.2-0.1c-0.4,0-0.5-0.1-0.5-0.2s0.1-0.1,0.2-0.2c0.1,0,0.2-0.2,0.1-0.7l-1-6.8H298l-3.4,7.1
				c-0.4,0.7-0.4,0.9-0.6,0.9c-0.1,0-0.3-0.3-0.6-0.8c-0.4-0.7-1.6-3.1-1.8-3.5c-0.1-0.3-1.1-2.3-1.6-3.4l0,0l-0.8,6.2
				c0,0.3,0,0.5,0,0.7c0,0.3,0.2,0.4,0.5,0.5s0.5,0.1,0.7,0.1c0.1,0,0.2,0,0.2,0.1s-0.2,0.2-0.4,0.2c-0.7,0-1.4,0-1.7,0
				c-0.3,0-1.1,0-1.6,0c-0.2,0-0.3,0-0.3-0.2c0-0.1,0.1-0.1,0.2-0.1s0.2,0,0.5,0c0.4-0.1,0.6-0.7,0.6-1.2L289.5,90z"/>
			<path class="st0" d="M305.5,94.4c0-2.4,0-2.8,0-3.3s-0.2-0.8-0.7-0.9c-0.1,0-0.4,0-0.6,0s-0.3,0-0.3-0.1s0.1-0.1,0.4-0.1
				c0.4,0,0.9,0,1.3,0s0.8,0,1,0c0.5,0,3.6,0,4,0c0.3,0,0.6-0.1,0.7-0.1s0.2-0.1,0.2-0.1l0.1,0.1c0,0.1-0.1,0.3-0.1,1
				c0,0.2,0,0.8-0.1,1c0,0.1,0,0.2-0.2,0.2S311,92,311,91.9s0-0.4-0.1-0.6c-0.1-0.3-0.3-0.5-1.1-0.6c-0.3,0-1.9-0.1-2.2-0.1
				c-0.1,0-0.1,0-0.1,0.2v3.9c0,0.1,0,0.2,0.1,0.2c0.4,0,2.2,0,2.5,0c0.4,0,0.6-0.1,0.8-0.2c0.1-0.1,0.2-0.2,0.2-0.2s0.1,0,0.1,0.1
				s-0.1,0.3-0.1,1.1c0,0.3-0.1,0.9-0.1,1s0,0.3-0.1,0.3s-0.1-0.1-0.1-0.1c0-0.2,0-0.4-0.1-0.6c-0.1-0.3-0.3-0.5-0.9-0.6
				c-0.3,0-1.9,0-2.2,0c-0.1,0-0.1,0.1-0.1,0.2v1.2c0,0.5,0,2,0,2.4c0,1.1,0.3,1.3,1.9,1.3c0.4,0,1.1,0,1.5-0.2s0.6-0.5,0.7-1.2
				c0-0.2,0.1-0.2,0.2-0.2s0.1,0.1,0.1,0.3c0,0.4-0.1,1.4-0.2,1.7c-0.1,0.4-0.2,0.4-0.9,0.4c-1.2,0-2,0-2.7,0s-1.2,0-1.6,0
				c-0.2,0-0.5,0-0.9,0s-0.8,0-1.1,0c-0.2,0-0.3,0-0.3-0.2c0-0.1,0.1-0.1,0.2-0.1c0.2,0,0.4,0,0.6-0.1c0.3-0.1,0.4-0.4,0.5-0.9
				c0.1-0.6,0.1-1.9,0.1-3.3L305.5,94.4L305.5,94.4z"/>
			<path class="st0" d="M316.5,99.6c0,1.2,0.2,1.6,0.6,1.7c0.3,0.1,0.6,0.1,0.8,0.1c0.2,0,0.3,0,0.3,0.1s-0.2,0.2-0.4,0.2
				c-1,0-1.7,0-2,0c-0.1,0-0.9,0-1.7,0c-0.2,0-0.4,0-0.4-0.2c0-0.1,0.1-0.1,0.2-0.1c0.2,0,0.5,0,0.7-0.1c0.4-0.1,0.5-0.6,0.5-1.9
				l0.2-9.2c0-0.3,0-0.5,0.2-0.5s0.3,0.2,0.6,0.5c0.2,0.2,2.6,2.7,4.9,5c1.1,1.1,3.2,3.3,3.5,3.6h0.1l-0.2-7c0-1-0.2-1.2-0.5-1.4
				c-0.2-0.1-0.6-0.1-0.8-0.1c-0.2,0-0.2,0-0.2-0.1s0.2-0.1,0.4-0.1c0.8,0,1.6,0,1.9,0c0.2,0,0.8,0,1.5,0c0.2,0,0.4,0,0.4,0.1
				s-0.1,0.1-0.3,0.1c-0.2,0-0.3,0-0.5,0c-0.4,0.1-0.6,0.4-0.6,1.3l-0.2,9.8c0,0.3-0.1,0.5-0.2,0.5c-0.2,0-0.4-0.2-0.5-0.4
				c-1-0.9-3-3-4.7-4.6c-1.7-1.7-3.5-3.6-3.8-3.9l0,0L316.5,99.6z"/>
			<path class="st0" d="M332.8,90.8l-2.4,0.1c-0.9,0-1.3,0.1-1.5,0.4c-0.2,0.2-0.2,0.4-0.3,0.5c0,0.1-0.1,0.2-0.2,0.2
				s-0.2-0.1-0.2-0.2c0-0.2,0.3-1.7,0.3-1.8c0-0.2,0.1-0.3,0.2-0.3s0.3,0.2,0.7,0.2c0.5,0,1.1,0.1,1.6,0.1h6.3c0.5,0,0.9,0,1.1-0.1
				c0.2,0,0.4-0.1,0.4-0.1c0.1,0,0.1,0.1,0.1,0.3c0,0.3,0,1.4,0,1.8c0,0.2,0,0.2-0.1,0.2s-0.2-0.1-0.2-0.3v-0.2
				c0-0.4-0.5-0.8-1.9-0.9h-2v6.4c0,1.4,0,2.7,0.1,3.3c0,0.4,0.2,0.8,0.6,0.8c0.2,0,0.6,0.1,0.8,0.1c0.2,0,0.2,0,0.2,0.1
				s-0.1,0.2-0.3,0.2c-1,0-2,0-2.5,0c-0.4,0-1.4,0-2,0c-0.2,0-0.3,0-0.3-0.2c0-0.1,0.1-0.1,0.2-0.1c0.2,0,0.4,0,0.6-0.1
				c0.3-0.1,0.4-0.4,0.5-0.9c0.1-0.6,0.1-1.9,0.1-3.3L332.8,90.8L332.8,90.8z"/>
			<path class="st0" d="M101.4,113c0-2.4,0-2.8,0-3.3s-0.2-0.8-0.7-0.9c-0.1,0-0.4,0-0.6,0s-0.3,0-0.3-0.1s0.1-0.1,0.4-0.1
				c0.8,0,1.8,0,2.3,0c0.4,0,1.4,0,1.9,0c0.2,0,0.4,0,0.4,0.1s-0.1,0.1-0.2,0.1c-0.2,0-0.3,0-0.5,0c-0.4,0.1-0.6,0.3-0.6,0.9
				c0,0.5,0,0.9,0,3.3v2.2c0,2.2,0.5,3.2,1.2,3.8s1.4,0.6,2,0.6c0.7,0,1.6-0.2,2.2-0.8c0.9-0.9,0.9-2.2,0.9-3.9V113
				c0-2.4,0-2.8,0-3.3s-0.2-0.8-0.7-0.9c-0.1,0-0.4,0-0.6,0s-0.3,0-0.3-0.1s0.1-0.1,0.3-0.1c0.8,0,1.8,0,1.8,0c0.2,0,1.2,0,1.8,0
				c0.2,0,0.3,0,0.3,0.1s-0.1,0.1-0.3,0.1c-0.2,0-0.3,0-0.5,0c-0.4,0.1-0.6,0.3-0.6,0.9c0,0.5,0,0.9,0,3.3v1.7
				c0,1.7-0.2,3.6-1.5,4.7c-1.1,1-2.3,1.1-3.3,1.1c-0.8,0-2.4,0-3.5-1.1c-0.8-0.7-1.4-1.9-1.4-4.1L101.4,113L101.4,113z"/>
			<path class="st0" d="M116.5,118.1c0,1.2,0.2,1.6,0.6,1.7c0.3,0.1,0.6,0.1,0.8,0.1c0.2,0,0.3,0,0.3,0.1s-0.2,0.2-0.4,0.2
				c-1,0-1.7,0-2,0c-0.2,0-0.9,0-1.7,0c-0.2,0-0.4,0-0.4-0.2c0-0.1,0.1-0.1,0.2-0.1c0.2,0,0.5,0,0.7-0.1c0.4-0.1,0.5-0.6,0.5-1.9
				l0.1-9.2c0-0.3,0-0.5,0.2-0.5s0.3,0.2,0.6,0.5c0.2,0.2,2.6,2.7,4.9,5c1.1,1.1,3.2,3.3,3.5,3.5h0.1l-0.2-7c0-1-0.2-1.2-0.5-1.4
				c-0.2-0.1-0.6-0.1-0.8-0.1c-0.2,0-0.2,0-0.2-0.1s0.2-0.1,0.4-0.1c0.8,0,1.6,0,1.9,0c0.2,0,0.8,0,1.6,0c0.2,0,0.4,0,0.4,0.1
				s-0.1,0.1-0.3,0.1c-0.2,0-0.3,0-0.5,0c-0.4,0.1-0.6,0.4-0.6,1.3l-0.2,9.8c0,0.3-0.1,0.5-0.2,0.5c-0.2,0-0.4-0.2-0.5-0.3
				c-1-0.9-3-3-4.7-4.6c-1.7-1.7-3.5-3.6-3.8-3.9l0,0L116.5,118.1z"/>
			<path class="st0" d="M130.7,113c0-2.4,0-2.8,0-3.3s-0.2-0.8-0.5-0.9c-0.2,0-0.4-0.1-0.6-0.1c-0.2,0-0.2,0-0.2-0.2
				c0-0.1,0.1-0.1,0.4-0.1c0.6,0,1.6,0,2,0s1.3,0,1.9,0c0.2,0,0.3,0,0.3,0.1s-0.1,0.2-0.2,0.2c-0.2,0-0.3,0-0.5,0
				c-0.4,0.1-0.6,0.3-0.6,0.9c0,0.5,0,0.9,0,3.3v2.7c0,1.5,0,2.7,0.1,3.4c0,0.4,0.2,0.7,0.6,0.8c0.2,0,0.6,0.1,0.8,0.1
				s0.2,0,0.2,0.1s-0.1,0.2-0.3,0.2c-1,0-2,0-2.5,0c-0.4,0-1.4,0-2,0c-0.2,0-0.3,0-0.3-0.2c0-0.1,0.1-0.1,0.2-0.1
				c0.2,0,0.4,0,0.6-0.1c0.3-0.1,0.4-0.3,0.5-0.8c0.1-0.6,0.1-1.9,0.1-3.4V113L130.7,113z"/>
			<path class="st0" d="M136.5,110c-0.4-0.8-0.6-1-1.2-1.2c-0.2-0.1-0.5-0.1-0.6-0.1s-0.2,0-0.2-0.1s0.2-0.1,0.4-0.1
				c0.8,0,1.7,0,2.3,0c0.4,0,1.2,0,2,0c0.2,0,0.4,0,0.4,0.1s-0.1,0.1-0.2,0.1c-0.2,0-0.5,0-0.6,0.1s-0.2,0.2-0.2,0.3
				c0,0.2,0.1,0.6,0.4,1.2l2.7,7.1h0.1c0.7-1.7,2.7-6.7,3.1-7.7c0.1-0.2,0.2-0.4,0.2-0.6s-0.1-0.2-0.2-0.3c-0.2-0.1-0.4-0.1-0.6-0.1
				c-0.1,0-0.3,0-0.3-0.1s0.1-0.2,0.4-0.2c0.8,0,1.5,0,1.7,0c0.3,0,1,0,1.5,0c0.2,0,0.3,0,0.3,0.1s-0.1,0.1-0.2,0.1s-0.5,0-0.8,0.2
				c-0.2,0.1-0.4,0.4-0.9,1.4c-0.6,1.5-1,2.3-1.9,4.2c-1,2.3-1.8,4-2.1,4.7c-0.4,0.9-0.5,1.2-0.7,1.2s-0.3-0.2-0.6-1L136.5,110z"/>
			<path class="st0" d="M149.4,113c0-2.4,0-2.8,0-3.3s-0.2-0.8-0.7-0.9c-0.1,0-0.4,0-0.6,0c-0.2,0-0.3,0-0.3-0.1s0.1-0.1,0.4-0.1
				c0.4,0,0.9,0,1.3,0c0.4,0,0.8,0,1,0c0.5,0,3.6,0,4,0c0.3,0,0.6-0.1,0.7-0.1c0.1,0,0.2-0.1,0.2-0.1l0.1,0.1c0,0.1-0.1,0.3-0.1,1
				c0,0.2,0,0.8-0.1,1c0,0.1,0,0.2-0.2,0.2s-0.2-0.1-0.2-0.2s0-0.4-0.1-0.6c-0.1-0.3-0.3-0.5-1.1-0.6c-0.3,0-1.9-0.1-2.2-0.1
				c-0.1,0-0.1,0-0.1,0.2v3.9c0,0.1,0,0.2,0.1,0.2c0.4,0,2.2,0,2.5,0c0.4,0,0.6-0.1,0.8-0.2c0.1-0.1,0.2-0.2,0.2-0.2s0.1,0,0.1,0.1
				s-0.1,0.3-0.1,1.1c0,0.3-0.1,0.9-0.1,1s0,0.3-0.1,0.3s-0.2-0.1-0.2-0.1c0-0.2,0-0.4-0.1-0.6c-0.1-0.3-0.3-0.6-0.9-0.6
				c-0.3,0-1.9,0-2.2,0c-0.1,0-0.1,0.1-0.1,0.2v1.2c0,0.5,0,2,0,2.4c0,1.1,0.3,1.3,1.9,1.3c0.4,0,1.1,0,1.5-0.2s0.6-0.5,0.7-1.2
				c0-0.2,0.1-0.2,0.2-0.2c0.1,0,0.1,0.1,0.1,0.3c0,0.4-0.1,1.4-0.2,1.7c-0.1,0.4-0.2,0.4-0.9,0.4c-1.2,0-2,0-2.7,0s-1.2,0-1.6,0
				c-0.2,0-0.5,0-0.9,0s-0.8,0-1.1,0c-0.2,0-0.3,0-0.3-0.2c0-0.1,0.1-0.1,0.2-0.1c0.2,0,0.4,0,0.6-0.1c0.3-0.1,0.4-0.4,0.5-0.9
				c0.1-0.6,0.1-1.9,0.1-3.3L149.4,113L149.4,113z"/>
			<path class="st0" d="M159.5,113c0-2.4,0-2.8,0-3.3s-0.2-0.8-0.7-0.9c-0.1,0-0.4,0-0.6,0c-0.2,0-0.3,0-0.3-0.1s0.1-0.1,0.4-0.1
				c0.8,0,1.8,0,2.2,0c0.5,0,1.7,0,2.2,0c1,0,2,0.1,2.9,0.7c0.4,0.3,1.1,1.1,1.1,2.1c0,1.2-0.5,2.2-2.1,3.5c1.4,1.7,2.5,3.1,3.4,4.1
				c0.9,0.9,1.5,1,1.8,1.1c0.2,0,0.3,0,0.4,0s0.2,0,0.2,0.1s-0.1,0.2-0.3,0.2h-1.5c-0.9,0-1.3-0.1-1.7-0.3c-0.7-0.4-1.3-1.1-2.2-2.3
				c-0.6-0.8-1.4-1.9-1.6-2.1c-0.1-0.1-0.2-0.1-0.3-0.1h-1.4c-0.1,0-0.1,0-0.1,0.1v0.2c0,1.4,0,2.7,0.1,3.3c0,0.4,0.2,0.8,0.6,0.9
				c0.2,0,0.6,0.1,0.8,0.1c0.1,0,0.2,0,0.2,0.1s-0.1,0.2-0.3,0.2c-0.9,0-2.1,0-2.3,0c-0.3,0-1.3,0-1.9,0c-0.2,0-0.3,0-0.3-0.2
				c0-0.1,0.1-0.1,0.2-0.1c0.2,0,0.4,0,0.6-0.1c0.3-0.1,0.4-0.4,0.5-0.9c0.1-0.6,0.1-1.9,0.1-3.3L159.5,113L159.5,113z M161.4,114.2
				c0,0.2,0,0.2,0.1,0.3c0.3,0.1,0.8,0.2,1.2,0.2c0.6,0,0.8-0.1,1.1-0.3c0.5-0.3,0.9-1.1,0.9-2.3c0-2.2-1.5-2.8-2.4-2.8
				c-0.4,0-0.7,0-0.8,0.1c-0.1,0-0.1,0.1-0.1,0.2C161.4,109.5,161.4,114.2,161.4,114.2z"/>
			<path class="st0" d="M170.4,120.1c-0.2-0.1-0.3-0.2-0.3-0.5c0-0.8,0.1-1.8,0.1-2s0.1-0.4,0.2-0.4c0.2,0,0.2,0.1,0.2,0.3
				s0.1,0.5,0.1,0.8c0.4,1.2,1.3,1.6,2.3,1.6c1.4,0,2.1-1,2.1-1.8s-0.2-1.5-1.6-2.5l-0.7-0.6c-1.7-1.3-2.3-2.4-2.3-3.7
				c0-1.7,1.5-2.9,3.6-2.9c1,0,1.7,0.2,2.1,0.3c0.1,0,0.2,0.1,0.2,0.2c0,0.2-0.1,0.6-0.1,1.9c0,0.3,0,0.5-0.2,0.5
				c-0.1,0-0.2-0.1-0.2-0.3c0-0.1-0.1-0.6-0.4-1c-0.2-0.3-0.7-0.8-1.7-0.8c-1.2,0-1.9,0.7-1.9,1.6c0,0.7,0.4,1.3,1.7,2.2l0.4,0.3
				c1.9,1.4,2.6,2.5,2.6,4c0,0.9-0.4,2-1.5,2.7c-0.8,0.5-1.7,0.6-2.5,0.6C171.8,120.5,171.1,120.3,170.4,120.1z"/>
			<path class="st0" d="M180.6,113c0-2.4,0-2.8,0-3.3s-0.2-0.8-0.5-0.9c-0.2,0-0.4-0.1-0.6-0.1c-0.2,0-0.2,0-0.2-0.2
				c0-0.1,0.1-0.1,0.4-0.1c0.6,0,1.6,0,2,0s1.3,0,1.9,0c0.2,0,0.3,0,0.3,0.1s-0.1,0.2-0.2,0.2s-0.3,0-0.5,0
				c-0.4,0.1-0.6,0.3-0.6,0.9c0,0.5,0,0.9,0,3.3v2.7c0,1.5,0,2.7,0.1,3.4c0,0.4,0.2,0.7,0.6,0.8c0.2,0,0.6,0.1,0.8,0.1
				s0.2,0,0.2,0.1s-0.1,0.2-0.3,0.2c-1,0-2,0-2.5,0c-0.4,0-1.4,0-2,0c-0.2,0-0.3,0-0.3-0.2c0-0.1,0.1-0.1,0.2-0.1
				c0.2,0,0.4,0,0.6-0.1c0.3-0.1,0.4-0.3,0.5-0.8c0.1-0.6,0.1-1.9,0.1-3.4V113L180.6,113z"/>
			<path class="st0" d="M189.9,109.4l-2.4,0.1c-0.9,0-1.3,0.1-1.5,0.4c-0.2,0.2-0.2,0.4-0.3,0.5c0,0.1-0.1,0.2-0.2,0.2
				c-0.1,0-0.2-0.1-0.2-0.2c0-0.2,0.3-1.7,0.3-1.8c0-0.2,0.1-0.3,0.2-0.3c0.1,0,0.3,0.2,0.7,0.2c0.5,0,1.1,0.1,1.6,0.1h6.3
				c0.5,0,0.8,0,1.1-0.1c0.2,0,0.4-0.1,0.4-0.1c0.1,0,0.1,0.1,0.1,0.3c0,0.3,0,1.4,0,1.8c0,0.2,0,0.2-0.1,0.2s-0.2-0.1-0.2-0.3v-0.2
				c0-0.4-0.5-0.8-1.9-0.9h-2v6.4c0,1.4,0,2.7,0.1,3.3c0,0.4,0.1,0.8,0.6,0.8c0.2,0,0.6,0.1,0.8,0.1s0.2,0,0.2,0.1s-0.1,0.2-0.3,0.2
				c-1,0-2,0-2.5,0c-0.4,0-1.4,0-2,0c-0.2,0-0.3,0-0.3-0.2c0-0.1,0.1-0.1,0.2-0.1c0.2,0,0.4,0,0.6-0.1c0.3-0.1,0.4-0.4,0.5-0.9
				c0.1-0.6,0.1-1.9,0.1-3.3L189.9,109.4L189.9,109.4z"/>
			<path class="st0" d="M201,116.2c0-0.8-0.2-1.2-0.4-1.6c-0.1-0.2-2.2-3.7-2.8-4.5c-0.4-0.6-0.8-1-1.1-1.1
				c-0.2-0.1-0.5-0.2-0.7-0.2c-0.1,0-0.2,0-0.2-0.1s0.1-0.1,0.3-0.1c0.3,0,1.5,0,2,0c0.3,0,1,0,1.7,0c0.2,0,0.2,0,0.2,0.1
				s-0.1,0.1-0.4,0.2c-0.1,0-0.2,0.2-0.2,0.3s0.1,0.3,0.2,0.5c0.2,0.5,2.4,4.2,2.7,4.6c0.2-0.4,2.2-3.8,2.4-4.3
				c0.2-0.3,0.2-0.6,0.2-0.8s-0.1-0.3-0.3-0.4c-0.1,0-0.3-0.1-0.3-0.2s0.1-0.1,0.3-0.1c0.5,0,1,0,1.5,0c0.4,0,1.4,0,1.7,0
				c0.2,0,0.3,0,0.3,0.1s-0.1,0.2-0.3,0.2s-0.5,0.1-0.7,0.2c-0.3,0.2-0.5,0.3-0.8,0.8c-0.5,0.6-2.7,4.3-3,5c-0.2,0.6-0.2,1-0.2,1.6
				v1.3c0,0.2,0,0.9,0,1.6c0,0.4,0.2,0.8,0.6,0.9c0.2,0,0.6,0.1,0.8,0.1s0.2,0,0.2,0.1s-0.1,0.2-0.3,0.2c-1,0-2,0-2.4,0s-1.4,0-2,0
				c-0.2,0-0.4,0-0.4-0.2c0-0.1,0.1-0.1,0.2-0.1c0.2,0,0.4,0,0.6-0.1c0.3-0.1,0.5-0.4,0.5-0.9c0-0.6,0-1.3,0-1.6L201,116.2
				L201,116.2z"/>
		</g>
	</g>
</g>
<g id="SOSSC" class="st2">
</g>
<g id="Blue_Separator__x28_Excl_for_Schools_x29_">
	<rect id="Separator_15_" x="359.1" y="21.5" class="st0" width="2.2" height="108.4"/>
</g>
<g id="Centres">
	<g id="CCLA">
		<g>
			<g>
				<path class="st3" d="M413.6,64.8l-4.9,1.2c-0.9-2.7-2.6-4.1-5.1-4.1c-1.8,0-3.2,0.8-4.3,2.5s-1.5,4.2-1.5,7.4
					c-0.1,6.7,1.9,10,5.9,10c1.3,0,2.3-0.3,3.1-0.9c0.8-0.6,1.6-1.7,2.4-3.3l5,1.3c-1.7,4.9-5.2,7.4-10.5,7.4
					c-3.6,0-6.4-1.3-8.4-3.8c-2-2.5-3-6.1-3-10.7c0-4.6,1-8.2,3-10.7c2-2.5,4.8-3.8,8.4-3.8C409,57.3,412.3,59.8,413.6,64.8z"/>
				<path class="st3" d="M418.5,83.5c-1.6-1.9-2.4-4.5-2.4-7.7c0-3.2,0.8-5.8,2.4-7.7c1.6-1.9,3.7-2.9,6.5-2.9c2.7,0,4.9,1,6.5,2.9
					c1.6,1.9,2.4,4.5,2.4,7.7c0,3.2-0.8,5.8-2.4,7.7c-1.6,1.9-3.7,2.9-6.5,2.9C422.2,86.3,420,85.4,418.5,83.5z M424.9,82.4
					c2.7,0,4-2.2,4-6.7c0-4.4-1.3-6.7-4-6.7c-2.7,0-4,2.2-4,6.7C420.9,80.2,422.3,82.4,424.9,82.4z"/>
				<path class="st3" d="M441.7,86h-4.9V65.6h4.4v2.2c1-0.9,1.9-1.6,2.8-2c0.9-0.4,2-0.6,3.3-0.6c1.1,0,2.1,0.3,3,0.8
					c0.9,0.5,1.6,1.3,2,2.2c2-2,4.3-3,7-3c1.3,0,2.5,0.5,3.5,1.4c1,0.9,1.5,2.5,1.5,4.7V86h-4.9V71.8c0-1.7-0.8-2.5-2.4-2.6
					c-1.1,0-2.5,0.7-4.1,2.2V86h-4.9V71.8c0-1.7-0.8-2.5-2.4-2.6c-1.1,0-2.5,0.7-4.1,2.2L441.7,86L441.7,86z"/>
				<path class="st3" d="M468.7,93.4V65.6h4.7v1.9c1.6-1.5,3.3-2.3,5.2-2.3c2.6,0,4.6,1,6,3.1c1.4,2.1,2.1,4.7,2.1,8
					c0,2.7-0.7,5-2.2,7c-1.5,2-3.4,3-5.9,3c-0.8,0-1.7-0.2-2.7-0.7c-1-0.4-1.7-1-2.2-1.6h-0.1v9.3L468.7,93.4L468.7,93.4z
					 M473.5,70.9v9.8c1.3,1.1,2.5,1.7,3.8,1.7c1.5,0,2.6-0.6,3.4-1.7c0.8-1.1,1.2-2.8,1.2-4.9c0-2.1-0.4-3.8-1.2-4.9
					c-0.8-1.1-1.9-1.7-3.4-1.7c-0.5,0-0.9,0.1-1.3,0.2c-0.4,0.1-0.7,0.3-0.9,0.4c-0.2,0.1-0.5,0.3-0.8,0.6
					C473.9,70.7,473.6,70.9,473.5,70.9z"/>
				<path class="st3" d="M501.7,65.6h4.9V86h-4.5v-2.2c-2.5,1.7-4.6,2.6-6.3,2.6c-2,0-3.5-0.6-4.5-1.8c-1-1.2-1.5-2.9-1.5-5V65.6
					h4.9v13.2c0,1.3,0.2,2.3,0.6,2.8c0.4,0.5,1,0.8,1.9,0.8c1.8,0,3.3-0.7,4.5-2.2L501.7,65.6L501.7,65.6z"/>
				<path class="st3" d="M508.9,65.6h2.8v-6.7h4.9v6.7h4v3.9h-4V81c0,0.5,0.1,0.9,0.4,1.1c0.3,0.2,0.7,0.3,1.3,0.3
					c0.3,0,1.1-0.1,2.2-0.4v4c-1.8,0.2-3,0.3-3.8,0.3c-3.3,0-5-1.6-5-4.7V69.5h-2.8C508.9,69.5,508.9,65.6,508.9,65.6z"/>
				<path class="st3" d="M539.2,86h-4.7l-0.3-1.8c-2.1,1.4-4.2,2.2-6.3,2.2c-1.7,0-3.1-0.5-4.1-1.6c-1-1.1-1.4-2.3-1.4-3.8
					c0-2.3,0.9-4.1,2.8-5.4c1.9-1.3,4.8-2.2,8.8-2.6v-1.7c0-0.8-0.3-1.3-0.8-1.8c-0.5-0.4-1.3-0.6-2.2-0.6c-1.7,0-3.2,0.8-4.5,2.5
					l-3.1-2.4c0.6-1.1,1.7-2,3.1-2.7c1.5-0.7,3-1.1,4.4-1c2.8,0.1,4.8,0.7,6,1.9c1.2,1.2,1.8,3.3,1.8,6.3V83
					C538.8,84.2,538.9,85.2,539.2,86z M533.9,80.6v-4.4c-0.9,0.2-1.6,0.3-2,0.4c-0.4,0.1-1,0.3-1.8,0.5c-0.7,0.2-1.3,0.5-1.6,0.7
					c-0.4,0.3-0.7,0.6-1,1c-0.3,0.4-0.4,0.9-0.4,1.5c0,0.8,0.2,1.3,0.6,1.8c0.4,0.4,1,0.6,1.7,0.6C530.7,82.8,532.2,82,533.9,80.6z"
					/>
				<path class="st3" d="M540.9,65.6h2.8v-6.7h4.9v6.7h4v3.9h-4V81c0,0.5,0.1,0.9,0.4,1.1c0.3,0.2,0.7,0.3,1.3,0.3
					c0.3,0,1.1-0.1,2.2-0.4v4c-1.8,0.2-3,0.3-3.8,0.3c-3.3,0-5-1.6-5-4.7V69.5h-2.8C540.9,69.5,540.9,65.6,540.9,65.6z"/>
				<path class="st3" d="M560.6,61.9h-4.9v-4.5h4.9V61.9z M560.6,65.6V86h-4.9V65.6C555.7,65.6,560.6,65.6,560.6,65.6z"/>
				<path class="st3" d="M566.3,83.5c-1.6-1.9-2.4-4.5-2.4-7.7c0-3.2,0.8-5.8,2.4-7.7c1.6-1.9,3.7-2.9,6.5-2.9c2.7,0,4.9,1,6.5,2.9
					c1.6,1.9,2.4,4.5,2.4,7.7c0,3.2-0.8,5.8-2.4,7.7c-1.6,1.9-3.7,2.9-6.5,2.9C570,86.3,567.9,85.4,566.3,83.5z M572.8,82.4
					c2.7,0,4-2.2,4-6.7c0-4.4-1.3-6.7-4-6.7c-2.7,0-4,2.2-4,6.7C568.8,80.2,570.1,82.4,572.8,82.4z"/>
				<path class="st3" d="M589.5,86h-4.9V65.6h4.5v2.2c2.5-1.7,4.6-2.6,6.3-2.6c2,0,3.5,0.6,4.5,1.8c1,1.2,1.5,2.9,1.5,5V86h-4.9
					V72.7c0-1.3-0.2-2.3-0.6-2.8c-0.4-0.5-1-0.8-1.9-0.8c-1.8,0-3.3,0.7-4.5,2.2L589.5,86L589.5,86z"/>
				<path class="st3" d="M621,86h-4.7l-0.3-1.8c-2.1,1.4-4.2,2.2-6.3,2.2c-1.7,0-3.1-0.5-4.1-1.6c-1-1.1-1.4-2.3-1.4-3.8
					c0-2.3,0.9-4.1,2.8-5.4c1.9-1.3,4.8-2.2,8.8-2.6v-1.7c0-0.8-0.3-1.3-0.8-1.8c-0.5-0.4-1.3-0.6-2.2-0.6c-1.7,0-3.2,0.8-4.5,2.5
					l-3.1-2.4c0.6-1.1,1.7-2,3.1-2.7c1.5-0.7,3-1.1,4.4-1c2.8,0.1,4.8,0.7,6,1.9c1.2,1.2,1.8,3.3,1.8,6.3V83
					C620.6,84.2,620.7,85.2,621,86z M615.7,80.6v-4.4c-0.9,0.2-1.6,0.3-2,0.4c-0.4,0.1-1,0.3-1.8,0.5c-0.7,0.2-1.3,0.5-1.6,0.7
					c-0.4,0.3-0.7,0.6-1,1c-0.3,0.4-0.4,0.9-0.4,1.5c0,0.8,0.2,1.3,0.6,1.8s1,0.6,1.7,0.6C612.5,82.8,614,82,615.7,80.6z"/>
				<path class="st3" d="M629.8,86H625V57.7h4.9V86z"/>
				<path class="st3" d="M665.5,86h-17.7V57.7h5.4v23.7h12.3L665.5,86L665.5,86z"/>
				<path class="st3" d="M684.3,86h-4.7l-0.3-1.8c-2.1,1.4-4.2,2.2-6.3,2.2c-1.7,0-3.1-0.5-4.1-1.6c-1-1.1-1.4-2.3-1.4-3.8
					c0-2.3,0.9-4.1,2.8-5.4c1.9-1.3,4.8-2.2,8.8-2.6v-1.7c0-0.8-0.3-1.3-0.8-1.8c-0.5-0.4-1.3-0.6-2.2-0.6c-1.7,0-3.2,0.8-4.5,2.5
					l-3.1-2.4c0.6-1.1,1.7-2,3.1-2.7c1.5-0.7,3-1.1,4.4-1c2.8,0.1,4.8,0.7,6,1.9c1.2,1.2,1.8,3.3,1.8,6.3V83
					C683.9,84.2,684,85.2,684.3,86z M679,80.6v-4.4c-0.9,0.2-1.6,0.3-2,0.4c-0.4,0.1-1,0.3-1.8,0.5c-0.7,0.2-1.3,0.5-1.6,0.7
					c-0.4,0.3-0.7,0.6-1,1c-0.3,0.4-0.4,0.9-0.4,1.5c0,0.8,0.2,1.3,0.6,1.8c0.4,0.4,1,0.6,1.7,0.6C675.9,82.8,677.3,82,679,80.6z"/>
				<path class="st3" d="M690.9,86l-5.2-20.3h4.6l2.8,12.7h0.1l2.9-12.7h4.5l2.8,12.7h0.1l2.9-12.7h4.6L705.8,86h-4.4l-3-12.7h-0.1
					l-3,12.7H690.9z"/>
			</g>
			<g>
				<path class="st3" d="M407.4,26.7l-3.5,0.9c-0.6-2-1.9-2.9-3.7-2.9c-1.3,0-2.3,0.6-3.1,1.8c-0.7,1.2-1.1,3-1.1,5.4
					c-0.1,4.8,1.4,7.2,4.3,7.2c0.9,0,1.7-0.2,2.3-0.6c0.6-0.4,1.2-1.2,1.7-2.4l3.6,1c-1.2,3.6-3.8,5.3-7.6,5.3
					c-2.6,0-4.6-0.9-6.1-2.7c-1.4-1.8-2.2-4.4-2.2-7.8c0-3.3,0.7-5.9,2.2-7.8c1.4-1.8,3.5-2.7,6.1-2.7
					C404.1,21.3,406.5,23.1,407.4,26.7z"/>
				<path class="st3" d="M421.7,35.3h-8.9c0,1.5,0.3,2.5,0.9,3.2c0.6,0.7,1.3,1,2.2,1c0.8,0,1.4-0.1,1.8-0.4
					c0.5-0.3,0.9-0.7,1.5-1.3l2.5,1.6c-1.3,2-3.4,3-6.2,3c-1.9,0-3.4-0.7-4.5-2.1c-1.1-1.4-1.7-3.2-1.7-5.6c0-2.3,0.6-4.2,1.7-5.6
					c1.1-1.4,2.7-2.1,4.7-2.1c1.9,0,3.3,0.6,4.4,2c1.1,1.3,1.6,2.9,1.6,4.8C421.7,33.8,421.7,35.3,421.7,35.3z M412.8,32.9h5.7
					c0-1-0.3-1.8-0.8-2.4c-0.5-0.6-1.2-0.9-2-0.9c-0.9,0-1.5,0.3-2,0.9C413,31.1,412.8,31.9,412.8,32.9z"/>
				<path class="st3" d="M427.6,42.1h-3.5V27.3h3.2v1.6c1.8-1.2,3.3-1.9,4.5-1.9c1.4,0,2.5,0.4,3.3,1.3c0.7,0.9,1.1,2.1,1.1,3.6
					v10.1h-3.5v-9.6c0-1-0.1-1.6-0.4-2s-0.7-0.6-1.4-0.6c-1.3,0-2.4,0.5-3.3,1.6C427.6,31.5,427.6,42.1,427.6,42.1z"/>
				<path class="st3" d="M437.9,27.3h2v-4.9h3.5v4.9h2.9v2.8h-2.9v8.3c0,0.4,0.1,0.6,0.3,0.8c0.2,0.2,0.5,0.2,1,0.2
					c0.2,0,0.8-0.1,1.6-0.3v2.9c-1.3,0.2-2.2,0.2-2.8,0.2c-2.4,0-3.6-1.1-3.6-3.4v-8.8h-2C437.9,30.2,437.9,27.3,437.9,27.3z"/>
				<path class="st3" d="M451.8,42.1h-3.5V27.3h3.2v2.5h0.1c0.4-0.9,1-1.6,1.6-2.1c0.7-0.5,1.5-0.7,2.5-0.7v3.7c-0.1,0-0.3,0-0.6,0
					c-0.8,0-1.5,0.3-2.2,1c-0.7,0.6-1.1,1.1-1.1,1.4L451.8,42.1L451.8,42.1z"/>
				<path class="st3" d="M469.2,35.3h-8.9c0,1.5,0.3,2.5,0.9,3.2c0.6,0.7,1.3,1,2.2,1c0.8,0,1.4-0.1,1.8-0.4
					c0.5-0.3,0.9-0.7,1.5-1.3l2.5,1.6c-1.3,2-3.4,3-6.2,3c-1.9,0-3.4-0.7-4.5-2.1c-1.1-1.4-1.7-3.2-1.7-5.6c0-2.3,0.6-4.2,1.7-5.6
					c1.1-1.4,2.7-2.1,4.7-2.1c1.9,0,3.3,0.6,4.4,2c1.1,1.3,1.6,2.9,1.6,4.8C469.2,33.8,469.2,35.3,469.2,35.3z M460.3,32.9h5.7
					c0-1-0.3-1.8-0.8-2.4c-0.5-0.6-1.2-0.9-2-0.9c-0.9,0-1.5,0.3-2,0.9C460.5,31.1,460.3,31.9,460.3,32.9z"/>
				<path class="st3" d="M487.7,30.2h-3v11.9h-3.5V30.2h-2v-2.8h2v-1.8c0-1.5,0.3-2.6,1-3.3c0.7-0.6,1.7-0.9,3.2-0.9h2.3v2.8h-1
					c-0.7,0-1.2,0.1-1.5,0.4c-0.3,0.2-0.4,0.7-0.4,1.2v1.6h3L487.7,30.2L487.7,30.2z"/>
				<path class="st3" d="M490.3,40.3c-1.1-1.4-1.7-3.2-1.7-5.6c0-2.3,0.6-4.2,1.7-5.6c1.1-1.4,2.7-2.1,4.7-2.1c2,0,3.5,0.7,4.7,2.1
					c1.1,1.4,1.7,3.2,1.7,5.6c0,2.3-0.6,4.2-1.7,5.6c-1.1,1.4-2.7,2.1-4.7,2.1C493,42.3,491.5,41.7,490.3,40.3z M495,39.5
					c1.9,0,2.9-1.6,2.9-4.8c0-3.2-1-4.8-2.9-4.8c-1.9,0-2.9,1.6-2.9,4.8C492.1,37.9,493.1,39.5,495,39.5z"/>
				<path class="st3" d="M507.1,42.1h-3.5V27.3h3.2v2.5h0.1c0.4-0.9,1-1.6,1.6-2.1c0.7-0.5,1.5-0.7,2.5-0.7v3.7c-0.1,0-0.3,0-0.6,0
					c-0.8,0-1.5,0.3-2.2,1c-0.7,0.6-1.1,1.1-1.1,1.4L507.1,42.1L507.1,42.1z"/>
			</g>
		</g>
	</g>
</g>
</svg>
