<?xml version="1.0" encoding="UTF-8"?>
<svg width="496px" height="91px" viewBox="0 0 496 91" version="1.1" xmlns="http://www.w3.org/2000/svg" xmlns:xlink="http://www.w3.org/1999/xlink">
    <!-- Generator: Sketch 59.1 (86144) - https://sketch.com -->
    <title>fieldfisher-logo@logotyp.us</title>
    <desc>Created with Sketch.</desc>
    <defs>
        <linearGradient x1="0%" y1="0.0320628541%" x2="99.9989127%" y2="0.0320628541%" id="linearGradient-1">
            <stop stop-color="#FFFFFF" offset="0%"></stop>
            <stop stop-color="#FFFFFF" offset="50%"></stop>
            <stop stop-color="#FFFFFF" offset="100%"></stop>
        </linearGradient>
    </defs>
    <g id="Page-1" stroke="none" stroke-width="1" fill="none" fill-rule="evenodd">
        <g id="fieldfisher-logo@logotyp.us" fill="url(#linearGradient-1)" fill-rule="nonzero">
            <path d="M396.696105,60.451657 C396.696105,41.078113 407.835893,27.89334 424.115051,27.89334 C432.402623,27.624263 440.232763,31.929495 444.403457,38.925497 C446.502257,42.961652 447.740012,47.535961 448.035996,52.11027 C448.170535,53.724732 448.170535,55.070117 448.278166,58.568118 L407.351554,58.568118 C407.351554,66.371351 408.616216,71.214737 411.737509,75.519969 C415.100972,80.094278 420.428696,82.515971 425.99859,82.515971 C432.886961,82.515971 439.775332,79.287047 446.905873,73.098276 L446.905873,82.246894 C440.770917,87.897511 432.644792,91.126435 424.24959,90.857358 C407.351554,90.857358 396.696105,79.01797 396.696105,60.451657 L396.696105,60.451657 Z M407.970431,51.572116 L438.026332,51.572116 C437.272916,40.809036 432.133546,34.889342 423.630712,34.889342 C415.23551,34.889342 409.584893,40.809036 407.970431,51.572116 Z M283.791396,87.09028 L283.791396,70.138429 L291.917521,70.138429 L291.917521,74.981815 C291.729167,77.134431 292.348044,79.556124 293.666521,81.439663 C296.599461,83.861356 300.258908,84.937664 303.945263,84.668587 C311.58705,84.668587 316.322805,80.901509 316.322805,74.712738 C316.322805,70.138429 313.68585,67.178582 306.178602,63.949658 L300.178185,61.258888 C293.666521,58.299041 290.895028,56.415502 288.527151,53.993809 C285.917104,51.572116 284.490996,48.074115 284.517904,44.307037 C284.517904,34.351188 292.644029,28.162417 305.048479,28.162417 C311.317973,27.89334 317.506744,29.238725 323.211176,31.660418 L323.211176,47.266884 L315.596297,47.266884 L315.596297,42.961652 C315.757743,41.078113 315.381035,39.194574 314.466174,37.580112 C311.802311,35.158419 308.223587,33.813034 304.591048,34.082111 C298.079384,34.082111 293.80106,37.311035 293.80106,42.423498 C293.80106,46.72873 296.195845,49.150423 302.949678,52.379347 L307.819972,54.531963 L313.847296,57.222733 C322.35013,61.258888 326.224839,66.371351 326.224839,73.098276 C326.224839,83.861356 317.479836,90.857358 303.810724,90.857358 C296.976169,90.857358 290.195428,89.511973 283.791396,87.09028 L283.791396,87.09028 Z M64.4398252,60.451657 C64.4398252,41.078113 75.579613,28.162417 91.8587715,28.162417 C100.146343,27.624263 107.976484,31.929495 112.147177,38.925497 C114.245978,42.961652 115.483732,47.535961 115.779717,52.11027 C115.914255,53.724732 115.914255,55.070117 116.021886,58.568118 L75.0952744,58.568118 C75.0952744,66.371351 76.3330286,71.214737 79.4812295,75.519969 C82.8177843,80.094278 88.1455089,82.515971 93.7423105,82.515971 C100.630682,82.515971 107.519053,79.287047 114.649593,73.098276 L114.649593,82.246894 C108.514638,87.897511 100.388512,91.126435 91.9664023,90.857358 C75.0952744,90.857358 64.4398252,79.01797 64.4398252,60.451657 L64.4398252,60.451657 Z M75.7141515,51.572116 L105.770052,51.572116 C105.016637,40.809036 99.8772661,34.889342 91.3744329,34.889342 C82.9792305,34.889342 77.3555212,40.809036 75.7141515,51.572116 Z M158.832037,84.130433 C153.208327,77.672585 150.275388,69.331198 150.705911,60.720734 C150.705911,41.34719 161.60353,27.89334 177.236904,27.89334 C183.748567,27.89334 189.964246,30.853187 193.89277,35.96565 L193.89277,12.017797 C193.89277,8.788873 192.897185,8.250719 188.887938,8.250719 L185.12086,8.250719 L185.12086,2.869179 L203.767896,0.98564 L203.767896,77.403508 C203.767896,82.785048 204.279142,83.323202 208.288389,83.323202 C209.902851,83.323202 210.414098,83.592279 212.163098,83.592279 L212.163098,88.973819 L194.888355,88.973819 C194.323293,86.283049 193.973493,83.323202 193.89277,80.363355 C190.287138,87.09028 183.075874,91.126435 175.487903,90.588281 C169.272224,90.857358 163.191084,88.435665 158.832037,84.130433 L158.832037,84.130433 Z M161.361361,60.18258 C161.361361,73.905507 167.738485,82.515971 177.990319,82.515971 C182.699167,82.515971 187.138937,80.094278 189.91043,76.3272 C193.273893,71.752891 194.780724,66.640428 194.780724,58.837195 C194.780724,50.495808 193.139354,45.383345 189.130107,40.809036 C186.17026,37.849189 181.972659,35.96565 177.613611,35.96565 C167.361778,35.96565 161.361361,44.845191 161.361361,60.18258 L161.361361,60.18258 Z M454.789829,88.973819 L454.789829,83.592279 L458.691446,83.592279 C461.3284,83.323202 462.27017,82.246894 462.404708,79.01797 L462.404708,42.423498 C462.404708,37.580112 461.92037,37.041958 457.534414,37.041958 L454.144044,37.041958 L454.144044,31.391341 L470.665372,29.776879 C471.364972,33.27488 471.768588,37.041958 471.930034,40.539959 C476.181451,33.005803 482.074237,28.969648 489.204777,28.969648 C491.384301,28.969648 493.563825,29.507802 495.474271,30.58411 L495.474271,42.961652 L488.5859,42.961652 L488.5859,41.078113 C488.5859,38.387343 487.455777,37.041958 484.926453,37.041958 C481.186283,37.041958 477.311574,40.809036 474.674619,46.997807 C472.737265,52.11027 471.795495,57.49181 471.903126,62.87335 L471.903126,72.560122 L471.903126,77.941662 C471.903126,82.246894 472.79108,83.323202 475.670204,83.323202 L479.544913,83.323202 L479.544913,88.973819 L454.789829,88.973819 Z M368.173943,88.973819 L368.173943,83.592279 L372.075559,83.592279 C374.766329,83.323202 375.708099,82.246894 375.788822,78.748893 L375.788822,51.572116 C376.084807,48.074115 375.439022,44.576114 373.905283,41.34719 C371.671944,38.118266 368.066312,36.503804 364.272326,36.772881 C354.262662,36.772881 348.638953,44.03796 348.638953,56.953656 L348.638953,78.210739 C348.638953,82.246894 349.499999,83.323202 352.406031,83.592279 L356.280739,83.592279 L356.280739,89.242896 L331.095132,89.242896 L331.095132,83.592279 L334.969841,83.592279 C337.795149,83.323202 338.710011,82.246894 338.736919,78.210739 L338.736919,12.286874 C338.736919,9.05795 337.741334,8.250719 333.732087,8.250719 L329.965009,8.519796 L329.965009,2.869179 L348.638953,0.98564 L348.638953,38.118266 C352.594384,31.660418 359.644202,28.162417 367.043819,28.431494 C375.062314,28.431494 381.19727,31.660418 383.941855,37.849189 C385.556317,41.885344 386.282825,46.190576 386.067563,50.764885 L386.094471,78.210739 C386.094471,82.246894 386.955517,83.323202 389.861549,83.592279 L393.736258,83.592279 L393.736258,89.242896 L368.173943,88.973819 Z M121.161257,88.973819 L121.161257,83.592279 L125.035966,83.592279 C127.780551,83.323202 128.695413,82.246894 128.776136,78.748893 L128.776136,12.286874 C128.776136,9.05795 127.780551,8.250719 123.771304,8.250719 L120.004226,8.519796 L120.004226,2.869179 L138.7858,0.98564 L138.7858,78.210739 C138.7858,82.246894 139.646847,83.323202 142.552878,83.592279 L146.427587,83.592279 L146.427587,89.242896 L121.161257,88.973819 Z M253.493325,88.973819 L253.493325,83.592279 L257.368034,83.592279 C260.247158,83.323202 261.135112,82.246894 261.135112,78.210739 L261.135112,42.154421 C261.135112,37.849189 260.489327,37.041958 256.883696,37.041958 L253.843125,37.041958 L253.843125,29.776879 L270.929515,29.776879 L270.929515,78.210739 C270.929515,82.246894 271.817469,83.323202 274.696593,83.592279 L278.598209,83.592279 L278.598209,88.973819 L253.493325,88.973819 Z M36.4827249,88.973819 L36.4827249,83.592279 L40.3574337,83.592279 C43.2365576,83.323202 44.097604,82.246894 44.097604,78.210739 L44.097604,42.154421 C44.097604,37.849189 43.4787269,37.041958 39.8461874,37.041958 L36.8056173,37.041958 L36.8056173,29.776879 L53.9189145,29.776879 L53.9189145,78.210739 C53.9189145,82.246894 54.7799609,83.323202 57.6859925,83.592279 L61.5607013,83.592279 L61.5607013,88.973819 L36.4827249,88.973819 Z M0.50713,83.592279 L3.3593462,83.592279 C7.8529321,83.592279 8.3372707,82.785048 8.3372707,77.403508 L8.3372707,37.041958 L0.50713,37.041958 L0.50713,29.776879 L8.3641784,29.776879 L8.3641784,27.624263 C8.3641784,19.551953 9.4943018,14.43949 11.9967179,10.672412 C16.2481345,4.483641 23.647752,0.98564 33.4152471,0.98564 C39.6578335,0.716563 45.8466045,2.331025 51.1743291,5.829026 L51.1743291,18.206568 L43.4249115,18.206568 L43.4249115,15.784875 C43.6401731,13.632259 43.0751114,11.479643 41.7835418,9.865181 C39.3618488,7.981642 36.2674633,6.905334 33.1461701,7.174411 C27.3341069,6.905334 21.9794746,10.403335 20.0152125,15.784875 C18.9658122,19.282876 18.5083813,23.049954 18.6160121,26.817032 L18.6160121,29.776879 L31.5048004,29.776879 L31.5048004,37.041958 L18.6160121,37.041958 L18.6160121,78.210739 C18.6160121,82.246894 19.5039662,83.323202 22.3830901,83.592279 L26.2847066,83.592279 L26.2847066,88.973819 L0.5340377,88.973819 L0.50713,83.592279 Z M217.463915,88.973819 L217.463915,83.592279 L220.343039,83.592279 C224.863533,83.592279 225.374779,82.785048 225.374779,77.403508 L225.374779,37.041958 L217.463915,37.041958 L217.463915,29.776879 L225.374779,29.776879 L225.374779,27.624263 C225.374779,19.551953 226.477995,14.43949 229.007318,10.672412 C233.258735,4.483641 240.631445,0.98564 250.39894,0.98564 C256.668434,0.716563 262.857205,2.331025 268.18493,5.829026 L268.18493,18.206568 L260.435512,18.206568 L260.435512,15.784875 C260.677681,13.632259 260.085712,11.479643 258.794142,9.865181 C256.399357,7.981642 253.304971,6.905334 250.183678,7.174411 C244.344707,6.905334 238.990075,10.403335 237.025813,15.784875 C235.976413,19.282876 235.518982,23.049954 235.65352,26.817032 L235.65352,29.776879 L248.515401,29.776879 L248.515401,37.041958 L235.65352,37.041958 L235.65352,78.210739 C235.65352,82.246894 236.541474,83.323202 239.420598,83.592279 L243.295307,83.592279 L243.295307,88.973819 L217.463915,88.973819 Z" id="Shape"></path>
        </g>
    </g>
</svg>