<?xml version="1.0" encoding="utf-8"?>
<!-- Generator: Adobe Illustrator 25.2.1, SVG Export Plug-In . SVG Version: 6.00 Build 0)  -->
<svg version="1.1" id="Layer_1" xmlns="http://www.w3.org/2000/svg" xmlns:xlink="http://www.w3.org/1999/xlink" x="0px" y="0px"
	 viewBox="0 0 100 100" style="enable-background:new 0 0 100 100;" xml:space="preserve">
<style type="text/css">
	.st0{fill:#FFFFFF;}
</style>
<g>
	<path class="st0" d="M33.7,47.9c-0.5,0-0.9,0.4-0.9,0.9s0.4,0.9,0.9,0.9s0.9-0.4,0.9-0.9C34.6,48.4,34.2,47.9,33.7,47.9z"/>
	<path class="st0" d="M39.4,17.1c0-0.5-0.4-1-0.9-1s-0.9,0.4-0.9,0.9s0.4,1,0.9,1S39.4,17.6,39.4,17.1z"/>
	<path class="st0" d="M52.3,15.7c0.5,0,0.9-0.4,0.9-0.9c0.1-0.5-0.3-0.9-0.9-0.9c-0.5,0-0.9,0.4-0.9,0.9S51.8,15.7,52.3,15.7z"/>
	<path class="st0" d="M44.4,11.2c-0.5,0-0.9,0.4-0.9,0.9s0.4,0.9,0.9,0.9s0.9-0.4,0.9-0.9C45.4,11.6,45,11.2,44.4,11.2z"/>
	<path class="st0" d="M59,16.7c0.5,0,0.9-0.4,0.9-0.9c0.1-0.5-0.4-0.9-0.9-0.9s-0.9,0.4-0.9,0.9S58.5,16.7,59,16.7z"/>
	<path class="st0" d="M33,21.5c-0.5,0-0.9,0.4-0.9,0.9s0.4,0.9,0.9,0.9s0.9-0.4,0.9-0.9S33.5,21.5,33,21.5z"/>
	<path class="st0" d="M26.7,28.5c-0.5,0-0.9,0.4-0.9,0.9s0.4,0.9,0.9,0.9s0.9-0.4,0.9-0.9C27.6,29,27.2,28.5,26.7,28.5z"/>
	<path class="st0" d="M23.8,37.9c-0.5,0-0.9,0.4-0.9,0.9s0.4,0.9,0.9,0.9s0.9-0.4,0.9-0.9C24.7,38.4,24.3,37.9,23.8,37.9z"/>
	<path class="st0" d="M71.6,37.5c0.5,0,0.9-0.4,0.9-0.9c0.1-0.5-0.4-0.9-0.9-0.9s-0.9,0.4-0.9,0.9S71.1,37.5,71.6,37.5z"/>
	<path class="st0" d="M72.5,26.9c-0.5,0-0.9,0.4-0.9,0.9s0.4,0.9,0.9,0.9s0.9-0.4,0.9-0.9S73,26.9,72.5,26.9z"/>
	<path class="st0" d="M66.6,44.6c0.5,0,0.9-0.4,0.9-0.9c0-0.4-0.4-0.9-0.9-0.9s-0.9,0.4-0.9,0.9S66.1,44.6,66.6,44.6z"/>
	<path class="st0" d="M50,0C22.4,0,0,22.4,0,50s22.4,50,50,50s50-22.4,50-50S77.6,0,50,0z M42,87.4h-1.7v-5.8l4.6-4.5V47.7l-4.4-4.4
		L35.7,48c0.1,0.3,0.2,0.6,0.2,0.9c-0.1,1.2-1,2.2-2.2,2.2s-2.2-1-2.2-2.2c0-1.2,1-2.2,2.2-2.2c0.3,0,0.6,0.1,0.8,0.2l4.8-4.7
		l-2.4-2.4h-4.7h-1.3h-5.2c-0.4,0.7-1.1,1.2-1.9,1.2c-1.2,0-2.2-1-2.2-2.2s1-2.2,2.2-2.2c1,0,1.8,0.7,2.1,1.6h5v-3.3l-3.4-3.4
		c-0.3,0.1-0.5,0.2-0.8,0.2c-1.2,0-2.2-1-2.2-2.2s1-2.2,2.2-2.2s2.2,1,2.2,2.2c0,0.3-0.1,0.6-0.2,0.8l3.8,3.9v4h5.1l2.4,2.4v-2.8
		l-7.6-7.7v-5.6c-0.9-0.3-1.6-1.1-1.6-2.1c0-1.2,1-2.2,2.2-2.2s2.2,1,2.2,2.2c0,0.8-0.5,1.6-1.2,1.9v5.2l7.7,7.6v5.1l4.8,4.8v30.7
		L42,82.3V87.4z M46.1,87.4h-1.7v-4l3.3-3.3V45.9l-4.1-4.1v-7.6l-0.1,0.1l-6-6v-9.4c-0.7-0.4-1.2-1.1-1.2-1.9c0-1.2,1-2.2,2.2-2.2
		s2.2,1,2.2,2.2c0,1.1-0.7,1.9-1.6,2.1v8.5l4.5,4.5v-18c-0.8-0.3-1.4-1.1-1.4-2c0-1.2,1-2.2,2.2-2.2c1.2,0,2.2,1,2.2,2.2
		c0,0.9-0.5,1.6-1.3,2v27.1l4.1,4.1v35.5l-3.3,3.3V87.4z M58.7,87.4H57v-4.2l-3.1-3.1v3.7l-2.8,2.8v0.8h-1.7v-1.5l2.8-2.8v-4.7
		l-1.7-1.7V46.2l3.9-3.8v-2.7l-7.1-7.1V20.7c-0.8-0.3-1.4-1.1-1.4-2c0-1.2,1-2.2,2.2-2.2c1.2,0,2.2,1,2.2,2.2c0,0.9-0.5,1.6-1.3,2
		v3.7l2.6-2.6v-4.9c-0.9-0.3-1.5-1.1-1.5-2.1c0-1.2,1-2.2,2.2-2.2s2.2,1,2.2,2.2c0,0.9-0.5,1.6-1.3,2v5.7L49,26.7v5.2l5.4,5.5V27.1
		l3.8-3.8v-5.5c-0.8-0.3-1.4-1.1-1.4-2c0-1.2,1-2.2,2.2-2.2s2.2,1,2.2,2.2c0,0.9-0.5,1.7-1.3,2h0v6.1L56,27.8V39v0.3v3.8l-3.8,3.8
		V76l6.5,6.5V87.4z M72.5,30c-0.8,0-1.6-0.5-1.9-1.2h-1.8L66.5,31v5.2h2.9c0.2-1,1.1-1.8,2.2-1.8c1.2,0,2.2,1,2.2,2.2
		c0,1.3-1,2.2-2.2,2.2c-0.8,0-1.4-0.4-1.8-1h-3.3l-5,5v0.1l-0.2,0.2h3.2c0.3-0.9,1.1-1.5,2.1-1.5c1.2,0,2.2,1,2.2,2.2
		c-0.1,1.2-1,2.2-2.2,2.2c-0.9,0-1.6-0.5-2-1.3h-4.9l-4.3,4.2v26.6l6,6v5.9h-1.6v-5.2l-6.1-6V48.3l6.1-6.1V30.5l5.1-5.1v-4.1
		c-0.9-0.3-1.5-1.1-1.5-2.1c0-1.2,1-2.2,2.2-2.2c1.2,0,2.2,1,2.2,2.2c0,0.8-0.5,1.6-1.2,1.9v5l-5.1,5.1v9.3l3.4-3.4v-6.8l3.2-3.1
		h2.3c0.3-0.9,1.1-1.6,2.1-1.6c1.2,0,2.2,1,2.2,2.2S73.7,30,72.5,30z"/>
	<path class="st0" d="M48.1,17.8c-0.5,0-0.9,0.4-0.9,0.9s0.4,0.9,0.9,0.9s0.9-0.4,0.9-0.9S48.7,17.8,48.1,17.8z"/>
	<path class="st0" d="M65.6,20.1c0.5,0,0.9-0.4,0.9-0.9s-0.3-0.9-0.9-0.9c-0.5,0-0.9,0.4-0.9,0.9S65.1,20.1,65.6,20.1z"/>
</g>
</svg>
