<?xml version="1.0" encoding="utf-8"?>
<!-- Generator: Adobe Illustrator 24.1.2, SVG Export Plug-In . SVG Version: 6.00 Build 0)  -->
<svg version="1.1" id="Layer_1" xmlns="http://www.w3.org/2000/svg" xmlns:xlink="http://www.w3.org/1999/xlink" x="0px" y="0px"
	 viewBox="0 0 400 200" style="enable-background:new 0 0 400 200;" xml:space="preserve">
<style type="text/css">
	.st0{fill:#CC0000;}
	.st1{fill-rule:evenodd;clip-rule:evenodd;fill:#CC0000;}
</style>
<g id="aaa68c32-ca6e-4991-bace-86d5eeddb310">
	<polygon class="st0" points="28.5,91.1 30.8,92.2 31.1,89.6 28.6,88.5 	"/>
	<path class="st0" d="M3.8,77.6c-0.2,0-0.3,0.1,0,0.2l22.5,7.2v-2.4L4.8,77.8C4.5,77.7,4.1,77.7,3.8,77.6z"/>
	<polygon class="st0" points="31.9,84 29,83.3 28.8,85.9 31.5,86.8 	"/>
	<polygon class="st0" points="32.7,77.6 29.3,77.6 29.2,80.5 32.3,80.9 	"/>
	<polygon class="st0" points="38.2,85.5 35,84.7 34.4,87.7 37.3,88.6 	"/>
	<path class="st0" d="M26.3,77.6H7.8c-0.1,0-0.2,0-0.2,0s0,0.1,0.2,0.2l18.5,2.4V77.6z"/>
	<polygon class="st0" points="33.2,93.4 35.5,94.6 36.3,91.7 33.8,90.6 	"/>
	<polygon class="st0" points="40.6,77.6 36.6,77.6 35.8,81.3 39.3,81.8 	"/>
	<polygon class="st0" points="39.2,92.9 38,95.8 40.6,97.1 42.3,94.1 	"/>
	<path class="st0" d="M1.6,77.6C1.4,77.8,1.7,77.9,2,78l24.3,12v-2.4L2.4,77.9C2,77.7,1.7,77.5,1.6,77.6z"/>
	<polygon class="st0" points="45.6,77.6 43.6,82.3 48.7,83 51.8,77.6 	"/>
	<path class="st0" d="M26.3,121.9c0-0.2,0-29.6,0-29.6L0.5,77.7c-0.4-0.2-0.2,0.1-0.1,0.3c2.3,4.1,25.6,43.9,25.6,44
		S26.3,122.3,26.3,121.9z"/>
	<polygon class="st0" points="42,86.3 40.6,89.6 44.2,90.8 46.2,87.3 	"/>
	<path class="st0" d="M30.4,94.8l-2.1-1.2c0,0-1.6,26.8-1.6,27.1s0,0.6,0.1,0.6c0.1,0,0.2-0.6,0.2-0.9C27.1,120,30.4,94.8,30.4,94.8
		z"/>
	<path class="st0" d="M36.9,98.5c0,0-7,16.5-7.2,17.1c-0.1,0.2,0,0.3,0,0.3c0,0,0.1,0,0.2-0.2l9.2-16L36.9,98.5z"/>
	<path class="st0" d="M34.7,97.2l-2-1.2c0,0-4.8,22.8-5,23.1c0,0.1,0,0.1,0,0.2c0,0.1,0,0.2,0.2,0c0.1-0.3,0.3-0.7,0.3-1.1
		C28.2,118.1,34.7,97.2,34.7,97.2z"/>
</g>
<g id="f28d1754-644c-41ea-8404-fcf57b64ed08">
	<path d="M83,81.6C81.4,80,79.1,79,76.8,79c-4.6,0-8.3,3.7-8.3,8.3s3.7,8.3,8.3,8.3c2.3-0.1,4.5-1,6.1-2.7v2.8c-1.8,1.3-3.9,2-6,2
		c-5.8,0.2-10.6-4.2-10.8-10c-0.2-5.8,4.2-10.6,10-10.8c0.3,0,0.6,0,0.8,0c2.2,0,4.3,0.7,6,2L83,81.6z"/>
	<path d="M88.7,77v9.3l0,0c0.8-1.2,2.1-1.9,3.6-1.9c3.5,0,4.3,2.5,4.3,5.5v7.4h-2.1v-7c0-2-0.2-3.8-2.6-3.8c-2.9,0-3.1,2.7-3.1,5v6
		h-2.1V77H88.7z"/>
	<path d="M103.6,80.1c-0.1,0.8-0.8,1.4-1.7,1.4c-0.7-0.1-1.3-0.6-1.4-1.4c-0.1-0.8,0.5-1.6,1.4-1.7c0.8-0.1,1.6,0.5,1.7,1.4
		C103.6,79.9,103.6,80,103.6,80.1z M103.1,97.4H101V84.8h2.1V97.4z"/>
	<path d="M116.8,88.6L116.8,88.6c-0.9-1.3-2.3-2.1-3.9-2.1c-2.5,0-4.5,2.1-4.4,4.5c0,0,0,0.1,0,0.1c-0.1,2.4,1.7,4.5,4.1,4.6
		c0.1,0,0.1,0,0.2,0c1.6,0,3.2-0.8,4.1-2.2l0,0v2.9c-1.2,0.8-2.5,1.3-4,1.3c-3.6,0.1-6.6-2.8-6.6-6.3c0-0.1,0-0.2,0-0.3
		c0-3.7,3-6.6,6.6-6.6c1.4,0,2.7,0.5,3.9,1.3L116.8,88.6z"/>
	<path d="M131.5,97.4h-2.1v-1.7l0,0c-1,1.3-2.6,2.1-4.3,2.1c-3.4-0.1-6.1-2.9-6-6.3c0-0.1,0-0.2,0-0.3c-0.3-3.4,2.2-6.4,5.6-6.6
		c0.1,0,0.3,0,0.4,0c1.7,0,3.2,0.8,4.3,2.1l0,0v-1.8h2.1L131.5,97.4z M121.1,91c-0.3,2.4,1.5,4.5,3.9,4.8c0.1,0,0.2,0,0.2,0
		c2.4,0,4.3-2,4.2-4.4c0-0.1,0-0.3,0-0.4c0.2-2.3-1.5-4.3-3.8-4.5c-0.1,0-0.3,0-0.4,0C122.9,86.6,121.1,88.5,121.1,91
		C121.1,90.9,121.1,91,121.1,91L121.1,91z"/>
	<path d="M146.6,96.8c0.2,1.9-0.2,3.8-1.3,5.4c-1.2,1.4-3,2.3-4.9,2.2c-3.2,0.2-5.9-2.2-6.2-5.3c0-0.1,0-0.3,0-0.4h2.1
		c0,2.1,1.6,3.8,3.6,3.8c0.1,0,0.2,0,0.4,0c3.3,0,4-2.4,4-5.3v-1.5l0,0c-1.1,1.3-2.7,2.1-4.4,2.1c-3.4-0.1-6.1-2.9-6-6.3
		c0-0.1,0-0.2,0-0.4c-0.2-3.4,2.4-6.4,5.8-6.6c0.1,0,0.2,0,0.2,0c1.7,0,3.2,0.8,4.2,2.2l0,0v-1.8h2.1L146.6,96.8z M136.3,91
		c-0.3,2.4,1.5,4.5,3.9,4.8c0.1,0,0.2,0,0.2,0c2.4,0,4.3-2,4.2-4.4c0-0.1,0-0.3,0-0.4c0.2-2.3-1.5-4.3-3.8-4.5c-0.1,0-0.3,0-0.4,0
		C138,86.6,136.2,88.5,136.3,91C136.3,90.9,136.3,91,136.3,91L136.3,91z"/>
	<path d="M149.5,91.1c0-3.7,3-6.6,6.6-6.6c3.7,0,6.6,3,6.6,6.6c0,3.7-3,6.6-6.6,6.6C152.5,97.8,149.5,94.8,149.5,91.1z M151.7,91.1
		c0.1,2.5,2.2,4.4,4.7,4.3c2.5-0.1,4.4-2.2,4.3-4.7c-0.1-2.4-2.1-4.3-4.5-4.3c-2.5,0-4.4,2-4.5,4.4C151.7,91,151.7,91,151.7,91.1
		L151.7,91.1z"/>
	<path d="M170.4,90v2h-5.5v-2H170.4z"/>
	<path d="M184.4,77.3h3l-9.5,9.4l9.8,10.8h-3.1l-8.3-9.2l-0.6,0.6v8.7h-2.2V77.3h2.2v8.6L184.4,77.3z"/>
	<path d="M190,91.6c-0.1,2.2,1.7,4.1,4,4.2c0.1,0,0.1,0,0.2,0c1.7,0,3.2-1.1,3.8-2.6l1.8,1c-1.1,2.2-3.4,3.5-5.8,3.5
		c-3.4,0-6.1-2.6-6.2-6c0-0.2,0-0.3,0-0.5c0-3.7,2.2-6.8,6.1-6.8s6.2,3.3,6,7.1L190,91.6z M197.6,89.8c-0.2-1.9-1.8-3.3-3.7-3.3
		c-1.9,0-3.5,1.4-3.8,3.3H197.6z"/>
	<path d="M204.8,86.4L204.8,86.4c0.8-1.2,2.1-1.9,3.6-1.9c3.5,0,4.3,2.5,4.3,5.5v7.4h-2.1v-7.1c0-2-0.2-3.8-2.6-3.8
		c-2.9,0-3.1,2.7-3.1,5v6h-2.1V84.8h2.1L204.8,86.4z"/>
	<path d="M218.8,97.4h-2.1V86.8h-1.3v-2h1.3v-4.5h2.1v4.5h2.2v2h-2.2V97.4z"/>
	<path d="M245,81.6c-1.6-1.7-3.8-2.7-6.2-2.7c-4.6,0-8.3,3.7-8.3,8.3s3.7,8.3,8.3,8.3c2.3-0.1,4.5-1,6.1-2.7v2.8c-1.8,1.3-3.9,2-6,2
		c-5.8,0.2-10.6-4.2-10.8-10c-0.2-5.8,4.2-10.6,10-10.8c0.3,0,0.6,0,0.8,0c2.2,0,4.3,0.7,6,2L245,81.6z"/>
	<path d="M247.5,91.1c0-3.7,3-6.6,6.6-6.6c3.7,0,6.6,3,6.6,6.6c0,3.7-3,6.6-6.6,6.6C250.5,97.8,247.5,94.8,247.5,91.1z M249.7,91.1
		c0.1,2.5,2.2,4.4,4.7,4.3s4.4-2.2,4.3-4.7c-0.1-2.4-2.1-4.3-4.5-4.3c-2.5,0-4.4,2-4.5,4.4C249.7,91,249.7,91,249.7,91.1L249.7,91.1
		z"/>
	<path d="M265.6,97.4h-2.1V77h2.1V97.4z"/>
	<path d="M271.5,97.4h-2.1V77h2.1V97.4z"/>
	<path d="M276.4,91.6c-0.1,2.2,1.7,4.1,4,4.2c0.1,0,0.1,0,0.2,0c1.7,0,3.2-1.1,3.8-2.6l1.8,1c-1.1,2.2-3.3,3.6-5.8,3.5
		c-3.4,0-6.1-2.6-6.2-6c0-0.2,0-0.3,0-0.5c0-3.7,2.2-6.8,6.1-6.8s6.2,3.3,6,7.1H276.4z M284.1,89.8c-0.3-1.9-1.8-3.3-3.7-3.3
		c-1.9,0-3.5,1.4-3.8,3.3H284.1z"/>
	<path d="M300.4,96.8c0.2,1.9-0.2,3.8-1.3,5.4c-1.2,1.4-3,2.3-4.9,2.2c-3.2,0.2-5.9-2.2-6.2-5.3c0-0.1,0-0.3,0-0.4h2.2
		c0,2.1,1.6,3.8,3.6,3.8c0.1,0,0.2,0,0.4,0c3.3,0,4-2.4,4-5.3v-1.5l0,0c-1.1,1.3-2.7,2.1-4.4,2.1c-3.4-0.1-6.1-2.9-6-6.3
		c0-0.1,0-0.2,0-0.4c-0.2-3.4,2.4-6.4,5.8-6.6c0.1,0,0.2,0,0.2,0c1.7,0,3.2,0.9,4.2,2.2l0,0v-1.8h2.1L300.4,96.8z M290.1,91
		c-0.3,2.4,1.5,4.5,3.9,4.8c0.1,0,0.2,0,0.2,0c2.4,0,4.3-2,4.2-4.4c0-0.1,0-0.3,0-0.4c0.2-2.3-1.5-4.3-3.8-4.5c-0.1,0-0.3,0-0.4,0
		C291.8,86.6,290,88.5,290.1,91C290.1,90.9,290.1,91,290.1,91L290.1,91z"/>
	<path d="M305.5,91.6c-0.1,2.2,1.7,4.1,4,4.2c0.1,0,0.1,0,0.2,0c1.7,0,3.2-1.1,3.8-2.6l1.8,1c-1.1,2.2-3.3,3.6-5.8,3.5
		c-3.4,0.1-6.1-2.6-6.2-6c0-0.2,0-0.3,0-0.5c0-3.7,2.2-6.8,6.1-6.8c3.9,0,6.2,3.3,6,7.1H305.5z M313.1,89.8
		c-0.2-1.9-1.8-3.3-3.7-3.3c-1.9,0-3.5,1.4-3.8,3.3H313.1z"/>
	<path d="M325.2,91.1c0-3.7,3-6.6,6.6-6.6s6.6,3,6.6,6.6c0,3.7-3,6.6-6.6,6.6S325.2,94.8,325.2,91.1z M327.3,91.1
		c0.1,2.5,2.2,4.4,4.7,4.3c2.5-0.1,4.4-2.2,4.3-4.7c-0.1-2.4-2.1-4.3-4.5-4.3c-2.5,0-4.5,1.9-4.5,4.4
		C327.3,90.9,327.3,91,327.3,91.1L327.3,91.1z"/>
	<path d="M343.5,97.4h-2.1V86.8h-1.2v-2h1.2v-3.3c-0.1-1.1,0.1-2.3,0.6-3.3c0.7-1,2-1.6,3.2-1.5c0.5,0,1,0.1,1.5,0.3v2.2
		c-0.5-0.2-1-0.3-1.4-0.3c-1.7,0-1.7,1.2-1.7,3.4v2.6h3.2v2h-3.3V97.4z"/>
	<path d="M358.7,95.3h5.6v2.1h-7.8V77.3h2.2V95.3z"/>
	<path d="M377.8,97.4h-2.1v-1.7l0,0c-1,1.3-2.6,2.1-4.3,2.1c-3.4-0.1-6.1-2.9-6-6.3c0-0.1,0-0.2,0-0.3c-0.3-3.4,2.2-6.4,5.6-6.6
		c0.1,0,0.3,0,0.4,0c1.7,0,3.2,0.8,4.3,2.1l0,0v-1.8h2.1L377.8,97.4z M367.4,91c-0.3,2.4,1.5,4.5,3.9,4.8c0.1,0,0.2,0,0.2,0
		c2.4,0,4.3-2,4.2-4.4c0-0.1,0-0.3,0-0.4c0.2-2.3-1.5-4.3-3.8-4.5c-0.1,0-0.3,0-0.4,0C369.1,86.6,367.3,88.5,367.4,91
		C367.4,90.9,367.4,91,367.4,91L367.4,91z"/>
	<path d="M385.8,93.3l3.9-9.5l3.9,9.5l3.7-8.5h2.4l-6.2,13.5l-3.9-9.3l-3.9,9.3l-6.2-13.4h2.4L385.8,93.3z"/>
</g>
<g id="_x39_b02ccce-bcf7-4f37-997f-a05f1ef29edf">
	<path class="st1" d="M228.1,112.5c-2.4,0-4.3,1.9-4.4,4.3c0,2.4,1.9,4.3,4.3,4.4c2.4,0,4.3-1.9,4.4-4.3c0,0,0,0,0,0
		C232.4,114.4,230.5,112.5,228.1,112.5C228.1,112.5,228.1,112.5,228.1,112.5z M228.1,111.4c3,0,5.4,2.5,5.4,5.5s-2.5,5.4-5.5,5.4
		c-3,0-5.3-2.4-5.4-5.4C222.6,113.8,225.1,111.4,228.1,111.4z"/>
	<polygon class="st0" points="69.3,111.6 68.1,111.6 68.1,122 69.3,122 69.3,111.6 	"/>
	<polygon class="st0" points="73.7,111.6 72.5,111.6 72.5,122 78.6,122 78.6,120.9 73.7,120.9 73.7,111.6 	"/>
	<polygon class="st0" points="81.8,111.6 80.6,111.6 80.6,122 86.6,122 86.6,120.9 81.8,120.9 81.8,111.6 	"/>
	<polygon class="st0" points="90.5,111.6 89.3,111.6 89.3,122 90.5,122 90.5,111.6 	"/>
	<polygon class="st0" points="94.3,122 95.5,122 95.5,113.9 103.6,122.5 103.6,111.6 102.5,111.6 102.5,119.6 94.3,111.1 94.3,122 	
		"/>
	<path class="st1" d="M111.3,111.4c-3,0-5.4,2.5-5.4,5.5c0,3,2.5,5.4,5.5,5.4c3,0,5.3-2.4,5.4-5.4
		C116.8,113.8,114.3,111.4,111.3,111.4z M111.3,112.4c2.4,0,4.3,1.9,4.4,4.3s-1.9,4.3-4.3,4.4c-2.4,0-4.3-1.9-4.4-4.3c0,0,0,0,0,0
		C107,114.4,108.9,112.5,111.3,112.4C111.3,112.4,111.3,112.4,111.3,112.4z"/>
	<polygon class="st0" points="120.7,111.6 119.6,111.6 119.6,122 120.7,122 120.7,111.6 	"/>
	<polygon class="st0" points="139.9,111.6 138.8,111.6 138.8,122 139.9,122 139.9,111.6 	"/>
	<polygon class="st0" points="143.8,122 145,122 145,113.9 153.1,122.5 153.1,111.6 152,111.6 152,119.6 143.8,111.1 143.8,122 	"/>
	<path class="st0" d="M162.3,113c-0.7-1-1.8-1.7-3.1-1.7c-1.6-0.1-2.9,1.1-3.1,2.6c0,0,0,0,0,0c0,1.5,0.7,1.9,2,2.4l1.2,0.5
		c1,0.4,2.2,0.9,2.2,2.1c-0.1,1.2-1.1,2.1-2.3,2c-1.2,0-2.2-0.8-2.5-1.9l-1.1,0.3c0.4,1.6,1.9,2.8,3.6,2.7c1.8,0,3.4-1.4,3.4-3.2
		c0-1.7-1.1-2.3-2.5-2.9l-1-0.4c-0.7-0.3-1.9-0.6-1.9-1.5c0.1-1,0.9-1.7,1.9-1.7c0.9,0,1.7,0.4,2.2,1.1L162.3,113L162.3,113z"/>
	<path class="st0" d="M129.9,113c-0.7-1-1.8-1.7-3.1-1.7c-1.6-0.1-2.9,1.1-3,2.7c0,1.5,0.7,1.9,2,2.4l1.2,0.5c1,0.4,2.2,0.9,2.2,2.1
		c-0.1,1.2-1.1,2.1-2.3,2c-1.2,0-2.2-0.8-2.5-1.9l-1.1,0.3c0.4,1.6,1.9,2.8,3.6,2.7c1.8,0,3.3-1.4,3.3-3.2c0-1.7-1.1-2.3-2.5-2.9
		l-1-0.4c-0.7-0.3-1.9-0.6-1.9-1.5c0.1-1,0.9-1.7,1.9-1.7c0.9,0,1.7,0.4,2.2,1.1L129.9,113L129.9,113z"/>
	<polygon class="st0" points="168.8,112.6 172.2,112.6 172.2,111.6 164.3,111.6 164.3,112.6 167.6,112.6 167.6,122 168.8,122 
		168.8,112.6 	"/>
	<polygon class="st0" points="176,111.6 174.9,111.6 174.9,122 176,122 176,111.6 	"/>
	<polygon class="st0" points="183.2,112.6 186.6,112.6 186.6,111.6 178.7,111.6 178.7,112.6 182.1,112.6 182.1,122 183.2,122 
		183.2,112.6 	"/>
	<path class="st0" d="M190.4,111.6h-1.2v6.5c-0.1,1.1,0.2,2.2,1,3c0.7,0.7,1.7,1.1,2.7,1.1c1.1,0,2.1-0.4,2.8-1.2
		c0.7-0.8,1-1.8,0.9-2.9v-6.5h-1.2v6.2c0.1,0.8-0.1,1.7-0.5,2.4c-0.5,0.6-1.3,0.9-2,0.9c-0.8,0-1.6-0.4-2.1-1
		c-0.4-0.7-0.6-1.5-0.5-2.3V111.6z"/>
	<polygon class="st0" points="203.3,112.6 206.7,112.6 206.7,111.6 198.8,111.6 198.8,112.6 202.1,112.6 202.1,122 203.3,122 
		203.3,112.6 	"/>
	<polygon class="st0" points="259.6,122 265.8,122 265.8,120.9 260.8,120.9 260.8,117.2 265.7,117.2 265.7,116.1 260.8,116.1 
		260.8,112.6 265.8,112.6 265.8,111.6 259.6,111.6 259.6,122 	"/>
	<polygon class="st0" points="209.3,122 215.5,122 215.5,120.9 210.5,120.9 210.5,117.2 215.4,117.2 215.4,116.1 210.5,116.1 
		210.5,112.6 215.5,112.6 215.5,111.6 209.3,111.6 209.3,122 	"/>
	<polygon class="st0" points="253.7,112.6 257.1,112.6 257.1,111.6 249.2,111.6 249.2,112.6 252.5,112.6 252.5,122 253.7,122 
		253.7,112.6 	"/>
	<path class="st0" d="M276.7,112.4c-0.9-0.7-2-1-3.1-1c-3,0-5.4,2.4-5.4,5.4c0,3,2.4,5.4,5.4,5.4c1.1,0,2.2-0.4,3.1-1v-1.4
		c-0.8,0.9-2,1.4-3.2,1.4c-2.4,0-4.3-1.9-4.3-4.3c0-2.4,1.9-4.3,4.3-4.3c1.2,0,2.4,0.5,3.2,1.4L276.7,112.4L276.7,112.4z"/>
	<polygon class="st0" points="281.4,116.1 281.4,111.5 280.3,111.5 280.3,122 281.4,122 281.4,117.2 287.2,117.2 287.2,122 
		288.3,122 288.3,111.5 287.2,111.5 287.2,116.1 281.4,116.1 	"/>
	<polygon class="st0" points="291.9,122 293.1,122 293.1,113.9 301.2,122.5 301.2,111.6 300.1,111.6 300.1,119.6 291.9,111.1 
		291.9,122 	"/>
	<path class="st1" d="M309.2,111.4c-3,0-5.4,2.5-5.4,5.4c0,3,2.5,5.4,5.4,5.4c3,0,5.4-2.4,5.4-5.4
		C314.6,113.8,312.1,111.4,309.2,111.4z M309.2,112.4c2.4,0,4.3,1.9,4.4,4.3s-1.9,4.3-4.3,4.4c-2.4,0-4.3-1.9-4.4-4.3c0,0,0,0,0,0
		C304.8,114.4,306.8,112.5,309.2,112.4C309.1,112.4,309.1,112.4,309.2,112.4z"/>
	<polygon class="st0" points="318.5,111.6 317.4,111.6 317.4,122 323.4,122 323.4,120.9 318.5,120.9 318.5,111.6 	"/>
	<path class="st1" d="M329.7,111.4c-3,0-5.4,2.5-5.3,5.5c0,3,2.5,5.4,5.5,5.3c2.9,0,5.3-2.4,5.3-5.4
		C335.2,113.8,332.7,111.4,329.7,111.4L329.7,111.4z M329.7,112.4c2.4,0,4.3,1.9,4.4,4.3s-1.9,4.3-4.3,4.4c-2.4,0-4.3-1.9-4.4-4.3
		c0,0,0,0,0,0C325.4,114.4,327.3,112.5,329.7,112.4C329.7,112.4,329.7,112.4,329.7,112.4z"/>
	<path class="st0" d="M343.2,116.7v1.1h3.1c-0.1,1.9-1.8,3.4-3.7,3.3c-1.1,0-2.2-0.5-3-1.3c-0.8-0.8-1.2-1.8-1.2-2.9
		c0-2.4,1.9-4.3,4.3-4.4c1.5,0,2.8,0.7,3.6,2l0.8-0.8c-1.7-2.4-5.1-3-7.6-1.3c-2.4,1.7-3,5.1-1.3,7.6c1,1.4,2.6,2.3,4.4,2.3
		c1.5,0,2.9-0.6,3.9-1.7c0.8-1,1.2-2.4,1.1-3.7L343.2,116.7z"/>
	<polygon class="st0" points="352.9,117.5 352.9,122 354,122 354,117.5 357.5,111.6 356.1,111.6 353.5,116.2 350.8,111.6 
		349.4,111.6 352.9,117.5 	"/>
	<polygon class="st0" points="236.3,122.1 237.5,122.1 237.4,117.2 242.3,117.2 242.3,116.1 237.4,116.1 237.4,112.7 242.4,112.7 
		242.4,111.7 236.3,111.7 236.3,122.1 	"/>
</g>
</svg>
