<?xml version="1.0" encoding="utf-8"?>
<!-- Generator: Adobe Illustrator 25.2.1, SVG Export Plug-In . SVG Version: 6.00 Build 0)  -->
<svg version="1.1" id="Layer_1" xmlns="http://www.w3.org/2000/svg" xmlns:xlink="http://www.w3.org/1999/xlink" x="0px" y="0px"
	 viewBox="0 0 400 45.6" style="enable-background:new 0 0 400 45.6;" xml:space="preserve">
<style type="text/css">
	.st0{fill:#8A8D99;}
	.st1{fill-rule:evenodd;clip-rule:evenodd;fill:#8A8D99;}
</style>
<g id="aaa68c32-ca6e-4991-bace-86d5eeddb310">
	<polygon class="st0" points="28.5,14.2 30.8,15.3 31.1,12.7 28.6,11.6 	"/>
	<path class="st0" d="M3.8,0.7c-0.2,0-0.3,0.1,0,0.2l22.5,7.2V5.7L4.8,0.9C4.5,0.8,4.1,0.8,3.8,0.7z"/>
	<polygon class="st0" points="31.9,7.1 29,6.4 28.8,9 31.5,9.9 	"/>
	<polygon class="st0" points="32.7,0.7 29.3,0.7 29.2,3.6 32.3,4 	"/>
	<polygon class="st0" points="38.2,8.6 35,7.8 34.4,10.8 37.3,11.7 	"/>
	<path class="st0" d="M26.3,0.7H7.8c-0.1,0-0.2,0-0.2,0s0,0.1,0.2,0.2l18.5,2.4V0.7z"/>
	<polygon class="st0" points="33.2,16.5 35.5,17.7 36.3,14.8 33.8,13.7 	"/>
	<polygon class="st0" points="40.6,0.7 36.6,0.7 35.8,4.4 39.3,4.9 	"/>
	<polygon class="st0" points="39.2,16 38,18.9 40.6,20.2 42.3,17.2 	"/>
	<path class="st0" d="M1.6,0.7C1.4,0.9,1.7,1,2,1.1l24.3,12v-2.4L2.4,1C2,0.8,1.7,0.6,1.6,0.7z"/>
	<polygon class="st0" points="45.6,0.7 43.6,5.4 48.7,6.1 51.8,0.7 	"/>
	<path class="st0" d="M26.3,45c0-0.2,0-29.6,0-29.6L0.5,0.8C0.1,0.6,0.3,0.9,0.4,1.1C2.7,5.2,26,45,26,45.1S26.3,45.4,26.3,45z"/>
	<polygon class="st0" points="42,9.4 40.6,12.7 44.2,13.9 46.2,10.4 	"/>
	<path class="st0" d="M30.4,17.9l-2.1-1.2c0,0-1.6,26.8-1.6,27.1s0,0.6,0.1,0.6s0.2-0.6,0.2-0.9C27.1,43.1,30.4,17.9,30.4,17.9z"/>
	<path class="st0" d="M36.9,21.6c0,0-7,16.5-7.2,17.1c-0.1,0.2,0,0.3,0,0.3s0.1,0,0.2-0.2l9.2-16L36.9,21.6z"/>
	<path class="st0" d="M34.7,20.3l-2-1.2c0,0-4.8,22.8-5,23.1c0,0.1,0,0.1,0,0.2s0,0.2,0.2,0c0.1-0.3,0.3-0.7,0.3-1.1
		C28.2,41.2,34.7,20.3,34.7,20.3z"/>
</g>
<g id="f28d1754-644c-41ea-8404-fcf57b64ed08">
	<path class="st0" d="M83,4.7c-1.6-1.6-3.9-2.6-6.2-2.6c-4.6,0-8.3,3.7-8.3,8.3s3.7,8.3,8.3,8.3c2.3-0.1,4.5-1,6.1-2.7v2.8
		c-1.8,1.3-3.9,2-6,2c-5.8,0.2-10.6-4.2-10.8-10C65.9,5,70.3,0.2,76.1,0c0.3,0,0.6,0,0.8,0c2.2,0,4.3,0.7,6,2L83,4.7z"/>
	<path class="st0" d="M88.7,0.1v9.3l0,0c0.8-1.2,2.1-1.9,3.6-1.9c3.5,0,4.3,2.5,4.3,5.5v7.4h-2.1v-7c0-2-0.2-3.8-2.6-3.8
		c-2.9,0-3.1,2.7-3.1,5v6h-2.1V0.1H88.7z"/>
	<path class="st0" d="M103.6,3.2c-0.1,0.8-0.8,1.4-1.7,1.4c-0.7-0.1-1.3-0.6-1.4-1.4s0.5-1.6,1.4-1.7c0.8-0.1,1.6,0.5,1.7,1.4
		C103.6,3,103.6,3.1,103.6,3.2z M103.1,20.5H101V7.9h2.1V20.5z"/>
	<path class="st0" d="M116.8,11.7L116.8,11.7c-0.9-1.3-2.3-2.1-3.9-2.1c-2.5,0-4.5,2.1-4.4,4.5v0.1c-0.1,2.4,1.7,4.5,4.1,4.6
		c0.1,0,0.1,0,0.2,0c1.6,0,3.2-0.8,4.1-2.2l0,0v2.9c-1.2,0.8-2.5,1.3-4,1.3c-3.6,0.1-6.6-2.8-6.6-6.3c0-0.1,0-0.2,0-0.3
		c0-3.7,3-6.6,6.6-6.6c1.4,0,2.7,0.5,3.9,1.3L116.8,11.7z"/>
	<path class="st0" d="M131.5,20.5h-2.1v-1.7l0,0c-1,1.3-2.6,2.1-4.3,2.1c-3.4-0.1-6.1-2.9-6-6.3c0-0.1,0-0.2,0-0.3
		c-0.3-3.4,2.2-6.4,5.6-6.6c0.1,0,0.3,0,0.4,0c1.7,0,3.2,0.8,4.3,2.1l0,0V8h2.1V20.5z M121.1,14.1c-0.3,2.4,1.5,4.5,3.9,4.8
		c0.1,0,0.2,0,0.2,0c2.4,0,4.3-2,4.2-4.4c0-0.1,0-0.3,0-0.4c0.2-2.3-1.5-4.3-3.8-4.5c-0.1,0-0.3,0-0.4,0
		C122.9,9.7,121.1,11.6,121.1,14.1C121.1,14,121.1,14.1,121.1,14.1L121.1,14.1z"/>
	<path class="st0" d="M146.6,19.9c0.2,1.9-0.2,3.8-1.3,5.4c-1.2,1.4-3,2.3-4.9,2.2c-3.2,0.2-5.9-2.2-6.2-5.3c0-0.1,0-0.3,0-0.4h2.1
		c0,2.1,1.6,3.8,3.6,3.8c0.1,0,0.2,0,0.4,0c3.3,0,4-2.4,4-5.3v-1.5l0,0c-1.1,1.3-2.7,2.1-4.4,2.1c-3.4-0.1-6.1-2.9-6-6.3
		c0-0.1,0-0.2,0-0.4c-0.2-3.4,2.4-6.4,5.8-6.6c0.1,0,0.2,0,0.2,0c1.7,0,3.2,0.8,4.2,2.2l0,0V8h2.1L146.6,19.9z M136.3,14.1
		c-0.3,2.4,1.5,4.5,3.9,4.8c0.1,0,0.2,0,0.2,0c2.4,0,4.3-2,4.2-4.4c0-0.1,0-0.3,0-0.4c0.2-2.3-1.5-4.3-3.8-4.5c-0.1,0-0.3,0-0.4,0
		C138,9.7,136.2,11.6,136.3,14.1C136.3,14,136.3,14.1,136.3,14.1L136.3,14.1z"/>
	<path class="st0" d="M149.5,14.2c0-3.7,3-6.6,6.6-6.6c3.7,0,6.6,3,6.6,6.6c0,3.7-3,6.6-6.6,6.6C152.5,20.9,149.5,17.9,149.5,14.2z
		 M151.7,14.2c0.1,2.5,2.2,4.4,4.7,4.3s4.4-2.2,4.3-4.7c-0.1-2.4-2.1-4.3-4.5-4.3c-2.5,0-4.4,2-4.5,4.4
		C151.7,14.1,151.7,14.1,151.7,14.2L151.7,14.2z"/>
	<path class="st0" d="M170.4,13.1v2h-5.5v-2H170.4z"/>
	<path class="st0" d="M184.4,0.4h3l-9.5,9.4l9.8,10.8h-3.1l-8.3-9.2l-0.6,0.6v8.7h-2.2V0.4h2.2V9L184.4,0.4z"/>
	<path class="st0" d="M190,14.7c-0.1,2.2,1.7,4.1,4,4.2c0.1,0,0.1,0,0.2,0c1.7,0,3.2-1.1,3.8-2.6l1.8,1c-1.1,2.2-3.4,3.5-5.8,3.5
		c-3.4,0-6.1-2.6-6.2-6c0-0.2,0-0.3,0-0.5c0-3.7,2.2-6.8,6.1-6.8s6.2,3.3,6,7.1L190,14.7z M197.6,12.9c-0.2-1.9-1.8-3.3-3.7-3.3
		s-3.5,1.4-3.8,3.3H197.6z"/>
	<path class="st0" d="M204.8,9.5L204.8,9.5c0.8-1.2,2.1-1.9,3.6-1.9c3.5,0,4.3,2.5,4.3,5.5v7.4h-2.1v-7.1c0-2-0.2-3.8-2.6-3.8
		c-2.9,0-3.1,2.7-3.1,5v6h-2.1V7.9h2.1L204.8,9.5z"/>
	<path class="st0" d="M218.8,20.5h-2.1V9.9h-1.3v-2h1.3V3.4h2.1v4.5h2.2v2h-2.2V20.5z"/>
	<path class="st0" d="M245,4.7C243.4,3,241.2,2,238.8,2c-4.6,0-8.3,3.7-8.3,8.3s3.7,8.3,8.3,8.3c2.3-0.1,4.5-1,6.1-2.7v2.8
		c-1.8,1.3-3.9,2-6,2c-5.8,0.2-10.6-4.2-10.8-10s4.2-10.6,10-10.8c0.3,0,0.6,0,0.8,0c2.2,0,4.3,0.7,6,2L245,4.7z"/>
	<path class="st0" d="M247.5,14.2c0-3.7,3-6.6,6.6-6.6c3.7,0,6.6,3,6.6,6.6c0,3.7-3,6.6-6.6,6.6C250.5,20.9,247.5,17.9,247.5,14.2z
		 M249.7,14.2c0.1,2.5,2.2,4.4,4.7,4.3s4.4-2.2,4.3-4.7c-0.1-2.4-2.1-4.3-4.5-4.3c-2.5,0-4.4,2-4.5,4.4
		C249.7,14.1,249.7,14.1,249.7,14.2L249.7,14.2z"/>
	<path class="st0" d="M265.6,20.5h-2.1V0.1h2.1V20.5z"/>
	<path class="st0" d="M271.5,20.5h-2.1V0.1h2.1V20.5z"/>
	<path class="st0" d="M276.4,14.7c-0.1,2.2,1.7,4.1,4,4.2c0.1,0,0.1,0,0.2,0c1.7,0,3.2-1.1,3.8-2.6l1.8,1c-1.1,2.2-3.3,3.6-5.8,3.5
		c-3.4,0-6.1-2.6-6.2-6c0-0.2,0-0.3,0-0.5c0-3.7,2.2-6.8,6.1-6.8s6.2,3.3,6,7.1h-9.9V14.7z M284.1,12.9c-0.3-1.9-1.8-3.3-3.7-3.3
		c-1.9,0-3.5,1.4-3.8,3.3H284.1z"/>
	<path class="st0" d="M300.4,19.9c0.2,1.9-0.2,3.8-1.3,5.4c-1.2,1.4-3,2.3-4.9,2.2c-3.2,0.2-5.9-2.2-6.2-5.3c0-0.1,0-0.3,0-0.4h2.2
		c0,2.1,1.6,3.8,3.6,3.8c0.1,0,0.2,0,0.4,0c3.3,0,4-2.4,4-5.3v-1.5l0,0c-1.1,1.3-2.7,2.1-4.4,2.1c-3.4-0.1-6.1-2.9-6-6.3
		c0-0.1,0-0.2,0-0.4c-0.2-3.4,2.4-6.4,5.8-6.6c0.1,0,0.2,0,0.2,0c1.7,0,3.2,0.9,4.2,2.2l0,0V8h2.1L300.4,19.9z M290.1,14.1
		c-0.3,2.4,1.5,4.5,3.9,4.8c0.1,0,0.2,0,0.2,0c2.4,0,4.3-2,4.2-4.4c0-0.1,0-0.3,0-0.4c0.2-2.3-1.5-4.3-3.8-4.5c-0.1,0-0.3,0-0.4,0
		C291.8,9.7,290,11.6,290.1,14.1C290.1,14,290.1,14.1,290.1,14.1L290.1,14.1z"/>
	<path class="st0" d="M305.5,14.7c-0.1,2.2,1.7,4.1,4,4.2c0.1,0,0.1,0,0.2,0c1.7,0,3.2-1.1,3.8-2.6l1.8,1c-1.1,2.2-3.3,3.6-5.8,3.5
		c-3.4,0.1-6.1-2.6-6.2-6c0-0.2,0-0.3,0-0.5c0-3.7,2.2-6.8,6.1-6.8s6.2,3.3,6,7.1h-9.9V14.7z M313.1,12.9c-0.2-1.9-1.8-3.3-3.7-3.3
		c-1.9,0-3.5,1.4-3.8,3.3H313.1z"/>
	<path class="st0" d="M325.2,14.2c0-3.7,3-6.6,6.6-6.6s6.6,3,6.6,6.6c0,3.7-3,6.6-6.6,6.6S325.2,17.9,325.2,14.2z M327.3,14.2
		c0.1,2.5,2.2,4.4,4.7,4.3s4.4-2.2,4.3-4.7c-0.1-2.4-2.1-4.3-4.5-4.3c-2.5,0-4.5,1.9-4.5,4.4C327.3,14,327.3,14.1,327.3,14.2
		L327.3,14.2z"/>
	<path class="st0" d="M343.5,20.5h-2.1V9.9h-1.2v-2h1.2V4.6c-0.1-1.1,0.1-2.3,0.6-3.3c0.7-1,2-1.6,3.2-1.5c0.5,0,1,0.1,1.5,0.3v2.2
		c-0.5-0.2-1-0.3-1.4-0.3c-1.7,0-1.7,1.2-1.7,3.4V8h3.2v2h-3.3L343.5,20.5L343.5,20.5z"/>
	<path class="st0" d="M358.7,18.4h5.6v2.1h-7.8V0.4h2.2L358.7,18.4L358.7,18.4z"/>
	<path class="st0" d="M377.8,20.5h-2.1v-1.7l0,0c-1,1.3-2.6,2.1-4.3,2.1c-3.4-0.1-6.1-2.9-6-6.3c0-0.1,0-0.2,0-0.3
		c-0.3-3.4,2.2-6.4,5.6-6.6c0.1,0,0.3,0,0.4,0c1.7,0,3.2,0.8,4.3,2.1l0,0V8h2.1V20.5z M367.4,14.1c-0.3,2.4,1.5,4.5,3.9,4.8
		c0.1,0,0.2,0,0.2,0c2.4,0,4.3-2,4.2-4.4c0-0.1,0-0.3,0-0.4c0.2-2.3-1.5-4.3-3.8-4.5c-0.1,0-0.3,0-0.4,0
		C369.1,9.7,367.3,11.6,367.4,14.1C367.4,14,367.4,14.1,367.4,14.1L367.4,14.1z"/>
	<path class="st0" d="M385.8,16.4l3.9-9.5l3.9,9.5l3.7-8.5h2.4l-6.2,13.5l-3.9-9.3l-3.9,9.3L379.5,8h2.4L385.8,16.4z"/>
</g>
<g id="_x39_b02ccce-bcf7-4f37-997f-a05f1ef29edf">
	<path class="st1" d="M228.1,35.6c-2.4,0-4.3,1.9-4.4,4.3c0,2.4,1.9,4.3,4.3,4.4c2.4,0,4.3-1.9,4.4-4.3l0,0
		C232.4,37.5,230.5,35.6,228.1,35.6L228.1,35.6z M228.1,34.5c3,0,5.4,2.5,5.4,5.5s-2.5,5.4-5.5,5.4s-5.3-2.4-5.4-5.4
		C222.6,36.9,225.1,34.5,228.1,34.5z"/>
	<polygon class="st0" points="69.3,34.7 68.1,34.7 68.1,45.1 69.3,45.1 	"/>
	<polygon class="st0" points="73.7,34.7 72.5,34.7 72.5,45.1 78.6,45.1 78.6,44 73.7,44 	"/>
	<polygon class="st0" points="81.8,34.7 80.6,34.7 80.6,45.1 86.6,45.1 86.6,44 81.8,44 	"/>
	<polygon class="st0" points="90.5,34.7 89.3,34.7 89.3,45.1 90.5,45.1 	"/>
	<polygon class="st0" points="94.3,45.1 95.5,45.1 95.5,37 103.6,45.6 103.6,34.7 102.5,34.7 102.5,42.7 94.3,34.2 	"/>
	<path class="st1" d="M111.3,34.5c-3,0-5.4,2.5-5.4,5.5s2.5,5.4,5.5,5.4s5.3-2.4,5.4-5.4C116.8,36.9,114.3,34.5,111.3,34.5z
		 M111.3,35.5c2.4,0,4.3,1.9,4.4,4.3s-1.9,4.3-4.3,4.4c-2.4,0-4.3-1.9-4.4-4.3l0,0C107,37.5,108.9,35.6,111.3,35.5L111.3,35.5z"/>
	<polygon class="st0" points="120.7,34.7 119.6,34.7 119.6,45.1 120.7,45.1 	"/>
	<polygon class="st0" points="139.9,34.7 138.8,34.7 138.8,45.1 139.9,45.1 	"/>
	<polygon class="st0" points="143.8,45.1 145,45.1 145,37 153.1,45.6 153.1,34.7 152,34.7 152,42.7 143.8,34.2 	"/>
	<path class="st0" d="M162.3,36.1c-0.7-1-1.8-1.7-3.1-1.7c-1.6-0.1-2.9,1.1-3.1,2.6l0,0c0,1.5,0.7,1.9,2,2.4l1.2,0.5
		c1,0.4,2.2,0.9,2.2,2.1c-0.1,1.2-1.1,2.1-2.3,2c-1.2,0-2.2-0.8-2.5-1.9l-1.1,0.3c0.4,1.6,1.9,2.8,3.6,2.7c1.8,0,3.4-1.4,3.4-3.2
		c0-1.7-1.1-2.3-2.5-2.9l-1-0.4c-0.7-0.3-1.9-0.6-1.9-1.5c0.1-1,0.9-1.7,1.9-1.7c0.9,0,1.7,0.4,2.2,1.1L162.3,36.1L162.3,36.1z"/>
	<path class="st0" d="M129.9,36.1c-0.7-1-1.8-1.7-3.1-1.7c-1.6-0.1-2.9,1.1-3,2.7c0,1.5,0.7,1.9,2,2.4L127,40c1,0.4,2.2,0.9,2.2,2.1
		c-0.1,1.2-1.1,2.1-2.3,2c-1.2,0-2.2-0.8-2.5-1.9l-1.1,0.3c0.4,1.6,1.9,2.8,3.6,2.7c1.8,0,3.3-1.4,3.3-3.2c0-1.7-1.1-2.3-2.5-2.9
		l-1-0.4c-0.7-0.3-1.9-0.6-1.9-1.5c0.1-1,0.9-1.7,1.9-1.7c0.9,0,1.7,0.4,2.2,1.1L129.9,36.1L129.9,36.1z"/>
	<polygon class="st0" points="168.8,35.7 172.2,35.7 172.2,34.7 164.3,34.7 164.3,35.7 167.6,35.7 167.6,45.1 168.8,45.1 	"/>
	<polygon class="st0" points="176,34.7 174.9,34.7 174.9,45.1 176,45.1 	"/>
	<polygon class="st0" points="183.2,35.7 186.6,35.7 186.6,34.7 178.7,34.7 178.7,35.7 182.1,35.7 182.1,45.1 183.2,45.1 	"/>
	<path class="st0" d="M190.4,34.7h-1.2v6.5c-0.1,1.1,0.2,2.2,1,3c0.7,0.7,1.7,1.1,2.7,1.1c1.1,0,2.1-0.4,2.8-1.2
		c0.7-0.8,1-1.8,0.9-2.9v-6.5h-1.2v6.2c0.1,0.8-0.1,1.7-0.5,2.4c-0.5,0.6-1.3,0.9-2,0.9c-0.8,0-1.6-0.4-2.1-1
		c-0.4-0.7-0.6-1.5-0.5-2.3v-6.2H190.4z"/>
	<polygon class="st0" points="203.3,35.7 206.7,35.7 206.7,34.7 198.8,34.7 198.8,35.7 202.1,35.7 202.1,45.1 203.3,45.1 	"/>
	<polygon class="st0" points="259.6,45.1 265.8,45.1 265.8,44 260.8,44 260.8,40.3 265.7,40.3 265.7,39.2 260.8,39.2 260.8,35.7 
		265.8,35.7 265.8,34.7 259.6,34.7 	"/>
	<polygon class="st0" points="209.3,45.1 215.5,45.1 215.5,44 210.5,44 210.5,40.3 215.4,40.3 215.4,39.2 210.5,39.2 210.5,35.7 
		215.5,35.7 215.5,34.7 209.3,34.7 	"/>
	<polygon class="st0" points="253.7,35.7 257.1,35.7 257.1,34.7 249.2,34.7 249.2,35.7 252.5,35.7 252.5,45.1 253.7,45.1 	"/>
	<path class="st0" d="M276.7,35.5c-0.9-0.7-2-1-3.1-1c-3,0-5.4,2.4-5.4,5.4s2.4,5.4,5.4,5.4c1.1,0,2.2-0.4,3.1-1v-1.4
		c-0.8,0.9-2,1.4-3.2,1.4c-2.4,0-4.3-1.9-4.3-4.3s1.9-4.3,4.3-4.3c1.2,0,2.4,0.5,3.2,1.4V35.5L276.7,35.5z"/>
	<polygon class="st0" points="281.4,39.2 281.4,34.6 280.3,34.6 280.3,45.1 281.4,45.1 281.4,40.3 287.2,40.3 287.2,45.1 
		288.3,45.1 288.3,34.6 287.2,34.6 287.2,39.2 	"/>
	<polygon class="st0" points="291.9,45.1 293.1,45.1 293.1,37 301.2,45.6 301.2,34.7 300.1,34.7 300.1,42.7 291.9,34.2 	"/>
	<path class="st1" d="M309.2,34.5c-3,0-5.4,2.5-5.4,5.4c0,3,2.5,5.4,5.4,5.4c3,0,5.4-2.4,5.4-5.4S312.1,34.5,309.2,34.5z
		 M309.2,35.5c2.4,0,4.3,1.9,4.4,4.3s-1.9,4.3-4.3,4.4c-2.4,0-4.3-1.9-4.4-4.3l0,0C304.8,37.5,306.8,35.6,309.2,35.5
		C309.1,35.5,309.1,35.5,309.2,35.5z"/>
	<polygon class="st0" points="318.5,34.7 317.4,34.7 317.4,45.1 323.4,45.1 323.4,44 318.5,44 	"/>
	<path class="st1" d="M329.7,34.5c-3,0-5.4,2.5-5.3,5.5c0,3,2.5,5.4,5.5,5.3c2.9,0,5.3-2.4,5.3-5.4S332.7,34.5,329.7,34.5
		L329.7,34.5z M329.7,35.5c2.4,0,4.3,1.9,4.4,4.3s-1.9,4.3-4.3,4.4c-2.4,0-4.3-1.9-4.4-4.3l0,0C325.4,37.5,327.3,35.6,329.7,35.5
		L329.7,35.5z"/>
	<path class="st0" d="M343.2,39.8v1.1h3.1c-0.1,1.9-1.8,3.4-3.7,3.3c-1.1,0-2.2-0.5-3-1.3s-1.2-1.8-1.2-2.9c0-2.4,1.9-4.3,4.3-4.4
		c1.5,0,2.8,0.7,3.6,2l0.8-0.8c-1.7-2.4-5.1-3-7.6-1.3c-2.4,1.7-3,5.1-1.3,7.6c1,1.4,2.6,2.3,4.4,2.3c1.5,0,2.9-0.6,3.9-1.7
		c0.8-1,1.2-2.4,1.1-3.7L343.2,39.8z"/>
	<polygon class="st0" points="352.9,40.6 352.9,45.1 354,45.1 354,40.6 357.5,34.7 356.1,34.7 353.5,39.3 350.8,34.7 349.4,34.7 	
		"/>
	<polygon class="st0" points="236.3,45.2 237.5,45.2 237.4,40.3 242.3,40.3 242.3,39.2 237.4,39.2 237.4,35.8 242.4,35.8 
		242.4,34.8 236.3,34.8 	"/>
</g>
</svg>
