<?xml version="1.0" encoding="utf-8"?>
<!-- Generator: Adobe Illustrator 25.2.1, SVG Export Plug-In . SVG Version: 6.00 Build 0)  -->
<svg version="1.1" id="Layer_1" xmlns="http://www.w3.org/2000/svg" xmlns:xlink="http://www.w3.org/1999/xlink" x="0px" y="0px"
	 viewBox="0 0 648.9 298.9" style="enable-background:new 0 0 648.9 298.9;" xml:space="preserve">
<style type="text/css">
	.st0{fill:#FFFFFF;}
	.st1{fill:#F71319;}
</style>
<g>
	<path class="st0" d="M33,69.1"/>
	<g>
		<path class="st1" d="M145.9,295.4L8.4,157.9c-4.7-4.7-4.7-12.3,0-17L145.8,3.5c4.7-4.7,12.3-4.7,17,0L300.3,141
			c4.7,4.7,4.7,12.3,0,17L162.8,295.4C158.2,300,150.5,300,145.9,295.4z"/>
		<polygon class="st0" points="89,93.8 89,175.2 142.6,175.2 135.8,203 160.6,203 167.2,173.8 194.8,173.7 187.7,203 212,203 
			234.1,123.1 209.1,123.1 201.1,150.7 173.8,150.7 181.5,123 155.7,122.9 148.4,151 115.8,150.7 114.8,148.8 114.8,93.8 		"/>
	</g>
	<g>
		<path d="M336,37.5h12.8v46.3h22.9v10H336V37.5z"/>
		<path d="M373.8,73.7v-0.6c0-13,9.2-21.4,21.2-21.4c10.6,0,20.1,6.2,20.1,21v3.2h-29.7c0.3,6.9,4,10.8,10.2,10.8
			c5.3,0,7.9-2.3,8.6-5.8H415c-1.3,8.9-8.4,13.9-19.7,13.9C382.9,94.7,373.8,86.9,373.8,73.7z M404,68.8c-0.4-6.2-3.5-9.2-9-9.2
			c-5.1,0-8.6,3.4-9.5,9.2H404z"/>
		<path d="M418.4,94.7h11.3c0.7,3.6,3.3,6,9.1,6c6.9,0,10.4-3.6,10.4-10.1v-6.2c-2.3,4-7.2,7.6-13.2,7.6c-10,0-18-7.5-18-19.7v-0.6
			c0-11.8,7.9-20.1,18.1-20.1c6.7,0,10.7,2.9,13.1,7.1v-6.1h11.3v38c-0.1,12.2-8.2,18.4-21.7,18.4C425.6,109,419.5,103.2,418.4,94.7
			z M449.6,72.2v-0.6c0-7-3.7-11.3-9.9-11.3c-6.4,0-9.9,4.6-9.9,11.3v0.6c0,6.9,4,11.1,9.7,11.1C445.5,83.4,449.6,79.2,449.6,72.2z"
			/>
		<path d="M466.1,82.4c0-9.6,8.8-13.2,21.4-13.2h4.6v-1.7c0-4.9-1.5-7.6-6.7-7.6c-4.5,0-6.5,2.3-7,5.8h-10.8
			c0.7-9.8,8.4-14.1,18.5-14.1s17.3,4.1,17.3,15.3v26.9h-11.1v-5c-2.4,3.3-6,5.8-12.4,5.8C472.4,94.7,466.1,91.1,466.1,82.4z
			 M492.2,79.4v-3.5h-4.4c-6.6,0-10.5,1.4-10.5,5.8c0,3,1.8,5,6,5C488.3,86.7,492.2,84,492.2,79.4z"/>
		<path d="M511.5,34h11.3v59.9h-11.3V34z"/>
		<path d="M336,116.3h12.8v23h22.6v-23h12.8v56.3h-12.8v-23.2h-22.6v23.2H336V116.3z"/>
		<path d="M390.2,161.2c0-9.6,8.8-13.2,21.4-13.2h4.6v-1.7c0-4.9-1.5-7.6-6.7-7.6c-4.5,0-6.5,2.3-7,5.8h-10.8
			c0.7-9.8,8.4-14.1,18.5-14.1s17.3,4.1,17.3,15.3v26.9h-11.1v-5c-2.4,3.3-6,5.8-12.4,5.8C396.5,173.5,390.2,169.8,390.2,161.2z
			 M416.2,158.2v-3.5h-4.4c-6.6,0-10.5,1.4-10.5,5.8c0,3,1.8,5,6,5C412.4,165.5,416.2,162.8,416.2,158.2z"/>
		<path d="M432.8,152.5v-0.6c0-13.3,9.5-21.4,21.3-21.4c9.5,0,18.4,4.2,19.4,16h-10.8c-0.8-4.8-3.7-7-8.4-7c-5.9,0-9.8,4.4-9.8,12.3
			v0.6c0,8.3,3.7,12.5,10.1,12.5c4.6,0,8.3-2.7,8.8-8h10.3c-0.6,9.8-7.7,16.5-19.7,16.5C441.9,173.5,432.8,166,432.8,152.5z"/>
		<path d="M478.8,112.7h11.4v36.1l13.2-17.4h12.1l-15,18.7l16.1,22.5h-12.9l-13.6-19.5v19.5h-11.4v-59.9H478.8z"/>
		<path d="M516.1,152.5v-0.6c0-13,9.2-21.4,21.2-21.4c10.6,0,20.1,6.2,20.1,21v3.2h-29.7c0.3,6.9,4,10.8,10.2,10.8
			c5.3,0,7.9-2.3,8.6-5.8h10.8c-1.3,8.9-8.4,13.9-19.7,13.9C525.2,173.5,516.1,165.7,516.1,152.5z M546.3,147.5
			c-0.4-6.2-3.5-9.2-9-9.2c-5.1,0-8.6,3.4-9.5,9.2H546.3z"/>
		<path d="M562.9,131.4h11.4v7.9c2.6-5.5,6.6-8.4,13.3-8.5v10.6c-8.4-0.1-13.3,2.7-13.3,10.6v20.6h-11.4V131.4z"/>
		<path d="M590.1,159.7h10.6c0.5,3.7,2.3,5.8,7.2,5.8c4.4,0,6.5-1.7,6.5-4.5s-2.4-4-8.4-4.9c-10.9-1.7-15.2-4.8-15.2-12.8
			c0-8.6,7.9-12.8,16.3-12.8c9.1,0,16,3.3,17,12.8h-10.5c-0.6-3.4-2.5-5-6.5-5c-3.7,0-5.8,1.7-5.8,4.3c0,2.6,2,3.6,8,4.5
			c10.3,1.5,16,4.1,16,12.9c0,8.9-6.5,13.5-17.3,13.5C597,173.5,590.5,168.6,590.1,159.7z"/>
		<path d="M337.2,195h4.4v26.2h33.2V195h4.4v56.3h-4.4V225h-33.2v26.4h-4.4V195z"/>
		<path d="M387.9,240.3c0-9.5,9.1-12.4,19.3-12.4h8.6v-3.7c0-7.7-3.2-11-10.4-11c-6.2,0-10.6,2.7-11.6,8.7h-4.1
			c0.9-8.7,8-12.3,15.8-12.3c8.6,0,14.4,4.1,14.4,14.6v27.3h-4.2v-6.3c-2.6,4-7,6.9-13.9,6.9C393.8,252,387.9,248.1,387.9,240.3z
			 M415.8,238.1v-7h-8.4c-8.6,0-15.3,1.8-15.3,9.2c0,5.3,3.3,8.4,10.1,8.4C409.8,248.6,415.8,244.2,415.8,238.1z"/>
		<path d="M430.6,210.2h4.2v7.8c1.9-4.5,6.8-8.4,13.5-8.4c6.1,0,10.9,2.6,12.6,9.2c2.6-5.8,8.4-9.2,14.7-9.2c8,0,13.8,4.3,13.8,16.1
			v25.8h-4.2v-26c0-8.7-3.7-12.2-10.3-12.2c-6.3,0-12.8,4.5-12.8,13.1v25.1h-4.2v-26c0-8.7-3.7-12.2-10.3-12.2
			c-6.3,0-12.8,4.5-12.8,13.1v25.1h-4.2V210.2z"/>
		<path d="M504.1,242v9.4h-4.2v-60.9h4.2v29.3c2.4-5.4,8.4-10.2,15.7-10.2c10.4,0,18.5,8,18.5,20.8v0.6c0,12.9-7.9,21-18.5,21
			C511.6,252,506.3,247,504.1,242z M533.9,231.1v-0.6c0-11.3-6.7-17.4-14.6-17.4c-8,0-15.4,6.1-15.4,17.4v0.6
			c0,11.3,6.9,17.3,15.4,17.3C528.1,248.5,533.9,242.2,533.9,231.1z"/>
		<path d="M545.7,236.2v-26.1h4.2V236c0,8.7,4.1,12.4,11.3,12.4c6.7,0,13.5-4.5,13.5-13.2v-25.1h4.2v41.2h-4.2v-7.9
			c-1.9,4.5-7.2,8.5-14.4,8.5C551.7,252,545.7,247.6,545.7,236.2z"/>
		<path d="M589.8,210.2h4.2v8.7c2.3-5,6.4-9,13.9-9.2v3.9c-8,0.3-13.9,4-13.9,15v22.8h-4.2V210.2z"/>
		<path d="M611.4,253.7h4.3c1.1,5.3,5.5,8.9,14.1,8.9c8.8,0,15-4,15-14.2V240c-2.2,5-8,10-15.6,10c-10.5,0-18.6-7.7-18.6-19.7v-0.6
			c0-11.7,8.3-20.2,19.1-20.2c8.1,0,12.7,4.5,15,9.5v-8.9h4.2v38.4c-0.1,12.1-8,17.6-19.1,17.6C618,266.2,612.4,260.4,611.4,253.7z
			 M644.8,230.1v-0.6c0-10.4-6.1-16.4-14.7-16.4c-8.8,0-15.2,6.3-15.2,16.5v0.6c0,10.2,6.5,16.2,14.7,16.2
			C637.9,246.5,644.8,240.4,644.8,230.1z"/>
	</g>
</g>
</svg>
