<?xml version="1.0" encoding="utf-8"?>
<!-- Generator: Adobe Illustrator 25.2.2, SVG Export Plug-In . SVG Version: 6.00 Build 0)  -->
<svg version="1.1" id="Layer_1" xmlns="http://www.w3.org/2000/svg" xmlns:xlink="http://www.w3.org/1999/xlink" x="0px" y="0px"
	 viewBox="0 0 205.8 101" style="enable-background:new 0 0 205.8 101;" xml:space="preserve">
<style type="text/css">
	.st0{fill:#FFFFFF;}
</style>
<g id="Logo">
	<path class="st0" d="M73.2,65.6c3.5,3.4,8.2,5.4,13.1,5.5c5.5,0,10-3.3,10-8.7c0-12.6-25.1-9.4-25.1-25c0-7.2,6.4-13.5,15.6-13.5
		c8.7,0,13.4,4.9,13.4,4.9l-2.4,4.1c-3-2.7-6.9-4.2-11-4.3c-6.4,0-10.6,4.2-10.6,8.6c0,11.9,25.1,8.5,25.1,25
		c0,7.5-5.8,13.6-15.2,13.6c-6,0.1-11.7-2.2-15.9-6.4L73.2,65.6z"/>
	<path class="st0" d="M114.3,24.8h5.1l13.1,29.5c1.1,2.6,2.4,6.1,2.4,6.1h0.1c0,0,1.4-3.6,2.5-6.1l13.1-29.5h5.1l4,50.2H155
		l-2.8-35.1c-0.2-2.7-0.1-7-0.1-7h-0.1c0,0-1.5,4.4-2.6,7l-11.8,25.8h-4.6L121,39.8c-1.1-2.5-2.7-7.1-2.7-7.1h-0.1
		c0,0,0.1,4.4-0.1,7.1L115.2,75h-4.9L114.3,24.8z"/>
	<path class="st0" d="M172.9,24.8h17.4c9,0,15.5,5.9,15.5,15.1c0,9.4-6.5,15.4-15.5,15.4h-12.4V75h-4.9V24.8z M189.6,50.8
		c6.7,0,11.1-4.1,11.1-10.9c0-6.8-4.4-10.7-11-10.7h-11.8v21.6L189.6,50.8z"/>
	<path class="st0" d="M49,10.4c-0.8-0.2-8.4-2.4-8.6-2.6C39.7,7,39,6.3,38.2,5.6c-2.2-1.8-4.8-3.1-7.6-3.6c-2.4-0.4-4.9-0.5-7.4-0.3
		c-0.5,0-0.9-0.2-1.2-0.5c-1.3-1.3-3.4-1.5-5-0.5c-0.2,0.9-1.2,6-1.2,6c-1.2,6.3-5.8,14.3-9.7,23.2C-0.2,41.1-1.7,54.4,2,66.7
		l5.9-6.3c1.4,1.4,1.5,3.7,0.1,5.1l-4.8,5c1.8,4.5,4.2,8.8,7.3,12.6l5.7-12.1c1.8,0.9,2.6,3,1.7,4.8l-4.8,10.3
		c3.6,3.8,7.7,7,12.2,9.4l3-16.6c2,0.4,3.3,2.2,2.9,4.2l-2.5,14.1c4.2,1.9,8.7,3.1,13.3,3.7l3.2-26.2c0.8-6,1.3-10.2,1.4-11.6
		c0.3-4.9-1.1-9.8-4.8-12.7c-1.9-1.9-9.3-4.2-12-5.4c-9.1-3.2-7.8-11.8-7.1-14.9c0.3-0.3,0.7-0.4,1.2-0.4c0,0,8.3,1.5,13.6-1.4
		c1.6-0.8,2.8-2.2,3.5-3.8c0.1-0.1,0-0.2,0-0.2c0,0-0.1,0-0.1,0l-4.4-0.3c-0.9-0.1-1.7-0.3-2.6-0.5c-0.9-0.3-1.6-1-1.9-1.9
		c-0.3-0.8-0.2-1.7,0.2-2.5c0.6-1.1,1.8-2.5,3.6-2.3c0,0,6,0.5,6.7,0.6l1.4,0.3c0.2,0.4,0.9,0.6,1.2,0.2c0.5-0.6,0.8-1.2,1-1.9
		c0,0,1.6-0.2,2.9-3.2c0.2-0.5,0.3-0.9,0.5-1.4C49.7,10.8,49.6,10.6,49,10.4z"/>
	<path class="st0" d="M49.8,17.6c-0.6-0.1-0.7,0.5-0.7,0.7c-0.2,0.9-0.8,1.6-1.7,1.8c-0.7,0.3-1.4,0.4-2.2,0.5
		c-1.6,0.2-3.3,0.1-4.9-0.2c-1-0.2-2.1-0.4-3.1-0.5c-0.1,0-0.3,0-0.5-0.1c-2-0.3-2.5,1.1-2.5,1.1l0.3,0c1.8,0.1,3.7,0.4,5.5,0.7
		c1.2,0.2,2.5,0.5,3.7,0.6c1,0.1,1.9,0.1,2.9-0.1c1.9-0.3,3.3-1.9,3.5-3.8C50.1,18.2,50.3,17.7,49.8,17.6z"/>
</g>
</svg>
